<?xml version="1.0" encoding="UTF-8"?>
<!-- Generator: Adobe Illustrator 26.4.1, SVG Export Plug-In . SVG Version: 6.00 Build 0)  -->
<svg version="1.1" id="Layer_1" xmlns="http://www.w3.org/2000/svg" xmlns:xlink="http://www.w3.org/1999/xlink" x="0px" y="0px" viewBox="0 0 902.81 1327.66" style="enable-background:new 0 0 902.81 1327.66;" xml:space="preserve">
<style type="text/css">
	.st0{fill:#020304;}
	.st1{fill:#030302;}
	.st2{fill:#060503;}
	.st3{fill:#CFE1EB;}
	.st4{fill:#030203;}
	.st5{fill:#DB1C4A;}
	.st6{fill:#050403;}
	.st7{fill:#F2F2E3;}
	.st8{fill:#07090B;}
	.st9{fill:#F8D541;}
	.st10{fill:#AE1C46;}
	.st11{fill:#C8D953;}
	.st12{fill:#CD5279;}
	.st13{fill:#D590BA;}
	.st14{fill:#090909;}
	.st15{fill:#0B0B0B;}
	.st16{fill:#0F0F0F;}
	.st17{fill:#F24B59;}
	.st18{fill:#F9DBDB;}
	.st19{fill:#0D0D0D;}
	.st20{fill:#FCD862;}
	.st21{fill:#7283B0;}
	.st22{fill:#FBDDDD;}
	.st23{fill:#FCDDDD;}
	.st24{fill:#F2A069;}
	.st25{fill:#FBDCDC;}
	.st26{fill:#F6D8D8;}
	.st27{fill:#040404;}
	.st28{fill:#FDFBF0;}
	.st29{fill:#FC7C95;}
	.st30{fill:#9EC6FC;}
</style>
<g>
	<path d="M86.53,408.17c-4.8-2.77-5.57-5.15-3.27-10.36c31.28-70.93,62.57-141.86,93.86-212.79c2.49-5.63,7.14-8.12,13.41-7.08   c9,1.49,16.63,6.09,24.04,11c22.63,14.99,42.23,33.47,60.51,53.4c11.27,12.29,21.91,25.12,30.24,39.62   c2.82,4.91,5.2,10.21,6.85,15.62c2.35,7.69,0.1,13.39-8.05,16.93C233,345.38,161.99,376.47,90.95,407.49   c-0.46,0.2-0.91,0.45-1.36,0.68C88.57,408.17,87.55,408.17,86.53,408.17z M284.53,309.53c-42.07-27.09-76.39-61.42-103.34-103.37   c-5.37,12.15-10.76,24.25-15.98,36.42c-0.34,0.8,0.36,2.48,1.11,3.24c9.47,9.61,19.04,19.11,28.56,28.66   c3.19,3.21,3.44,6.78,0.79,9.45c-2.57,2.58-6.35,2.3-9.46-0.79c-6.16-6.12-12.31-12.26-18.42-18.42c-2.8-2.82-5.51-5.71-8.41-8.72   c-0.5,0.93-0.78,1.36-0.98,1.82c-8.27,18.76-16.5,37.54-24.85,56.27c-0.79,1.78-0.35,2.71,0.87,3.93   c12.68,12.61,25.35,25.23,37.91,37.95c1.55,1.57,2.73,1.49,4.51,0.7c13.71-6.06,27.47-12.04,41.2-18.05   c5.38-2.35,10.77-4.72,16.19-7.09c-0.28-0.46-0.35-0.66-0.49-0.8c-3.39-3.41-6.78-6.81-10.17-10.2c-4.05-4.06-4.66-7.71-1.76-10.55   c2.92-2.86,6.34-2.21,10.53,1.97c4.12,4.12,8.32,8.16,12.32,12.39c1.46,1.55,2.59,1.66,4.46,0.77c4.88-2.31,9.9-4.35,14.85-6.52   C270.87,315.55,277.77,312.51,284.53,309.53z M300.81,302.14c-0.54-1.85-0.72-3.18-1.3-4.31c-2.51-4.89-4.74-9.99-7.78-14.54   c-18.5-27.67-41.67-51.02-67.34-72c-8.78-7.18-17.97-13.82-28.27-18.73c-2.21-1.05-4.61-1.69-6.92-2.52   c-0.3,0.31-0.61,0.62-0.91,0.93c2.34,4.7,4.25,9.69,7.1,14.06c22.62,34.77,51.57,63.41,85.37,87.25   C286.68,296.45,292.94,300.12,300.81,302.14z M100.44,389.22c0.17,0.17,0.33,0.34,0.5,0.52c20.27-8.85,40.54-17.71,60.56-26.46   c-11.59-11.59-22.98-22.98-34.43-34.43C118.26,348.83,109.35,369.02,100.44,389.22z"/>
	<path d="M281.98,197.67c2.72,0.4,5.45,0.79,8.17,1.2c4.71,0.71,6.32-0.86,5.69-5.52c-0.33-2.43-0.78-4.85-0.9-7.29   c-0.59-11.72,7.52-19.05,19.21-17.45c2.02,0.28,4.02,0.72,6.05,0.95c4.03,0.46,5.54-1.06,5.08-5.05c-0.3-2.64-0.81-5.26-0.96-7.9   c-0.64-11.5,7.51-18.95,18.96-17.41c1.92,0.26,3.84,0.9,5.74,0.84c1.81-0.06,3.8-0.45,5.37-1.32c3.1-1.71,6.51-1.45,8.55,1.14   c2.01,2.55,1.78,5.85-0.7,8.3c-4.14,4.1-9.27,4.84-14.77,4.12c-2.23-0.29-4.43-0.78-6.67-0.94c-3.12-0.22-4.42,1.02-4.25,4.11   c0.15,2.64,0.63,5.27,0.92,7.9c1.29,11.79-7.08,19.95-18.86,18.4c-2.53-0.33-5.04-0.81-7.58-1.01c-2.66-0.21-4.08,1.2-3.87,3.87   c0.21,2.74,0.65,5.47,0.97,8.21c1.36,11.37-6.95,19.69-18.36,18.37c-1.82-0.21-3.63-0.57-5.45-0.85c-2.36-0.36-4.5-0.39-6.62,1.31   c-2.46,1.97-6.04,1.32-8.01-0.97c-2.13-2.47-2.06-5.86,0.32-8.32C273.26,198.99,277.34,197.69,281.98,197.67z"/>
	<path d="M345.61,255.58c-10.24,0.04-18.55-8.21-18.52-18.39c0.03-10.01,8.3-18.31,18.31-18.38c10.18-0.07,18.48,8.24,18.45,18.47   C363.82,247.43,355.74,255.54,345.61,255.58z M351.55,237.19c-0.01-3.37-2.67-6.08-6-6.11c-3.25-0.03-6.07,2.74-6.15,6.02   c-0.08,3.44,2.74,6.25,6.21,6.19C348.99,243.25,351.56,240.6,351.55,237.19z"/>
	<path d="M235.49,139.71c-0.2,8.93-3.56,17.9-10.53,25.42c-3,3.24-6.71,3.61-9.41,1.07c-2.7-2.55-2.61-5.86,0.25-9.23   c9.98-11.74,9.96-25.34-0.05-37.16c-2.83-3.34-2.89-6.7-0.15-9.22c2.74-2.53,6.36-2.09,9.42,1.14   C231.65,118.75,235.5,128.58,235.49,139.71z"/>
	<path d="M357.46,276.5c10.21,0.2,19.16,3.58,26.7,10.55c3.26,3.01,3.68,6.67,1.15,9.43c-2.51,2.73-6.09,2.59-9.48-0.37   c-11.15-9.75-25.5-9.76-36.67-0.03c-3.42,2.98-6.96,3.14-9.48,0.43c-2.58-2.77-2.1-6.53,1.32-9.64   C338.5,280.05,347.36,276.69,357.46,276.5z"/>
	<path d="M284.68,137.22c0,2.32,0.08,4.24-0.02,6.16c-0.17,3.49-2.46,5.87-5.68,6.06c-3.3,0.19-6.08-2.13-6.44-5.64   c-0.21-2.01-0.04-4.07-0.04-6.58c-2.14,0-4.04,0.05-5.93-0.01c-3.68-0.13-6.32-2.74-6.29-6.12c0.02-3.28,2.53-5.86,6.07-6.08   c1.91-0.12,3.83-0.02,6.09-0.02c0-2.11-0.08-3.93,0.02-5.73c0.2-3.89,2.89-6.6,6.32-6.49c3.42,0.11,5.78,2.69,5.9,6.52   c0.06,1.72,0.01,3.45,0.01,5.68c1.77,0,3.35-0.01,4.93,0c4.56,0.05,7.22,2.28,7.26,6.08c0.04,3.86-2.57,6.13-7.11,6.18   C288.26,137.24,286.73,137.22,284.68,137.22z"/>
	<path d="M382.06,109.6c0,2.96,0.06,5.91-0.01,8.86c-0.09,3.79-2.52,6.36-5.95,6.44c-3.52,0.08-6.21-2.57-6.26-6.45   c-0.09-5.91-0.09-11.82,0-17.73c0.06-3.86,2.77-6.54,6.28-6.44c3.41,0.09,5.85,2.68,5.94,6.46   C382.12,103.69,382.06,106.65,382.06,109.6z"/>
	<path d="M376.2,193c-3.05,0-6.11,0.07-9.16-0.02c-3.54-0.11-6.05-2.6-6.15-5.91c-0.1-3.3,2.33-6.15,5.82-6.24   c6.31-0.18,12.63-0.17,18.94-0.01c3.52,0.09,5.87,2.85,5.81,6.22c-0.07,3.37-2.5,5.82-6.08,5.94   C382.31,193.08,379.26,193,376.2,193z"/>
	<path d="M192.64,137.47c-0.13,3.33-2.83,5.89-6.17,5.83c-3.38-0.06-6.19-3.03-6.03-6.36c0.16-3.23,3.03-5.92,6.25-5.86   C190.11,131.15,192.77,134,192.64,137.47z"/>
	<path d="M259.56,180.66c0.05,3.51-2.61,6.22-6.08,6.2c-3.29-0.02-6.01-2.7-6.08-5.98c-0.07-3.35,2.81-6.27,6.16-6.24   C256.88,174.67,259.51,177.31,259.56,180.66z"/>
	<path d="M303.08,248.09c-3.22,0.07-6.08-2.63-6.23-5.87c-0.15-3.4,2.58-6.29,6-6.35c3.33-0.05,6.08,2.52,6.22,5.82   C309.22,245.08,306.46,248.02,303.08,248.09z"/>
	<path d="M352.17,321.47c-0.02,3.38-2.66,6.05-6.01,6.07c-3.45,0.03-6.26-2.84-6.15-6.28c0.1-3.35,2.82-5.92,6.2-5.88   C349.6,315.44,352.19,318.08,352.17,321.47z"/>
	<path d="M333.82,107.18c-0.03,3.47-2.82,6.18-6.25,6.06c-3.29-0.11-5.9-2.84-5.87-6.15c0.02-3.43,2.87-6.18,6.27-6.07   C331.27,101.14,333.85,103.84,333.82,107.18z"/>
	<path d="M388.99,223.26c-0.07,3.35-2.7,5.93-6.05,5.93c-3.45,0-6.17-2.78-6.09-6.22c0.08-3.29,2.82-5.99,6.08-5.99   C386.34,216.97,389.06,219.79,388.99,223.26z"/>
	<path d="M214.76,296.81c0.07,3.38-2.49,6.13-5.83,6.26c-3.4,0.14-6.36-2.71-6.37-6.1c-0.01-3.31,2.7-6.01,6.06-6.05   C212.06,290.88,214.7,293.41,214.76,296.81z"/>
</g>
<g>
	<path class="st0" d="M379.07,764.67c-0.84,2.77-1.62,5.55-2.55,8.29c-0.47,1.39-1.11,2.75-1.86,4.01   c-1.52,2.57-3.97,3.36-6.35,2.18c-2.4-1.19-3.28-3.53-2.09-6.34c1.66-3.94,3.08-7.87,2.95-12.27c-0.13-4.27-1.2-8.18-3.74-12.22   c-0.44,3.34-0.91,6.25-1.97,9c-3.21,8.32-10.83,13.04-19.91,12.34c-7.91-0.61-15.02-7.03-16.52-15.27   c-1.56-8.57,2.12-15.09,8.63-20.32c3.5-2.81,7.54-4.52,12.2-5.61c-7.56-8.45-16.42-14.23-26.78-17.71   c-2.79-0.94-5.7-1.55-8.56-2.24c-3.49-0.85-5.13-2.86-4.62-5.75c0.49-2.77,3.05-4.3,6.42-3.64c17.73,3.5,32.39,12.16,43.58,26.42   c3.07,3.91,6.06,7.74,9.99,10.98c6.29,5.18,9.67,12.24,10.65,20.37c0.05,0.44-0.06,0.95,0.55,1.09   C379.07,760.22,379.07,762.45,379.07,764.67z M355.74,746.66c0.16-1.3-0.15-2.94-0.65-4.54c-1.12-3.57-3.09-4.58-6.73-3.77   c-4.59,1.02-8.01,3.65-10.64,7.41c-2.18,3.12-2.01,7.49,0.33,10.66c2.3,3.12,6.42,4.52,10.1,3.43   C353.09,758.4,355.74,753.92,355.74,746.66z"/>
	<path class="st1" d="M123.22,494.92c2.86,0.86,4.31,3.05,5.4,5.64c0.71,1.7,1.85,3.26,2.36,5c1.17,3.97,3.9,5.31,7.76,5.49   c2.67,0.12,5.31,0.73,7.97,1.09c1.99,0.27,3.56,1.18,4.22,3.11c0.68,2,0.2,3.82-1.36,5.33c-2.73,2.64-5.39,5.36-8.18,7.94   c-1.22,1.12-1.65,2.18-1.28,3.87c0.78,3.52,1.3,7.1,1.91,10.65c0.37,2.13,0.11,4.1-1.76,5.49c-1.87,1.4-3.81,1.09-5.74,0.07   c-3.35-1.77-6.73-3.48-10.04-5.32c-1.19-0.66-2.13-0.67-3.32,0c-3.31,1.85-6.69,3.54-10.03,5.34c-1.95,1.05-3.88,1.28-5.74-0.07   c-1.78-1.3-2.09-3.17-1.75-5.22c0.62-3.74,1.09-7.52,1.91-11.21c0.37-1.66-0.18-2.56-1.26-3.57c-2.64-2.47-5.18-5.04-7.78-7.55   c-1.54-1.5-2.6-3.16-1.87-5.42c0.76-2.33,2.55-3.2,4.84-3.5c3.67-0.48,7.32-1.13,10.99-1.57c1.37-0.16,2.15-0.7,2.71-1.94   c1.19-2.6,2.58-5.11,3.76-7.72c1.07-2.37,2.31-4.54,4.6-5.93C122.11,494.92,122.67,494.92,123.22,494.92z M122.85,510.48   c-1.92,6.91-6.17,10.06-13.38,9.76c5.95,3.92,7.44,9.03,4.85,15.55c3.47-0.96,5.62-3.42,8.56-3.41c2.97,0.01,5.12,2.62,8.67,3.4   c-3.17-6.69-1.03-11.59,4.68-15.6C128.92,520.57,124.71,517.38,122.85,510.48z"/>
	<path class="st0" d="M200.53,494.92c5.88,2.29,8.65,6.53,7.48,11.45c-1.07,4.53-4.8,7.52-9.36,7.5c-4.31-0.02-8.14-2.99-9.14-7.1   c-1.08-4.43,0.96-8.73,5.09-10.93c0.49-0.26,1.37-0.03,1.48-0.92C197.57,494.92,199.05,494.92,200.53,494.92z"/>
	<path class="st0" d="M332.91,494.92c3.28,2.05,4.79,8.47,2.76,11.83c-1.04,1.73-2.64,2.58-4.62,2.34c-2.1-0.25-3.79-1.48-4.03-3.59   c-0.44-3.77-1.08-7.74,2.56-10.58C330.68,494.92,331.79,494.92,332.91,494.92z"/>
	<path class="st2" d="M379.07,591.7c-2.82,3.72-6.82,3.05-10.61,2.64c-2.27-0.25-3.52-2.1-3.64-4.31c-0.12-2.08,0.91-3.72,2.95-4.57   c3.84-1.6,8.91-0.3,11.3,2.9C379.07,589.47,379.07,590.58,379.07,591.7z"/>
	<path class="st3" d="M278.35,661.19c1.5,3.1,3,6.2,4.5,9.3c-3.49,1.91-4.16,3.53-2.91,7.22c1.52,4.47,2.92,8.96,3.09,13.74   c0.3,8.52-3.65,12.29-12.18,11.68c-8.1-0.58-15.46-3.52-22.54-7.21c-22.43-11.68-41.55-27.58-58.52-46.21   c-11.88-13.04-22.68-26.87-30.7-42.67c-3.78-7.44-7.07-15.11-7.43-23.61c-0.35-8.04,4.25-12.3,12.23-11.59   c4.29,0.38,5.84-0.83,6.58-5.14c6.61,1.94,13.12,4.17,19.23,7.38c3.98,2.08,7.86,4.34,11.79,6.52c-0.79,3.69-1.49,7.41-2.4,11.08   c-2.81,11.33-7.7,21.89-12.1,32.64c-1.59,3.88-0.92,6.66,1.9,7.82c2.89,1.18,5.23-0.22,6.89-4.13c0.11-0.25,0.2-0.52,0.31-0.77   c5.86-13.53,11.36-27.19,14.35-41.71c0.25,3.07,3.25,3.6,5.04,5.05c5.81,4.68,11.68,9.26,17.03,14.47c0.69,0.67,1.38,1.22,2.4,1.13   c-7.8,7.07-15.61,14.13-23.39,21.21c-0.88,0.8-1.81,1.62-2.46,2.6c-1.27,1.91-1.13,3.91,0.41,5.6c1.6,1.76,3.61,2.25,5.75,1   c1.1-0.65,2.07-1.55,3.03-2.4c7.8-6.93,15.59-13.88,23.38-20.82c4.27,4.82,9.07,9.17,12.83,14.44c-3.36,1.68-6.76,3.28-10.07,5.05   c-3.08,1.65-3.84,5.01-1.79,7.39c1.78,2.07,3.96,2.04,6.26,0.99c4.09-1.86,8.17-3.73,12.25-5.6c3.99,4.99,7.96,10,11.11,15.59   c-0.81,0.15-1.62,0.4-2.43,0.43c-11.23,0.43-22.2,2.73-33.24,4.54c-1.94,0.32-3.52,1.1-4.3,3.03c-0.68,1.69-0.45,3.26,0.67,4.69   c1.53,1.98,3.64,1.97,5.81,1.61c6.02-0.98,12.02-2.11,18.06-2.97C263.93,661.56,271.1,660.66,278.35,661.19z"/>
	<path class="st4" d="M170.48,566.69c-0.74,4.31-2.29,5.52-6.58,5.14c-7.98-0.7-12.58,3.55-12.23,11.59   c0.37,8.51,3.65,16.17,7.43,23.61c8.02,15.8,18.82,29.63,30.7,42.67c16.97,18.63,36.09,34.52,58.52,46.21   c7.08,3.69,14.43,6.62,22.54,7.21c8.53,0.62,12.48-3.15,12.18-11.68c-0.17-4.78-1.57-9.27-3.09-13.74   c-1.25-3.69-0.58-5.3,2.91-7.22c3.72,0.02,4.87,0.86,6.09,4.35c2.31,6.59,3.97,13.27,3.46,20.36c-0.6,8.41-5.71,14.18-13.72,16.86   c-10.5,3.51-20.76,7.74-31.12,11.66c-48.2,18.25-96.4,36.5-144.59,54.74c-0.78,0.29-1.56,0.57-2.37,0.78   c-3.71,0.99-6.95-1.76-6.07-5.48c2.96-12.6,6.09-25.16,9.2-37.72c0.71-2.89,2.76-3.99,5.62-3.82c3.45,1.65,4.21,3.05,3.34,6.81   c-1.56,6.75-3.21,13.47-4.82,20.21c-0.61,2.47-1.22,4.93-1.93,7.8c1.2-0.39,1.97-0.61,2.71-0.9c9.93-3.76,19.84-7.54,29.77-11.28   c7.37-2.77,7.38-2.75,1.49-7.99c-0.51-0.65-1.01-1.31-1.55-1.94c-9.56-11.27-15.53-24.15-17.45-38.85   c-0.59-4.48-1.07-8.97-1.6-13.46c0.08-5.57-0.93-11.07-1.1-16.63c-0.11-3.71,2.03-5.81,5.35-5.4c2.49,0.31,3.87,2.12,4.14,5.38   c0.73,8.77,1.36,17.55,2.24,26.3c1.61,15.87,8.21,29.41,19.43,40.72c0.25,0.25,0.59,0.42,0.89,0.63c1,0.95,2.12,1.81,2.96,2.88   c1.42,1.8,2.81,1.8,4.93,0.98c15.55-6.03,31.17-11.88,46.76-17.79c1.73-0.66,3.47-1.32,5.76-2.19c-3.01-1.48-5.46-2.69-7.92-3.89   c-10.79-6.17-20.94-13.21-29.96-21.81c-22.7-21.65-37.05-47.85-42.89-78.69c-0.15-0.82-0.36-1.63-0.48-2.45   c-0.35-2.3-0.25-4.51,1.97-5.9c2.31-1.45,4.4-0.74,6.3,0.93c0.57,1.27,0.95,2.57,1.21,3.95c5.96,32.66,21.5,59.78,47.03,81.07   c8.99,7.5,18.77,13.8,29.57,18.41c1.5,0.71,3.03,1.34,4.48,2.13c2.37,1.3,4.6,1.29,7.11,0.15c3.36-1.53,6.9-2.67,10.36-3.98   c6.38-2.42,12.77-4.84,19.61-7.44c-3.44-1.36-6.35-2.51-9.26-3.66c-1.23-0.63-2.47-1.25-3.7-1.9   c-25.09-13.13-46.34-31.05-64.82-52.34c-15.35-17.69-29.12-36.38-35.87-59.29c-0.78-4.93-1.55-9.78-0.78-14.87   c2-13.21,15.68-17.14,24.02-15.22C168.83,563.21,169.77,564.81,170.48,566.69z"/>
	<path class="st5" d="M143.39,592.8c6.76,22.91,20.52,41.6,35.87,59.29c18.48,21.29,39.73,39.21,64.82,52.34   c1.23,0.64,2.47,1.26,3.7,1.9c-0.87,0.89-2.03,1.22-3.14,1.65c-9.72,3.71-19.44,7.43-29.16,11.15   c-10.81-4.61-20.58-10.91-29.57-18.41c-25.53-21.29-41.07-48.41-47.03-81.07c-0.25-1.38-0.64-2.68-1.21-3.95   C139.57,608.07,141.48,600.43,143.39,592.8z"/>
	<path class="st6" d="M261.12,635.64c-4.08,1.87-8.17,3.74-12.25,5.6c-2.3,1.05-4.48,1.08-6.26-0.99c-2.05-2.38-1.29-5.74,1.79-7.39   c3.31-1.77,6.71-3.37,10.07-5.05c10.43-4.89,20.87-9.75,31.28-14.69c18.75-8.9,37.48-17.85,56.22-26.76   c1.49-0.71,2.98-1.6,4.74-1.17c2.22,0.54,3.6,2.06,3.78,4.27c0.2,2.5-1.31,4.06-3.52,5.1c-10.09,4.78-20.16,9.59-30.24,14.39   C298.81,617.48,280.9,626,263,634.54C262.35,634.85,261.75,635.27,261.12,635.64z"/>
	<path class="st6" d="M210.45,585.52c-2.99,14.52-8.49,28.18-14.35,41.71c-0.11,0.25-0.2,0.51-0.31,0.77   c-1.66,3.91-4,5.31-6.89,4.13c-2.82-1.15-3.49-3.93-1.9-7.82c4.4-10.74,9.29-21.31,12.1-32.64c0.91-3.67,1.6-7.38,2.4-11.08   c2.97-17.06,2.4-34.04-1.11-50.96c-0.53-2.55,0.11-4.59,2.56-5.8c2.97-1.46,5.98,0.16,6.74,3.87c1.07,5.24,1.99,10.51,2.53,15.85   C213.64,557.64,212.89,571.61,210.45,585.52z"/>
	<path class="st2" d="M278.35,661.19c-7.25-0.54-14.42,0.36-21.56,1.37c-6.04,0.85-12.04,1.98-18.06,2.97   c-2.17,0.35-4.27,0.36-5.81-1.61c-1.11-1.43-1.35-3-0.67-4.69c0.78-1.93,2.36-2.71,4.3-3.03c11.04-1.8,22.01-4.1,33.24-4.54   c0.81-0.03,1.62-0.28,2.43-0.43c10.46,0.08,20.9,0.42,31.25,2.14c9.86,1.64,19.48,4.18,28.89,7.56c3.27,1.18,4.66,3.68,3.68,6.4   c-0.91,2.54-3.61,3.78-6.68,2.69c-8.37-2.98-16.87-5.42-25.64-6.87C295.34,661.76,286.91,660.64,278.35,661.19z"/>
	<path class="st2" d="M269.83,563.37c0-3.61-0.06-7.22,0.02-10.83c0.08-3.77,1.73-5.44,5.44-5.48c7.41-0.06,14.81-0.06,22.22,0   c3.79,0.03,5.5,1.65,5.54,5.37c0.08,7.5,0.08,15,0,22.5c-0.04,3.56-1.72,5.32-5.29,5.37c-7.5,0.11-15,0.11-22.49,0   c-3.7-0.05-5.34-1.81-5.41-5.54C269.77,570.97,269.83,567.17,269.83,563.37z M293.54,563.33c-0.19-1.87,0.97-4.8-0.42-6.27   c-1.41-1.5-4.37-0.45-6.65-0.46c-2.28-0.01-5.22-1.03-6.67,0.42c-1.44,1.45-0.43,4.39-0.41,6.67c0.02,2.27-1.04,5.23,0.48,6.65   c1.49,1.39,4.41,0.4,6.69,0.41C293.54,570.81,293.54,570.77,293.54,563.33z"/>
	<path class="st5" d="M107.86,759.25c1.61-6.73,3.26-13.46,4.82-20.21c0.87-3.76,0.11-5.17-3.34-6.81   c3.13-12.69,6.25-25.39,9.39-38.08c0.13-0.52,0.38-1.01,0.57-1.52c0.53,4.49,1.02,8.98,1.6,13.46c1.92,14.69,7.9,27.58,17.45,38.85   c0.54,0.63,1.03,1.29,1.55,1.94c-0.4,0.98-1.33,1.24-2.18,1.57c-5.42,2.07-10.81,4.26-16.31,6.12   C116.89,756.1,112.65,758.48,107.86,759.25z"/>
	<path class="st6" d="M241.63,613.36c-7.79,6.94-15.58,13.89-23.38,20.82c-0.96,0.86-1.93,1.75-3.03,2.4   c-2.13,1.25-4.15,0.76-5.75-1c-1.54-1.7-1.69-3.69-0.41-5.6c0.65-0.98,1.58-1.8,2.46-2.6c7.79-7.08,15.59-14.14,23.39-21.21   c6.82-6.1,13.64-12.19,20.46-18.29c3.63-3.25,6.16-3.63,8.41-1.23c2.24,2.39,1.53,5.17-2.08,8.44   C255,601.16,248.32,607.27,241.63,613.36z"/>
	<path class="st1" d="M341.13,679.94c0-7.77,6.27-14.13,14.03-14.22c7.76-0.1,14.4,6.47,14.38,14.24   c-0.02,7.83-6.5,14.21-14.4,14.15C347.34,694.04,341.13,687.77,341.13,679.94z M355.23,675.21c-2.58,0.04-4.67,2.3-4.57,4.94   c0.1,2.55,2.14,4.49,4.71,4.46c2.46-0.03,4.61-2.14,4.66-4.6C360.08,677.53,357.73,675.17,355.23,675.21z"/>
	<path class="st1" d="M241.54,561.26c-7.81,0.06-14.19-6.14-14.31-13.91c-0.12-7.84,6.25-14.39,14.09-14.5   c7.64-0.1,14.18,6.31,14.3,14C255.73,554.79,249.47,561.2,241.54,561.26z M241.53,551.75c2.52-0.05,4.58-2.12,4.59-4.62   c0.02-2.56-2.27-4.82-4.81-4.75c-2.44,0.07-4.58,2.25-4.6,4.69C236.7,549.67,238.9,551.81,241.53,551.75z"/>
	<path class="st7" d="M202.74,723.63c2.45,1.21,4.9,2.41,7.92,3.89c-2.3,0.87-4.03,1.53-5.76,2.19   c-15.6,5.91-31.21,11.77-46.76,17.79c-2.11,0.82-3.5,0.82-4.93-0.98c-0.85-1.07-1.97-1.93-2.96-2.88   c10.37-3.89,20.75-7.77,31.12-11.66c6.48-2.44,12.96-4.89,19.43-7.35C201.46,724.37,202.09,723.96,202.74,723.63z"/>
	<path class="st8" d="M343.36,518.77c-4.65,0-7.03-1.62-7.08-4.82c-0.04-3.21,2.36-4.9,6.96-4.92c4.88-0.01,7.32,1.57,7.38,4.8   C350.68,517.07,348.17,518.77,343.36,518.77z"/>
	<path class="st8" d="M319.59,518.7c-4.6,0.07-7.02-1.6-7.05-4.77c-0.02-3.16,2.44-4.89,7-4.88c0.92,0,1.86-0.01,2.76,0.13   c2.89,0.43,4.48,2.13,4.49,4.7c0.02,2.5-1.66,4.37-4.44,4.8C321.45,518.82,320.51,518.7,319.59,518.7z"/>
	<path class="st2" d="M341.81,576.45c-0.08,3.54-3.98,5.8-7,3.95c-2.06-1.26-3.81-3-5.05-5.06c-1.82-3.02,0.5-6.93,4.01-6.99   C336.85,568.31,341.88,573.37,341.81,576.45z"/>
	<path class="st2" d="M355.24,568.48c0.04,4.82-1.43,7.04-4.65,7.07c-3.22,0.03-4.85-2.31-4.84-6.99c0-1.02-0.05-2.05,0.11-3.05   c0.42-2.5,2.47-4.24,4.78-4.19c2.48,0.06,4.36,1.95,4.59,4.65C355.29,566.81,355.24,567.65,355.24,568.48z"/>
	<path class="st2" d="M355.27,610.99c0,0.74,0.04,1.48-0.01,2.22c-0.17,3.05-2.12,5.12-4.76,5.09c-2.52-0.03-4.51-2.05-4.73-4.9   c-0.1-1.38-0.08-2.78-0.01-4.17c0.15-3.07,2.07-5.17,4.7-5.23c2.73-0.06,4.68,2.08,4.82,5.32c0.02,0.55,0,1.11,0,1.67   C355.27,610.99,355.27,610.99,355.27,610.99z"/>
	<path class="st0" d="M336.28,525.87c0.03,4.83-1.4,6.94-4.69,6.96c-3.29,0.02-4.8-2.15-4.8-6.9c0-0.83-0.04-1.66,0.02-2.49   c0.19-2.82,2.13-4.76,4.73-4.77c2.65-0.01,4.54,1.85,4.73,4.72C336.33,524.21,336.28,525.04,336.28,525.87z"/>
	<path class="st2" d="M371.96,606.49c-0.02,1.82-0.78,3.22-2.37,4.11c-1.57,0.88-3.22,0.93-4.72-0.09c-1.92-1.3-3.59-2.93-4.86-4.88   c-0.98-1.5-0.92-3.13-0.03-4.71c0.9-1.61,2.37-2.36,4.11-2.39C367.01,598.5,371.95,603.58,371.96,606.49z"/>
	<path class="st2" d="M371.95,573.11c-0.01,2.9-4.87,7.91-7.8,7.99c-1.8,0.05-3.21-0.72-4.16-2.26c-1.01-1.64-1.06-3.34,0.03-4.92   c1.31-1.91,2.95-3.55,4.86-4.85c1.5-1.02,3.14-0.97,4.71-0.06C371.16,569.92,371.95,571.29,371.95,573.11z"/>
	<path class="st9" d="M122.85,510.48c1.86,6.9,6.07,10.09,13.38,9.7c-5.71,4.01-7.85,8.91-4.68,15.6c-3.56-0.78-5.71-3.39-8.67-3.4   c-2.93-0.01-5.08,2.45-8.56,3.41c2.59-6.52,1.1-11.62-4.85-15.55C116.68,520.55,120.93,517.39,122.85,510.48z"/>
	<path class="st10" d="M107.86,759.25c4.78-0.77,9.02-3.15,13.55-4.67c5.5-1.86,10.88-4.05,16.31-6.12   c0.85-0.32,1.79-0.59,2.18-1.57c5.9,5.24,5.89,5.21-1.49,7.99c-9.93,3.74-19.85,7.52-29.77,11.28c-0.75,0.28-1.51,0.5-2.71,0.9   C106.64,764.18,107.25,761.71,107.86,759.25z"/>
	<path class="st10" d="M215.47,719.13c9.72-3.72,19.44-7.44,29.16-11.15c1.12-0.43,2.28-0.76,3.14-1.65   c2.91,1.15,5.82,2.3,9.26,3.66c-6.84,2.59-13.23,5.02-19.61,7.44c-3.46,1.31-7,2.45-10.36,3.98c-2.51,1.14-4.74,1.15-7.11-0.15   C218.51,720.46,216.97,719.83,215.47,719.13z"/>
	<path class="st11" d="M293.54,563.33c0,7.44,0,7.48-6.98,7.42c-2.29-0.02-5.21,0.98-6.69-0.41c-1.52-1.42-0.46-4.38-0.48-6.65   c-0.02-2.28-1.03-5.22,0.41-6.67c1.45-1.45,4.39-0.43,6.67-0.42c2.27,0.01,5.23-1.05,6.65,0.46   C294.51,558.53,293.36,561.46,293.54,563.33z"/>
	<path class="st12" d="M355.23,675.21c2.5-0.04,4.85,2.31,4.8,4.8c-0.05,2.46-2.2,4.57-4.66,4.6c-2.56,0.03-4.61-1.91-4.71-4.46   C350.55,677.51,352.65,675.25,355.23,675.21z"/>
	<path class="st13" d="M241.53,551.75c-2.64,0.05-4.84-2.08-4.82-4.68c0.02-2.43,2.17-4.62,4.6-4.69c2.54-0.07,4.83,2.19,4.81,4.75   C246.11,549.63,244.05,551.7,241.53,551.75z"/>
</g>
<g>
	<g>
		<path class="st14" d="M205.81,1055.14c2.68-1.08,4.63-0.17,6.42,1.99c10.41,12.62,23.78,19.63,40.1,20.96    c3.4,0.28,6.76-0.01,10-1.06c4.15-1.35,7.01-4.05,8.15-8.39c1.17-4.45,0.8-5.38-2.96-7.97c-7.64-5.26-12.5-12.4-13.39-21.69    c-0.79-8.33-1.32-16.78,0.69-25.02c3.61-14.77,17.38-24.18,33-22.83c14.42,1.24,26.24,13.36,27.32,28.09    c0.43,5.92,0.46,11.87,0.04,17.78c-0.82,11.52-6.56,19.97-16.68,25.41c-1.48,0.8-2.04,1.61-2.02,3.25    c0.06,5.04,2.9,8.92,8.41,10.81c6.69,2.29,13.5,1.98,20.26,0.38c25.76-6.09,43.86-28.54,44.5-55.09    c0.24-9.89,9.72-15.69,18.67-11.48c3.49,1.64,5.12,4.67,6.51,7.96c0,4.09,0,8.19,0,12.28c-1.44,2.2-1.17,4.82-1.72,7.23    c-6.11,26.84-21.48,46.33-46.32,58.16c-4.48,2.13-9.41,3.31-14.16,4.85c-2.54,0.82-3.53,2.19-3.52,5.1    c0.19,43.68,0.23,87.35,0.29,131.03c0.01,6.27-1.05,7.32-7.27,7.32c-25.06,0-50.12,0-75.18,0c-5.2,0-6.59-1.35-6.6-6.48    c-0.02-10.94,0.02-21.89-0.05-32.83c-0.01-0.98,0.92-2.79-1.13-2.85c-1.57-0.05-3.05,0.71-3.57,2.39    c-0.26,0.85-0.17,1.82-0.17,2.73c-0.01,10.23,0.01,20.46-0.01,30.69c-0.01,4.95-1.43,6.35-6.39,6.35c-25.57,0-51.14,0-76.72,0    c-4.81,0-6.23-1.41-6.25-6.15c-0.01-1.74,0.07-3.48-0.02-5.22c-0.16-3.21,1.27-5.03,4.46-5.43c2.98,0.28,4.9,1.83,4.7,4.91    c-0.17,2.55,0.97,2.72,3.02,2.71c21.69-0.06,43.38-0.07,65.07,0.01c2.24,0.01,2.97-0.49,2.93-2.85c-0.15-8.8-0.1-17.6-0.04-26.4    c0.05-6.9,2.81-10.35,9.43-12.04c0.69-0.18,1.39-0.34,2.07-0.55c26.42-7.96,43.69-25.08,51.51-51.59    c0.27-0.92,1.56-2.85-0.64-2.73c-1.9,0.1-4.69-2.76-5.82,1.11c-1.03,3.54-2.26,6.99-3.77,10.34    c-11.62,25.82-40.63,41.96-65.3,37.52c-1.4-0.25-1.71,0.29-1.89,1.56c-0.47,3.29-1.69,6.33-3.69,8.98    c-5.28,6.97-12.34,10.15-20.94,8.6c-9.09-1.63-14.92-7.24-17.12-16.28c-0.51-2.11-1.03-2.96-3.5-2.5    c-4.96,0.93-10.01,0.73-14.95-0.27c-27.01-5.48-44.49-21.58-52.73-47.77c-1.27-4.02-3.89-1.25-5.74-1.32    c-2.28-0.09-1.07,1.99-0.79,3.01c2.04,7.44,5.1,14.44,9.4,20.86c10.78,16.09,25.64,26.37,44.4,31.07    c6.22,1.56,9.11,5.23,9.17,11.61c0.01,1.13,0.02,2.25,0,3.38c-0.07,3.62-1.08,4.78-4.77,5.53c-3.2-0.41-4.66-2.23-4.46-5.44    c0.05-0.71-0.09-1.45,0.02-2.15c0.42-2.63-0.7-3.72-3.29-4.35c-33.3-8.06-58.45-37.08-61.83-71.22c-0.27-2.74-0.49-5.51-0.5-8.26    c-0.03-7.4,4.91-12.41,12.18-12.5c7.38-0.09,12.81,4.93,12.93,12.25c0.2,12.67,3.91,24.15,11.59,34.22    c10.35,13.58,24.14,21.1,41.13,22.68c3.28,0.31,6.54,0.02,9.71-0.96c6.04-1.86,9.23-6.25,9.25-12.55c0-1.41-0.53-2.16-1.73-2.88    c-10.2-6.14-15.44-15.2-15.52-27.11c-0.04-6.23-0.65-12.53,0.54-18.69c3.05-15.76,16.63-25.88,33.02-24.88    c14.55,0.89,26.89,13.33,27.86,28.61c0.46,7.23,0.95,14.58-0.57,21.73c-1.99,9.42-7.41,16.51-16.01,20.93    c-1.77,0.91-2.28,1.97-2.26,3.8c0.06,5,2.54,8.54,7.68,10.22c6.61,2.15,13.36,1.67,20.03,0.42c9.74-1.81,9.73-1.91,9.7-11.73    c-0.05-20.36-0.16-40.73-0.11-61.09c0.01-2.77-0.86-3.79-3.59-4.48c-36.22-9.11-61.97-42.06-62.06-79.09    c-0.01-4.9,1.51-8.88,5.97-11.24c4.61-2.43,9.29-2.19,13.72,0.52c3.83,2.34,5.37,6.06,5.46,10.39c0.11,5.56,0.83,10.99,2.49,16.31    c0.83,2.67,0.16,4.83-2.34,6.28c-4.22,0.61-5.55-0.2-6.72-4.24c-1.65-5.72-2.62-11.55-2.61-17.53c0-2.46-0.94-4.34-3.65-4.33    c-2.73,0.01-3.13,1.99-3.11,4.29c0.03,5.45,0.68,10.82,2.03,16.08c5.23,20.44,17.01,35.95,35.28,46.51    c0.76,0.44,1.94,1.5,2.37,0.9c1.04-1.46,1.7-3.24,2.28-4.96c0.48-1.44-1.04-1.52-1.82-1.98c-7.05-4.11-13.19-9.29-18.37-15.61    C202.46,1059.77,202.58,1058.31,205.81,1055.14z M283.1,1173.94c11.63,0,22.45-0.12,33.26,0.08c3.05,0.06,3.92-0.64,3.88-3.82    c-0.21-21.78-0.2-43.57-0.24-65.36c-0.02-7.44,2.57-10.76,9.8-12.7c1.77-0.48,3.56-0.92,5.3-1.51c0.99-0.34,3.04-0.43,1.75-2.17    c-1.12-1.51,0.01-5.44-4.03-4.15c-6.38,2.04-12.91,3.08-19.62,2.71c-2.24-0.12-4.85-1.25-6.6-0.44c-1.95,0.91-1.41,4.1-2.32,6.2    c-3.62,8.42-12.36,13.91-21.27,13.15c-9.65-0.82-17.32-7.63-19.42-17.27c-0.25-1.14,0.1-2.43-2-2.07    c-8.54,1.46-16.92,0.44-25.09-2.23c-1.86-0.61-2.51-0.19-3.12,1.48c-1.74,4.81-2.5,3.66,2.43,5.41c0.86,0.31,1.78,0.47,2.67,0.69    c8.22,2.07,10.59,5.1,10.62,13.6c0.06,20.56,0.11,41.12,0.17,61.68c0,1.06,0.09,2.12,0.15,3.55c10.75-7.12,18.14-16.34,22.66-27.9    c2.56-6.54,3.59-13.34,3.87-20.36c0.3-7.54,5.98-12.46,13.37-12.1c7.25,0.35,11.7,5.31,11.7,12.96c0.01,8.46-1.44,16.67-4.04,24.7    C293.98,1157.27,289.46,1165.68,283.1,1173.94z M320.14,1209.2c0-7.67-0.07-15.35,0.04-23.02c0.03-2.16-0.41-3.05-2.84-3.03    c-13.61,0.12-27.22,0.06-40.83,0.04c-1.27,0-2.34,0.19-3.36,1.1c-6.47,5.75-13.68,10.36-21.64,13.78    c-1.31,0.56-1.88,1.27-1.87,2.73c0.05,10.64,0.06,21.28-0.01,31.93c-0.01,1.71,0.48,2.31,2.25,2.29c9.11-0.08,18.21-0.07,27.32,0    c1.7,0.01,2.04-0.64,2.02-2.16c-0.07-5.73-0.08-11.46,0-17.19c0.02-1.62-0.55-2.04-2.11-2.12c-3.24-0.17-5.02-1.99-4.91-4.65    c0.1-2.61,2.12-4.44,5.22-4.5c4.3-0.08,8.6-0.09,12.89,0.01c3.14,0.07,4.99,1.92,4.98,4.66c-0.01,2.7-1.56,4.35-4.72,4.47    c-1.82,0.06-2.2,0.72-2.18,2.37c0.08,5.52,0.12,11.05-0.02,16.58c-0.05,2.03,0.58,2.58,2.57,2.55c8.18-0.11,16.37-0.12,24.56,0.01    c2.25,0.04,2.7-0.77,2.67-2.82C320.08,1224.55,320.14,1216.87,320.14,1209.2z M190.9,1127.64c-6.44,0-12.88,0.07-19.31-0.04    c-1.91-0.03-2.52,0.56-2.41,2.43c0.17,2.75-0.02,5.52,0.18,8.27c0.8,10.83,9.53,19.17,20.58,19.77    c10.52,0.58,20.13-7.23,22.05-17.81c0.61-3.36,0.21-6.73,0.45-10.08c0.14-2-0.49-2.62-2.53-2.58    C203.57,1127.72,197.24,1127.64,190.9,1127.64z M284.78,1026.23c-4.29,0-8.59-0.08-12.88,0.03c-2.92,0.08-7.02-1.35-8.45,0.58    c-1.48,1.99-0.61,5.87-0.47,8.9c0.5,10.86,8.61,19.59,19.02,20.66c11.12,1.14,20.76-5.51,23.47-16.22    c0.96-3.81,0.54-7.72,0.71-11.59c0.09-1.89-0.49-2.44-2.39-2.4C297.46,1026.31,291.12,1026.23,284.78,1026.23z M385.62,1023.84    c0-0.92,0.03-1.84-0.01-2.76c-0.08-1.95-1.17-3.05-3.07-3.12c-1.84-0.06-3.13,0.87-3.56,2.72c-0.16,0.68-0.09,1.42-0.12,2.14    c-1.21,23.86-11.79,42.32-32.08,54.96c-2.88,1.8-3.34,3.05-1.93,6.02c1.02,2.14,1.71,2.13,3.47,1.09    C371.53,1071.11,383.67,1050.59,385.62,1023.84z M263.5,1017.02c11.74,0,23.19,0.05,34.64-0.04c2.36-0.02,6.1,1.16,6.8-0.58    c1.01-2.5-1.52-5.22-3.1-7.6c-0.11-0.17-0.24-0.33-0.37-0.49c-5.17-6.63-14.15-9.72-22.25-7.49    C270.96,1003.1,265.8,1008.48,263.5,1017.02z M190.91,1118.41c6.13,0,12.27-0.1,18.4,0.05c2.35,0.06,2.44-0.75,1.8-2.61    c-2.92-8.49-11.24-14.29-20.53-14.21c-9.09,0.07-17.42,6.03-20.17,14.3c-0.64,1.92-0.28,2.53,1.79,2.5    C178.44,1118.35,184.67,1118.41,190.91,1118.41z M189.85,1167.49c-3.61-1.58-3.59,0.73-3.73,3.21c-0.28,5.11-2.08,9.57-6.33,12.71    c-0.96,0.71-1.17,1.5-1.19,2.59c-0.08,6.12,4.98,11.21,11.55,11.56c7.19,0.39,12.11-3.68,12.66-10.35    c0.15-1.77-0.17-2.95-1.82-4.05c-4.24-2.81-6.51-7-6.96-12.03C193.79,1168.37,193.41,1166.18,189.85,1167.49z M283.93,1065.99    c-3.72-1.61-3.8,0.62-3.92,3.43c-0.21,4.89-2.23,9.04-6.03,12.24c-0.87,0.73-1.58,1.36-1.58,2.72c0.02,6.39,5.26,11.61,12.02,11.8    c6.64,0.19,11.79-4.37,12.23-10.69c0.12-1.69-0.33-2.72-1.82-3.72c-4.39-2.95-6.9-7.24-7.31-12.48    C287.32,1066.74,287.38,1064.71,283.93,1065.99z M96.48,1125.39c-0.06-1.12,0.03-2.27-0.21-3.35c-0.3-1.38-1.22-2.34-2.71-2.56    c-1.27-0.19-2.45-0.02-3.29,1.11c-0.68,0.92-0.84,7.77-0.17,8.69c0.16,0.22,0.46,0.53,0.66,0.5c1.8-0.26,3.75-0.24,5.35-0.99    C97.3,1128.25,96.21,1126.55,96.48,1125.39z M291.73,1125.21c0.02,0,0.04,0,0.06,0c0-0.61-0.02-1.23,0-1.84    c0.09-2.06-0.41-3.75-2.83-3.91c-2.56-0.17-3.72,1.32-3.9,3.71c-0.11,1.43-0.11,2.86-0.15,4.29c-0.02,0.6-0.17,1.42,0.57,1.56    c1.8,0.35,3.73,0.98,5.42,0.62c1.41-0.3,0.55-2.29,0.81-3.51C291.79,1125.83,291.73,1125.51,291.73,1125.21z"/>
		<path class="st15" d="M108.7,929.8c4.41,3.53,4.08,6.84-0.99,9.49c-6.49,3.39-13,6.73-19.51,10.06c-3.18,1.63-5.8,1.07-7.16-1.42    c-1.43-2.61-0.36-5.07,3.03-6.83c6.4-3.33,12.83-6.62,19.22-9.96c0.64-0.33,1.57-0.36,1.72-1.34    C106.24,929.8,107.47,929.8,108.7,929.8z"/>
		<path class="st15" d="M394.85,1222.09c-5.45,6.6-10.88,13.22-16.37,19.79c-2.19,2.61-4.78,3.02-6.93,1.28    c-2.28-1.84-2.33-4.48-0.04-7.26c4.74-5.76,9.49-11.51,14.27-17.24c3.27-3.92,5.97-3.79,9.07,0.35    C394.85,1220.05,394.85,1221.07,394.85,1222.09z"/>
		<path class="st15" d="M394.85,940.24c-1.92,2.58-4.43,3.01-7.49,2.45c-6.92-1.29-13.87-2.43-20.83-3.49    c-2.54-0.38-4.6-1.17-5.26-3.86c-0.64-2.61,1.09-4.12,2.87-5.54c1.23,0,2.46,0,3.68,0c0.21,0.18,0.4,0.49,0.63,0.52    c7.05,1.11,14.1,2.22,21.15,3.26c2.37,0.35,4.21,1.33,5.24,3.58C394.85,938.2,394.85,939.22,394.85,940.24z"/>
		<path class="st16" d="M232.74,929.8c2.19,0.84,3.54,2.36,3.43,4.78c-0.08,1.83-0.83,3.4-2.68,4.11c-1.89,0.72-3.67,0.47-5.03-1.1    c-1.51-1.74-1.59-3.72-0.48-5.69c0.43-0.77,1.12-1.4,1.69-2.1C230.69,929.8,231.71,929.8,232.74,929.8z"/>
		<path class="st17" d="M150.54,1214.33c3.69-0.75,4.69-1.91,4.77-5.53c0.02-1.12,0.01-2.25,0-3.38    c-0.07-6.38-2.96-10.06-9.17-11.61c-18.76-4.7-33.61-14.98-44.4-31.07c-4.3-6.42-7.37-13.42-9.4-20.86    c-0.28-1.02-1.49-3.09,0.79-3.01c1.85,0.07,4.48-2.7,5.74,1.32c8.24,26.19,25.72,42.29,52.73,47.77c4.94,1,9.99,1.2,14.95,0.27    c2.46-0.46,2.98,0.39,3.5,2.5c2.2,9.04,8.03,14.65,17.12,16.28c8.61,1.54,15.67-1.63,20.94-8.6c2.01-2.65,3.22-5.7,3.69-8.98    c0.18-1.27,0.49-1.82,1.89-1.56c24.67,4.44,53.68-11.71,65.3-37.52c1.51-3.36,2.75-6.81,3.77-10.34c1.12-3.88,3.91-1.02,5.82-1.11    c2.2-0.11,0.91,1.82,0.64,2.73c-7.83,26.51-25.1,43.62-51.51,51.59c-0.68,0.21-1.38,0.37-2.07,0.55    c-6.61,1.68-9.38,5.14-9.43,12.04c-0.06,8.8-0.1,17.6,0.04,26.4c0.04,2.36-0.69,2.86-2.93,2.85c-21.69-0.08-43.38-0.07-65.07-0.01    c-2.05,0.01-3.19-0.16-3.02-2.71c0.2-3.08-1.71-4.62-4.7-4.91C150.54,1223.05,150.54,1218.69,150.54,1214.33z"/>
		<path class="st18" d="M205.81,1055.14c-3.23,3.17-3.36,4.64-0.55,8.06c5.17,6.32,11.31,11.49,18.37,15.61    c0.78,0.46,2.3,0.54,1.82,1.98c-0.58,1.73-1.24,3.5-2.28,4.96c-0.43,0.61-1.62-0.46-2.37-0.9    c-18.27-10.56-30.05-26.07-35.28-46.51c-1.35-5.26-2-10.63-2.03-16.08c-0.01-2.3,0.38-4.27,3.11-4.29    c2.71-0.01,3.65,1.87,3.65,4.33c-0.01,5.97,0.96,11.8,2.61,17.53c1.16,4.04,2.49,4.85,6.72,4.24    C200.81,1048.23,202.32,1052.24,205.81,1055.14z"/>
		<path class="st15" d="M352.64,1027.18c-1.46-0.06-2.69-0.65-3.74-1.74c-5.54-5.72-11.13-11.38-16.64-17.13    c-2.14-2.23-2.11-4.95-0.17-6.8c1.89-1.8,4.68-1.7,6.81,0.46c5.59,5.66,11.11,11.4,16.66,17.11c1.49,1.53,2.02,3.29,1.18,5.31    C356,1026.16,354.54,1026.99,352.64,1027.18z"/>
		<path class="st15" d="M271.88,961.3c-0.09,1.47-0.67,2.72-1.75,3.77c-5.71,5.55-11.38,11.14-17.13,16.65    c-2.22,2.13-4.92,2.11-6.8,0.16c-1.86-1.93-1.77-4.59,0.45-6.78c5.66-5.6,11.39-11.14,17.1-16.69c1.51-1.46,3.22-2.09,5.29-1.2    C270.83,958,271.6,959.45,271.88,961.3z"/>
		<path class="st15" d="M85.13,1229.05c-1.91,0-3.31-0.83-4.18-2.55c-1.02-2.01-0.42-3.75,0.92-5.36    c4.37-5.26,8.74-10.52,13.11-15.78c0.85-1.02,1.63-2.11,2.57-3.03c1.9-1.88,4.51-2.02,6.33-0.32c1.89,1.77,2.36,4.01,0.72,6.04    c-5.31,6.6-10.77,13.07-16.2,19.58C87.57,1228.61,86.43,1229.04,85.13,1229.05z"/>
		<path class="st15" d="M186.81,956.84c0.09,3.62-3.33,5.73-6.91,4.1c-5.47-2.5-10.86-5.17-16.29-7.76    c-1.84-0.88-3.72-1.68-5.52-2.63c-2.56-1.36-3.42-3.8-2.31-6.16c1.11-2.35,3.59-3.36,6.21-2.15c7.4,3.42,14.75,6.97,22.1,10.5    C185.77,953.55,186.79,954.88,186.81,956.84z"/>
		<path class="st15" d="M347.95,1128.97c1.41,0.13,2.55,0.71,3.6,1.6c5.88,4.91,11.8,9.76,17.66,14.68c2.7,2.26,3.14,5.02,1.31,7.15    c-1.86,2.16-4.5,2.13-7.27-0.16c-5.98-4.94-11.96-9.89-17.91-14.87c-1.7-1.42-2.53-3.17-1.62-5.42    C344.51,1130.02,346.02,1129.18,347.95,1128.97z"/>
		<path class="st15" d="M142.68,1011.12c-1.33,5.71-2.74,11.77-4.15,17.83c-0.51,2.19-0.97,4.39-1.59,6.54    c-0.78,2.72-3.16,4.14-5.6,3.49c-2.47-0.65-3.91-3-3.28-5.72c1.79-7.86,3.61-15.71,5.53-23.53c0.72-2.95,2.74-4.3,5.36-3.81    C141.56,1006.41,142.67,1008.18,142.68,1011.12z"/>
		<path class="st14" d="M96.08,1062.32c1.41-0.11,2.57,0.65,3.61,1.7c5.55,5.56,11.13,11.09,16.65,16.68    c2.16,2.19,2.3,4.92,0.53,6.81c-1.86,1.99-4.74,1.93-7.02-0.33c-5.67-5.59-11.27-11.23-16.89-16.87    c-1.51-1.52-1.99-3.34-1.12-5.32C92.59,1063.28,93.98,1062.31,96.08,1062.32z"/>
		<path class="st16" d="M309.85,974.7c-0.02,2.68-2.04,4.68-4.63,4.58c-2.49-0.1-4.29-2.04-4.29-4.61c0-2.72,1.93-4.6,4.63-4.53    C308.09,970.21,309.87,972.1,309.85,974.7z"/>
		<path class="st16" d="M382.49,974.82c-0.09,2.66-2.18,4.62-4.77,4.45c-2.46-0.16-4.27-2.2-4.19-4.72c0.08-2.68,2.1-4.54,4.77-4.39    C380.79,970.29,382.57,972.28,382.49,974.82z"/>
		<path class="st19" d="M89.31,1013.79c-0.04,2.65-1.8,4.45-4.35,4.48c-2.65,0.03-4.55-1.94-4.51-4.66    c0.05-2.56,1.92-4.49,4.38-4.53C87.44,1009.04,89.35,1011.05,89.31,1013.79z"/>
		<path class="st16" d="M128.92,1239.71c-0.07,2.67-2.14,4.63-4.74,4.49c-2.48-0.14-4.26-2.14-4.2-4.71    c0.07-2.71,2.1-4.63,4.73-4.48C127.17,1235.14,128.98,1237.17,128.92,1239.71z"/>
		<path class="st16" d="M232.69,1031.51c-0.05,2.66-2.12,4.64-4.71,4.52c-2.48-0.12-4.28-2.12-4.23-4.68    c0.05-2.69,2.09-4.64,4.71-4.51C230.91,1026.95,232.74,1028.97,232.69,1031.51z"/>
		<path class="st16" d="M213.53,988.33c0.03,2.64-2.01,4.73-4.58,4.67c-2.46-0.05-4.36-2.03-4.39-4.56    c-0.03-2.54,1.81-4.52,4.28-4.62C211.49,983.71,213.5,985.64,213.53,988.33z"/>
		<path class="st16" d="M124.5,965.46c2.58,0.03,4.53,2.16,4.41,4.82c-0.11,2.56-2.01,4.4-4.52,4.37c-2.52-0.03-4.36-1.89-4.41-4.48    C119.93,967.49,121.91,965.43,124.5,965.46z"/>
		<path class="st19" d="M138.97,1129.67c-0.01,2.63-1.76,4.52-4.26,4.59c-2.61,0.08-4.56-1.9-4.55-4.62    c0.01-2.72,1.95-4.66,4.59-4.57C137.28,1125.15,138.98,1127,138.97,1129.67z"/>
		<path class="st19" d="M343.01,951.6c0.02,2.59-1.76,4.53-4.26,4.63c-2.64,0.1-4.64-1.84-4.66-4.53c-0.02-2.67,1.98-4.72,4.56-4.66    C341.12,947.09,342.98,949.04,343.01,951.6z"/>
		<path class="st19" d="M380.13,1180.85c-0.03,2.64-1.77,4.43-4.33,4.47c-2.74,0.04-4.51-1.79-4.48-4.61    c0.03-2.62,1.83-4.52,4.31-4.56C378.21,1176.11,380.16,1178.15,380.13,1180.85z"/>
		<path class="st19" d="M359.56,1208.41c-0.07,2.6-1.91,4.46-4.43,4.47c-2.6,0.01-4.55-2.06-4.47-4.74    c0.07-2.67,2.14-4.61,4.74-4.46C357.89,1203.83,359.63,1205.82,359.56,1208.41z"/>
		<path class="st19" d="M168.97,1075.78c0.05,2.83-1.69,4.67-4.42,4.65c-2.61-0.02-4.3-1.74-4.35-4.42    c-0.05-2.77,1.8-4.74,4.42-4.72C167.14,1071.31,168.92,1073.15,168.97,1075.78z"/>
		<path class="st19" d="M375.57,1120.19c-2.66-0.07-4.38-2.04-4.23-4.87c0.14-2.62,2-4.4,4.53-4.32c2.58,0.08,4.41,2.19,4.26,4.91    C379.98,1118.51,378.12,1120.26,375.57,1120.19z"/>
		<path class="st20" d="M283.1,1173.94c6.36-8.26,10.89-16.67,13.87-25.87c2.6-8.02,4.05-16.24,4.04-24.7    c-0.01-7.66-4.45-12.61-11.7-12.96c-7.39-0.35-13.07,4.57-13.37,12.1c-0.28,7.01-1.31,13.81-3.87,20.36    c-4.52,11.56-11.91,20.78-22.66,27.9c-0.06-1.44-0.15-2.5-0.15-3.55c-0.06-20.56-0.11-41.12-0.17-61.68    c-0.03-8.5-2.4-11.53-10.62-13.6c-0.89-0.22-1.8-0.39-2.67-0.69c-4.94-1.75-4.17-0.6-2.43-5.41c0.6-1.67,1.26-2.09,3.12-1.48    c8.17,2.67,16.55,3.69,25.09,2.23c2.09-0.36,1.75,0.93,2,2.07c2.1,9.64,9.77,16.45,19.42,17.27c8.91,0.76,17.65-4.73,21.27-13.15    c0.9-2.1,0.36-5.29,2.32-6.2c1.75-0.82,4.36,0.31,6.6,0.44c6.71,0.37,13.24-0.67,19.62-2.71c4.04-1.29,2.91,2.64,4.03,4.15    c1.3,1.74-0.76,1.83-1.75,2.17c-1.74,0.59-3.52,1.03-5.3,1.51c-7.22,1.94-9.81,5.26-9.8,12.7c0.05,21.79,0.03,43.57,0.24,65.36    c0.03,3.18-0.83,3.88-3.88,3.82C305.54,1173.82,294.73,1173.94,283.1,1173.94z"/>
		<path class="st21" d="M320.14,1209.2c0,7.67-0.06,15.35,0.04,23.02c0.03,2.05-0.42,2.85-2.67,2.82    c-8.18-0.13-16.37-0.11-24.56-0.01c-2,0.03-2.62-0.52-2.57-2.55c0.13-5.52,0.1-11.05,0.02-16.58c-0.02-1.65,0.36-2.3,2.18-2.37    c3.16-0.11,4.71-1.77,4.72-4.47c0.01-2.74-1.84-4.59-4.98-4.66c-4.3-0.1-8.6-0.09-12.89-0.01c-3.1,0.06-5.11,1.89-5.22,4.5    c-0.11,2.65,1.67,4.48,4.91,4.65c1.56,0.08,2.14,0.49,2.11,2.12c-0.08,5.73-0.07,11.46,0,17.19c0.02,1.52-0.33,2.18-2.02,2.16    c-9.11-0.07-18.21-0.07-27.32,0c-1.77,0.01-2.26-0.58-2.25-2.29c0.06-10.64,0.05-21.28,0.01-31.93c-0.01-1.46,0.56-2.17,1.87-2.73    c7.96-3.41,15.17-8.03,21.64-13.78c1.02-0.91,2.09-1.1,3.36-1.1c13.61,0.02,27.22,0.07,40.83-0.04c2.43-0.02,2.87,0.86,2.84,3.03    C320.07,1193.85,320.14,1201.52,320.14,1209.2z"/>
		<path class="st22" d="M190.9,1127.64c6.34,0,12.67,0.08,19.01-0.05c2.04-0.04,2.67,0.58,2.53,2.58    c-0.24,3.35,0.16,6.72-0.45,10.08c-1.92,10.58-11.53,18.39-22.05,17.81c-11.05-0.61-19.78-8.95-20.58-19.77    c-0.2-2.75-0.02-5.52-0.18-8.27c-0.11-1.87,0.5-2.47,2.41-2.43C178.02,1127.71,184.46,1127.64,190.9,1127.64z"/>
		<path class="st23" d="M284.78,1026.23c6.34,0,12.68,0.07,19.01-0.05c1.91-0.04,2.48,0.52,2.39,2.4    c-0.18,3.87,0.25,7.78-0.71,11.59c-2.71,10.71-12.36,17.36-23.47,16.22c-10.41-1.07-18.52-9.8-19.02-20.66    c-0.14-3.04-1.02-6.92,0.47-8.9c1.44-1.93,5.53-0.5,8.45-0.58C276.2,1026.15,280.49,1026.23,284.78,1026.23z"/>
		<path class="st18" d="M385.62,1023.84c-1.96,26.76-14.09,47.27-37.3,61.05c-1.76,1.04-2.45,1.06-3.47-1.09    c-1.41-2.97-0.95-4.22,1.93-6.02c20.29-12.65,30.87-31.11,32.08-54.96c0.04-0.71-0.04-1.45,0.12-2.14    c0.43-1.84,1.72-2.78,3.56-2.72c1.9,0.07,2.99,1.17,3.07,3.12C385.66,1022,385.62,1022.92,385.62,1023.84z"/>
		<path class="st24" d="M263.5,1017.02c2.3-8.54,7.47-13.92,15.73-16.2c8.09-2.23,17.08,0.86,22.25,7.49    c0.13,0.16,0.25,0.32,0.37,0.49c1.57,2.38,4.1,5.11,3.1,7.6c-0.7,1.74-4.44,0.56-6.8,0.58    C286.69,1017.07,275.24,1017.02,263.5,1017.02z"/>
		<path class="st21" d="M190.91,1118.41c-6.24,0-12.47-0.06-18.71,0.03c-2.07,0.03-2.43-0.59-1.79-2.5    c2.75-8.27,11.08-14.23,20.17-14.3c9.29-0.07,17.61,5.73,20.53,14.21c0.64,1.86,0.55,2.67-1.8,2.61    C203.18,1118.31,197.04,1118.41,190.91,1118.41z"/>
		<path class="st25" d="M189.85,1167.49c3.56-1.31,3.94,0.87,4.19,3.65c0.45,5.03,2.72,9.22,6.96,12.03    c1.66,1.1,1.97,2.27,1.82,4.05c-0.56,6.67-5.47,10.74-12.66,10.35c-6.57-0.35-11.63-5.44-11.55-11.56    c0.01-1.09,0.23-1.88,1.19-2.59c4.25-3.14,6.05-7.6,6.33-12.71C186.26,1168.22,186.24,1165.91,189.85,1167.49z"/>
		<path class="st25" d="M283.93,1065.99c3.45-1.29,3.39,0.75,3.59,3.3c0.4,5.24,2.92,9.53,7.31,12.48c1.49,1,1.94,2.03,1.82,3.72    c-0.44,6.32-5.6,10.87-12.23,10.69c-6.75-0.19-12-5.41-12.02-11.8c0-1.36,0.71-1.99,1.58-2.72c3.79-3.19,5.82-7.35,6.03-12.24    C280.13,1066.61,280.2,1064.38,283.93,1065.99z"/>
		<path class="st26" d="M96.48,1125.39c-0.28,1.16,0.81,2.86-0.37,3.41c-1.59,0.74-3.54,0.73-5.35,0.99c-0.2,0.03-0.5-0.28-0.66-0.5    c-0.67-0.93-0.51-7.77,0.17-8.69c0.84-1.13,2.01-1.3,3.29-1.11c1.48,0.22,2.4,1.18,2.71,2.56    C96.51,1123.12,96.42,1124.27,96.48,1125.39z"/>
		<path class="st26" d="M291.73,1125.21c0,0.31,0.05,0.63-0.01,0.92c-0.26,1.22,0.6,3.21-0.81,3.51c-1.69,0.36-3.62-0.27-5.42-0.62    c-0.74-0.14-0.59-0.96-0.57-1.56c0.04-1.43,0.04-2.87,0.15-4.29c0.18-2.38,1.34-3.88,3.9-3.71c2.42,0.16,2.92,1.86,2.83,3.91    c-0.03,0.61,0,1.23,0,1.84C291.77,1125.21,291.75,1125.21,291.73,1125.21z"/>
	</g>
</g>
<g>
	<g>
		<path d="M827.57,268.66c-1.47,2.62-3.71,3.75-6.71,4.07c-6.41,0.69-12.79,1.6-19.16,2.57c-1.15,0.17-2.43,0.82-3.24,1.65    c-4.65,4.73-9.15,9.61-13.75,14.39c-3.97,4.13-7.93,3.48-10.42-1.71c-2.87-5.97-5.66-11.98-8.61-17.91    c-0.52-1.04-1.54-2.06-2.58-2.58c-5.93-2.96-11.94-5.73-17.91-8.61c-5.2-2.51-5.86-6.48-1.74-10.42    c4.8-4.58,9.67-9.09,14.41-13.74c0.83-0.82,1.49-2.1,1.66-3.25c1.01-6.74,1.85-13.5,2.74-20.26c0.64-4.86,4.43-6.92,8.8-4.62    c6.02,3.18,11.95,6.54,17.99,9.68c1.11,0.58,2.64,0.82,3.88,0.62c6.72-1.12,13.39-2.49,20.1-3.64c4.77-0.82,7.7,2.09,6.88,6.87    c-1.15,6.71-2.49,13.39-3.66,20.1c-0.18,1.02-0.21,2.29,0.25,3.15c3.62,6.81,7.38,13.55,11.09,20.32    C827.57,266.45,827.57,267.55,827.57,268.66z M756.05,253.42c4.92,2.36,9.65,4.41,14.15,6.88c1.72,0.94,3.37,2.58,4.31,4.3    c2.46,4.5,4.52,9.23,6.87,14.16c3.26-3.44,6.53-6.56,9.4-10.02c2.5-3.01,5.52-4.25,9.31-4.56c4.33-0.35,8.62-1.09,13.21-1.7    c-2.37-4.35-4.35-8.42-6.73-12.23c-1.96-3.14-2.24-6.21-1.4-9.73c1.03-4.33,1.65-8.75,2.49-13.39c-5.19,0.96-10,1.76-14.75,2.78    c-2.69,0.58-5.01,0.19-7.38-1.19c-4.27-2.48-8.66-4.75-13.21-7.22c-0.71,5.36-1.45,10.37-2,15.4c-0.28,2.55-1.39,4.45-3.26,6.15    C763.38,246.39,759.82,249.85,756.05,253.42z"/>
		<path d="M651.54,202.47c0-4.42,0.08-8.85-0.05-13.26c-0.04-1.18-0.46-2.54-1.16-3.48c-5.2-6.92-10.52-13.76-15.79-20.63    c-3.65-4.76-2.33-8.65,3.48-10.35c8.21-2.41,16.43-4.78,24.61-7.3c1.19-0.37,2.47-1.27,3.18-2.28c5.04-7.15,9.93-14.41,14.9-21.61    c3.14-4.54,7.26-4.53,10.43,0.05c4.93,7.12,9.75,14.31,14.74,21.38c0.77,1.09,2.11,2.06,3.38,2.45    c8.26,2.57,16.58,4.93,24.86,7.42c5.45,1.64,6.72,5.57,3.27,10.09c-5.26,6.88-10.6,13.7-15.78,20.64c-0.8,1.07-1.3,2.65-1.28,3.98    c0.11,8.57,0.41,17.14,0.65,25.7c0.17,5.9-3.09,8.29-8.69,6.31c-7.98-2.82-15.92-5.75-23.94-8.45c-1.42-0.48-3.27-0.51-4.68-0.04    c-8.02,2.69-15.97,5.62-23.95,8.44c-5.89,2.08-9.08-0.32-8.87-6.62c0.07-2.12,0.13-4.24,0.16-6.36c0.03-2.03,0.01-4.05,0.01-6.08    C651.18,202.47,651.36,202.47,651.54,202.47z M647.33,163.59c3.66,4.76,6.77,9.36,10.45,13.45c3.91,4.35,5.38,9.03,4.87,14.84    c-0.48,5.54-0.1,11.15-0.1,16.87c6.27-2.22,12.72-4.37,19.06-6.8c2.93-1.12,5.59-1.2,8.52-0.05c5.23,2.04,10.55,3.82,15.84,5.69    c1.16,0.41,2.34,0.78,3.27,1.09c0-5.49,0.4-10.77-0.1-15.97c-0.61-6.28,0.72-11.53,5.22-16.09c2.25-2.28,3.98-5.06,5.94-7.62    c1.31-1.72,2.62-3.44,4.13-5.43c-6.92-2.04-13.41-4.09-19.97-5.84c-3.05-0.82-5.17-2.4-6.89-5.03    c-3.7-5.68-7.63-11.22-11.68-17.14c-4.22,6.14-8.27,11.93-12.18,17.8c-1.41,2.11-3.15,3.42-5.61,4.11    C661.3,159.38,654.54,161.45,647.33,163.59z"/>
		<path d="M558.09,214.74c6.49,1.2,13.45,2.58,20.45,3.71c1.48,0.24,3.3-0.07,4.64-0.75c5.74-2.94,11.34-6.13,17.02-9.2    c5-2.7,8.65-0.76,9.38,4.89c0.85,6.58,1.69,13.16,2.68,19.72c0.17,1.15,0.84,2.43,1.67,3.24c4.61,4.52,9.34,8.92,14.02,13.36    c4.65,4.42,4,8.28-1.86,11.08c-5.73,2.74-11.51,5.4-17.18,8.26c-1.19,0.6-2.35,1.76-2.94,2.95c-2.94,5.84-5.66,11.79-8.49,17.68    c-2.48,5.16-6.47,5.77-10.45,1.6c-4.52-4.73-8.96-9.55-13.55-14.22c-0.88-0.89-2.24-1.62-3.48-1.81c-6.65-1.01-13.33-1.84-20-2.7    c-5.07-0.65-7.1-4.4-4.7-8.94c3.15-5.94,6.48-11.79,9.57-17.76c0.61-1.18,0.84-2.81,0.62-4.14c-1.12-6.82-2.52-13.59-3.65-20.4    C551.16,217.35,553.78,214.52,558.09,214.74z M615.75,253.43c-3.52-3.33-6.71-6.65-10.23-9.59c-2.85-2.39-4.02-5.26-4.33-8.84    c-0.39-4.42-1.12-8.8-1.73-13.47c-4.35,2.37-8.41,4.36-12.22,6.73c-3.14,1.95-6.21,2.23-9.73,1.39    c-4.33-1.03-8.75-1.67-13.41-2.52c0.99,5.38,1.82,10.36,2.87,15.3c0.51,2.42,0.08,4.48-1.12,6.59c-2.48,4.38-4.82,8.84-7.32,13.46    c5.34,0.72,10.34,1.48,15.37,2.02c2.56,0.28,4.45,1.4,6.14,3.26c3.33,3.67,6.8,7.23,10.37,11c2.36-4.93,4.41-9.66,6.87-14.17    c0.94-1.72,2.58-3.36,4.31-4.3C606.09,257.84,610.82,255.78,615.75,253.43z"/>
		<path d="M761.11,159.54c1.34-4.36-0.66-8.28-4.02-11.81c-1.26-1.33-2.34-2.85-3.35-4.39c-2.16-3.31-0.81-7.2,2.91-8.51    c1.13-0.4,2.27-0.87,3.44-1.01c6.38-0.75,10.62-4.24,13.53-9.86c3.63-7.02,9.26-7.29,13.02,0.07c2.9,5.69,7.31,8.93,13.57,9.79    c0.36,0.05,0.7,0.22,1.06,0.32c6.96,1.97,8.47,5.81,3.63,11.16c-4.85,5.36-6.78,11.01-5.85,18.23c0.87,6.74-3.06,9.71-9.08,6.77    c-7.22-3.52-13.75-2.7-20.71,0.4c-4.78,2.12-8.17-0.57-8.15-5.81c0-0.28,0.01-0.55,0.01-0.83    C761.11,162.77,761.11,161.48,761.11,159.54z M780.21,133.44c-2.66,5.88-6.68,9-13.32,9.58c5.16,4.25,6.43,9.09,5.1,15.4    c5.58-3.32,10.59-3.35,16.38,0.01c-1.85-6.56,0.25-11.15,4.77-15.48C786.82,142.34,782.61,139.61,780.21,133.44z"/>
		<path d="M572.59,159.88c1.4-4.5-0.3-8.22-3.48-11.57c-1.39-1.46-2.58-3.14-3.71-4.81c-2.34-3.46-1.13-7.91,2.88-8.57    c8.74-1.44,14.76-5.89,18.87-13.7c1.9-3.62,6.46-3.42,9.03-0.1c1.75,2.25,3.45,4.58,4.84,7.06c1.38,2.46,3.36,3.68,6.01,4.3    c2.6,0.6,5.15,1.42,7.68,2.25c4.27,1.39,5.58,5.29,3.1,8.97c-0.21,0.3-0.4,0.63-0.67,0.88c-5.86,5.43-7.49,12.09-6.59,19.92    c0.66,5.71-3.23,8.53-8.41,6.07c-7.17-3.41-13.8-3.37-20.96,0c-5.23,2.46-8.76-0.49-8.61-6.35    C572.62,162.83,572.59,161.44,572.59,159.88z M599.56,158.23c0-3.19-0.57-5.93,0.16-8.26c0.75-2.43,2.75-4.47,4.5-7.13    c-6.09-0.23-9.89-3.65-12.74-9.39c-2.28,6.38-6.74,8.73-12.21,9.63c1.67,2.53,3.59,4.51,4.36,6.86c0.77,2.35,0.38,5.07,0.52,8.14    C589.23,155.1,594.26,155.13,599.56,158.23z"/>
		<path d="M681.56,379.31c0.06,4.21-1.96,6.57-4.98,6.79c-3.26,0.23-5.42-1.77-6.08-5.45c-1.16-6.42-1.98-12.95-3.7-19.23    c-6.82-24.97-20.27-46.04-38.75-63.95c-4.68-4.54-9.86-8.58-14.92-12.71c-3.14-2.56-4.06-5.58-2.14-8.32    c1.93-2.75,5.33-3.18,8.51-0.75c32.04,24.46,53.5,55.67,60.89,95.8C680.92,374.39,681.26,377.32,681.56,379.31z"/>
		<path d="M690.12,380.54c1.52-14.49,5.03-27.79,10.62-40.53c11.32-25.79,28.49-46.95,50.94-63.88c1.01-0.76,2.15-1.5,3.35-1.84    c2.54-0.73,5.07,0.59,6.2,2.95c1.22,2.55,0.46,5-2.01,7.06c-5.29,4.43-10.83,8.62-15.76,13.43    c-20.65,20.19-34.9,44.06-40.65,72.62c-0.76,3.79-1.15,7.64-1.85,11.44c-0.45,2.42-2.04,3.87-4.49,4.24    c-2.32,0.35-4.26-0.45-5.43-2.47C690.43,382.52,690.31,381.18,690.12,380.54z"/>
		<path d="M680.35,277.96c0-14.76-0.04-29.51,0.06-44.27c0.01-1.64,0.53-3.5,1.42-4.86c1.28-1.96,3.71-2.57,5.66-1.53    c1.59,0.85,2.7,2.72,3.79,4.3c0.4,0.57,0.13,1.62,0.13,2.45c0,29.33,0,58.66,0,87.99c0,0.65,0.03,1.29-0.03,1.94    c-0.27,3.06-2.48,5.17-5.41,5.22c-3.05,0.05-5.47-2.11-5.59-5.3c-0.14-3.78-0.05-7.56-0.05-11.34    C680.35,301.02,680.35,289.49,680.35,277.96z"/>
		<path d="M723.91,378.85c0.22-0.59,0.54-1.75,1.07-2.8c11.04-22.06,28.95-36.01,51.98-43.86c3.77-1.28,6.8,0.21,7.78,3.49    c0.91,3.06-0.85,5.8-4.52,7.06c-17.93,6.15-32.52,16.64-42.52,32.99c-1.34,2.19-2.36,4.58-3.69,6.79    c-1.38,2.29-4.05,3.21-6.5,2.27C725.11,383.87,723.9,382.04,723.91,378.85z"/>
		<path d="M598.32,331.71c0.69,0.2,2.03,0.5,3.32,0.97c22.35,8.15,39.85,21.96,50.52,43.63c2.14,4.34,0.26,8.36-3.96,8.75    c-2.88,0.26-4.69-1.21-5.87-3.69c-6.72-14.15-17.35-24.62-30.91-32.12c-4.88-2.7-10.22-4.59-15.38-6.77    c-2.89-1.22-4.3-3.39-3.83-6.23C592.66,333.56,594.88,331.7,598.32,331.71z"/>
		<path d="M582.36,314.04c5.03-0.01,7.65,1.82,7.72,5.39c0.07,3.65-2.7,5.67-7.81,5.66c-1.1,0-2.22,0.05-3.29-0.15    c-2.84-0.53-4.62-2.88-4.48-5.73c0.14-2.82,2.21-4.93,5.11-5.15C580.52,313.98,581.44,314.04,582.36,314.04z"/>
		<path d="M789.59,314.03c5.25-0.01,7.77,1.84,7.69,5.63c-0.08,3.65-2.59,5.43-7.68,5.43c-1.01,0-2.03,0.05-3.02-0.09    c-2.92-0.43-5.03-2.96-4.87-5.75c0.16-2.85,2.41-5.03,5.41-5.21C787.94,313.99,788.77,314.03,789.59,314.03z"/>
		<path d="M557.15,314.02c0.73,0,1.47-0.02,2.2,0.01c3.31,0.12,5.72,2.41,5.75,5.45c0.03,3.02-2.34,5.39-5.66,5.58    c-1.37,0.08-2.76,0.07-4.13,0.01c-3.51-0.15-5.91-2.49-5.86-5.64c0.06-3.16,2.48-5.33,6.04-5.4    C556.04,314.01,556.6,314.02,557.15,314.02z"/>
		<path d="M814.44,314.03c0.83,0,1.66-0.04,2.48,0.01c3.04,0.17,5.24,2.31,5.4,5.2c0.16,2.98-1.96,5.47-5.1,5.78    c-1.64,0.16-3.31,0.14-4.95,0.04c-3.28-0.19-5.66-2.66-5.58-5.66c0.08-3.03,2.5-5.26,5.83-5.37    C813.15,314.01,813.79,314.02,814.44,314.03z"/>
		<path d="M575.25,332.03c0,0.18,0,0.37,0,0.55c-0.01,4.68-2.05,7.33-5.59,7.26c-3.53-0.07-5.47-2.69-5.47-7.43    c0-1.1-0.07-2.22,0.08-3.3c0.4-2.94,2.91-5.06,5.7-4.92c2.87,0.14,5.06,2.35,5.26,5.36c0.05,0.82,0.01,1.65,0.01,2.48    C575.24,332.03,575.24,332.03,575.25,332.03z"/>
		<path d="M796.54,331.96c-0.02-5.16,1.94-7.87,5.61-7.78c3.57,0.09,5.45,2.75,5.44,7.75c0,1.01,0.06,2.03-0.09,3.02    c-0.44,2.96-2.92,5.03-5.73,4.88c-2.86-0.15-5.03-2.38-5.22-5.39C796.5,333.61,796.54,332.79,796.54,331.96z"/>
		<path d="M575.24,307.12c0,0.73,0.03,1.47-0.01,2.2c-0.17,3.22-2.34,5.42-5.38,5.47c-3.03,0.05-5.35-2.07-5.62-5.25    c-0.12-1.46-0.09-2.94-0.03-4.41c0.13-3.49,2.47-5.96,5.58-5.94c3.15,0.02,5.37,2.45,5.47,6c0.02,0.64,0,1.29,0,1.93    C575.24,307.12,575.24,307.12,575.24,307.12z"/>
		<path d="M796.55,306.89c-0.02-5.01,1.83-7.65,5.4-7.7c3.65-0.06,5.66,2.71,5.63,7.83c-0.01,1.19,0.04,2.41-0.23,3.55    c-0.65,2.84-3.08,4.47-5.94,4.18c-2.69-0.27-4.64-2.3-4.86-5.11C796.49,308.73,796.55,307.81,796.55,306.89z"/>
		<path d="M691.41,342.04c-0.03,3-2.47,5.4-5.5,5.41c-3.14,0.01-5.64-2.54-5.53-5.65c0.11-3,2.6-5.33,5.63-5.26    C689.03,336.6,691.44,339.05,691.41,342.04z"/>
	</g>
</g>
<g>
	<path d="M834.67,577.45c-4.84,4.8-9.62,9.66-14.54,14.37c-1.49,1.43-2.03,2.73-1.6,4.84c1.19,5.81,2.17,11.67,3.04,17.54   c0.17,1.17-0.14,2.84-0.91,3.58c-0.54,0.52-2.38,0.15-3.37-0.35c-5.57-2.79-11.02-5.81-16.61-8.55c-0.99-0.49-2.64-0.48-3.63,0.01   c-5.58,2.75-11.03,5.78-16.6,8.57c-0.99,0.49-2.7,0.81-3.39,0.29c-0.73-0.54-1-2.24-0.83-3.34c0.91-6.16,2.1-12.28,2.98-18.44   c0.16-1.1-0.31-2.68-1.07-3.47c-4.34-4.47-8.91-8.73-13.28-13.17c-0.79-0.8-1.62-2.31-1.36-3.17c0.25-0.84,1.82-1.62,2.91-1.81   c6.05-1.01,12.11-1.92,18.2-2.68c1.77-0.22,2.72-0.9,3.48-2.51c2.53-5.36,5.17-10.68,7.93-15.94c0.61-1.17,1.86-2.01,2.82-3   c1.03,1.04,2.39,1.91,3.04,3.15c2.76,5.25,5.21,10.67,8,15.9c0.56,1.05,2.02,2.05,3.21,2.26c5.75,1.01,11.56,1.67,17.32,2.6   c1.47,0.24,2.85,1.03,4.27,1.57C834.67,576.28,834.67,576.87,834.67,577.45z"/>
	<path d="M750.57,591.46c2.43,2.79,4.92,5.52,7.21,8.41c0.54,0.69,0.6,1.94,0.52,2.9c-0.45,5.59-1.44,11.18-1.37,16.76   c0.04,3.03,1.81,6.04,3.07,9.88c0.05-0.03-0.66,0.29-1.25,0.76c-16.58,13.46-29.32,30.1-39.82,48.52   c-16.26,28.51-26.34,59.31-33.41,91.19c-0.44,1.99-0.85,4-1.3,5.99c-0.45,1.94-1.27,3.66-3.66,3.32c-2.14-0.31-2.72-1.94-2.65-3.9   c0.44-11.19,0.47-22.42,1.39-33.57c1.8-21.81,6.1-43.17,13.28-63.87c11.38-32.8,28.9-61.6,55.54-84.38   C748.62,593.04,749.15,592.63,750.57,591.46z"/>
	<path d="M608.84,497.45c-0.91,9.68-1.68,18.62-2.66,27.53c-0.22,2,0.27,3.22,1.8,4.47c6.72,5.49,13.38,11.05,19.95,16.71   c0.96,0.83,1.91,2.42,1.78,3.52c-0.1,0.78-1.95,1.67-3.15,1.95c-8.43,1.99-16.88,3.92-25.36,5.67c-2.03,0.42-2.9,1.4-3.6,3.19   c-3.16,8.06-6.4,16.1-9.74,24.09c-0.47,1.11-1.59,2.59-2.53,2.68c-0.91,0.09-2.3-1.19-2.92-2.21c-4.51-7.4-8.94-14.85-13.25-22.37   c-1.05-1.82-2.28-2.58-4.35-2.7c-8.66-0.49-17.31-1.08-25.96-1.79c-1.19-0.1-2.76-0.76-3.3-1.67c-0.37-0.63,0.47-2.35,1.21-3.2   c5.66-6.57,11.39-13.09,17.2-19.54c1.36-1.51,1.86-2.82,1.29-4.93c-2.23-8.27-4.27-16.59-6.23-24.93c-0.3-1.27-0.32-3.25,0.42-3.94   c0.68-0.63,2.72-0.32,3.91,0.18c8.09,3.37,16.13,6.84,24.13,10.4c1.53,0.68,2.62,0.55,4-0.32c7.56-4.82,15.15-9.58,22.8-14.24   c0.94-0.57,2.41-0.81,3.43-0.5C608.37,495.7,608.67,497.14,608.84,497.45z"/>
	<path d="M633.47,570.14c2.95,9.5,6.03,18.7,8.67,28.03c7,24.67,11.63,49.82,14.75,75.26c3.88,31.57,5.3,63.28,5.19,95.07   c0,0.58,0.2,1.28-0.05,1.73c-0.5,0.92-1.25,1.71-1.89,2.56c-0.72-0.78-1.93-1.46-2.09-2.34c-1.1-6.03-1.93-12.11-2.94-18.16   c-5.99-35.63-13.35-70.95-25.09-105.21c-6.1-17.81-13.34-35.1-23.82-50.88c-0.61-0.92-0.74-2.61-0.35-3.67   c1.98-5.38,4.19-10.68,6.38-15.99c0.31-0.74,0.86-1.78,1.48-1.93C620.13,573.07,626.58,571.68,633.47,570.14z"/>
	<path d="M759.27,712.59c2.45,4.39,4.71,8.51,7.03,12.6c1.25,2.2-0.22,5.64-2.71,6.07c-20.96,3.65-37.23,15.09-50.97,30.69   c-2.95,3.35-5.58,7-8.29,10.56c-1.6,2.1-3.53,3.24-6.02,1.84c-2.32-1.3-2.46-3.41-1.72-5.84c6.35-20.98,19.64-36.15,38.78-46.43   C743.18,717.88,751.36,714.6,759.27,712.59z"/>
	<path d="M551.86,660.54c4.23,0.62,8.4,1.09,12.49,1.89c1.83,0.36,2.87-0.22,4-1.49c2.52-2.84,5.09-5.63,7.78-8.31   c0.73-0.73,2.1-1.49,2.92-1.27c0.8,0.21,1.62,1.58,1.83,2.57c0.83,3.9,1.3,7.87,2.18,11.75c0.25,1.1,1.2,2.39,2.18,2.92   c3.42,1.83,7.05,3.27,10.5,5.07c0.98,0.51,2.1,1.65,2.22,2.63c0.1,0.73-1.13,1.93-2.04,2.45c-3.2,1.83-6.46,3.59-9.82,5.12   c-1.95,0.89-2.69,2.19-2.87,4.21c-0.32,3.58-0.73,7.17-1.32,10.71c-0.19,1.11-0.88,2.68-1.72,2.97c-0.82,0.29-2.33-0.54-3.17-1.28   c-2.41-2.12-4.84-4.28-6.87-6.75c-2.03-2.47-4.19-2.88-7.11-2.07c-3.08,0.85-6.27,1.39-9.44,1.85c-1.03,0.15-2.7-0.01-3.09-0.64   c-0.51-0.84-0.4-2.42,0.04-3.42c1.49-3.37,3.16-6.68,4.94-9.91c0.93-1.71,1-3.09-0.05-4.81c-2.03-3.31-3.86-6.75-5.66-10.2   C548.57,662.19,549.53,660.56,551.86,660.54z"/>
	<path d="M735.17,501.96c-0.98,4.08-2.1,8.22-2.89,12.42c-0.22,1.18,0.2,2.84,0.94,3.78c2.42,3.04,5.2,5.8,7.69,8.8   c0.65,0.78,1.23,2.26,0.9,3.03c-0.34,0.8-1.76,1.48-2.78,1.6c-3.57,0.42-7.18,0.72-10.77,0.78c-2.19,0.04-3.58,0.69-4.61,2.72   c-1.68,3.29-3.59,6.47-5.57,9.59c-0.55,0.86-1.74,1.88-2.59,1.83c-0.85-0.05-1.95-1.18-2.38-2.1c-1.52-3.26-2.97-6.57-4.1-9.98   c-0.78-2.37-2.2-3.33-4.52-3.73c-3.54-0.61-7.06-1.41-10.54-2.31c-0.92-0.24-2.25-1.03-2.36-1.72c-0.14-0.91,0.49-2.26,1.23-2.94   c2.94-2.7,6.13-5.13,9.03-7.86c0.81-0.77,1.39-2.26,1.33-3.39c-0.19-3.88-0.79-7.75-1.05-11.63c-0.07-1.04,0.25-2.7,0.93-3.06   c0.87-0.45,2.46-0.21,3.42,0.32c3.4,1.89,6.59,4.15,10,6.02c1,0.55,2.61,0.65,3.68,0.25c3.81-1.45,7.49-3.25,11.27-4.81   C733.67,498.64,735.25,499.69,735.17,501.96z"/>
	<path d="M679.25,543.74c4.55,1.54,8.66,2.88,12.72,4.36c0.87,0.32,1.73,1.07,2.24,1.85c2.89,4.38,2.58,8.43,0.3,13.4   c-7.77,17-11.88,35.15-14.82,53.54c-1.15,7.21-1.86,14.48-2.96,21.7c-0.16,1.03-1.4,1.88-2.14,2.82c-0.7-0.98-1.91-1.89-2.03-2.94   c-3.02-25.76-3.57-51.49,1.9-77.03C675.79,555.29,677.74,549.27,679.25,543.74z"/>
	<path d="M789.93,707.35c5.49,2.15,9.02-0.97,11.77-5.97c1.02-1.86,2.42-3.53,3.76-5.21c1.83-2.3,3.74-1.99,4.66,0.81   c1.25,3.79,2.19,7.68,3.54,11.42c0.41,1.15,1.58,2.4,2.7,2.85c3.33,1.33,6.86,2.19,10.22,3.45c1.25,0.47,2.27,1.56,3.39,2.37   c-0.87,1.17-1.54,2.6-2.66,3.46c-2.85,2.2-5.98,4.03-8.81,6.25c-0.9,0.7-1.66,2.12-1.72,3.25c-0.21,3.98-0.01,7.99-0.14,11.98   c-0.03,0.94-0.53,2.39-1.19,2.65c-0.85,0.34-2.31,0.03-3.12-0.54c-3.26-2.3-6.31-4.91-9.59-7.17c-0.93-0.64-2.53-0.9-3.63-0.61   c-3.75,1.01-7.39,2.45-11.13,3.49c-1.05,0.29-2.64,0.15-3.4-0.49c-0.57-0.48-0.48-2.16-0.17-3.15c1.12-3.62,2.36-7.21,3.75-10.74   c0.65-1.64,0.54-2.85-0.56-4.25c-2.23-2.83-4.37-5.74-6.33-8.75c-0.71-1.09-1.47-2.99-1-3.78c0.53-0.88,2.43-1.11,3.78-1.27   C785.76,707.19,787.53,707.35,789.93,707.35z"/>
	<path d="M614.08,689.55c10.16,14.26,17.31,30.21,22.14,47.13c3.36,11.76,5.74,23.8,8.58,35.71c0.43,1.81,0.26,3.4-1.7,4.07   c-2.18,0.75-3.13-0.71-3.93-2.45c-4.77-10.33-9.31-20.76-14.43-30.91c-6.11-12.1-13.51-23.43-22.27-33.83   c-3.27-3.89-1.82-10.64,2.49-13.21C608.09,694.19,610.92,691.83,614.08,689.55z"/>
</g>
<g>
	<path class="st4" d="M805.75,952.38c2.81,1.49,3.91,3.75,3.75,6.97c-0.22,4.26-0.04,8.54-0.06,12.81   c-0.01,4.07-1.91,6.43-5.18,6.46c-3.28,0.03-5.3-2.37-5.31-6.35c-0.02-4.27,0.15-8.55-0.05-12.81c-0.15-3.21,0.9-5.54,3.71-7.08   C803.65,952.38,804.7,952.38,805.75,952.38z"/>
	<path class="st4" d="M750.27,1129.51c0.14,5.74-1.78,8.77-6.3,10.74c-60.85,26.58-121.7,53.15-182.54,79.75   c-2.46,1.08-4.8,1.71-7.08-0.27c-1.96-1.69-2.24-4.07-0.86-7.2c7.92-17.94,15.85-35.87,23.77-53.81   c18.89-42.82,37.77-85.64,56.65-128.46c2.21-5.01,6.16-7.19,11.59-6.27c7.77,1.32,14.36,5.3,20.76,9.56   c19.35,12.85,36.11,28.68,51.74,45.74c9.7,10.58,18.75,21.68,26.02,34.12C747.12,1118.69,749.94,1124.12,750.27,1129.51z    M672.06,1137.06c3.37-2.3,5.42-2.15,8.31,0.72c3.79,3.75,7.62,7.47,11.28,11.34c1.38,1.45,2.42,1.54,4.23,0.72   c9.06-4.1,18.2-8.02,27.31-12c0.97-0.43,2.08-0.64,2.67-1.27c-35.9-23.09-65.25-52.48-88.34-88.36c-0.25,0.52-0.51,1.04-0.74,1.57   c-4.22,9.58-8.39,19.18-12.71,28.72c-0.76,1.67-0.48,2.58,0.76,3.8c8.1,7.98,16.11,16.04,24.14,24.09   c3.05,3.05,3.23,5.01,0.91,8.51c-3.54,2.09-5.38,1.86-8.34-1.1c-6.93-6.91-13.84-13.85-20.78-20.76c-0.67-0.66-1.19-1.53-2.25-1.84   c-7.32,16.58-14.61,33.16-21.99,49.71c-0.71,1.58,0.21,2.21,1.05,3.06c10.75,10.75,21.54,21.47,32.23,32.3   c1.38,1.4,2.43,1.4,4.05,0.68c9.07-4.04,18.18-8,27.27-11.98c7.25-3.17,14.51-6.33,22.08-9.63c-3.56-3.52-6.93-6.8-10.25-10.14   C670.19,1142.41,670,1140.44,672.06,1137.06z M739.44,1130.21c0.41-1.45-0.23-2.47-0.61-3.5c-1.22-3.38-2.94-6.52-4.8-9.57   c-7.13-11.69-15.82-22.19-25.09-32.2c-14.65-15.81-30.29-30.51-48.29-42.52c-4.58-3.05-9.31-5.86-14.59-7.57   c-0.54-0.17-1.33-0.36-1.69-0.11c-0.56,0.39-0.08,1.11,0.09,1.68c1.21,3.95,3.08,7.61,5.33,11.04   c19.43,29.59,44.1,54.07,72.96,74.41C727.8,1125.45,733.17,1128.56,739.44,1130.21z M568.05,1205.63   c18.08-7.9,35.43-15.48,52.38-22.88c-9.87-9.86-19.64-19.63-29.36-29.33C583.61,1170.34,575.99,1187.63,568.05,1205.63z"/>
	<path class="st27" d="M781.39,1002.22c-1.26-0.19-3.76-0.59-6.26-0.93c-3.66-0.48-4.89,0.65-4.59,4.28   c0.16,1.91,0.51,3.81,0.73,5.71c1.19,10.49-6.18,17.54-16.62,15.91c-1.9-0.3-3.79-0.66-5.7-0.79c-2.7-0.17-3.75,0.84-3.59,3.52   c0.14,2.26,0.54,4.5,0.82,6.75c1.22,9.79-6.04,17.02-15.88,15.77c-1.64-0.21-3.27-0.56-4.91-0.78c-1.84-0.25-3.51-0.2-5.15,1.12   c-2.21,1.78-5.32,1.24-7.04-0.85c-1.79-2.17-1.68-5,0.4-7.11c3.66-3.72,8.24-4.23,13.11-3.6c1.47,0.19,2.92,0.52,4.39,0.73   c3.67,0.52,5.08-0.89,4.6-4.54c-0.28-2.08-0.69-4.14-0.8-6.23c-0.58-10.39,6.61-16.77,16.93-15.11c1.81,0.29,3.62,0.65,5.44,0.77   c2.69,0.18,3.89-1.08,3.64-3.78c-0.22-2.43-0.73-4.84-0.87-7.28c-0.59-9.92,6.53-16.38,16.39-14.95c1.47,0.21,2.93,0.5,4.39,0.73   c1.85,0.29,3.51,0.2,5.15-1.11c2.22-1.78,5.31-1.26,7.05,0.82c1.78,2.12,1.66,5.01-0.39,7.11   C789.89,1001.18,786.5,1002.32,781.39,1002.22z"/>
	<path class="st4" d="M793.86,1074.64c0.06,8.68-6.83,15.73-15.47,15.82c-8.8,0.09-15.91-6.83-16.01-15.59   c-0.11-8.62,7.14-15.9,15.79-15.89C786.79,1058.99,793.8,1065.99,793.86,1074.64z M783.26,1074.63c-0.05-2.88-2.4-5.16-5.23-5.08   c-2.81,0.08-5.11,2.52-5.04,5.32c0.07,2.86,2.41,5.09,5.28,5.03C781.17,1079.84,783.31,1077.57,783.26,1074.63z"/>
	<path class="st27" d="M788.4,1108.35c8.69,0.17,16.35,3.05,22.8,8.98c2.81,2.58,3.21,5.67,1.1,8.05c-2.12,2.39-5.23,2.33-8.09-0.16   c-9.69-8.46-21.87-8.48-31.53-0.06c-2.89,2.52-5.96,2.63-8.1,0.28c-2.14-2.34-1.78-5.49,0.99-8.06   C771.99,1111.45,779.64,1108.54,788.4,1108.35z"/>
	<path class="st27" d="M684.01,990.2c-0.2,8.74-3.08,16.4-9.03,22.83c-2.57,2.77-5.72,3.12-8.04,0.96   c-2.34-2.17-2.28-5.03,0.14-7.88c8.63-10.15,8.59-21.67-0.09-31.95c-2.38-2.82-2.37-5.76,0.03-7.88c2.32-2.06,5.37-1.74,7.86,0.93   C680.93,973.68,683.84,981.41,684.01,990.2z"/>
	<path class="st27" d="M736.55,983.98c-0.03,3.01-2.16,5.04-5.41,5.17c-4.8,0.19-4.8,0.19-5.04,5.04c-0.16,3.27-2.19,5.41-5.16,5.43   c-2.92,0.02-5.07-2.14-5.34-5.34c-0.14-1.63,0.7-3.74-0.37-4.78c-1.07-1.04-3.16-0.24-4.8-0.35c-2.99-0.18-5.19-2.32-5.26-5.13   c-0.06-2.79,2.1-5.06,5.06-5.35c1.72-0.17,4.05,0.76,5-0.4c0.88-1.07,0.24-3.32,0.41-5.04c0.3-2.99,2.63-5.12,5.38-5.04   c2.83,0.08,4.87,2.24,5.08,5.3c0.11,1.64-0.69,3.73,0.37,4.79c1.06,1.07,3.15,0.25,4.79,0.36   C734.47,978.87,736.58,980.98,736.55,983.98z"/>
	<path class="st4" d="M804.46,1036.91c-2.62,0-5.24,0.05-7.85-0.02c-3.03-0.08-5.2-2.2-5.31-5.03c-0.11-2.91,2.08-5.34,5.2-5.41   c5.23-0.11,10.47-0.11,15.71-0.01c3.19,0.06,5.31,2.33,5.27,5.31c-0.04,2.98-2.2,5.07-5.43,5.14   C809.53,1036.95,806.99,1036.91,804.46,1036.91z"/>
	<path class="st27" d="M783.87,1146.86c-0.01,2.86-2.25,5.16-5.09,5.22c-2.91,0.06-5.37-2.35-5.37-5.26   c0.01-2.91,2.45-5.25,5.4-5.18C781.69,1141.71,783.89,1143.98,783.87,1146.86z"/>
	<path class="st27" d="M647.31,989.07c0.03,2.99-2.29,5.33-5.26,5.29c-2.8-0.03-5.16-2.37-5.2-5.16c-0.05-2.86,2.46-5.35,5.33-5.32   C645.02,983.92,647.28,986.21,647.31,989.07z"/>
	<path class="st27" d="M746.97,1078.77c0.01,2.91-2.45,5.35-5.34,5.29c-2.79-0.06-5.12-2.44-5.14-5.23   c-0.02-2.83,2.25-5.17,5.08-5.24C744.54,1073.51,746.96,1075.83,746.97,1078.77z"/>
	<path class="st27" d="M768.17,963.44c-0.03,2.96-2.43,5.29-5.38,5.19c-2.82-0.1-5.07-2.44-5.05-5.28c0.02-2.94,2.47-5.3,5.39-5.19   C765.98,958.26,768.19,960.59,768.17,963.44z"/>
	<path class="st27" d="M704.6,1026.29c0.06,3.01-2.2,5.35-5.18,5.35c-2.82,0-5.17-2.28-5.26-5.09c-0.09-2.86,2.38-5.39,5.26-5.39   C702.25,1021.17,704.54,1023.43,704.6,1026.29z"/>
	<path class="st27" d="M810.15,1067.88c-2.84-0.02-5.14-2.28-5.2-5.12c-0.05-2.89,2.4-5.38,5.27-5.35c2.92,0.03,5.25,2.47,5.16,5.43   C815.31,1065.7,813.03,1067.9,810.15,1067.88z"/>
	<path class="st28" d="M672.06,1137.06c-2.06,3.39-1.87,5.35,0.9,8.14c3.32,3.33,6.69,6.62,10.25,10.14   c-7.56,3.3-14.82,6.46-22.08,9.63c-9.1,3.98-18.21,7.93-27.27,11.98c-1.62,0.72-2.67,0.72-4.05-0.68   c-10.68-10.82-21.47-21.54-32.23-32.3c-0.84-0.84-1.76-1.47-1.05-3.06c7.38-16.55,14.67-33.13,21.99-49.71   c1.06,0.32,1.58,1.18,2.25,1.84c6.93,6.91,13.85,13.84,20.78,20.76c2.96,2.96,4.8,3.19,8.34,1.1c2.48,2.36,4.97,4.71,7.45,7.06   c-0.92,1.46-1.82,2.92-1.45,4.79c0.84,4.21,4.85,5.47,9.09,2.84C667.35,1132.08,669.7,1134.57,672.06,1137.06z"/>
	<path class="st29" d="M672.06,1137.06c-2.36-2.49-4.72-4.98-7.07-7.47c1.74-3.19,1.67-5.51-0.23-7.4   c-1.89-1.88-4.26-1.96-7.41-0.23c-2.48-2.35-4.97-4.71-7.45-7.06c2.33-3.5,2.14-5.46-0.91-8.51c-8.03-8.05-16.05-16.11-24.14-24.09   c-1.24-1.22-1.52-2.13-0.76-3.8c4.32-9.54,8.48-19.14,12.71-28.72c0.23-0.53,0.5-1.05,0.74-1.57   c23.09,35.89,52.44,65.28,88.34,88.36c-0.58,0.63-1.69,0.85-2.67,1.27c-9.11,3.99-18.25,7.9-27.31,12   c-1.81,0.82-2.85,0.73-4.23-0.72c-3.66-3.87-7.49-7.59-11.28-11.34C677.48,1134.91,675.43,1134.76,672.06,1137.06z"/>
	<path class="st30" d="M739.44,1130.21c-6.27-1.65-11.64-4.77-16.7-8.34c-28.86-20.34-53.53-44.82-72.96-74.41   c-2.25-3.43-4.12-7.09-5.33-11.04c-0.17-0.57-0.65-1.29-0.09-1.68c0.36-0.26,1.16-0.07,1.69,0.11c5.28,1.71,10.01,4.52,14.59,7.57   c18,12.01,33.65,26.71,48.29,42.52c9.28,10.01,17.96,20.51,25.09,32.2c1.87,3.06,3.58,6.2,4.8,9.57   C739.21,1127.75,739.85,1128.76,739.44,1130.21z"/>
	<path class="st29" d="M568.05,1205.63c7.94-18,15.56-35.28,23.02-52.21c9.71,9.7,19.48,19.47,29.36,29.33   C603.48,1190.15,586.13,1197.73,568.05,1205.63z"/>
	<path class="st30" d="M783.26,1074.63c0.05,2.94-2.09,5.21-4.99,5.27c-2.87,0.06-5.21-2.17-5.28-5.03   c-0.07-2.81,2.24-5.24,5.04-5.32C780.86,1069.47,783.21,1071.75,783.26,1074.63z"/>
	<path class="st27" d="M657.35,1121.96c3.15-1.73,5.51-1.66,7.41,0.23c1.9,1.89,1.97,4.21,0.23,7.4c-4.24,2.64-8.25,1.38-9.09-2.83   C655.52,1124.88,656.43,1123.42,657.35,1121.96z"/>
</g>
</svg>