<?xml version="1.0" encoding="UTF-8"?>
<!-- Generator: Adobe Illustrator 25.4.1, SVG Export Plug-In . SVG Version: 6.00 Build 0)  -->
<svg version="1.1" id="Layer_1" xmlns="http://www.w3.org/2000/svg" xmlns:xlink="http://www.w3.org/1999/xlink" x="0px" y="0px" viewBox="0 0 168 158" style="enable-background:new 0 0 168 158;" xml:space="preserve">
<style type="text/css">
	.st0{fill:#020201;}
	.st1{fill:#F46F26;}
	.st2{fill:#010101;}
	.st3{fill:#FC863D;}
	.st4{fill:#5BA13A;}
	.st5{fill:#6CC349;}
	.st6{fill:#DFCD01;}
	.st7{fill:#D12F2F;}
	.st8{fill:#FBEF69;}
	.st9{fill:#F55656;}
	.st10{fill:#080402;}
	.st11{fill:#040201;}
	.st12{fill:#020100;}
</style>
<g>
	<path class="st0" d="M138.7,17c1.2,0.5,2.6,0.8,3.6,1.6c2.4,1.9,3.4,4.4,3.4,7.4c0,20.1,0,40.1,0,60.2c0,0.3,0,0.6,0,0.9   c-0.2,3.2-1.6,5.7-4.5,7.2c-0.5,0.3-0.8,0.6-0.8,1.2c-0.5,3.9-2.7,6.6-6.4,7.9c-3.6,1.3-7.2,0.8-9.8-2.1c-2.4-2.7-5.1-3.8-8.6-3.8   c-4.2,0-7.2-1.9-8.9-5.8c-0.4-0.8-0.8-1.6-1.2-2.4c-1-2.3-2.7-3.2-5.1-3.4c-1.7-0.1-3.4-0.1-5.1-0.5c-3.4-0.8-5.9-2.8-7-6.1   c-1-3.1-2.7-5.3-5.8-6.6c-4.5-1.9-6.3-5.8-5.5-10.6c0.6-3.7-0.4-5.6-3.8-7c-3.2-1.3-5.3-3.5-6.1-6.9c-0.3-1.4,0-2.9,0.2-4.3   c0.4-3.3-0.6-5.1-3.6-6.4c-1.6-0.7-3.2-1.5-4.4-2.9c-2.7-3.1-1.4-7.5,1-9.8c2.2-2.1,4.8-3.2,7.6-4c0.7-0.2,1.3-0.5,1.8-1.1   c0.8-1,1.9-1.6,3.1-2.1c0.4-0.1,0.8-0.1,1-0.5C95.5,17,117.1,17,138.7,17z M108,75.6L108,75.6c3.5,5.9,8.7,8.7,15.6,9.3   c-0.2-0.3-0.3-0.5-0.4-0.6c-2.1-2.1-4.2-4.2-6.3-6.3c-0.2-0.2-0.3-0.4-0.6-0.3c0-0.4-0.3-0.6-0.5-0.8c-3.3-3.3-6.6-6.6-9.9-9.9   c-0.1-0.1-0.2-0.3-0.6-0.2c0.2,3,0.9,5.8,2.5,8.4C107.8,75.4,107.9,75.5,108,75.6z M86.2,47.4c-1.1-1.1-2.3-2.1-3.4-3.1   c0,0.2,0.1,0.5,0.1,0.8c0.6,3.1,1.2,6.2,1.8,9.4c0.2,1.1,0.7,1.9,1.7,2.5c4.8,2.8,9.5,5.6,14.3,8.3c0.3,0.2,0.6,0.5,0.9,0.4   c0.4-1.6,0.5-3.1-1.1-4.1c-0.3-0.2-0.6-0.4-1-0.7c0-0.5-0.4-0.7-0.7-0.9c-1.1-1.1-2.2-2.3-3.4-3.4c-0.9-0.9-1.1-1.8-0.5-2.9   c1.4-0.9,2-0.8,3.2,0.5C110,66,121.7,77.7,133.5,89.5c0.7,0.7,1.4,1.5,2.5,1.7c0.3,0.2,0.6,0.2,0.9,0.3c3.1,0.2,5.1-1.9,5.1-5.3   c0-20,0-40.1,0-60.1c0-3.7-1.8-5.4-5.5-5.4c-18.3,0-36.6,0-54.9,0c-1.9,0-3.9,0-5.8,0c-2.2,0-3.7,1.1-4.4,3.1   c-0.7,2-0.1,3.7,1.4,5.1C79.2,35.2,85.6,41.6,92,48c0.9,0.9,1.3,1.9,0.7,3.1c-1.4,0.8-2,0.8-3.2-0.4C88.4,49.6,87.3,48.5,86.2,47.4   z M64.2,26.4c-0.6,0.1-0.9,0.6-1.3,1c-2.1,2.1-1.7,4.5,0.9,5.9c0.8,0.4,1.7,0.8,2.5,1.2c3.5,1.7,5.4,5.5,4.8,9.3   c-0.2,1.3-0.6,2.7-0.2,4.1c0.6,2.1,2.2,3.1,4.1,3.9c4.8,2.1,6.6,5.5,5.7,10.7c-0.6,3.4,0.6,5.6,3.7,7.1c0.9,0.4,1.9,0.8,2.8,1.5   c2.2,1.7,3.5,3.9,4.4,6.5c0.8,2.6,2.6,4.1,5.3,4.5c1.3,0.2,2.6,0.2,3.9,0.3c3.6,0.2,6.4,1.8,8,5.1c0.6,1.2,1.2,2.3,1.7,3.5   c0.9,1.8,2.3,2.7,4.3,2.8c1.1,0.1,2.2,0.2,3.2,0.2c2.4,0.1,4.7,0.7,6.5,2.5c0.7,0.7,1.4,1.5,2.1,2.2c3.1,2.9,8.2,1.9,9.7-2   c0.6-0.9,0.6-1.4-0.7-1.6c-1.7-0.3-3-1.2-4.2-2.4c-1.2-1.2-2.5-2.4-3.7-3.7c-0.4-0.4-0.7-0.6-1.3-0.5c-4.7,0.6-9-0.5-13.1-2.6   c-3.2-1.8-5.9-4.3-8-7.4c-1.4-2.3-2.5-4.8-3.1-7.4c-0.1-0.7-0.6-0.9-1.1-1.2c-6-3.5-12.1-7.1-18.1-10.6c-1.2-1.1-1.7-2.5-1.9-4   c-0.4-2.3-0.9-4.5-1.3-6.8c-0.5-2.9-1.1-5.7-1.6-8.5c-0.1-0.4-0.2-0.8-0.6-1c-1.3-1.2-2.5-2.5-3.8-3.7c-1.6-1.7-3.2-3.4-4.9-5.1   c-0.7-1-1.1-2.1-1.4-3.3c-0.2-0.7,0.4-1.7-0.4-1.9c-0.6-0.1-1.4,0.5-2.1,0.8C64.8,25.9,64.5,26.1,64.2,26.4z"/>
	<path class="st0" d="M24.2,81.3c-1.6-0.5-1.8-0.9-1.8-2.5c0-2.6-0.1-5.2,0-7.9c0.1-3.4,1.5-5.9,4.6-7.5c0.5-0.3,0.6-0.6,0.7-1.1   c0.5-3.9,2.6-6.5,6.3-7.8c3.7-1.3,7.3-0.8,9.9,2.1c2.4,2.7,5.1,3.8,8.6,3.7c4.2-0.1,7.2,1.9,8.9,5.8c0.4,0.9,0.9,1.6,1.2,2.5   c0.9,2.2,2.6,3.1,4.9,3.2c1.3,0.1,2.6,0.1,3.9,0.3c4.1,0.5,7,2.6,8.4,6.5c1.1,3,2.7,5.2,5.8,6.5c4.5,2,6.3,5.8,5.5,10.6   c-0.6,3.7,0.4,5.6,3.8,7c3.2,1.3,5.3,3.5,6.1,6.9c0.3,1.4,0,2.7-0.1,4.1c-0.5,3.6,0.5,5.3,3.8,6.7c1.6,0.7,3.1,1.5,4.2,2.9   c2.5,3,1.4,7.4-1.1,9.8c-2.1,2-4.8,3.1-7.5,3.9c-0.7,0.2-1.2,0.5-1.7,1c-1.7,1.9-3.9,2.7-6.4,2.7c-12.9,0-25.9,0-38.8,0   c-1.5,0-2-0.4-2.4-1.8c0.2-1.3,1-1.8,2.3-1.8c2.3,0,4.7,0,7,0c10.6,0,21.3,0,32,0c2.3,0,3.8-1.1,4.5-3.1c0.8-2,0-3.7-1.4-5.1   C74.9,108.6,54.5,88.3,34.2,68c-0.6-0.6-1.2-1.3-2.2-1.4c-2.3-1-5.4,0.7-5.8,3.2c-0.5,3-0.2,6-0.2,9C26,80.1,25.6,81,24.2,81.3z    M51.6,80.1c3.7,3.6,7.4,7.3,11.1,10.9c-0.2-3.1-0.9-5.9-2.5-8.5c-3.5-6.1-8.8-9.1-15.7-9.7C47,75.3,49.3,77.7,51.6,80.1z    M68.1,96.5c4.5,4.7,9.1,9.3,13.8,13.8c1.1,1,2.3,2.1,3.4,3.1c0,0,0-0.1,0-0.2c-0.7-3.5-1.4-7.1-2-10.6c-0.1-0.8-0.6-1.2-1.2-1.5   c-5-2.9-10-5.9-14.9-8.8c-0.2-0.1-0.4-0.3-0.5-0.3C65.7,94.1,66.4,95.5,68.1,96.5z M88.2,109.4c0.5,2.9,1.1,5.7,1.6,8.5   c0.1,0.4,0.2,0.7,0.5,1c1.3,1.3,2.6,2.5,3.9,3.8c1.6,1.7,3.2,3.4,4.9,5.1c0.7,1,1.1,2.1,1.4,3.3c0.2,0.7-0.4,1.7,0.4,1.9   c0.6,0.1,1.4-0.5,2.1-0.8c0.4-0.2,0.6-0.5,1-0.7c0.6-0.2,1-0.7,1.4-1.1c2-2,1.6-4.4-0.9-5.8c-0.8-0.5-1.7-0.8-2.5-1.2   c-3.5-1.7-5.5-5.5-4.9-9.4c0.2-1.3,0.6-2.7,0.1-4.1c-0.6-2.1-2.2-3.1-4.1-4c-4.8-2.1-6.6-5.5-5.7-10.7c0.6-3.4-0.6-5.6-3.7-7.1   c-1-0.5-2-0.9-2.8-1.6c-2.2-1.8-3.5-4.1-4.4-6.8c-0.9-2.5-3-4-5.6-4.2c-1.2-0.1-2.5-0.2-3.7-0.3c-3.6-0.3-6.2-2-7.7-5.3   c-0.6-1.3-1.3-2.5-1.9-3.7c-0.7-1.4-1.9-2.1-3.5-2.3c-1.1-0.1-2.2-0.2-3.4-0.3c-3.4-0.1-6.2-1.2-8.3-3.9c-0.2-0.3-0.6-0.6-0.8-0.9   c-3.1-2.8-8.1-1.6-9.5,2.1c-0.6,0.9-0.6,1.4,0.7,1.6c1.7,0.3,3,1.2,4.2,2.4c1.2,1.2,2.5,2.4,3.7,3.7c0.4,0.4,0.7,0.6,1.3,0.5   c4.7-0.6,9,0.4,13.1,2.6c3.2,1.8,5.9,4.3,8,7.4c1.4,2.3,2.5,4.8,3.1,7.4c0.1,0.7,0.6,0.9,1.1,1.2c6,3.5,12.1,7.1,18.1,10.6   c1.1,1,1.6,2.3,1.9,3.8C87.3,104.7,87.8,107,88.2,109.4z"/>
	<path class="st1" d="M96.6,134c-0.7,2-2.2,3.1-4.5,3.1c-10.6,0-21.3,0-32,0c-2.3,0-4.7,0-7,0c-1.3,0-2.1,0.5-2.3,1.8   c-1.2,0-2.4,0-3.6,0c-0.3-1.3-1.1-1.8-2.4-1.8c-4.4,0-8.8,0-13.2,0c-4,0-5.7-1.7-5.7-5.6c0-14.7,0-29.4,0-44.1   c0-1.7-0.3-2.1-1.8-2.5c0-1.2,0-2.4,0-3.5c1.4-0.3,1.8-1.2,1.8-2.6c0-3-0.3-6,0.2-9c0.4-2.5,3.5-4.2,5.8-3.2c0,6.8,0,13.5,0,20.2   c0,0.4-0.2,0.9,0.2,1.2c-0.7,0.9-0.6,1.8,0,2.6C32,90.9,32,91.2,32,91.5c0,4.4,0,8.8,0,13.1c-0.7,0.7-1.3,1.4-2,2.1   c-0.8,0.8-1.3,1.6-0.6,2.7c0.6,1,1.6,1,2.5,0.6c0,3.7,0,7.4,0.1,11c-1.3,1.7-1.3,2.3,0,3.5c0,0.8,0,1.6,0,2.4c-0.2,4.2,2.8,7,7,7.1   c4.5,0,9,0,13.5,0c0.4,0,0.9,0.2,1.2-0.3c1.1,1.3,1.8,1.4,3.3,0.2C70.3,134,83.4,134,96.6,134z"/>
	<path class="st2" d="M24.2,84.9c1.5,0.4,1.8,0.8,1.8,2.5c0,14.7,0,29.4,0,44.1c0,3.9,1.7,5.6,5.7,5.6c4.4,0,8.8,0,13.2,0   c1.3,0,2.2,0.5,2.4,1.8c-0.5,1.5-0.9,1.8-2.4,1.8c-4.7,0-9.3,0-14,0c-4.9,0-8.5-3.5-8.5-8.3c-0.1-15.1,0-30.2,0-45.3   C22.4,85.7,22.8,85.2,24.2,84.9z"/>
	<path class="st3" d="M92.7,51c0.7-1.2,0.3-2.1-0.7-3.1c-6.4-6.4-12.8-12.7-19.1-19.1c-1.4-1.4-2.1-3.1-1.4-5.1   c13.1,0,26.3,0,39.4,0c-0.2,0.3-0.5,0.6-0.7,0.8c-5.5,5.5-11,11-16.5,16.5c-0.4,0.4-0.8,0.7-0.9,1.2c-0.2,0.9-0.1,1.6,0.7,2.1   c0.9,0.6,1.7,0.3,2.4-0.4c5.9-5.9,11.8-11.8,17.7-17.7c0.7-0.7,0.8-1.4,0.6-2.3c0.2-0.3,0.5-0.3,0.8-0.3c4.9,0,9.8-0.1,14.7,0   c3,0.1,5.1,1.8,6.1,4.7c0.5,1.6,0.2,3.2,0.2,4.8c-1.2-0.3-2,0.2-2.8,1c-7.7,7.7-15.4,15.4-23.1,23.2c-0.3,0.3-0.6,0.6-0.9,1   c-0.6,0.9-0.1,2.2,1,2.6c0.9,0.3,1.5-0.1,2.2-0.7c3.1-3.1,6.1-6.2,9.2-9.2c4.8-4.8,9.6-9.5,14.4-14.3c0,3.7,0,7.4,0,11.1   c-5.7,5.7-11.4,11.4-17.2,17.1c-0.4,0.4-0.8,0.7-1.1,1.1c-0.8,0.9-0.8,1.9,0,2.6c0.7,0.7,1.8,0.7,2.6-0.1c1.5-1.5,3.1-3,4.6-4.5   c3.7-3.7,7.4-7.4,11.1-11.1c0,4.4,0,8.8,0,13.2c0,0.3,0,0.6-0.3,0.8c-1.4-0.7-1.9-0.7-3,0.4c-2.2,2.2-4.4,4.4-6.6,6.6   c-0.2,0.2-0.4,0.3-0.5,0.5c-0.6,0.9-0.5,1.7,0.3,2.4c0.7,0.6,1.5,0.7,2.3,0.1c0.6-0.5,1.1-1,1.6-1.5c2-1.9,3.9-3.9,5.9-5.9   c0.4,0.4,0.2,0.8,0.2,1.2c0,6.8,0,13.5,0,20.3c-1.1-0.2-1.8-1-2.5-1.7c-11.8-11.7-23.5-23.5-35.2-35.2c-1.3-1.3-1.9-1.4-3.2-0.5   C94.3,52.7,93.2,52.2,92.7,51z M102.7,52.9c0.8,0,1.2-0.5,1.7-1c7.8-7.8,15.7-15.6,23.5-23.5c0.2-0.2,0.4-0.4,0.6-0.6   c0.5-0.8,0.5-1.6-0.2-2.3c-0.7-0.7-1.5-0.7-2.3-0.2c-0.3,0.2-0.6,0.5-0.9,0.8c-7.7,7.7-15.4,15.4-23,23.1c-0.3,0.3-0.6,0.6-0.9,1   c-0.4,0.6-0.4,1.2,0,1.8C101.4,52.6,102,52.8,102.7,52.9z M86.3,36.5c0.6,0,1-0.3,1.3-0.6c1.1-1.1,2.1-2.1,3.2-3.1   c1.3-1.3,2.7-2.6,4-4c0.7-0.8,0.8-1.7,0.1-2.5c-0.6-0.7-1.7-0.9-2.5-0.2c-2.6,2.5-5,5-7.5,7.5c-0.5,0.5-0.5,1.2-0.2,1.9   C85,36.2,85.6,36.5,86.3,36.5z"/>
	<path class="st1" d="M135.7,67c0.3-0.2,0.3-0.5,0.3-0.8c0-4.4,0-8.8,0-13.2c0.7-0.7,1.4-1.4,2.1-2.1c0.7-0.7,1.2-1.5,0.6-2.5   c-0.7-1-1.6-1.1-2.6-0.6c0-3.7,0-7.4,0-11.1c1.3-1.6,1.3-2.3,0-3.5c-0.1-1.6,0.3-3.2-0.2-4.8c-0.9-2.9-3-4.6-6.1-4.7   c-4.9-0.1-9.8,0-14.7,0c-0.3,0-0.6,0-0.8,0.3c-1.2-1.3-1.8-1.4-3.3-0.3c-13.1,0-26.3,0-39.4,0c0.6-2,2.2-3.1,4.4-3.1   c1.9,0,3.9,0,5.8,0c18.3,0,36.6,0,54.9,0c3.7,0,5.5,1.8,5.5,5.4c0,20,0,40.1,0,60.1c0,3.4-2.1,5.5-5.1,5.3c-0.3,0-0.6-0.1-0.9-0.3   c0-6.8,0-13.5,0-20.3c0-0.4,0.2-0.9-0.2-1.2C136.4,68.8,136.4,67.9,135.7,67z"/>
	<path class="st4" d="M136.3,96.5c-1.5,3.8-6.7,4.9-9.7,2c-0.7-0.7-1.4-1.5-2.1-2.2c-1.8-1.8-4.1-2.3-6.5-2.5   c-1.1-0.1-2.2-0.2-3.2-0.2c-2-0.1-3.4-1-4.3-2.8c-0.6-1.2-1.2-2.3-1.7-3.5c-1.6-3.4-4.4-4.9-8-5.1c-1.3-0.1-2.6-0.1-3.9-0.3   c-2.7-0.4-4.4-1.9-5.3-4.5c-0.9-2.6-2.2-4.8-4.4-6.5c-0.8-0.6-1.8-1.1-2.8-1.5c-3.2-1.5-4.3-3.7-3.7-7.1c0.9-5.1-0.9-8.5-5.7-10.7   c-1.9-0.8-3.5-1.8-4.1-3.9c-0.4-1.4-0.1-2.7,0.2-4.1c0.6-3.8-1.3-7.6-4.8-9.3c-0.8-0.4-1.7-0.7-2.5-1.2c-2.6-1.4-3-3.8-0.9-5.9   c0.4-0.4,0.7-0.9,1.3-1c0.3,0.5,0.5,1,0.9,1.4c1,1.3,2.3,2.1,4,2.3c1.6,1.7,3.2,3.4,4.9,5.1c-0.4,0.3-0.3,0.7-0.3,1.1   c0.1,1.4-0.1,2.8-0.4,4.2c-0.1,0.4-0.1,0.8,0,1.2c0.8,4.2,2.8,5.7,6.6,6.8c0.4,2.3,0.9,4.5,1.3,6.8c0.3,1.5,0.8,2.9,1.9,4   c0.3,2.8,1.5,5.1,4.2,6.2c3.3,1.4,5.7,3.6,6.8,7c0.5,1.6,1.3,3,2.7,4.1c2.5,2.2,5.5,2.1,8.5,1.9c0,0,0.1-0.1,0.1-0.1   c2.1,3,4.8,5.5,8,7.4c0.1,1.6,1.1,2.6,2.4,3.4c1.4,0.9,3.1,1.1,4.7,1.1c3.2,0.1,6.2,0.5,8.5,3.3C130.7,95.9,133.2,97,136.3,96.5z"/>
	<path class="st5" d="M105.3,78.4C105.3,78.4,105.2,78.5,105.3,78.4c-3.1,0.2-6,0.4-8.6-1.8c-1.3-1.2-2.2-2.5-2.7-4.1   c-1.1-3.5-3.5-5.6-6.8-7c-2.7-1.1-3.9-3.4-4.2-6.2c6,3.5,12.1,7.1,18.1,10.6c0.5,0.3,0.9,0.5,1.1,1.2   C102.8,73.6,103.9,76.1,105.3,78.4z"/>
	<path class="st6" d="M99.5,61c0.3,0.2,0.6,0.4,1,0.7c1.6,1,1.5,2.5,1.1,4.1c-0.4,0.1-0.6-0.2-0.9-0.4c-4.8-2.8-9.5-5.6-14.3-8.3   c-1-0.6-1.5-1.3-1.7-2.5c-0.5-3.1-1.2-6.2-1.8-9.4c-0.1-0.3-0.1-0.6-0.1-0.8c1.1,1,2.2,2.1,3.4,3.1c0.2,1.4,0.6,2.8,0.7,4.1   c0.2,1.8,1.1,3,2.7,3.9c2.3,1.3,4.6,2.8,7,4.1C97.5,60,98.4,60.8,99.5,61z"/>
	<path class="st5" d="M136.3,96.5c-3.1,0.5-5.6-0.6-7.4-3c-2.2-2.8-5.2-3.2-8.5-3.3c-1.7,0-3.3-0.3-4.7-1.1   c-1.2-0.8-2.3-1.8-2.4-3.4c4.1,2.1,8.5,3.2,13.1,2.6c0.5-0.1,0.9,0.1,1.3,0.5c1.2,1.2,2.4,2.5,3.7,3.7c1.2,1.2,2.6,2.2,4.2,2.4   C136.9,95.1,136.9,95.7,136.3,96.5z"/>
	<path class="st7" d="M116.2,77.7c0.3,0,0.4,0.1,0.6,0.3c2.1,2.1,4.2,4.2,6.3,6.3c0.1,0.1,0.2,0.3,0.4,0.6   c-6.8-0.5-12.1-3.4-15.6-9.3c0.5-0.2,0.8,0.1,1.2,0.3C111.5,76.8,113.7,77.8,116.2,77.7z"/>
	<path class="st5" d="M79.8,48.4c-3.8-1.1-5.8-2.6-6.6-6.8c-0.1-0.4-0.1-0.8,0-1.2c0.3-1.4,0.5-2.8,0.4-4.2c0-0.4-0.1-0.8,0.3-1.1   c1.3,1.2,2.5,2.5,3.8,3.7c0.3,0.3,0.5,0.6,0.6,1C78.7,42.7,79.3,45.6,79.8,48.4z"/>
	<path class="st8" d="M99.5,61c-1.2-0.1-2-1-3-1.5c-2.4-1.3-4.6-2.7-7-4.1c-1.5-0.9-2.5-2-2.7-3.9c-0.1-1.4-0.4-2.8-0.7-4.1   c1.1,1.1,2.2,2.1,3.3,3.2c1.2,1.2,1.7,1.2,3.2,0.4c0.5,1.1,1.7,1.7,2.3,2.7c-0.6,1.1-0.4,2,0.5,2.9c1.2,1.1,2.3,2.2,3.4,3.4   C99.1,60.3,99.5,60.5,99.5,61z"/>
	<path class="st9" d="M116.2,77.7c-2.5,0.1-4.7-0.8-7-1.8c-0.4-0.2-0.8-0.5-1.2-0.3l0,0c0.2-0.3-0.1-0.3-0.2-0.4   c-1.6-2.6-2.2-5.4-2.5-8.4c0.3-0.1,0.4,0.1,0.6,0.2c3.3,3.3,6.6,6.6,9.9,9.9C116,77.1,116.2,77.3,116.2,77.7z"/>
	<path class="st5" d="M69,30c-1.7-0.1-3-1-4-2.3c-0.3-0.4-0.6-0.9-0.9-1.4c0.3-0.2,0.6-0.5,1-0.7c0.7-0.3,1.5-1,2.1-0.8   c0.8,0.2,0.2,1.2,0.4,1.9C67.9,27.9,68.4,29,69,30z"/>
	<path class="st7" d="M107.8,75.2c0.2,0.1,0.4,0.1,0.2,0.4C107.9,75.5,107.8,75.4,107.8,75.2z"/>
	<path class="st3" d="M32.1,121c0-3.7,0-7.4-0.1-11c6-6,12-12,17.9-17.9c0.2-0.2,0.4-0.5,0.6-0.7c0.5-0.8,0.4-1.6-0.3-2.3   c-0.7-0.6-1.4-0.7-2.2-0.2c-0.4,0.3-0.7,0.6-1.1,1c-5,4.9-9.9,9.9-14.9,14.8c0-4.4,0-8.8,0-13.1c0-0.3,0-0.6,0.3-0.8   c1.1,0.8,2,0.6,2.9-0.3c1.6-1.6,3.2-3.2,4.8-4.8c0.7-0.7,1.5-1.5,2.2-2.2c0.7-0.8,0.7-1.8,0-2.5c-0.7-0.7-1.7-0.8-2.5-0.1   c-0.3,0.2-0.5,0.5-0.8,0.8c-2.2,2.2-4.4,4.3-6.6,6.5c-0.4-0.4-0.2-0.8-0.2-1.2c0-6.8,0-13.5,0-20.2c0.9,0.1,1.6,0.8,2.2,1.4   c20.3,20.3,40.6,40.6,60.9,60.9c1.4,1.4,2.2,3.1,1.4,5.1c-13.1,0-26.3,0-39.5,0c5.6-5.6,11.3-11.3,16.9-17c0.3-0.3,0.5-0.5,0.8-0.8   c0.8-0.9,0.8-2,0.1-2.7c-0.7-0.7-1.7-0.7-2.6,0.1c-0.1,0.1-0.3,0.3-0.4,0.4c-5.7,5.7-11.4,11.4-17.1,17.1c-0.8,0.8-1.2,1.5-0.9,2.6   c-0.3,0.4-0.8,0.2-1.2,0.3c-4.5,0-9,0-13.5,0c-4.2,0-7.3-2.8-7-7.1c0-0.8,0-1.6,0-2.4c1.2,0.3,2-0.2,2.8-1   c7.7-7.7,15.4-15.4,23-23.1c1.4-1.4,1.5-2.3,0.7-3.2c-0.9-0.9-2-0.7-3.3,0.7c-7.4,7.4-14.8,14.8-22.2,22.2   C32.7,120.4,32.4,120.7,32.1,121z M67.2,106.8c0-0.8-0.3-1.3-0.9-1.6c-0.6-0.3-1.2-0.3-1.8,0.1c-0.4,0.2-0.7,0.6-1,0.9   c-6.4,6.4-12.8,12.8-19.2,19.2c-1.4,1.4-2.9,2.8-4.3,4.3c-0.9,0.9-0.9,2-0.2,2.8c0.8,0.7,1.8,0.7,2.7-0.2c8-8,16-16,24-24   C66.9,107.8,67.2,107.3,67.2,106.8z M83.6,123.2c0-0.9-0.4-1.5-1.1-1.8c-0.9-0.4-1.6,0-2.2,0.6c-2.3,2.3-4.6,4.5-6.8,6.8   c-0.9,1-1,2-0.2,2.8c0.7,0.7,1.8,0.8,2.7-0.1c2.4-2.3,4.7-4.6,7-7C83.3,124.1,83.6,123.7,83.6,123.2z"/>
	<path class="st4" d="M31.8,61.2c1.5-3.8,6.5-4.9,9.5-2.1c0.3,0.3,0.6,0.5,0.8,0.9c2.1,2.8,4.9,3.9,8.3,3.9c1.1,0,2.2,0.1,3.4,0.3   c1.5,0.2,2.7,0.9,3.5,2.3c0.7,1.2,1.4,2.5,1.9,3.7c1.5,3.3,4.1,5,7.7,5.3c1.2,0.1,2.5,0.2,3.7,0.3c2.6,0.1,4.8,1.7,5.6,4.2   c0.9,2.6,2.2,5,4.4,6.8c0.9,0.7,1.9,1.1,2.8,1.6c3.2,1.5,4.3,3.7,3.7,7.1c-0.9,5.1,0.9,8.5,5.7,10.7c1.9,0.8,3.5,1.8,4.1,4   c0.4,1.4,0.1,2.7-0.1,4.1c-0.6,3.9,1.4,7.7,4.9,9.4c0.8,0.4,1.7,0.7,2.5,1.2c2.5,1.4,2.8,3.7,0.9,5.8c-0.4,0.4-0.8,0.9-1.4,1.1   c-0.3-0.5-0.5-1-0.9-1.4c-1.1-1.2-2.3-2.2-4-2.3c-1.6-1.7-3.2-3.4-4.9-5.1c0.4-0.3,0.3-0.7,0.3-1.1c-0.1-1.4,0.1-2.8,0.4-4.2   c0.1-0.4,0.1-0.8,0-1.2c-0.6-3.8-2.8-6-6.6-6.8c-0.4-2.4-0.9-4.7-1.3-7c-0.3-1.4-0.8-2.7-1.9-3.8c-0.2-3-1.7-5.3-4.4-6.4   c-3.6-1.5-5.8-4-6.9-7.6c-0.4-1.3-1.2-2.4-2.3-3.3c-1.9-1.8-4.3-2-6.7-2.1c-0.6,0-1.4-0.3-2,0.2c-2.1-3-4.8-5.5-8-7.4   c0-1.9-2.3-3.9-4.6-4.2c-1.7-0.2-3.5-0.3-5.2-0.5c-1.3-0.1-2.6-0.4-3.7-1.3c-1.1-0.9-2.1-2-3.1-3C36.3,61.4,34.2,60.8,31.8,61.2z"/>
	<path class="st5" d="M62.7,79.4c0.6-0.5,1.3-0.3,2-0.2c2.4,0.1,4.8,0.3,6.7,2.1c1.1,1,1.9,2,2.3,3.3c1.1,3.6,3.2,6.2,6.9,7.6   c2.7,1.1,4.2,3.3,4.4,6.4c-6-3.5-12.1-7.1-18.1-10.6c-0.5-0.3-0.9-0.5-1.1-1.2C65.3,84.1,64.1,81.7,62.7,79.4z"/>
	<path class="st6" d="M68.1,96.5c-1.7-1-2.4-2.5-1.6-4.5c0.1-0.1,0.3,0.1,0.5,0.3c5,2.9,10,5.9,14.9,8.8c0.6,0.4,1.1,0.8,1.2,1.5   c0.7,3.5,1.3,7.1,2,10.6c0,0.1,0,0.2,0,0.2c-1.1-1-2.2-2.1-3.4-3.1c-0.1-1.9-0.6-3.7-1-5.5c-0.2-1-1-1.7-1.9-2.2   c-2.4-1.4-4.7-2.8-7.1-4.1C70.6,97.8,69.6,96.8,68.1,96.5z"/>
	<path class="st5" d="M31.8,61.2c2.4-0.4,4.5,0.2,6.3,1.8c1.1,1,2,2.1,3.1,3c1.1,0.9,2.3,1.1,3.7,1.3c1.8,0.2,3.5,0.3,5.2,0.5   c2.3,0.3,4.6,2.4,4.6,4.2c-4.1-2.1-8.5-3.2-13.1-2.6c-0.5,0.1-0.9-0.1-1.3-0.5c-1.2-1.2-2.4-2.4-3.7-3.7c-1.2-1.2-2.6-2.2-4.2-2.4   C31.1,62.6,31.2,62.1,31.8,61.2z"/>
	<path class="st7" d="M51.6,80.1c-2.3-2.4-4.6-4.8-7-7.2c6.9,0.6,12.2,3.6,15.7,9.7c-2.1-0.9-4.2-1.9-6.5-2.3   C53,80.1,52.3,79.6,51.6,80.1z"/>
	<path class="st5" d="M88.2,109.4c3.8,0.8,6,3.1,6.6,6.8c0.1,0.4,0.1,0.8,0,1.2c-0.3,1.4-0.5,2.8-0.4,4.2c0,0.4,0.1,0.8-0.3,1.1   c-1.3-1.3-2.6-2.5-3.9-3.8c-0.3-0.3-0.4-0.6-0.5-1C89.3,115.1,88.8,112.2,88.2,109.4z"/>
	<path class="st9" d="M51.6,80.1c0.7-0.5,1.5,0,2.1,0.1c2.3,0.4,4.4,1.4,6.5,2.3c1.6,2.6,2.2,5.4,2.5,8.5   C59,87.4,55.3,83.7,51.6,80.1z"/>
	<path class="st8" d="M68.1,96.5c1.5,0.2,2.6,1.3,3.8,2c2.4,1.3,4.7,2.7,7.1,4.1c0.9,0.5,1.7,1.2,1.9,2.2c0.4,1.8,0.9,3.6,1,5.5   C77.2,105.8,72.6,101.3,68.1,96.5z"/>
	<path class="st5" d="M99,127.7c1.7,0,2.9,1,4,2.3c0.4,0.4,0.6,0.9,0.9,1.4c-0.3,0.2-0.6,0.5-1,0.7c-0.7,0.3-1.5,1-2.1,0.8   c-0.8-0.2-0.2-1.2-0.4-1.9C100.1,129.8,99.7,128.7,99,127.7z"/>
	<path class="st10" d="M32.1,121c0.3-0.3,0.7-0.6,1-0.9c7.4-7.4,14.8-14.8,22.2-22.2c1.3-1.3,2.4-1.5,3.3-0.7   c0.9,0.9,0.7,1.9-0.7,3.2c-7.7,7.7-15.4,15.4-23,23.1c-0.8,0.8-1.6,1.3-2.8,1C30.7,123.3,30.7,122.7,32.1,121z"/>
	<path class="st10" d="M32.1,104.6c5-4.9,9.9-9.9,14.9-14.8c0.3-0.3,0.7-0.7,1.1-1c0.8-0.5,1.6-0.5,2.2,0.2c0.7,0.7,0.8,1.5,0.3,2.3   c-0.2,0.3-0.4,0.5-0.6,0.7c-6,6-12,12-17.9,17.9c-1,0.4-1.9,0.4-2.5-0.6c-0.7-1-0.1-1.9,0.6-2.7C30.8,106,31.4,105.3,32.1,104.6z"/>
	<path class="st11" d="M53.8,133.7c-0.3-1,0.1-1.8,0.9-2.6c5.7-5.7,11.4-11.4,17.1-17.1c0.1-0.1,0.3-0.3,0.4-0.4   c0.9-0.8,1.9-0.8,2.6-0.1c0.7,0.7,0.7,1.8-0.1,2.7c-0.2,0.3-0.5,0.5-0.8,0.8c-5.6,5.6-11.3,11.3-16.9,17   C55.6,135.1,55,135,53.8,133.7z"/>
	<path class="st11" d="M32.3,88.1c2.2-2.2,4.4-4.4,6.6-6.5c0.3-0.2,0.5-0.5,0.8-0.8c0.8-0.7,1.8-0.6,2.5,0.1s0.7,1.7,0,2.5   c-0.7,0.8-1.5,1.5-2.2,2.2c-1.6,1.6-3.2,3.2-4.8,4.8c-0.9,0.9-1.8,1.1-2.9,0.3C31.6,89.8,31.6,89,32.3,88.1z"/>
	<path class="st10" d="M136,33.2c1.3,1.3,1.3,1.9,0,3.5c-4.8,4.8-9.6,9.5-14.4,14.3c-3.1,3.1-6.2,6.1-9.2,9.2   c-0.6,0.6-1.3,1-2.2,0.7c-1-0.3-1.5-1.6-1-2.6c0.2-0.4,0.6-0.7,0.9-1c7.7-7.7,15.4-15.4,23.1-23.2C134,33.4,134.8,32.9,136,33.2z"/>
	<path class="st12" d="M102.7,52.9c-0.7,0-1.3-0.3-1.6-0.9c-0.3-0.6-0.4-1.2,0-1.8c0.2-0.4,0.6-0.7,0.9-1c7.7-7.7,15.4-15.4,23-23.1   c0.3-0.3,0.6-0.6,0.9-0.8c0.8-0.5,1.6-0.5,2.3,0.2c0.7,0.7,0.7,1.5,0.2,2.3c-0.1,0.2-0.4,0.4-0.6,0.6c-7.8,7.8-15.7,15.6-23.5,23.5   C103.9,52.3,103.5,52.9,102.7,52.9z"/>
	<path class="st11" d="M136,47.9c1-0.5,1.9-0.4,2.6,0.6c0.6,1,0.2,1.8-0.6,2.5c-0.7,0.7-1.4,1.4-2.1,2.1c-3.7,3.7-7.4,7.4-11.1,11.1   c-1.5,1.5-3,3-4.6,4.5c-0.8,0.8-1.9,0.8-2.6,0.1c-0.7-0.8-0.7-1.7,0-2.6c0.3-0.4,0.7-0.8,1.1-1.1C124.6,59.3,130.3,53.6,136,47.9z"/>
	<path class="st11" d="M110.9,23.8c1.6-1.1,2.2-1.1,3.3,0.3c0.2,0.9,0,1.6-0.6,2.3c-5.9,5.9-11.8,11.8-17.7,17.7   c-0.7,0.7-1.5,1-2.4,0.4c-0.8-0.5-1-1.2-0.7-2.1c0.1-0.5,0.6-0.9,0.9-1.2c5.5-5.5,11-11,16.5-16.5C110.4,24.3,110.7,24,110.9,23.8z   "/>
	<path class="st10" d="M86.3,36.5c-0.7,0-1.3-0.3-1.6-1c-0.3-0.7-0.3-1.4,0.2-1.9c2.5-2.5,5-5.1,7.5-7.5c0.8-0.7,1.9-0.6,2.5,0.2   c0.7,0.9,0.6,1.7-0.1,2.5c-1.3,1.4-2.7,2.7-4,4c-1.1,1.1-2.1,2.1-3.2,3.1C87.2,36.3,86.8,36.5,86.3,36.5z"/>
	<path class="st11" d="M135.7,67c0.6,0.9,0.6,1.8,0,2.6c-2,1.9-3.9,3.9-5.9,5.9c-0.5,0.5-1,1-1.6,1.5c-0.8,0.6-1.6,0.6-2.3-0.1   c-0.8-0.7-0.8-1.5-0.3-2.4c0.1-0.2,0.3-0.4,0.5-0.5c2.2-2.2,4.4-4.4,6.6-6.6C133.9,66.4,134.4,66.3,135.7,67z"/>
	<path class="st12" d="M67.2,106.8c0,0.5-0.3,1-0.7,1.4c-8,8-16,16-24,24c-0.9,0.9-1.9,0.9-2.7,0.2c-0.8-0.8-0.7-1.8,0.2-2.8   c1.4-1.4,2.8-2.9,4.3-4.3c6.4-6.4,12.8-12.8,19.2-19.2c0.3-0.3,0.6-0.6,1-0.9c0.6-0.4,1.2-0.4,1.8-0.1   C66.9,105.4,67.2,106,67.2,106.8z"/>
	<path class="st10" d="M83.6,123.2c0,0.5-0.3,0.9-0.6,1.3c-2.3,2.3-4.7,4.7-7,7c-0.9,0.9-1.9,0.9-2.7,0.1c-0.8-0.8-0.8-1.8,0.2-2.8   c2.3-2.3,4.6-4.6,6.8-6.8c0.6-0.6,1.3-1,2.2-0.6C83.2,121.7,83.6,122.3,83.6,123.2z"/>
</g>
</svg>