<?xml version="1.0" encoding="UTF-8"?>
<!-- Generator: Adobe Illustrator 25.4.1, SVG Export Plug-In . SVG Version: 6.00 Build 0)  -->
<svg version="1.1" id="Layer_1" xmlns="http://www.w3.org/2000/svg" xmlns:xlink="http://www.w3.org/1999/xlink" x="0px" y="0px" viewBox="0 0 168 158" style="enable-background:new 0 0 168 158;" xml:space="preserve">
<style type="text/css">
	.st0{fill:#060505;}
	.st1{fill:#966A5B;}
	.st2{fill:#E5E5E5;}
	.st3{fill:#F3F2F2;}
	.st4{fill:#F9EA81;}
	.st5{fill:#E84961;}
	.st6{fill:#825651;}
	.st7{fill:#D4D4D4;}
	.st8{fill:#E3E3E3;}
	.st9{fill:#F9D763;}
	.st10{fill:#C82F61;}
	.st11{fill:#F5C14D;}
	.st12{fill:#060606;}
	.st13{fill:#0A0A0A;}
</style>
<g>
	<path class="st0" d="M148.4,19.4c0,3.9,0,7.7,0,11.6c-0.5,0.5-1,1.1-1.6,1.6c-2.3,2.1-4.6,4.2-7,6.3c-0.7,0.6-0.9,1.1-0.7,2   c0.5,2.2,0.1,4.3-1,6.3c-0.4,0.7-0.3,1.2,0.1,1.8c11.4,21.7,11.1,43.3-1.8,64.2c-16.6,26.9-51.6,36.5-79.9,22.5   c-3.3-1.7-6.5-3.6-9.5-5.7c-0.4,0.2-0.3,0.6-0.4,0.8c-1.8,6.5-8,10.9-14.5,10.2c-7.2-0.8-12.3-6-12.7-12.9   c-0.4-6.9,4.2-13,10.9-14.4c1-0.2,1-0.4,0.5-1.2c-10.1-16.8-12-34.5-6-53.1c0.2-0.5,0.3-1,0.2-1.6c-0.9-5.8,0.3-11.2,3.3-16.2   c0.7-1.2,1.6-1.5,2.9-1.1c1.1,1.1,1.2,1.7,0.4,3c-0.7,1.1-1.4,2.2-1.7,3.6c-0.2,0.2-0.2,0.4-0.2,0.6h-0.1v0.1   c-0.1,0.1-0.2,0.3-0.2,0.4c-2.7,8.1,0.7,17.5,8,22.3c6.3,4.1,15.1,4.2,20.7,0.4l0,0c0.1-0.1,0.2-0.1,0.4-0.2   c6.8-3.7,10.7-12.8,8.9-20.8c-3-13.2-17.6-19.5-29.4-12.6c-1.5,0.9-2,0.8-3.2-0.4c-0.5-1.3,0-2.1,1.2-2.8c2.1-1.3,4.4-2.2,6.8-2.8   c0.7-0.2,1.1-0.5,1.4-1.2c4.8-12.5,18.9-18.4,31-13.2c1.1,0.5,2.1,0.6,3.3,0.5c5-0.4,10-0.3,14.9,0.5c1.6,0.3,1.9,0.7,2,2.3   c-0.5,1.2-1.4,1.6-2.7,1.4c-2.9-0.5-5.8-0.7-8.8-0.7c-0.7,0-1.4,0-2.2,0c1,1.2,1.9,2.1,2.7,3.1c0.4,0.5,0.8,0.7,1.5,0.7   c1.6,0.1,3.3,0.2,4.9,0.4c7.7,1,14.9,3.5,21.5,7.6c0.2,0.2,0.5,0.5,0.9,0.2c1-0.9,2.1-1.3,3.4-1.9c-4.6-3.1-9.4-5.4-14.5-7.1   c-1.6-0.5-1.8-1-1.7-2.6c0.9-1.3,1.4-1.5,3-1c6.9,2.3,13.1,5.6,18.8,10.1c0.6,0.5,1,0.6,1.8,0.2c2.2-1.1,4.5-1.1,6.8-0.1   c0.6,0.3,1,0.2,1.5-0.3c4.1-3.7,8.2-7.4,12.3-11.1C146.2,17.9,147,17.9,148.4,19.4z M71.6,56.2c0,0.4-0.2,0.8,0,1.3   c1.6-0.5,3.1-1,4.5-2c6.6-3.4,10.8-12.2,9.5-19.8c-1.9-10.9-11.2-17.9-22.2-16.5C57.1,20,52.3,23.3,49.1,29   c-0.4,0.5-0.7,1.1-0.9,1.8c0.9,0.1,1.7,0.1,2.4,0.3c1.4,0.3,2.1,0,2.2-1.5c1-1.7,2.6-2.7,4-4c1.8-1.5,3.8-2,6-1.1   c0.4,0.2,0.7,0.2,1.1-0.1c1.8-1.8,3.9-2.1,6.3-1.2c0.8,0.3,1.7,0.6,2.5,0.9c2.3,0.7,3.7,2.2,4.1,4.6c0.1,0.7,0.4,0.8,1,1   c2,0.7,3.3,2,3.7,4.1c0.3,1.3,0.5,2.5,0.7,3.8c0.3,2.1-0.3,3.9-2,5.2c-0.5,0.4-0.6,0.8-0.5,1.4c0.4,1.7,0.1,3.3-1,4.6   c-1.5,1.7-3.2,3.3-5.4,4.3c-1.5-0.1-2,0.7-1.7,2.1C71.6,55.4,71.6,55.8,71.6,56.2z M66.8,37c-0.6-0.6-1.2-0.5-1.8,0.2   c-0.6,0.8,0.3,0.9,0.5,1.2s0.4,0.6,0.7,0.8c0.3,0.2,0.3,1.1,1.1,0.6c0.7-0.4,1-0.9,0.5-1.6C67.9,37.5,67.8,36.9,66.8,37z    M70.5,42.4c-1.3,0.6-1.5,1-0.9,2.2c0.5,1.2,1,2.5,1.3,3.8c0.2,1.2,0.8,1.3,1.7,0.6c1-0.8,1.9-1.6,2.9-2.4c0.9-0.8,0.9-2.1,0-2.6   C74,43.2,72.3,42.4,70.5,42.4z M56.9,30.5c-1.1,1.2-1.1,1.5,0.4,2.2c1.1,0.5,2.2,1,3.2,1.6c1.2,0.7,1.6,0.7,2.4-0.6   c0.3-1.8-0.2-3.5-0.8-5.1c-0.3-1-1.7-1.2-2.6-0.5C58.6,28.9,57.8,29.7,56.9,30.5z M136.1,35.2c0.5,1,1,1.2,1.9,0.3   c1.8-1.7,3.6-3.4,5.5-5c1-0.8,1.3-1.7,1.1-2.8c0-1,0-2,0-3.3c-2.9,2.6-5.7,5.1-8.5,7.7C134.4,33.6,134.4,33.6,136.1,35.2z    M27.5,65.3c-0.1-0.1,0-0.5-0.3-0.3c-0.2,0.2-0.2,0.5-0.3,0.8c-2,8.2-2.2,16.4-0.7,24.6c1.5,8.2,4.7,15.7,9.4,22.6   c0.7,1,2.8,1.6,3.6,1c1-0.5,1.2-1.1,0.4-2c-0.4-0.3-0.6-0.8-0.9-1.2c-8.3-12.4-11.3-25.9-8.9-40.7c0.1-0.5,0.2-1-0.1-1.6   C29,67.5,28.3,66.4,27.5,65.3z M40.5,118.1c-1.1,0.5-2.1,0.4-3.2-0.1c-3.1-1.3-6.2-1.3-9.1,0.5c-3.4,1.9-5,5-5,8.8   c0,3.7,1.6,6.7,5,8.5c3.3,2.1,8,1.8,11.1-0.6c3.4-2.6,4.9-7,3.5-11.1c-0.5-1.7-0.2-2.9,1.1-4c2.2-1.9,4.4-4,6.6-5.9   c0.8-0.7,0.8-1.1-0.1-1.7c-0.4-0.4-0.8-0.9-1.1-1.3c-0.4-0.6-0.7-0.4-1.2,0C45.6,113.6,43.1,115.9,40.5,118.1z M102.8,96.6   c-1.3,2.5-1.3,5.2-0.7,7.8c1.7,8,11.2,12.7,18.2,8.9c0.5-0.2,1-0.4,1.5-0.7c4.4-2.8,6.5-6.9,6.2-12c-0.3-5.2-3.1-9-7.9-11.2   c-1.2-0.5-2-1.2-1.9-2.6c0.9-1.5,1.5-1.7,3.1-1c5.4,2.3,8.6,6.4,10.2,12.3c4.6-12.6,4.6-24.9-0.1-37.3c-2.4,1.9-5,2.7-7.9,2.8   c-0.9,0-0.8,0.5-0.8,1.1c-0.2,3.9-2.1,6.6-5.6,8.3c-1.6,0.8-3.3,1.2-5.1,1.2c-0.9,0-1.1,0.3-1.1,1.2c-0.2,3.9-2.2,6.7-5.7,8.3   c-1.5,0.7-3.1,1.1-4.7,1.1c-0.9,0-1.3,0.2-1.3,1.2c-0.3,4.2-2.5,7-6.4,8.5c-1.3,0.5-2.7,0.9-4.2,0.8c-0.9,0-1.2,0.2-1.2,1.2   c-0.2,3.9-2.2,6.7-5.7,8.3c-1.5,0.7-3.2,1.1-4.9,1.1c-0.8,0-1.1,0.2-1.2,1.1c-0.2,6.2-5.9,10.3-11.8,8.7c-0.6-0.2-1.1-0.1-1.7,0.2   c-2.2,1.1-4.5,1.2-6.7,0.4c-1.1-0.4-1.7-0.3-2.3,0.6c-0.7,0.4-1.3,1.1-1.9,1.7c0.2,0.2,0.3,0.3,0.5,0.4c5.6,4.6,12,7.8,19,9.8   c1.2,0.3,1.9,1,1.9,2.3c-0.7,1.5-1.3,1.8-3,1.3c-7.6-2-14.4-5.6-20.5-10.6c-0.5-0.4-1-0.9-1.5,0c-1.4,1.1-1.4,2.6,0,3.7   c12.3,9.5,26.2,13.6,41.7,12.3c3.4-0.3,6.7-0.8,10-1.9c0.2,0,0.3-0.1,0.5-0.1s0.4,0,0.5-0.2c3.4-0.8,6.5-2.1,9.6-3.7   c18.2-9.5,29.1-24.4,32-44.8c1.8-12.5-0.5-24.3-6.4-35.4c-0.1-0.2-0.1-0.6-0.6-0.5c-0.6,1.9-0.2,4-0.9,5.9   c-0.1,0.2,0.1,0.5,0.2,0.7c4.3,10,5.5,20.4,3.6,31.2c-2.4,13.5-9,24.6-19.6,33.1c-11.3,9.1-24.2,13-38.7,12c-1.5-0.1-2-0.6-2.2-2.3   c0.5-1.2,1.4-1.7,2.7-1.5c2.7,0.3,5.5,0.2,8.2,0c3.4-0.3,6.8-0.8,10.1-2c4.1-1,7.9-2.8,11.5-4.9c2.5-1.5,4.9-3.1,7.3-5.2   c-1.9,0-3.5,0-5.1-0.2c-7.6-1.2-13.6-7.9-14-15.6c-0.4-8.2,4.7-15.4,12.4-17.4c1.5-0.4,2.2,0,2.8,1.4c0,1.4-0.8,1.9-2,2.3   C107.2,90.2,104.2,92.6,102.8,96.6z M45.4,108.6c1.1-0.7,1.5-1.4,1.3-2.8c-0.6-3.1,0.4-5.9,2.6-8.2c1.3-1.3,1.8-2.7,1.9-4.5   c0-3.7,1.9-6.4,5.1-8.2c1.7-1,3.6-1.3,5.6-1.4c0.9,0,1.1-0.4,1.1-1.2c0.2-4.2,2.4-6.9,6.2-8.5c1.4-0.6,2.9-0.9,4.4-0.9   c0.9,0,1.1-0.2,1.1-1.1c0.2-4,2.3-6.8,6-8.5c1.5-0.7,3-1,4.6-1c0.9,0,1.2-0.2,1.2-1.2c0.1-3.1,1.5-5.6,4.1-7.4c2-1.3,4.2-2,6.5-2   c0.8,0,1.2-0.2,1.2-1.1c0-2.5,1-4.6,2.8-6.4c2.1-2.1,4.8-3,7.8-3.1c1,0,1.4-0.3,1.3-1.3c-0.1-0.8,0.1-1.6,0.4-2.3   c0.5-0.9,0-1.3-0.7-1.7c-3.8-2.2-7.8-4-12.1-5.2c-3.3-0.9-6.7-1.6-10.3-1.7c0.1,0.4,0.3,0.7,0.4,0.9c5.4,13.4-2.1,28.2-16.2,31.6   c-0.9,0.2-1.3,0.6-1.6,1.4c-3.4,8.7-11.8,14.6-21.2,14.9c-5.1,0.1-9.7-1.4-14-4.1c-0.4-0.4-0.8-0.8-1.4-1c-0.1,0.2-0.1,0.3-0.1,0.4   c-1.5,12.8,1.2,24.7,8.4,35.4C43.3,110.8,43.3,110.8,45.4,108.6z M121.2,35c-0.1-0.1-0.3-0.2-0.4-0.2c-3.8-0.7-6.8,1.7-6.9,5.6   c-0.1,2.3-1.3,3.9-3.5,4.3c-0.6,0.1-1.2,0.1-1.8,0.1c-4.1,0.2-6.4,2.5-6.6,6.6c0,0.5-0.1,0.9-0.3,1.3c-0.8,2-2.4,2.7-4.4,2.7   c-4,0.1-6.9,2.4-7.1,5.7c-0.2,3.6-1.3,4.7-4.8,4.9c-4.1,0.2-6.7,2.5-7,6c-0.2,3.3-1.4,4.4-4.6,4.6c-4,0.2-7.3,2.3-7.2,6.6   c0,2.6-1.6,3.8-4.2,4c-0.7,0-1.3,0.1-2,0.2c-3.1,0.5-5.5,2.8-5.5,5.5c0,3-1,5.4-3.1,7.5c-1.5,1.5-1.8,3.5-1.2,5.6   c0,0.5,0.2,0.9,0.5,1.3c1,1.6,2.4,2.9,3.7,4.3c1.8,2,4.2,2.2,6.3,0.6c0.9-0.6,1.6-0.8,2.7-0.3c4.1,1.7,8-0.8,8.1-5.2   c0.1-2.5,1.5-4.1,4-4.3c0.5,0,1,0,1.5-0.1c3.9-0.3,6.1-2.6,6.3-6.6c0-0.4,0.1-0.8,0.2-1.1c0.6-1.8,2-2.8,4.4-2.9   c3.9-0.1,7.4-2.6,7.2-6.6c-0.1-2.5,1.8-4,4.4-4.1c0.8,0,1.6-0.1,2.4-0.3c2.9-0.6,4.9-2.8,5-5.4c0.2-3.5,1.4-4.7,4.8-4.9   c4.4-0.2,6.6-2.3,7-6.7c0.2-2.2,1.8-3.7,4.1-3.9c0.8,0,1.6-0.1,2.4-0.3c3.2-0.6,5.4-2.9,5.3-5.8c0-2.8,0.9-5.1,3-7.1   c2.3-2.2,2.4-5.6,0.4-8.1c-1-1.3-2.2-2.4-3.3-3.6c-0.4-0.4-0.8-0.8-1.5-0.9c-1.8-0.8-3.4-0.5-4.9,0.8   C123.4,35.8,122.3,35.4,121.2,35z M68.1,26.4c-1.3,0-2.2,0.9-2,2c0.2,1.2,0.4,2.4,0.7,3.6c0.3,1.3,1.7,1.9,2.7,1.1   c1-0.8,2-1.6,3-2.5c0.8-0.8,0.7-2.1-0.2-2.6C70.9,27.2,69.4,26.8,68.1,26.4z M78.5,38c-0.2-1.1-0.4-2.4-0.8-3.7   c-0.4-1.2-1.7-1.7-2.7-0.9s-2,1.6-2.9,2.5s-0.8,2.3,0.4,2.8c1.2,0.5,2.5,1,3.8,1.3C77.6,40.4,78.5,39.5,78.5,38z"/>
	<path class="st1" d="M129.3,34.2c0.6,0.1,1.1,0.5,1.5,0.9c1.1,1.2,2.2,2.4,3.3,3.6c2.1,2.5,2,5.8-0.4,8.1c-2,2-3,4.2-3,7.1   c0,2.9-2.1,5.2-5.3,5.8c-0.8,0.1-1.6,0.2-2.4,0.3c-2.2,0.1-3.9,1.6-4.1,3.9c-0.4,4.4-2.6,6.5-7,6.7c-3.4,0.2-4.7,1.5-4.8,4.9   c-0.1,2.6-2.1,4.8-5,5.4c-0.8,0.2-1.6,0.3-2.4,0.3c-2.6,0.1-4.5,1.5-4.4,4.1c0.1,4-3.3,6.5-7.2,6.6c-2.4,0-3.8,1-4.4,2.9   c-0.1,0.3-0.2,0.7-0.2,1.1c-0.2,4-2.4,6.3-6.3,6.6c-0.5,0-1,0-1.5,0.1c-2.5,0.3-3.9,1.8-4,4.3c-0.1,4.4-4,7-8.1,5.2   c-1-0.4-1.8-0.3-2.7,0.3c-2.2,1.6-4.5,1.3-6.3-0.6c-1.3-1.4-2.6-2.7-3.7-4.3c-0.3-0.4-0.4-0.8-0.5-1.3c0.9-1.2,1.2-2.7,2.3-3.7   c1.8-1.6,2.6-3.6,2.6-6c-0.1-1.8,0.7-3.4,1.9-4.8c1.9-2.2,4.4-2.9,7-3.2c2.5-0.3,3-0.8,3.1-3.4c0.1-2,1-3.6,2.3-4.8   c2-1.8,4.5-2.5,7.1-2.6c1.7-0.1,2.3-0.7,2.4-2.4c0.1-1.5,0.4-2.9,1.2-4.2c1.7-2.6,4.2-3.8,7.2-4c2.6-0.2,3.9-0.7,3.8-3.6   c0-1.6,0.7-3.1,1.9-4.3c1.9-2,4.2-2.9,7-3c2,0,2.9-0.7,3-2.5c0.2-1.9,0.6-3.7,2-5.3c2-2,4.3-2.9,7.1-3c2.1-0.1,2.9-0.9,2.9-2.9   c0-1.3,0.4-2.5,1.1-3.7c1.1-1.9,2.9-2.8,4.7-3.8c1.1,0.4,2.2,0.8,3.2,0c0.5,0.2,1,0.3,1.5,0.5c0.4,0.2,0.8,0.4,1.1,0   C127.7,34.9,128.6,34.6,129.3,34.2z M119.1,56.5c0-0.1,0-0.2,0-0.3c-1.2-2.6-2.4-5.2-3.9-7.7c-0.5-0.8-1.4-0.8-2.3-0.4   c-0.8,0.5-1.2,1.2-0.9,2.1c1.1,2.5,2.3,5,3.7,7.4c0.4,0.7,1.2,1,2.1,0.7C118.7,57.9,119.1,57.3,119.1,56.5z M96,77.3   c0-0.1,0-0.3,0-0.5c-1.1-2.5-2.3-5.1-3.8-7.5c-0.5-0.8-1.4-1-2.3-0.5s-1.2,1.4-0.8,2.3c1.1,2.4,2.3,4.8,3.6,7.2   c0.4,0.8,1.3,1,2.2,0.7C95.6,78.8,96,78.1,96,77.3z M84.5,87.7c0-0.1,0-0.3,0-0.4c-1.1-2.6-2.4-5.2-3.8-7.6   c-0.5-0.8-1.5-0.8-2.4-0.3c-0.8,0.5-1.2,1.3-0.8,2.2c1.1,2.4,2.4,4.8,3.6,7.2c0.5,0.9,1.4,1,2.2,0.7C84,89.2,84.4,88.6,84.5,87.7z    M67.9,89.3c-1.5,0-2.3,1.4-1.7,2.8c1,2.2,2.1,4.4,3.3,6.5c0.6,1.1,1.6,1.5,2.5,1c1-0.5,1.4-1.5,0.9-2.7c-1.1-2.2-2.2-4.4-3.3-6.5   C69.2,89.7,68.6,89.3,67.9,89.3z M102.4,58.2c-1.5,0-2.4,1.4-1.8,2.8c1.1,2.3,2.2,4.5,3.4,6.8c0.5,1,1.5,1.3,2.5,0.8   s1.4-1.5,0.9-2.5c-1.1-2.2-2.2-4.4-3.3-6.7C103.7,58.7,103.1,58.3,102.4,58.2z M56.9,101c-1.3,0-2.2,1.3-1.6,2.6   c0.6,1.5,1.4,2.9,2.2,4.4c0.5,0.9,1.6,1.2,2.5,0.8s1.3-1.5,0.8-2.5c-0.6-1.5-1.4-2.9-2.1-4.3C58.3,101.3,57.6,101,56.9,101z    M130,44.5c-0.8-1.7-1.5-3.7-2.9-5.3c-0.5-0.6-1.4-0.5-2.1,0s-1.1,1.3-0.8,2.1c0.7,1.6,1.5,3.1,2.3,4.6c0.4,0.7,1.3,1,2.1,0.6   C129.5,46.2,129.9,45.5,130,44.5z"/>
	<path class="st2" d="M53,117.1c0.6-0.9,1.2-1,2.3-0.6c2.2,0.9,4.5,0.7,6.7-0.4c0.6-0.3,1-0.3,1.7-0.2c5.9,1.6,11.6-2.6,11.8-8.7   c0-0.9,0.4-1.1,1.2-1.1c1.7,0,3.3-0.4,4.9-1.1c3.5-1.7,5.5-4.4,5.7-8.3c0.1-1,0.4-1.2,1.2-1.2c1.4,0,2.8-0.3,4.2-0.8   c3.8-1.5,6.1-4.3,6.4-8.5c0.1-1,0.4-1.2,1.3-1.2c1.6,0,3.2-0.4,4.7-1.1c3.5-1.7,5.5-4.4,5.7-8.3c0-0.8,0.3-1.1,1.1-1.2   c1.8,0,3.5-0.4,5.1-1.2c3.5-1.7,5.4-4.4,5.6-8.3c0-0.6,0-1,0.8-1.1c2.8-0.1,5.5-0.8,7.9-2.8c4.6,12.4,4.7,24.7,0.1,37.3   c-1.6-5.9-4.8-10-10.2-12.3c-1.6-0.7-2.2-0.5-3.1,1c-1.6-0.4-3.3-0.4-5-0.3c-0.6-1.5-1.3-1.8-2.8-1.4c-7.7,2-12.8,9.2-12.4,17.4   c0.4,7.7,6.4,14.4,14,15.6c1.6,0.3,3.2,0.2,5.1,0.2c-2.4,2.1-4.7,3.8-7.3,5.2c-3.6,2.1-7.4,3.9-11.5,4.9c-0.2-0.4-0.6-0.2-0.9-0.1   c-3.3,0.8-6.7,1-10,1c-3.2,0-6.5-0.3-9.7-0.9c-6.6-1.2-12.7-3.5-18.4-7.1C57.1,120.1,55.1,118.6,53,117.1z M95.6,114.4   c-3,0-5.5,2.3-5.5,5.3s2.4,5.5,5.4,5.5c2.9,0,5.4-2.4,5.4-5.3C100.9,116.8,98.6,114.4,95.6,114.4z M79.3,126.5   c2.9,0,5.3-2.3,5.4-5.2c0-3-2.4-5.4-5.3-5.4s-5.3,2.4-5.3,5.3C74.1,124.1,76.4,126.5,79.3,126.5z M121.6,80.4   c1.1,0,1.9-0.8,1.9-1.9c0-1-0.8-1.8-1.8-1.9c-1,0-2,0.8-2,1.8C119.7,79.5,120.6,80.4,121.6,80.4z M86.7,114.3c1,0,1.9-0.8,1.9-1.9   c0-1-0.8-1.8-1.8-1.9c-1.1-0.1-2,0.7-2,1.8C84.9,113.4,85.7,114.3,86.7,114.3z M127.4,71.9c-1,0-1.9,0.8-1.9,1.9   c0,1,0.7,1.8,1.8,1.9c1.1,0.1,2-0.7,2-1.8C129.3,72.8,128.4,71.9,127.4,71.9z M128.3,83.4c1,0,1.9-0.8,1.9-1.8s-0.9-2-1.9-2   c-1,0-1.9,0.9-1.9,2C126.5,82.6,127.3,83.4,128.3,83.4z M66.3,121.9c-0.1,1,0.7,2,1.8,2c1,0.1,2-0.8,2-1.8c0.1-1-0.7-1.9-1.7-2   C67.2,120.1,66.3,120.8,66.3,121.9z"/>
	<path class="st2" d="M34.8,73.5c4.3,2.7,8.9,4.2,14,4.1c9.3-0.3,17.8-6.2,21.2-14.9c0.3-0.8,0.7-1.2,1.6-1.4   c14-3.5,21.6-18.2,16.2-31.6c-0.1-0.3-0.2-0.5-0.4-0.9c3.6,0.2,7,0.8,10.3,1.7c4.2,1.2,8.3,2.9,12.1,5.2c0.7,0.4,1.2,0.8,0.7,1.7   c-0.4,0.7-0.5,1.5-0.4,2.3c0.1,1-0.3,1.3-1.3,1.3c-2.9,0.1-5.6,1-7.8,3.1c-1.8,1.8-2.8,3.9-2.8,6.4c0,0.9-0.4,1.1-1.2,1.1   c-2.4,0.1-4.6,0.7-6.5,2c-2.6,1.8-4,4.3-4.1,7.4c0,1-0.3,1.2-1.2,1.2c-1.6,0-3.2,0.4-4.6,1c-3.6,1.6-5.7,4.4-6,8.5   c0,0.9-0.3,1.1-1.1,1.1c-1.5,0-3,0.3-4.4,0.9c-3.8,1.6-6,4.4-6.2,8.5c0,0.8-0.2,1.2-1.1,1.2c-1.9,0.1-3.8,0.5-5.6,1.4   c-3.2,1.8-5.1,4.5-5.1,8.2c0,1.8-0.6,3.2-1.9,4.5c-2.2,2.2-3.2,5-2.6,8.2c0.3,1.4-0.2,2.2-1.3,2.8c-0.2-0.1-0.4-0.2-0.5-0.4   c-2.7-3.6-4.9-7.6-6.6-11.8c-1.6-4.1-2.8-8.3-3.4-12.7c-0.5-3.2-0.4-6.5-0.4-9.8C34.5,73.9,34.7,73.7,34.8,73.5z M38.6,86.1   c-1.1,0-1.9,0.9-1.8,1.9c0,1,0.9,1.8,1.9,1.8s1.9-0.9,1.9-1.9C40.5,86.9,39.7,86.1,38.6,86.1z M48.1,90c0-1-0.9-1.9-2-1.8   c-1,0-1.8,0.8-1.8,1.8s0.9,1.9,1.9,1.9S48.1,91,48.1,90z M42.8,95.1c0-1-0.9-1.9-1.9-1.9S39.1,94,39,95c0,1,0.8,2,1.8,2   C41.9,97,42.8,96.1,42.8,95.1z"/>
	<path class="st3" d="M99.8,136c-0.2,0-0.3,0.1-0.5,0.1c-0.1-0.1-0.2-0.2-0.4-0.2c-5.3,0.8-10.6,1.5-16.1,1   c-3.3-0.3-6.6-0.7-9.9-1.5c-8-1.9-15.4-5.4-22-10.3c-1.2-0.9-2.6-1.6-3.3-3.1c0.5-0.9,1-0.4,1.5,0c6.1,5,12.9,8.5,20.5,10.6   c1.7,0.5,2.3,0.2,3-1.3c1.6,0.4,3.2,0.8,4.9,0.8c0.2,1.7,0.7,2.2,2.2,2.3c14.4,1,27.4-2.9,38.7-12c10.6-8.6,17.2-19.7,19.6-33.1   c1.9-10.7,0.7-21.1-3.6-31.2c-0.1-0.2-0.3-0.5-0.2-0.7c0.7-1.9,0.3-4,0.9-5.9c0.5,0,0.5,0.3,0.6,0.5c5.9,11.1,8.2,23,6.4,35.4   c-3,20.4-13.9,35.2-32,44.8c-3,1.6-6.2,2.9-9.6,3.7C100,135.4,99.8,135.7,99.8,136z"/>
	<path class="st4" d="M31.2,40.7c1.2-1.2,2.4-2.4,3.6-3.7c1.1,1.2,1.7,1.3,3.2,0.4c11.8-6.9,26.3-0.6,29.4,12.6   c1.8,8-2.1,17.1-8.9,20.8c-0.1,0.1-0.2,0.1-0.4,0.2l0,0c-0.4,0.1-0.8,0.1-1.1,0.2c-1.8,0.5-3.6,0.8-5.4,0.8c-3.1-0.1-6.1-0.6-9-1.9   c-5.5-2.5-9.2-6.5-11.5-12c-1.3-3.2-1.5-6.7-1.5-10.1v-0.1h0.1c0.2-0.2,0.3-0.4,0.2-0.6c0.3-1.3,1-2.4,1.7-3.6   C32.4,42.4,32.3,41.8,31.2,40.7z M64.3,53.6c-0.1-1.2-0.5-2.8-0.8-4.3c-0.5-2-1.7-3.4-3.7-4.1c-0.6-0.2-0.9-0.5-1-1.2   c-0.3-2.2-1.6-3.6-3.7-4.4c-1.1-0.4-2.2-0.8-3.3-1.2c-2.1-0.7-4-0.3-5.6,1.2c-0.5,0.4-0.8,0.5-1.4,0.3c-2-0.8-4-0.5-5.6,0.9   c-0.9,0.8-1.9,1.6-2.8,2.4c-1.6,1.5-2.2,3.3-1.7,5.5c0.1,0.6,0,0.9-0.4,1.3c-1.6,1.3-2.4,2.9-2.1,5c0.2,1.4,0.5,2.7,0.8,4.1   c0.5,2.1,1.8,3.5,3.8,4.1c0.6,0.2,0.8,0.5,0.9,1.1c0.3,1.8,1.3,3.3,3,4.1c1.5,0.7,3.1,1.2,4.6,1.6c1.9,0.5,3.6,0,5-1.3   c0.5-0.5,0.9-0.5,1.5-0.3c2,0.7,3.8,0.4,5.4-0.9c1-0.8,1.9-1.6,2.8-2.4c1.6-1.5,2.4-3.3,1.8-5.5c-0.1-0.6,0-0.9,0.5-1.3   C63.6,57.3,64.3,55.8,64.3,53.6z"/>
	<path class="st4" d="M73.3,52.9c2.2-1,3.8-2.6,5.4-4.3c1.2-1.3,1.5-2.9,1-4.6c-0.2-0.6-0.1-1,0.5-1.4c1.7-1.3,2.4-3.1,2-5.2   c-0.2-1.3-0.5-2.5-0.7-3.8c-0.5-2.1-1.7-3.4-3.7-4.1c-0.6-0.2-0.9-0.4-1-1c-0.4-2.4-1.8-3.9-4.1-4.6c-0.8-0.3-1.7-0.5-2.5-0.9   c-2.3-0.9-4.5-0.6-6.3,1.2c-0.4,0.4-0.7,0.3-1.1,0.1c-2.2-0.9-4.2-0.5-6,1.1c-1.4,1.2-3,2.3-4,4c-1.3,0-2.5-0.1-3.8-0.5   c3.1-5.6,8-8.9,14.3-9.8c11-1.4,20.2,5.6,22.2,16.5c1.3,7.6-2.9,16.3-9.5,19.8c-1-0.1-1.8,0.6-2.8,0.5   C73.3,54.9,73.3,53.9,73.3,52.9z"/>
	<path class="st5" d="M113.2,86.7c1.7-0.1,3.3-0.1,5,0.3c-0.2,1.4,0.7,2,1.9,2.6c4.8,2.2,7.5,6,7.9,11.2c0.3,5.1-1.9,9.2-6.2,12   c-0.5,0.3-1,0.5-1.5,0.7c-1.5,0.1-3,0.2-4.5,0c-5-0.7-8.5-3.4-11.1-7.6c-1.7-2.8-2-6-2-9.2c1.5-4,4.4-6.5,8.4-7.7   C112.4,88.6,113.2,88,113.2,86.7z M123.7,101.6h0.1c0-0.8,0-1.6,0-2.4c0.1-2-0.8-3.4-2.5-4.3c-1.4-0.7-2.6-1.5-3.9-2.3   c-1.6-1-3.4-1.1-5,0c-1.3,0.9-2.7,1.6-4.1,2.4c-1.6,0.9-2.4,2.3-2.4,4.1c0,1.5,0.1,3.1,0,4.7c-0.1,2,0.7,3.5,2.5,4.4   c1.3,0.7,2.6,1.4,3.8,2.2c1.8,1.2,3.6,1.1,5.4-0.1c1-0.7,2-1.3,3.1-1.8c2.2-1,3.2-2.7,3-5.1C123.7,102.7,123.7,102.2,123.7,101.6z"/>
	<path class="st3" d="M28.2,118.6c2.9-1.8,6-1.9,9.1-0.5c1.1,0.5,2.1,0.6,3.2,0.1c1,1,2,1.1,3,0.1c1.7-1.5,3.4-3.1,5.1-4.6   c0.5-0.4,1-0.9,1.7-1c0.8,0.5,0.9,1,0.1,1.7c-2.2,1.9-4.3,4-6.6,5.9c-1.3,1.1-1.6,2.3-1.1,4c1.4,4.1-0.1,8.5-3.5,11.1   c-3.2,2.4-7.8,2.7-11.1,0.6c0-0.6-0.4-1-0.7-1.4c-3.3-4.3-3.3-10.1,0-14.5C27.8,119.6,28.2,119.2,28.2,118.6z M26.9,127.3   c0,3.5,2.8,6.2,6.4,6.2c3.5,0,6.2-2.9,6.2-6.4c0-3.4-2.9-6.2-6.3-6.2C29.7,120.9,26.9,123.8,26.9,127.3z"/>
	<path class="st6" d="M121.2,35c-1.8,0.9-3.6,1.8-4.7,3.8c-0.6,1.2-1,2.4-1.1,3.7c-0.1,2-0.9,2.8-2.9,2.9c-2.7,0.1-5.1,1-7.1,3   c-1.5,1.5-1.9,3.3-2,5.3c-0.2,1.8-1.1,2.5-3,2.5c-2.7,0.1-5,1-7,3c-1.1,1.2-1.9,2.7-1.9,4.3c0.1,2.9-1.2,3.4-3.8,3.6   c-3,0.2-5.5,1.4-7.2,4c-0.8,1.3-1.1,2.7-1.2,4.2c-0.1,1.7-0.6,2.3-2.4,2.4c-2.6,0.2-5.1,0.8-7.1,2.6c-1.4,1.3-2.3,2.9-2.3,4.8   c-0.1,2.6-0.6,3.1-3.1,3.4c-2.6,0.3-5.1,1-7,3.2c-1.2,1.4-2,3-1.9,4.8c0.1,2.5-0.8,4.4-2.6,6c-1.1,1-1.5,2.5-2.3,3.7   c-0.6-2.1-0.4-4.1,1.2-5.6c2.1-2.1,3.2-4.5,3.1-7.5c0-2.8,2.3-5,5.5-5.5c0.7-0.1,1.3-0.2,2-0.2c2.6-0.2,4.2-1.4,4.2-4   c0-4.2,3.3-6.3,7.2-6.6c3.2-0.2,4.3-1.3,4.6-4.6c0.3-3.5,2.9-5.8,7-6c3.5-0.2,4.6-1.2,4.8-4.9c0.2-3.3,3.1-5.7,7.1-5.7   c2,0,3.6-0.7,4.4-2.7c0.2-0.4,0.3-0.9,0.3-1.3c0.2-4,2.5-6.4,6.6-6.6c0.6,0,1.2,0,1.8-0.1c2.2-0.4,3.4-2,3.5-4.3   c0.1-3.9,3.1-6.3,6.9-5.6C120.9,34.8,121.1,34.9,121.2,35z"/>
	<path class="st3" d="M95.6,20.4c1.7,0.1,3.2,0.8,4.9,1c-0.1,1.6,0.2,2.1,1.7,2.6c5.1,1.7,9.9,4,14.5,7.2c-1.2,0.6-2.4,1.1-3.4,1.9   c-0.4,0.3-0.6,0-0.9-0.2c-6.6-4-13.8-6.6-21.5-7.6c-1.6-0.2-3.3-0.3-4.9-0.4c-0.6,0-1.1-0.2-1.5-0.7c-0.8-1-1.7-2-2.7-3.1   c0.8,0,1.5,0,2.2,0c2.9,0,5.9,0.2,8.8,0.7C94.1,22,95,21.6,95.6,20.4z"/>
	<path class="st7" d="M77.3,132c-1.7,0-3.2-0.4-4.9-0.8c0-1.3-0.6-1.9-1.9-2.3c-7-1.9-13.3-5.2-19-9.8c-0.2-0.1-0.3-0.3-0.5-0.4   c0.6-0.6,1.2-1.2,1.9-1.7c2.1,1.5,4.1,3,6.3,4.4c5.6,3.5,11.8,5.9,18.4,7.1c3.2,0.6,6.5,0.9,9.7,0.9c3.4,0,6.7-0.3,10-1   c0.3-0.1,0.6-0.3,0.9,0.1c-3.2,1.2-6.6,1.7-10.1,2c-2.7,0.3-5.5,0.3-8.2,0C78.8,130.4,77.8,130.8,77.3,132z"/>
	<path class="st3" d="M27.5,65.3c0.8,1.1,1.5,2.2,2.2,3.3c0.4,0.5,0.2,1,0.1,1.6c-2.4,14.7,0.6,28.3,8.9,40.7   c0.3,0.4,0.5,0.9,0.9,1.2c0.9,0.9,0.7,1.5-0.4,2c-0.1-0.2-0.1-0.5-0.2-0.7c-2.9-3.7-5.2-7.7-7.1-11.9c-3.6-7.7-5.2-15.9-5.4-24.3   C26.4,73.2,26.9,69.2,27.5,65.3z"/>
	<path class="st8" d="M47.6,122c0.7,1.5,2.1,2.2,3.3,3.1c6.6,4.9,14,8.3,22,10.3c3.2,0.8,6.5,1.2,9.9,1.5c5.4,0.5,10.7-0.1,16.1-1   c0.2,0,0.3,0.1,0.4,0.2c-3.2,1.1-6.6,1.6-10,1.9c-15.5,1.3-29.4-2.8-41.7-12.3C46.2,124.6,46.2,123.1,47.6,122z"/>
	<path class="st9" d="M29.7,48c-0.1,3.5,0.2,6.9,1.5,10.1c2.2,5.5,6,9.6,11.5,12c2.9,1.3,5.9,1.8,9,1.9c1.8,0,3.6-0.3,5.4-0.8   c0.4-0.1,0.7-0.1,1.1-0.2c-5.6,3.9-14.4,3.7-20.7-0.4c-7.3-4.8-10.7-14.1-8-22.3C29.5,48.2,29.6,48.1,29.7,48z"/>
	<path class="st8" d="M27.5,65.3c-0.7,3.9-1.1,7.9-1,11.8c0.2,8.4,1.9,16.6,5.4,24.3c2,4.2,4.3,8.2,7.1,11.9   c0.1,0.2,0.2,0.5,0.2,0.7c-0.8,0.6-2.9,0-3.6-1c-4.8-6.8-7.9-14.4-9.4-22.6c-1.5-8.2-1.3-16.5,0.7-24.6c0.1-0.3,0.1-0.7,0.3-0.8   C27.5,64.8,27.4,65.2,27.5,65.3z"/>
	<path class="st7" d="M34.8,73.5c-0.1,0.2-0.3,0.3-0.3,0.5c0,3.3-0.1,6.5,0.4,9.8c0.6,4.4,1.7,8.6,3.4,12.7   c1.7,4.2,3.9,8.1,6.6,11.8c0.1,0.2,0.3,0.2,0.5,0.4c-2.1,2.2-2.1,2.2-3.7-0.2c-7.2-10.8-9.9-22.6-8.4-35.4c0-0.1,0.1-0.2,0.1-0.4   C34,72.8,34.4,73.1,34.8,73.5z"/>
	<path class="st10" d="M102.8,96.6c-0.1,3.2,0.2,6.4,2,9.2c2.5,4.2,6.1,6.9,11.1,7.6c1.5,0.2,3,0.1,4.5,0c-7,3.7-16.5-0.9-18.2-8.9   C101.5,101.8,101.5,99.2,102.8,96.6z"/>
	<path class="st9" d="M68.1,26.4c1.3,0.4,2.8,0.8,4.2,1.5c1,0.5,1,1.8,0.2,2.6c-0.9,0.9-1.9,1.8-3,2.5c-1.1,0.8-2.4,0.2-2.7-1.1   c-0.3-1.2-0.5-2.4-0.7-3.6C65.9,27.3,66.8,26.4,68.1,26.4z"/>
	<path class="st9" d="M78.5,38c0,1.5-0.9,2.3-2.1,2c-1.3-0.3-2.6-0.8-3.8-1.3c-1.2-0.5-1.4-1.9-0.4-2.8c0.9-0.9,1.9-1.7,2.9-2.5   s2.4-0.4,2.7,0.9C78,35.6,78.2,36.9,78.5,38z"/>
	<path class="st8" d="M136.1,35.2c-1.6-1.6-1.7-1.6,0-3.2c2.8-2.5,5.6-5,8.5-7.7c0,1.2,0,2.3,0,3.3c-0.9,0.2-1.4,1-2,1.6   C140.4,31.2,138.2,33.2,136.1,35.2z"/>
	<path class="st8" d="M28.2,118.6c0,0.6-0.4,1-0.7,1.4c-3.3,4.3-3.3,10.1,0,14.5c0.3,0.4,0.8,0.8,0.7,1.4c-3.3-1.9-4.9-4.8-5-8.5   C23.1,123.6,24.8,120.5,28.2,118.6z"/>
	<path class="st8" d="M50.4,112.6c-0.7,0.1-1.2,0.6-1.7,1c-1.7,1.5-3.4,3.1-5.1,4.6c-1.1,1-2,0.9-3-0.1c2.5-2.3,5.1-4.6,7.6-6.9   c0.4-0.4,0.8-0.6,1.2,0C49.6,111.8,50,112.2,50.4,112.6z"/>
	<path class="st9" d="M56.9,30.5c0.9-0.8,1.7-1.6,2.6-2.3s2.2-0.5,2.6,0.5c0.5,1.6,1.1,3.3,0.8,5.1C60.9,32.7,58.9,31.6,56.9,30.5z"/>
	<path class="st9" d="M70.5,42.4c1.8,0,3.5,0.7,5,1.6c0.9,0.5,0.8,1.8,0,2.6c-0.9,0.8-1.9,1.6-2.9,2.4c0-0.8-0.2-1.5-0.4-2.2   C71.8,45.3,71,43.9,70.5,42.4z"/>
	<path class="st3" d="M136.1,35.2c2.2-2,4.3-4,6.5-5.9c0.6-0.5,1.1-1.4,2-1.6c0.2,1.2-0.1,2-1.1,2.8c-1.9,1.6-3.8,3.2-5.5,5   C137.1,36.4,136.6,36.2,136.1,35.2z"/>
	<path class="st11" d="M56.9,30.5c2,1.1,4,2.2,6,3.3c-0.8,1.2-1.2,1.3-2.4,0.6c-1-0.6-2.1-1.1-3.2-1.6C55.9,32,55.8,31.7,56.9,30.5z   "/>
	<path class="st11" d="M70.5,42.4c0.5,1.5,1.3,2.9,1.7,4.4c0.2,0.7,0.4,1.4,0.4,2.2c-0.9,0.7-1.5,0.6-1.7-0.6   c-0.3-1.3-0.8-2.5-1.3-3.8C69,43.4,69.2,43,70.5,42.4z"/>
	<path class="st9" d="M49.1,28.9c1.2,0.4,2.5,0.5,3.8,0.5c-0.1,1.5-0.9,1.8-2.2,1.5c-0.8-0.2-1.6-0.2-2.4-0.3   C48.4,30,48.7,29.4,49.1,28.9z"/>
	<path class="st9" d="M67.8,38.3c0.5,0.7,0.2,1.2-0.5,1.6c-0.8,0.5-0.8-0.3-1.1-0.6c-0.3-0.2-0.6-0.5-0.7-0.8   c-0.2-0.4-1.1-0.5-0.5-1.2c0.5-0.7,1.1-0.8,1.8-0.2C66.8,37.7,67.3,38,67.8,38.3z"/>
	<path class="st6" d="M129.3,34.2c-0.7,0.5-1.6,0.7-2.2,1.3c-0.4,0.4-0.7,0.2-1.1,0c-0.5-0.2-1-0.3-1.5-0.5   C125.9,33.7,127.5,33.3,129.3,34.2z"/>
	<path class="st9" d="M73.3,52.9c0,1,0,2,0,3c-0.6,0.1-1.1,0.2-1.7,0.2c0-0.4,0-0.8,0-1.1C71.4,53.7,71.8,52.9,73.3,52.9z"/>
	<path class="st11" d="M71.6,56.2c0.6-0.1,1.1-0.2,1.7-0.2c1,0.1,1.8-0.6,2.8-0.5c-1.4,1-2.9,1.5-4.5,2C71.4,57,71.6,56.6,71.6,56.2   z"/>
	<path class="st4" d="M67.8,38.3c-0.5-0.3-1-0.6-1-1.3C67.8,36.9,67.9,37.5,67.8,38.3z"/>
	<path class="st8" d="M99.8,136c0.1-0.3,0.2-0.6,0.5-0.2C100.2,136,100,136.1,99.8,136z"/>
	<path class="st9" d="M29.9,47.2c0,0.2,0,0.5-0.2,0.6C29.7,47.6,29.7,47.4,29.9,47.2z"/>
	<path class="st9" d="M58.2,71c0.1-0.1,0.2-0.1,0.4-0.2C58.4,70.9,58.3,71,58.2,71z"/>
	<path class="st12" d="M119.1,56.5c-0.1,0.8-0.4,1.5-1.3,1.8s-1.7,0.1-2.1-0.7c-1.4-2.4-2.6-4.9-3.7-7.4c-0.4-0.9,0.1-1.7,0.9-2.1   c0.8-0.5,1.8-0.4,2.3,0.4c1.5,2.5,2.7,5.1,3.9,7.7C119.1,56.2,119.1,56.3,119.1,56.5z"/>
	<path class="st12" d="M96,77.3c0,0.9-0.4,1.5-1.2,1.8c-0.9,0.3-1.8,0.1-2.2-0.7c-1.3-2.4-2.5-4.8-3.6-7.2c-0.4-0.9,0-1.8,0.8-2.3   c0.9-0.5,1.8-0.3,2.3,0.5c1.5,2.4,2.6,4.9,3.8,7.5C96,76.9,96,77.1,96,77.3z"/>
	<path class="st12" d="M84.5,87.7c0,0.9-0.4,1.5-1.2,1.7c-0.9,0.3-1.8,0.2-2.2-0.7c-1.2-2.4-2.5-4.8-3.6-7.2c-0.4-0.9,0-1.7,0.8-2.2   s1.9-0.5,2.4,0.3c1.5,2.4,2.7,5,3.8,7.6C84.5,87.4,84.5,87.6,84.5,87.7z"/>
	<path class="st12" d="M67.9,89.3c0.8,0.1,1.3,0.5,1.7,1.2c1.1,2.2,2.2,4.3,3.3,6.5c0.5,1.1,0.2,2.2-0.9,2.7c-1,0.4-2,0.1-2.5-1   c-1.1-2.2-2.2-4.3-3.3-6.5C65.5,90.7,66.4,89.3,67.9,89.3z"/>
	<path class="st12" d="M102.4,58.2c0.7,0.1,1.3,0.5,1.6,1.2c1.1,2.2,2.2,4.4,3.3,6.7c0.5,1.1,0.1,2.1-0.9,2.5   c-0.9,0.5-1.9,0.2-2.5-0.8c-1.2-2.2-2.3-4.5-3.4-6.8C100,59.6,101,58.2,102.4,58.2z"/>
	<path class="st12" d="M56.9,101c0.8,0,1.4,0.3,1.8,1c0.7,1.4,1.5,2.8,2.1,4.3c0.4,1,0,2-0.8,2.5c-0.9,0.4-2,0.2-2.5-0.8   c-0.8-1.4-1.5-2.9-2.2-4.4C54.7,102.3,55.5,101,56.9,101z"/>
	<path class="st0" d="M130,44.5c-0.1,1-0.5,1.7-1.3,2c-0.9,0.3-1.7,0.1-2.1-0.6c-0.9-1.5-1.6-3-2.3-4.6c-0.3-0.8,0-1.6,0.8-2.1   c0.7-0.5,1.5-0.6,2.1,0C128.6,40.8,129.2,42.8,130,44.5z"/>
	<path class="st0" d="M95.6,114.4c3,0,5.4,2.5,5.3,5.5s-2.5,5.3-5.4,5.3c-3,0-5.4-2.5-5.4-5.5S92.5,114.3,95.6,114.4z M97.1,119.7   c-0.1-0.9-0.5-1.5-1.6-1.6c-1,0-1.6,0.6-1.6,1.5c-0.1,0.9,0.7,1.8,1.6,1.7C96.5,121.3,97,120.8,97.1,119.7z"/>
	<path class="st0" d="M79.3,126.5c-2.9,0-5.2-2.4-5.2-5.3c0-2.9,2.4-5.3,5.3-5.3s5.3,2.4,5.3,5.4C84.6,124.2,82.2,126.5,79.3,126.5z    M79.4,122.7c0.8-0.1,1.4-0.6,1.4-1.5s-0.6-1.4-1.4-1.5c-0.9,0-1.5,0.5-1.5,1.5C77.9,122.1,78.4,122.6,79.4,122.7z"/>
	<path class="st13" d="M121.6,80.4c-1,0-1.9-0.9-1.9-1.9s1-1.9,2-1.8c1,0,1.8,0.9,1.8,1.9S122.7,80.4,121.6,80.4z"/>
	<path class="st13" d="M86.7,114.3c-1,0-1.9-0.9-1.8-2c0-1,0.9-1.8,2-1.8c1,0,1.8,0.9,1.8,1.9C88.7,113.5,87.8,114.4,86.7,114.3z"/>
	<path class="st13" d="M127.4,71.9c1,0,1.9,1,1.8,2c0,1-1,1.8-2,1.8c-1-0.1-1.8-0.9-1.8-1.9C125.5,72.7,126.4,71.8,127.4,71.9z"/>
	<path class="st13" d="M128.3,83.4c-1,0-1.8-0.8-1.9-1.8c0-1.1,0.8-2,1.9-2c1,0,1.9,0.9,1.9,2C130.2,82.6,129.3,83.4,128.3,83.4z"/>
	<path class="st13" d="M66.3,121.9c0.1-1,1-1.8,2.1-1.7c1,0.1,1.8,1,1.7,2c-0.1,1-1,1.9-2,1.8C67,123.8,66.2,122.9,66.3,121.9z"/>
	<path class="st13" d="M38.6,86.1c1.1,0,1.9,0.8,1.9,1.9c0,1-0.9,1.9-1.9,1.9s-1.8-0.8-1.9-1.8C36.7,87,37.5,86.1,38.6,86.1z"/>
	<path class="st13" d="M48.1,90c0,1-0.9,1.9-1.9,1.9S44.3,91,44.3,90s0.8-1.8,1.8-1.8C47.2,88.1,48.1,88.9,48.1,90z"/>
	<path class="st13" d="M42.8,95.1c0,1-0.9,1.9-1.9,1.9s-1.9-0.9-1.8-2c0-1,0.8-1.8,1.9-1.8C42,93.2,42.8,94,42.8,95.1z"/>
	<path class="st12" d="M64.3,53.6c0,2.2-0.7,3.7-2.1,4.8c-0.5,0.4-0.6,0.7-0.5,1.3c0.6,2.2-0.1,4-1.8,5.5c-0.9,0.8-1.8,1.6-2.8,2.4   c-1.6,1.3-3.5,1.6-5.4,0.9c-0.6-0.2-1-0.2-1.5,0.3c-1.4,1.3-3.1,1.8-5,1.3c-1.6-0.5-3.1-0.9-4.6-1.6c-1.7-0.8-2.7-2.2-3-4.1   c-0.1-0.6-0.2-0.9-0.9-1.1c-2.1-0.6-3.4-2-3.8-4.1c-0.3-1.3-0.6-2.7-0.8-4.1c-0.3-2,0.5-3.7,2.1-5c0.5-0.4,0.6-0.7,0.4-1.3   c-0.5-2.1,0.1-4,1.7-5.5c0.9-0.8,1.8-1.6,2.8-2.4c1.7-1.4,3.6-1.8,5.6-0.9c0.6,0.2,0.9,0.1,1.4-0.3c1.6-1.5,3.5-1.9,5.6-1.2   c1.1,0.4,2.2,0.8,3.3,1.2c2.1,0.8,3.4,2.2,3.7,4.4c0.1,0.7,0.4,1,1,1.2c2,0.6,3.2,2,3.7,4.1C63.9,50.8,64.2,52.4,64.3,53.6z    M37.8,52.7c-1.3,0-2.1,1-1.9,2.1c0.2,1.2,0.4,2.4,0.7,3.6c0.3,1.4,1.7,1.9,2.8,1c1-0.8,2-1.6,2.9-2.5c0.8-0.8,0.8-2-0.1-2.5   C40.8,53.4,39.1,53.1,37.8,52.7z M58.2,60.9c0-0.8-0.5-1.4-1.3-1.7c-1.1-0.4-2.2-0.8-3.3-1.1c-1.3-0.4-2.5,0.6-2.3,1.9   c0.2,1.2,0.4,2.4,0.7,3.6c0.3,1.4,1.7,1.9,2.9,1c1-0.7,1.9-1.6,2.8-2.4C57.9,61.9,58.1,61.5,58.2,60.9z M45.1,48.3   c-0.2-1-0.4-2.3-0.8-3.6s-1.6-1.7-2.7-0.9c-1,0.8-2,1.6-2.9,2.5c-1,0.9-0.7,2.4,0.5,2.9c1.1,0.5,2.3,0.9,3.5,1.2   C44.2,50.7,45.2,49.9,45.1,48.3z M48.2,64.4c-0.2-1.2-0.4-2.5-0.8-3.8s-1.8-1.6-2.8-0.8c-0.9,0.7-1.8,1.5-2.6,2.3   c-1.1,1-0.8,2.5,0.6,3c1.1,0.5,2.3,0.8,3.4,1.2C47.2,66.7,48.3,65.8,48.2,64.4z M55.1,44.9c-0.1-0.6-0.3-1.2-0.9-1.5   c-1.3-0.5-2.6-1-4-1.4c-1.2-0.3-2.2,0.8-2,2s0.5,2.5,0.7,3.7c0.2,0.8,0.7,1.2,1.5,1.3C51.5,49.2,55.1,46.1,55.1,44.9z M60.5,53.6   c-0.2-1-0.4-2.3-0.8-3.6c-0.4-1.2-1.7-1.7-2.7-0.9s-2,1.6-2.9,2.5c-1,0.9-0.7,2.3,0.5,2.9c1.2,0.5,2.4,0.9,3.7,1.2   C59.6,56,60.5,55.2,60.5,53.6z M50.1,54.6c0-1.2-1.1-2.4-2.2-2.5c-0.3,0-1.7,1.3-1.7,1.7c0,1.3,0.9,2.3,2.1,2.4   C48.8,56.2,50.1,55,50.1,54.6z"/>
	<path class="st12" d="M123.7,101.6c0,0.6,0,1.2,0.1,1.8c0.2,2.4-0.8,4.2-3,5.1c-1.1,0.5-2.1,1.2-3.1,1.8c-1.8,1.2-3.6,1.3-5.4,0.1   c-1.2-0.8-2.5-1.5-3.8-2.2c-1.8-0.9-2.7-2.4-2.5-4.4c0.1-1.5,0-3.1,0-4.7c-0.1-1.8,0.7-3.3,2.4-4.1c1.4-0.8,2.8-1.5,4.1-2.4   c1.6-1,3.4-1,5,0c1.3,0.8,2.6,1.6,3.9,2.3c1.7,0.9,2.6,2.3,2.5,4.3C123.8,100,123.8,100.8,123.7,101.6   C123.8,101.6,123.7,101.6,123.7,101.6z M109.9,102c-0.1,1-0.9,2.3,0.6,3c1.2,0.6,2.5,1.2,3.6,2.1c0.5,0.3,1,0.5,1.5,0   c0.7-0.4,1.3-1,2-1.2c2.3-0.7,2.5-2.2,2.5-4.3c0.1-2.3-0.6-3.4-2.7-4.6c-2-1.1-3.1-1-5.1,0C109.9,98.2,109.2,99.7,109.9,102z"/>
	<path class="st0" d="M26.9,127.3c0-3.5,2.8-6.3,6.3-6.3s6.2,2.7,6.3,6.2c0.1,3.5-2.7,6.4-6.2,6.4C29.8,133.5,27,130.8,26.9,127.3z    M33.3,129.7c1.4,0,2.5-1.2,2.5-2.5c0-1.4-1.2-2.5-2.6-2.5c-1.4,0-2.5,1.2-2.5,2.6C30.8,128.7,31.9,129.8,33.3,129.7z"/>
	<path class="st5" d="M97.1,119.7c-0.1,1-0.6,1.6-1.6,1.7c-0.9,0.1-1.7-0.8-1.6-1.7c0.1-1,0.6-1.5,1.6-1.5S97,118.8,97.1,119.7z"/>
	<path class="st5" d="M79.4,122.7c-1-0.1-1.6-0.6-1.6-1.5s0.6-1.5,1.5-1.5s1.4,0.6,1.4,1.5C80.9,122.1,80.3,122.6,79.4,122.7z"/>
	<path class="st9" d="M37.8,52.7c1.4,0.5,3,0.8,4.4,1.6c0.9,0.5,0.9,1.8,0.1,2.5c-0.9,0.9-1.9,1.7-2.9,2.5c-1.1,0.9-2.5,0.4-2.8-1   c-0.3-1.2-0.5-2.4-0.7-3.6C35.7,53.6,36.5,52.7,37.8,52.7z"/>
	<path class="st9" d="M58.2,60.9c-0.1,0.6-0.3,1-0.6,1.3c-0.9,0.8-1.8,1.6-2.8,2.4c-1.1,0.8-2.5,0.3-2.9-1c-0.3-1.2-0.5-2.4-0.7-3.6   c-0.2-1.4,1-2.3,2.3-1.9c1.1,0.3,2.2,0.7,3.3,1.1C57.7,59.5,58.1,60.2,58.2,60.9z"/>
	<path class="st9" d="M45.1,48.3c0,1.6-1,2.4-2.3,2.1c-1.2-0.3-2.4-0.8-3.5-1.2c-1.2-0.5-1.5-1.9-0.5-2.9c0.9-0.9,1.9-1.7,2.9-2.5   s2.3-0.4,2.7,0.9C44.8,45.9,44.9,47.3,45.1,48.3z"/>
	<path class="st9" d="M48.2,64.4c0,1.4-1,2.2-2.3,1.9c-1.2-0.3-2.3-0.7-3.4-1.2c-1.4-0.6-1.6-2-0.6-3c0.9-0.8,1.7-1.6,2.6-2.3   c1.1-0.8,2.5-0.5,2.8,0.8C47.8,61.9,48,63.2,48.2,64.4z"/>
	<path class="st9" d="M55.1,44.9c0,1.2-3.6,4.3-4.7,4.1c-0.8-0.1-1.3-0.6-1.5-1.3c-0.3-1.2-0.5-2.5-0.7-3.7s0.8-2.2,2-2   c1.4,0.3,2.7,0.8,4,1.4C54.8,43.7,55,44.3,55.1,44.9z"/>
	<path class="st9" d="M60.5,53.6c0,1.6-0.9,2.4-2.1,2.1s-2.5-0.8-3.7-1.2c-1.2-0.5-1.5-1.9-0.5-2.9c0.9-0.9,1.9-1.7,2.9-2.5   s2.4-0.4,2.7,0.9S60.3,52.6,60.5,53.6z"/>
	<path class="st4" d="M50.1,54.6c0,0.4-1.4,1.6-1.8,1.6c-1.2-0.1-2.1-1.1-2.1-2.4c0-0.3,1.3-1.7,1.7-1.7   C49.1,52.2,50.2,53.5,50.1,54.6z"/>
	<path class="st9" d="M109.9,102c-0.6-2.4,0-3.8,2.5-5.1c2-1,3.1-1.1,5.1,0c2,1.2,2.7,2.2,2.7,4.6c-0.1,2.2-0.2,3.7-2.5,4.3   c-0.7,0.2-1.4,0.8-2,1.2C113,106.1,111.2,104.3,109.9,102z"/>
	<path class="st11" d="M109.9,102c1.3,2.3,3.1,4.1,5.6,5.1c-0.5,0.5-1,0.3-1.5,0c-1.1-0.8-2.3-1.5-3.6-2.1   C109,104.3,109.8,103.1,109.9,102z"/>
	<path class="st3" d="M33.3,129.7c-1.4,0-2.5-1.1-2.5-2.4c0-1.4,1-2.6,2.5-2.6c1.4,0,2.6,1.2,2.6,2.5   C35.7,128.6,34.6,129.7,33.3,129.7z"/>
</g>
</svg>