<?xml version="1.0" encoding="UTF-8"?>
<!-- Generator: Adobe Illustrator 25.4.1, SVG Export Plug-In . SVG Version: 6.00 Build 0)  -->
<svg version="1.1" id="Layer_1" xmlns="http://www.w3.org/2000/svg" xmlns:xlink="http://www.w3.org/1999/xlink" x="0px" y="0px" viewBox="0 0 168 158" style="enable-background:new 0 0 168 158;" xml:space="preserve">
<style type="text/css">
	.st0{fill:#050505;}
	.st1{fill:#F6CE2B;}
	.st2{fill:#F79125;}
	.st3{fill:#080705;}
	.st4{fill:#070605;}
</style>
<g>
	<path class="st0" d="M150.1,84.2c-0.6,1.4-0.4,3-0.7,4.4c-4.1,27.6-24.6,49.7-51.9,55.7c-33.8,7.6-68.2-12.4-78.3-45.6   C8.8,64.6,26.5,28.7,60.1,16.2c5.4-2,11.1-3.2,16.9-3.9c0.2,0,0.7,0.1,0.8-0.2c3.4,0,6.8,0,10.2,0c0.1,0.3,0.3,0.2,0.6,0.2   c5,0.3,10,1.1,14.7,2.8c26,9.1,41.6,27.1,46.3,54.3c0.2,1.6,0.2,3.1,0.7,4.6C150.1,77.4,150.1,80.9,150.1,84.2z M83.2,141.4   c34.4,0,62.4-28.1,62.4-62.5s-28-62.3-62.4-62.3S20.8,44.5,20.8,79S48.8,141.5,83.2,141.4z"/>
	<path class="st1" d="M83.2,141.4c-34.4,0-62.4-28-62.4-62.4s28-62.4,62.4-62.4s62.3,28,62.4,62.3   C145.7,113.2,117.6,141.4,83.2,141.4z M54.8,110.5c0.4,0,0.8,0.4,1.1,0.7c1,0.8,1.9,1.7,3.1,2.2c0.1,6.7,7,10,12.3,6.2   c1.7,0.1,3.1,0.9,4.8,0.9c0.1,1.9,0.7,2.6,2.6,2.8c3.1,0.3,6.2,0.3,9.3,0c1.9-0.2,2.4-0.9,2.6-2.8c1.7,0,3.1-0.7,4.7-0.9   c0.7,0.3,1.3,0.8,2.1,1.1c4.3,1.8,10.6-0.9,10.4-7.3c1.4-0.8,2.7-1.9,3.9-2.9c1.7,1,2.4,0.9,3.8-0.6c0.6-0.6,1-1.1,1.4-1.7   c7.1-8.1,10.8-17.7,11-28.4c0.2-10.9-3.2-20.6-10-29.1c-1.2-1.4-2-1.7-3.7-0.8c-0.6-1-1.7-1.6-2.4-2.3c-4.7-4.4-10.1-7.3-16.2-9.2   c0.1-1.9-0.4-2.6-2.6-3c-8.3-1.8-16.6-1.2-24.6,1.6c-1.9,0.7-2.3,1.3-2,3.3c-3.2,1.3-6.3,3-8.9,5.3c-2-0.2-2.8,0.3-3.1,2.4   c-1.6,1.1-2.3,2.9-4,4c-1.7-0.6-2.4-0.3-3.3,0.9c-6.9,10-9.6,20.9-7.8,32.9c1.4,9.2,5.6,17.2,12,24   C52.4,111.2,53.1,111.4,54.8,110.5z"/>
	<path class="st2" d="M111.5,110.5c-1.3,1-2.4,2.2-3.9,2.9c-0.2-4.8-0.6-9.6-0.8-14.3c-0.3-6.9-0.6-13.9-0.9-20.8   c0-0.4-0.1-0.9,0.4-1.2c4.4-2.7,5.8-6.9,5.8-11.8c0.1-4.8-1.1-9.4-3-13.8c-1.7-4-5-6-9.4-6c-4.3,0.1-7.7,2.2-9.2,6.3   c-2,5.2-3.4,10.7-2.7,16.4c0.6,3.6,2,6.4,5,8.4c0.9,0.6,1.1,1.1,1,2.1c-0.6,11.1-1,22.2-1.6,33.2c-0.1,3,0.3,5.6,2.7,7.6   c-1.6,0.2-3,0.9-4.7,0.9c-0.4-1.2-1.3-1.8-2.8-1.7c-3,0.2-6,0.2-9,0c-1.3-0.1-2.2,0.4-2.8,1.7c-1.7,0.1-3.2-0.8-4.8-0.9   c1.9-1.7,2.9-3.8,2.8-6.3c-0.2-4-0.4-8-0.6-12C72.7,92.9,72.4,84.4,72,76c0-0.6,0.2-1,0.6-1.3c1.6-1.6,3.1-3.1,4.8-4.7   c0.9-0.9,1.3-1.9,1.3-3.1c0-6.1,0-12.2,0-18.3c0-0.6,0-1-0.1-1.6c-0.3-1-1.1-1.6-2.2-1.6c-1.1,0.1-1.9,0.8-2,1.9   c-0.1,0.4,0,0.9,0,1.3c0,5.7,0,11.3,0,17c0,0.9-0.2,1.4-0.9,2c-1.7,1.6-3.2,3.2-4.8,4.8c-0.8,0.8-1.1,1.7-1,2.8   c0.7,12.6,1.3,25.2,1.9,37.8c0.1,1.7-0.7,3-2,3.4c-2.2,0.8-4.2-0.9-4.1-3.6c0.1-2.7,0.3-5.3,0.4-8.1c0.6-9.9,1-19.8,1.4-29.7   c0-1.1-0.2-2.1-1.1-2.9c-1.7-1.6-3.2-3.2-4.8-4.8c-0.6-0.6-0.8-1.1-0.8-1.9c0-5.8,0-11.6,0-17.3c0-1.2-0.3-2.1-1.4-2.8   c2.6-2.3,5.7-4,8.9-5.3c0.9,1.3,2,1.4,3.4,1c7.4-2.7,15-3,22.7-1.3c1.7,0.3,2.2,0,3.1-1.4c6.1,1.9,11.7,4.8,16.2,9.2   c0.8,0.8,1.9,1.3,2.4,2.3c-0.9,1.4-0.9,2.1,0.2,3.6c1.2,1.7,2.4,3.2,3.4,5c6.1,10.8,7.2,22,3.3,33.8c-1.9,5.6-5,10.3-9.1,14.7   C110.6,108.4,110.6,109,111.5,110.5z M61,56.7c0,2.9,0,5.8,0,8.8c0,1.8,1.3,2.8,2.8,2.3c1.2-0.3,1.7-1.3,1.7-2.6   c0-5.7,0-11.2,0-16.9c0-1.8-0.9-2.8-2.3-2.8c-1.3,0-2.1,1-2.1,2.8C60.9,51.1,61,53.9,61,56.7z M72.1,56.7c0-2.8,0-5.7,0-8.4   c0-1.7-0.8-2.6-2.1-2.7c-1.3,0-2.3,1-2.3,2.4c0,5.8,0,11.6,0,17.3c0,1.2,0.6,2.1,1.9,2.3c1.4,0.2,2.6-0.7,2.6-2.3   C72.1,62.5,72.1,59.5,72.1,56.7z"/>
	<path class="st3" d="M95.1,119.6c-2.3-2-2.8-4.6-2.7-7.6c0.6-11.1,1-22.2,1.6-33.2c0-1-0.2-1.6-1-2.1c-3-2-4.6-4.9-5-8.4   c-0.8-5.8,0.6-11.2,2.7-16.4c1.6-4.1,4.9-6.2,9.2-6.3c4.3-0.1,7.7,2,9.4,6c1.9,4.3,3.1,9,3,13.8c-0.1,4.9-1.3,9.1-5.8,11.8   c-0.6,0.3-0.4,0.8-0.4,1.2c0.3,6.9,0.6,13.9,0.9,20.8c0.2,4.8,0.4,9.6,0.8,14.3c0.1,6.3-6.1,9.1-10.4,7.3   C96.4,120.5,95.7,120.1,95.1,119.6z M102.2,95L102.2,95c-0.2-6.1-0.6-12.2-0.9-18.4c0-1.2,0.3-2.1,1.6-2.7c0.7-0.3,1.4-0.7,2-1.1   c2.3-1.9,2.8-4.4,2.8-7.1c0.2-4.2-1.1-8.2-2.6-12.2c-0.9-2.3-2.8-3.4-5.2-3.4s-4.3,1.1-5.2,3.4c-1.4,3.9-2.7,7.9-2.6,12.2   c0.1,3.7,1.2,6.9,5,8.3c1.1,0.4,1.4,1.4,1.4,2.6c-0.1,2-0.2,4-0.2,6c-0.4,10.2-1,20.6-1.4,30.8c-0.1,2.2,1.1,3.6,3.1,3.4   c2,0,3.1-1.3,3-3.4C102.7,107.2,102.4,101.1,102.2,95z"/>
	<path class="st3" d="M57.3,45.7c1,0.6,1.4,1.6,1.4,2.8c0,5.8,0,11.6,0,17.3c0,0.8,0.2,1.3,0.8,1.9c1.7,1.6,3.2,3.2,4.8,4.8   c0.9,0.8,1.1,1.8,1.1,2.9c-0.6,9.9-1,19.8-1.4,29.7c-0.1,2.7-0.3,5.3-0.4,8.1c-0.1,2.7,1.9,4.3,4.1,3.6c1.3-0.4,2.1-1.7,2-3.4   C69,100.6,68.3,88,67.7,75.4c0-1.1,0.2-2,1-2.8c1.7-1.6,3.2-3.2,4.8-4.8c0.6-0.6,0.9-1.2,0.9-2c0-5.7,0-11.3,0-17   c0-0.4,0-0.9,0-1.3c0.2-1.1,0.9-1.8,2-1.9c1.1-0.1,1.8,0.6,2.2,1.6c0.2,0.6,0.1,1,0.1,1.6c0,6.1,0,12.2,0,18.3   c0,1.3-0.3,2.2-1.3,3.1c-1.7,1.6-3.1,3.1-4.8,4.7c-0.4,0.3-0.7,0.8-0.6,1.3c0.4,8.4,0.9,16.9,1.2,25.3c0.2,4,0.4,8,0.6,12   c0.1,2.6-0.9,4.7-2.8,6.3c-5.2,3.8-12.2,0.3-12.3-6.2c0.2-4.1,0.4-8.1,0.7-12.2c0.4-8.3,0.8-16.8,1.2-25.1c0-0.6-0.2-1-0.6-1.3   c-1.6-1.4-3-3.1-4.6-4.4c-1.1-1-1.6-2.1-1.4-3.6c0-6.2,0-12.3,0-18.6C54.4,46,55.2,45.4,57.3,45.7z"/>
	<path class="st2" d="M54.2,48.1c0,6.2,0.1,12.3,0,18.6c0,1.4,0.4,2.6,1.4,3.6c1.6,1.4,3,3,4.6,4.4c0.4,0.3,0.7,0.8,0.6,1.3   c-0.4,8.3-0.8,16.8-1.2,25.1c-0.2,4.1-0.4,8.1-0.7,12.2c-1.2-0.6-2.1-1.4-3.1-2.2c-0.3-0.2-0.6-0.7-1.1-0.7c1-1.6,1-2.2-0.2-3.6   c-2.4-2.6-4.6-5.3-6.3-8.4c-4.6-8.2-6-17-4.4-26.3c1-5.9,3.2-11.3,6.7-16.2c1.1-1.7,1.1-2.4-0.1-3.8C51.8,51.1,52.6,49.3,54.2,48.1   z"/>
	<path class="st4" d="M111.5,110.5c-0.9-1.7-0.9-2.2,0.4-3.6c4-4.2,7.2-9.1,9.1-14.7c3.9-11.8,2.9-23-3.3-33.8c-1-1.8-2.2-3.4-3.4-5   c-1.1-1.4-1.1-2.1-0.2-3.6c1.8-0.9,2.6-0.7,3.7,0.8c6.8,8.6,10.2,18.2,10,29.1c-0.2,10.8-3.9,20.3-11,28.4c-0.4,0.6-1,1.1-1.4,1.7   C114,111.4,113.1,111.5,111.5,110.5z"/>
	<path class="st4" d="M50.2,52.1c1.2,1.4,1.3,2.1,0.1,3.8c-3.4,4.9-5.7,10.3-6.7,16.2c-1.4,9.2,0,18.1,4.4,26.3   c1.7,3.1,3.9,5.9,6.3,8.4c1.2,1.3,1.2,2,0.2,3.6c-1.7,0.8-2.3,0.7-3.6-0.6c-6.4-6.8-10.6-14.8-12-24c-1.9-12,0.8-23,7.8-32.9   C47.8,51.8,48.5,51.7,50.2,52.1z"/>
	<path class="st4" d="M95.3,38.4c-0.9,1.4-1.4,1.8-3.1,1.4c-7.7-1.7-15.2-1.2-22.7,1.3c-1.4,0.6-2.6,0.3-3.4-1c-0.3-2,0.1-2.7,2-3.3   c8-2.8,16.2-3.3,24.6-1.6C94.9,35.9,95.4,36.5,95.3,38.4z"/>
	<path class="st4" d="M76,120.6c0.4-1.3,1.3-1.8,2.8-1.7c3,0.2,6,0.2,9,0c1.3-0.1,2.2,0.4,2.8,1.7c-0.1,1.9-0.7,2.6-2.6,2.8   c-3.1,0.3-6.2,0.3-9.3,0C76.7,123.2,76.1,122.5,76,120.6z"/>
	<path class="st4" d="M61,56.7c0-2.8,0-5.6,0-8.3c0-1.7,0.8-2.7,2.1-2.8c1.3,0,2.3,1,2.3,2.8c0,5.7,0,11.2,0,16.9   c0,1.2-0.3,2.2-1.7,2.6c-1.4,0.4-2.8-0.6-2.8-2.3C60.9,62.4,61,59.5,61,56.7z"/>
	<path class="st4" d="M72.1,56.7c0,2.9,0,5.8,0,8.8c0,1.7-1.1,2.6-2.6,2.3c-1.3-0.2-1.8-1.2-1.9-2.3c0-5.8,0-11.6,0-17.3   c0-1.6,1-2.6,2.3-2.4c1.3,0,2.1,1,2.1,2.7C72.1,51,72.1,53.9,72.1,56.7z"/>
	<path class="st2" d="M102.2,95c0.3,6.1,0.6,12.2,0.9,18.4c0.1,2.1-1.1,3.4-3,3.4c-2,0-3.2-1.2-3.1-3.4c0.4-10.2,0.9-20.6,1.4-30.8   c0.1-2,0.2-4,0.2-6c0-1.1-0.3-2.1-1.4-2.6c-3.8-1.6-4.9-4.7-5-8.3c-0.1-4.2,1.1-8.2,2.6-12.2c0.9-2.3,2.8-3.4,5.2-3.4   c2.4,0,4.3,1.1,5.2,3.4c1.4,3.9,2.8,7.9,2.6,12.2c-0.1,2.7-0.6,5.3-2.8,7.1c-0.7,0.6-1.3,0.9-2,1.1c-1.1,0.6-1.6,1.4-1.6,2.7   C101.6,82.8,101.9,88.9,102.2,95L102.2,95z"/>
</g>
</svg>