<?xml version="1.0" encoding="UTF-8"?>
<!-- Generator: Adobe Illustrator 25.4.1, SVG Export Plug-In . SVG Version: 6.00 Build 0)  -->
<svg version="1.1" id="Layer_1" xmlns="http://www.w3.org/2000/svg" xmlns:xlink="http://www.w3.org/1999/xlink" x="0px" y="0px" viewBox="0 0 168 158" style="enable-background:new 0 0 168 158;" xml:space="preserve">
<style type="text/css">
	.st0{fill:#040201;}
	.st1{fill:#FCD202;}
	.st2{fill:#FB9701;}
	.st3{fill:#040402;}
	.st4{fill:#FC4755;}
	.st5{fill:#FA2B3A;}
	.st6{fill:#FAD102;}
	.st7{fill:#017A4E;}
	.st8{fill:#F7C300;}
	.st9{fill:#F22B3A;}
	.st10{fill:#F68501;}
	.st11{fill:#FC636E;}
	.st12{fill:#E31F2D;}
	.st13{fill:#02613D;}
	.st14{fill:#080600;}
</style>
<g>
	<path class="st0" d="M35.5,141.2c-1.3-0.9-1.8-2.2-2.3-3.6c-2.4-7.8-4.9-15.5-7.3-23.2c-0.8-2.6,0.5-4.5,3.2-4.4   c1.2,0,1.7-0.4,2.2-1.5c4-9.3,8.1-18.5,12.2-27.7c2-4.6,6.4-5.3,9.8-1.7c4.7,5,9.4,10.1,14.1,15.1c0.5,0.5,0.7,0.6,1.3,0.1   c2-1.6,4.3-2.4,6.8-2.3c0.5,0,1-0.1,1.4-0.5c3.3-2.7,7.1-3.4,11.1-2.1c0.7,0.2,1.1,0.1,1.5-0.5c4.4-6.3,8.8-12.5,13.2-18.8   c2.9-4.1,7.3-4,10,0.3c4.1,6.6,8.2,13.1,12.2,19.7c0.5,0.9,1.1,1,1.9,0.8c1.6-0.4,3.1-0.7,4.7-1c3.8-0.7,7.1,2.6,6.4,6.4   c-0.8,4.2-1.7,8.4-2.6,12.5c-0.2,0.8,0,1,0.8,1c0.8-0.1,1.5,0.1,2.3,0c2.5-0.3,4.2,1.9,3.4,4.5c-2.3,6.9-4.4,13.8-6.6,20.7   c-0.3,1-0.6,1.9-0.9,2.9c-0.4,1.4-1,2.6-2.4,3.2C100,141.2,67.7,141.2,35.5,141.2z M89.6,94.4c-3-2.7-7.6-2.6-10.6,0.3   c-0.7,0.7-1.4,1-2.4,1c-0.6,0-1.1,0-1.7,0c-2.4,0.1-5,1.9-5.6,3.9c2.8,0,5.6,0,8.3,0c7.1,0,14.3,0,21.4,0.1c0.9,0,0.7-0.4,0.4-0.8   c-1.5-2-3.5-3.2-6-3.1C92,95.7,90.7,95.6,89.6,94.4z M73.8,109.9c9.3,0,18.6,0,27.8,0.1c0.6,0,0.8-0.3,1-0.8c0.4-1.5,0.8-3,1.3-4.5   c0.4-1.3,0.4-1.3-1-1.3c-9,0-18,0-27,0c-1.2,0-2.5,0-3.8,0c-2.3,0-4.5,0-6.8-0.1c-0.5,0-0.7,0.1-0.6,0.7c0.5,1.8,1,3.6,1.5,5.3   c0.1,0.5,0.4,0.7,0.9,0.7C69.5,109.9,71.6,109.9,73.8,109.9z M111.1,74.8c-0.6-1-1.1-2-1.8-3c-0.8-1.2-2.2-1.2-3.1,0   c-4.6,6.4-9.1,12.9-13.6,19.4c-0.5,0.7-0.3,0.9,0.5,0.9c1.8-0.1,3.5,0.4,5.2,1c1.1,0.7,2.2,1.2,3,2.2c0.6,0.7,1.1,0.7,1.9,0.6   c3.9-0.8,7.8-1.6,11.7-2.4c2.3-0.5,4.7-1,7.1-1.5c-0.7-1.1-1.2-2-1.8-2.9C117.1,84.3,114.1,79.6,111.1,74.8z M52.5,83.6   c-0.6-0.7-1.2-1.4-1.9-2c-1.6-1.7-2.8-1.4-3.7,0.7c-2.4,5.5-4.8,10.9-7.2,16.3c-1.5,3.5-3,6.9-4.6,10.4c-0.4,0.8-0.3,1.1,0.7,1   c1-0.1,2,0,3,0c0.4,0,0.7,0.1,0.7-0.5c0.1-1.9,0.6-2.2,2.4-2.1c1.1,0.6,1.3,1.5,1.1,2.7c6.4,0,12.7,0,19,0c0.7,0,0.9-0.1,0.7-0.9   c-0.5-1.6-0.9-3.3-1.4-5c-0.1-0.3-0.1-0.8-0.7-0.8c-1.2-0.1-1.8-0.8-1.8-2c0.1-1,0.9-1.6,2.3-1.6c1.2,0,2.3,0,3.5,0   c0.6,0,0.9-0.2,1-0.8c0.1-0.5,0.6-0.9,0-1.5C61.1,92.8,56.8,88.2,52.5,83.6z M47.2,137.6c0.5,0,1,0,1.4,0c16.1,0,32.2,0,48.3,0   c11,0,21.9,0,32.9,0c0.8,0,1.2-0.2,1.4-1c0.4-1.5,0.9-3,1.4-4.5c0.3-0.9,0.1-1.1-0.8-1.1c-5.3,0-10.6,0-15.9,0   c-1.7,0-2.1-0.3-2.6-1.9c0.3-1.3,1.1-1.8,2.5-1.8c5.7,0,11.4,0,17.1,0c1,0,1.4-0.3,1.6-1.2c1.1-3.7,2.3-7.4,3.5-11.1   c0.5-1.5,0.5-1.5-1.1-1.5c-31.9,0-63.7,0-95.6,0c-0.4,0-0.9,0-1.3,0c-3.2,0-6.4,0-9.5-0.1c-0.8,0-0.8,0.3-0.6,0.9   c1.3,4.1,2.6,8.2,3.9,12.3c0.1,0.4,0.3,0.7,0.9,0.7c3.2,0,6.4,0,9.5-0.1c0.5,0,1,0,1.4,0c20.1,0,40.2,0,60.3,0   c1.8,0,2.1,0.2,2.6,1.7c-0.5,1.6-0.9,1.9-2.7,1.9c-19.6,0-39.1,0-58.6,0c-0.5,0-1.1,0-1.6,0c-3.2,0-6.4,0-9.7-0.1   c-0.7,0-0.8,0.2-0.6,0.8c0.6,1.7,1.1,3.4,1.6,5c0.2,0.5,0.4,0.7,0.9,0.7C40.9,137.6,44,137.6,47.2,137.6z M125.5,110   c1.7,0,3.4-0.1,5,0c0.9,0,1.2-0.3,1.4-1.2c0.8-4.2,1.7-8.5,2.5-12.7c0.4-1.8-0.6-2.8-2.4-2.5c-7,1.4-14.1,2.8-21.1,4.3   c-2.3,0.5-4.7,1-7,1.5c1.5,0.2,3,0.2,4.5,0.2c1.2,0,1.9,0.7,1.9,1.7c0,1.1-0.6,1.8-1.6,1.8c-0.6,0-0.8,0.4-0.9,0.9   c-0.4,1.6-0.9,3.3-1.4,4.9c-0.3,0.9,0,1,0.8,1c2.5,0,5.1,0,7.6,0c2.6,0,5.2,0,7.9,0c-0.5-1.1-0.7-2.1,0.4-2.9   c0.7-0.5,1.5-0.5,2.1,0.1C126.2,107.9,126,108.9,125.5,110z"/>
	<path class="st1" d="M121.9,39.2c-1.2,1.2-2.4,2.5-3.6,3.7c-1.4-0.8-1.9-0.7-3.1,0.4c-3.9,3.9-7.9,7.8-11.8,11.7   c-0.3-1.5-0.8-3-0.8-4.5c1.5-1.5,1.2-2.7-0.9-3.5c-0.3-2-0.9-3.9-1-6c0.9-0.5,1.4-1.1,1.1-2.2c-0.3-1-1-1.4-2-1.4   c-0.5-2.3-0.8-4.7-1.5-7.1c0.8-0.4,1.3-1.1,1.1-2c-0.2-1-0.9-1.5-1.8-1.6c-0.2-1.7-0.9-3.3-0.7-5.1c0.2,0,0.5,0,0.7,0.1   c9.6,2,19.2,3.9,28.9,5.9c0.8,0.2,1.4,0.5,1.7,1.3c0.3,0.9-0.1,1.5-0.7,2.1c-1.7,1.7-3.4,3.4-5,5C121.2,37.3,121.2,37.8,121.9,39.2   z M119.4,31.6c0-1-0.8-1.8-1.8-1.8c-1,0-1.9,0.8-1.8,1.8c0,1,0.8,1.8,1.8,1.8C118.6,33.5,119.4,32.6,119.4,31.6z M103.8,31.2   c0,1,0.8,1.9,1.8,1.9c0.9,0,1.8-0.8,1.8-1.8c0-1-0.7-1.8-1.7-1.8C104.7,29.5,103.9,30.2,103.8,31.2z M113.6,39.9   c0-1-0.7-1.8-1.7-1.8c-1,0-1.9,0.8-1.9,1.8c0,1,0.9,1.9,1.9,1.8C112.8,41.6,113.6,40.8,113.6,39.9z"/>
	<path class="st2" d="M80.9,57.3c-0.3,1.6-0.7,3.2-1,4.9c-1.6,0.2-1.9,0.5-2.2,2c-0.6,3.1-1.3,6.2-1.9,9.3c-1.6-0.5-2.3-1.9-3.4-3   c0.5-0.9,0.6-1.8-0.2-2.5c-0.8-0.7-1.6-0.6-2.4-0.1c-1.3-1.3-2.6-2.6-4-3.8c-0.3-0.3-0.6-0.8-1.2-0.8c-0.3-0.8-0.8-1.4-1.7-1.7   c0-0.4-0.2-0.6-0.4-0.8c-2.1-2.1-4.1-4.1-6.2-6.2C56,54.3,55.7,54,55.3,54c0.1-1.9-0.5-2.5-2.4-2.5c-0.6-1.1-1.6-2.1-1.4-3.5   c9.1-1.9,18.2-3.8,27.3-5.6c2.2-0.4,3.1,0.5,2.6,2.7c-0.6,3.2-1.3,6.4-1.9,9.6C79.3,56.1,79.5,56.6,80.9,57.3z M73.1,57.2   c0-1-0.9-1.8-1.9-1.8c-1,0-1.7,0.8-1.7,1.8c0,1,0.8,1.8,1.8,1.8C72.2,59.1,73.1,58.2,73.1,57.2z M65,51.7c0-0.9-0.8-1.8-1.7-1.8   c-1-0.1-1.9,0.7-1.9,1.8c0,1,0.7,1.8,1.7,1.8C64.1,53.5,65,52.7,65,51.7z M75.6,49.2c0-1-0.8-1.8-1.8-1.8c-1.1,0-1.9,0.7-1.9,1.8   c0,1,0.8,1.8,1.7,1.8C74.7,51.1,75.6,50.2,75.6,49.2z"/>
	<path class="st3" d="M121.9,39.2c-0.7-1.4-0.6-1.9,0.4-3c1.7-1.7,3.4-3.4,5-5c0.6-0.6,1-1.2,0.7-2.1c-0.3-0.9-0.9-1.2-1.7-1.3   c-9.6-2-19.2-3.9-28.9-5.9c-0.2,0-0.5,0-0.7-0.1c-1.1-0.2-2.1-0.5-3.2-0.7c-2.5-0.5-3.3,0.4-2.8,2.9c1,4.9,2,9.9,3,14.8   c1.2,6,2.4,11.9,3.6,17.9c0.2,0.8,0.5,1.4,1.4,1.7c0.8,0.2,1.4-0.1,1.9-0.7c0.8-0.9,1.7-1.7,2.5-2.6c3.9-3.9,7.9-7.8,11.8-11.7   c1.2-1.2,1.7-1.2,3.1-0.4c0.7,1.1,0.5,2.1-0.5,3c-4.8,4.7-9.5,9.5-14.3,14.3c-1.6,1.6-3.5,2.3-5.7,1.6c-2.2-0.7-3.4-2.3-3.8-4.5   c-1.8-8.8-3.6-17.7-5.4-26.5c-0.4-2.2-0.9-4.4-1.4-6.6c-0.9-4.3,2.3-7.6,6.7-6.8c11,2.2,21.9,4.5,32.9,6.6c4.5,0.9,5.8,4.8,4.6,7.6   c-0.3,0.8-0.8,1.5-1.4,2.1c-1.7,1.7-3.4,3.4-5.1,5.1C123.7,39.9,123.3,40,121.9,39.2z"/>
	<path class="st3" d="M75.7,73.4c0.6-3.1,1.3-6.2,1.9-9.3c0.3-1.5,0.7-1.8,2.2-2c1.3,0.6,1.6,1.2,1.4,2.6c-0.9,4.7-1.9,9.4-2.9,14.1   c-0.4,2.2-1.7,3.8-3.8,4.4c-2.2,0.6-4,0.1-5.6-1.5C60,72.8,51.1,63.9,42.3,55.1c-1.6-1.6-2.2-3.5-1.5-5.6c0.7-2.2,2.2-3.4,4.4-3.8   c11-2.2,22.1-4.5,33.2-6.8c4.4-0.9,7.6,2.3,6.8,6.7c-0.6,3.3-1.3,6.5-2,9.8c-0.3,1.6-0.7,1.8-2.3,2c-1.3-0.7-1.6-1.2-1.3-2.6   c0.6-3.2,1.3-6.4,1.9-9.6c0.4-2.2-0.5-3.1-2.6-2.7c-9.1,1.9-18.2,3.7-27.3,5.6c-1.9,0.4-3.9,0.7-5.8,1.2c-1.6,0.3-2.1,1.9-1,3.1   c0.2,0.2,0.4,0.5,0.7,0.7c7.9,7.9,15.9,15.9,23.8,23.8c0.8,0.8,1.6,1.6,2.4,2.4c1.2,1.1,2.8,0.6,3.1-1C75.1,76.7,75.4,75,75.7,73.4   z"/>
	<path class="st4" d="M39.9,113.6c0.4,0,0.9,0,1.3,0c31.9,0,63.7,0,95.6,0c1.6,0,1.6,0,1.1,1.5c-1.2,3.7-2.4,7.4-3.5,11.1   c-0.3,0.9-0.6,1.3-1.6,1.2c-5.7-0.1-11.4,0-17.1,0c-1.3,0-2.2,0.4-2.5,1.8c-1.6,0-3.3,0-5,0c-0.5-1.5-0.8-1.7-2.6-1.7   c-20.1,0-40.2,0-60.3,0c-0.5,0-1,0-1.4,0c-0.1-0.3-0.1-0.6-0.2-0.9c-0.8-2.5-1.6-5-2.4-7.5C40.9,117.2,40.4,115.4,39.9,113.6z"/>
	<path class="st5" d="M108.4,129.1c1.6,0,3.3,0,5,0c0.5,1.6,0.9,1.9,2.6,1.9c5.3,0,10.6,0,15.9,0c1,0,1.2,0.2,0.8,1.1   c-0.5,1.5-1,3-1.4,4.5c-0.2,0.8-0.6,1-1.4,1c-11,0-21.9,0-32.9,0c-16.1,0-32.2,0-48.3,0c-0.5,0-1,0-1.4,0c0-0.5-0.2-0.9-0.2-1.3   c-0.4-1.8-1.3-3.4-1.5-5.2c0.5,0,1.1,0,1.6,0c19.5,0,39.1,0,58.6,0C107.5,131,107.9,130.7,108.4,129.1z"/>
	<path class="st6" d="M52.5,83.6c4.3,4.6,8.7,9.2,13,13.8c0.6,0.6,0.1,1,0,1.5c-0.1,0.6-0.4,0.8-1,0.8c-1.2,0-2.3,0-3.5,0   c-1.4,0-2.2,0.6-2.3,1.6c-0.1,1.2,0.6,1.9,1.8,2c0.6,0,0.6,0.5,0.7,0.8c0.5,1.7,0.9,3.3,1.4,5c0.2,0.8,0,0.9-0.7,0.9   c-6.3,0-12.6,0-19,0c0.2-1.1,0-2.1-1.1-2.7c0.7-1.6,1.3-3.1,2-4.7c0.1-0.3,0.3-0.6,0.8-0.7c1.1,0.2,2,0,2.4-1.2   c0.4-1.1-0.2-1.8-1.1-2.3c0.5-2.4,1.8-4.4,2.7-6.6c1,0.3,1.9,0.2,2.5-0.8c0.6-1.1,0.1-1.9-0.8-2.6C50.7,86.7,51.4,85.1,52.5,83.6z    M52.8,103.5c-1,0-1.9,0.9-1.8,1.9c0.1,1,0.9,1.7,1.9,1.7c1,0,1.8-0.8,1.8-1.9C54.6,104.3,53.8,103.5,52.8,103.5z M56.4,96.9   c0-1-0.8-1.7-1.8-1.8c-1,0-1.9,0.8-1.9,1.8c0,0.9,0.9,1.8,1.8,1.8C55.6,98.8,56.4,97.9,56.4,96.9z"/>
	<path class="st6" d="M125.5,110c0.5-1,0.7-2-0.2-2.8c-0.7-0.5-1.4-0.6-2.1-0.1c-1.1,0.8-0.9,1.8-0.4,2.9c-2.7,0-5.3,0-7.9,0   c-2.5,0-5.1,0-7.6,0c-0.8,0-1.1-0.1-0.8-1c0.5-1.6,0.9-3.2,1.4-4.9c0.1-0.5,0.3-0.8,0.9-0.9c1.1-0.1,1.7-0.7,1.6-1.8   c0-1-0.8-1.7-1.9-1.7c-1.5,0-3,0-4.5-0.2c2.3-0.5,4.7-1,7-1.5c7-1.4,14.1-2.8,21.1-4.3c1.8-0.4,2.8,0.7,2.4,2.5   c-0.9,4.2-1.7,8.5-2.5,12.7c-0.2,0.8-0.4,1.2-1.4,1.2C128.9,109.9,127.2,110,125.5,110z M126.7,102.3c1,0,1.8-0.8,1.8-1.7   c0-1-0.8-1.9-1.8-1.9c-1,0-1.8,0.9-1.8,1.9C124.9,101.5,125.7,102.3,126.7,102.3z M116.1,101.1c-1,0-1.8,0.9-1.8,1.9   c0.1,1,0.9,1.7,1.8,1.7c1,0,1.8-0.9,1.8-1.9C117.8,101.8,117,101,116.1,101.1z"/>
	<path class="st2" d="M111.1,74.8c3,4.8,6,9.5,9,14.3c0.6,0.9,1.1,1.8,1.8,2.9c-2.5,0.5-4.8,1-7.1,1.5c-3.9,0.8-7.8,1.6-11.7,2.4   c-0.8,0.2-1.4,0.1-1.9-0.6c-0.8-1-1.9-1.6-3-2.2c0.4-0.7,1.1-1.3,1.3-2.2c0.9,0.7,2,0.6,2.6-0.2c0.7-0.8,0.6-1.7-0.3-2.8   c0.5-0.7,1-1.4,1.5-2.2c0.8-1.3,1.9-2.3,2.4-3.8c0.9,0.4,1.8,0.5,2.5-0.4c0.7-0.8,0.5-1.7-0.1-2.5   C108.9,77.6,110.2,76.3,111.1,74.8z M110.6,90c1,0,1.8-0.7,1.8-1.7c0-1-0.8-1.9-1.8-1.9c-1,0-1.9,0.9-1.8,1.9   C108.8,89.2,109.6,90,110.6,90z"/>
	<path class="st7" d="M72.1,103.3c1.2,0,2.5,0,3.8,0c9,0,18,0,27,0c1.4,0,1.4,0,1,1.3c-0.4,1.5-0.9,3-1.3,4.5   c-0.1,0.5-0.3,0.8-1,0.8c-9.3,0-18.6,0-27.8-0.1c0-0.6-0.2-1.1-0.4-1.6C73,106.6,72.3,105,72.1,103.3z"/>
	<path class="st8" d="M44.6,102c-0.4,0-0.6,0.3-0.8,0.7c-0.7,1.6-1.3,3.1-2,4.7c-1.9-0.1-2.3,0.2-2.4,2.1c0,0.6-0.3,0.5-0.7,0.5   c-1,0-2,0-3,0c-0.9,0.1-1-0.2-0.7-1c1.6-3.5,3.1-6.9,4.6-10.4c2.4-5.5,4.8-10.9,7.2-16.3c0.9-2.1,2.2-2.3,3.7-0.7   c0.6,0.7,1.2,1.4,1.9,2c-1.1,1.5-1.7,3.1-2.2,4.9c-1-0.2-1.9-0.1-2.4,1c-0.5,1,0,1.7,0.8,2.4c-0.9,2.2-2.2,4.3-2.7,6.6   c-1-0.2-1.8,0.1-2.2,1.1C43.2,100.6,43.7,101.3,44.6,102z"/>
	<path class="st9" d="M39.9,113.6c0.5,1.8,1,3.5,1.6,5.3c0.8,2.5,1.6,5,2.4,7.5c0.1,0.3,0.1,0.6,0.2,0.9c-3.2,0-6.4,0-9.5,0.1   c-0.5,0-0.7-0.2-0.9-0.7c-1.3-4.1-2.6-8.2-3.9-12.3c-0.2-0.6-0.2-0.9,0.6-0.9C33.5,113.6,36.7,113.6,39.9,113.6z"/>
	<path class="st10" d="M105.8,82.1c-0.5,1.5-1.7,2.5-2.4,3.8c-0.4,0.8-1,1.5-1.5,2.2c-0.9-0.4-1.8-0.4-2.5,0.5   c-0.6,0.8-0.4,1.6,0.1,2.4c-0.2,0.9-0.9,1.4-1.3,2.2c-1.7-0.7-3.4-1.1-5.2-1c-0.8,0-1-0.2-0.5-0.9c4.6-6.5,9.1-12.9,13.6-19.4   c0.9-1.2,2.3-1.2,3.1,0c0.7,1,1.2,2,1.8,3c-0.9,1.5-2.2,2.8-2.9,4.4c-0.9-0.6-1.9-0.7-2.7,0.2C104.7,80.3,105.1,81.3,105.8,82.1z"/>
	<path class="st11" d="M89.6,94.4c1,1.2,2.4,1.3,3.8,1.3c2.5-0.1,4.5,1.1,6,3.1c0.4,0.5,0.5,0.8-0.4,0.8c-7.1,0-14.3,0-21.4-0.1   c1.7-2,3.9-2.7,6.4-2.7c0.8,0,1.5,0,2.2-0.7C87.2,95.4,88.3,94.6,89.6,94.4z"/>
	<path class="st12" d="M45.5,131.1c0.2,1.8,1.1,3.4,1.5,5.2c0.1,0.4,0.3,0.8,0.2,1.3c-3.1,0-6.3,0-9.4,0.1c-0.6,0-0.8-0.2-0.9-0.7   c-0.5-1.7-1-3.4-1.6-5c-0.2-0.6-0.2-0.8,0.6-0.8C39,131.1,42.2,131.1,45.5,131.1z"/>
	<path class="st4" d="M89.6,94.4c-1.4,0.2-2.4,0.9-3.3,1.8c-0.7,0.6-1.4,0.7-2.2,0.7c-2.5,0-4.8,0.7-6.4,2.7c-2.8,0-5.6,0-8.3,0   c0.6-2,3.2-3.7,5.6-3.9c0.6,0,1.1,0,1.7,0c1,0.1,1.7-0.3,2.4-1C82,91.9,86.6,91.8,89.6,94.4z"/>
	<path class="st13" d="M72.1,103.3c0.2,1.7,0.9,3.3,1.3,5c0.1,0.5,0.4,1,0.4,1.6c-2.2,0-4.4,0-6.5,0.1c-0.5,0-0.8-0.2-0.9-0.7   c-0.5-1.8-1-3.6-1.5-5.3c-0.2-0.6,0-0.7,0.6-0.7C67.6,103.3,69.9,103.3,72.1,103.3z"/>
	<path class="st8" d="M103.4,55.1c-0.8,0.9-1.7,1.7-2.5,2.6c-0.5,0.6-1.2,0.9-1.9,0.7c-0.8-0.2-1.2-0.9-1.4-1.7   c-1.2-6-2.4-11.9-3.6-17.9c-1-4.9-2-9.9-3-14.8c-0.5-2.5,0.3-3.4,2.8-2.9c1.1,0.2,2.1,0.5,3.2,0.7c-0.2,1.8,0.5,3.4,0.7,5.1   c-1.4,0.4-1.9,1.1-1.7,2.2c0.2,1,1,1.5,2.4,1.4c0.7,2.3,1,4.7,1.5,7.1c-1.3,0.6-1.7,1.3-1.5,2.3c0.3,1,1.1,1.4,2.4,1.2   c0.1,2,0.8,4,1,6c-0.8,0.2-1.6,0.6-1.7,1.6c-0.2,1.5,0.9,2.3,2.7,2C102.6,52.1,103.1,53.6,103.4,55.1z"/>
	<path class="st14" d="M119.4,31.6c0,1-0.8,1.9-1.8,1.8c-1,0-1.8-0.8-1.8-1.8c0-1,0.8-1.9,1.8-1.8C118.6,29.8,119.4,30.6,119.4,31.6   z"/>
	<path class="st14" d="M103.8,31.2c0-1,0.9-1.8,1.9-1.7c1,0,1.7,0.9,1.7,1.8c0,1-0.9,1.8-1.8,1.8C104.6,33.1,103.8,32.3,103.8,31.2z   "/>
	<path class="st14" d="M113.6,39.9c0,1-0.8,1.8-1.7,1.8c-1,0-1.9-0.8-1.9-1.8c0-1,0.9-1.8,1.9-1.8C112.8,38.1,113.6,38.9,113.6,39.9   z"/>
	<path class="st14" d="M98.2,30.5c-1.4,0.1-2.2-0.3-2.4-1.4c-0.2-1.1,0.4-1.8,1.7-2.2c1,0.1,1.7,0.6,1.8,1.6   C99.5,29.4,99,30,98.2,30.5z"/>
	<path class="st14" d="M100.6,41.1c-1.3,0.2-2.1-0.3-2.4-1.2c-0.3-1.1,0.2-1.8,1.5-2.3c1,0,1.7,0.3,2,1.4   C102,39.9,101.5,40.6,100.6,41.1z"/>
	<path class="st14" d="M102.6,50.6c-1.8,0.3-2.9-0.5-2.7-2c0.1-1,0.9-1.3,1.7-1.6C103.8,47.8,104.1,49.1,102.6,50.6z"/>
	<path class="st10" d="M75.7,73.4c-0.3,1.6-0.6,3.2-0.9,4.8c-0.4,1.6-1.9,2.1-3.1,1c-0.8-0.8-1.6-1.6-2.4-2.4   C61.3,68.9,53.3,61,45.4,53c-0.2-0.2-0.5-0.5-0.7-0.7c-1.1-1.2-0.6-2.8,1-3.1c1.9-0.4,3.9-0.8,5.8-1.2c-0.2,1.5,0.8,2.4,1.4,3.5   c-0.9,0.6-1.5,1.3-1.1,2.4c0.6,1.5,2.2,1.5,3.4,0.1c0.4,0,0.6,0.3,0.9,0.5c2.1,2.1,4.1,4.1,6.2,6.2c0.2,0.2,0.5,0.5,0.4,0.8   c-0.4,0.1-0.7,0.1-1,0.3c-0.9,0.5-1.3,1.7-0.7,2.6c0.6,0.8,1.7,1.1,2.5,0.5c0.6-0.4,0.7-1,0.9-1.7c0.6,0,0.8,0.4,1.2,0.8   c1.3,1.3,2.6,2.5,4,3.8c-0.7,0.9-0.9,1.8,0,2.7c0.9,0.8,1.8,0.6,2.7-0.1C73.4,71.5,74.1,73,75.7,73.4z"/>
	<path class="st14" d="M73.1,57.2c0,1-0.9,1.9-1.9,1.8c-1,0-1.8-0.8-1.8-1.8c0-1,0.7-1.8,1.7-1.8C72.2,55.4,73,56.2,73.1,57.2z"/>
	<path class="st14" d="M65,51.7c0,1-0.9,1.8-1.9,1.8c-1,0-1.7-0.8-1.7-1.8c0-1,0.9-1.8,1.9-1.8C64.2,49.9,65,50.7,65,51.7z"/>
	<path class="st14" d="M75.6,49.2c0,1-0.9,1.8-1.9,1.8c-1,0-1.7-0.8-1.7-1.8c0-1,0.8-1.8,1.9-1.8C74.9,47.5,75.6,48.2,75.6,49.2z"/>
	<path class="st14" d="M64.6,63.3c-0.1,0.6-0.2,1.3-0.9,1.7c-0.9,0.6-2,0.3-2.5-0.5c-0.6-0.9-0.2-2.1,0.7-2.6c0.3-0.2,0.7-0.2,1-0.3   C63.8,61.8,64.3,62.4,64.6,63.3z"/>
	<path class="st14" d="M55.3,54c-1.2,1.5-2.8,1.4-3.4-0.1c-0.4-1.1,0.2-1.8,1.1-2.4C54.9,51.5,55.5,52.1,55.3,54z"/>
	<path class="st14" d="M72.3,70.5c-0.9,0.7-1.8,0.9-2.7,0.1c-0.9-0.8-0.6-1.8,0-2.7c0.8-0.5,1.7-0.6,2.4,0.1   C72.9,68.7,72.8,69.6,72.3,70.5z"/>
	<path class="st14" d="M48.6,91.8c-0.7-0.7-1.2-1.4-0.8-2.4c0.5-1.1,1.4-1.2,2.4-1c0.9,0.7,1.4,1.5,0.8,2.6   C50.5,92.1,49.6,92.1,48.6,91.8z"/>
	<path class="st14" d="M44.6,102c-0.8-0.6-1.4-1.3-0.9-2.4c0.4-1,1.2-1.3,2.2-1.1c0.9,0.5,1.5,1.2,1.1,2.3   C46.6,102,45.7,102.2,44.6,102z"/>
	<path class="st14" d="M52.8,103.5c0.9,0,1.8,0.8,1.8,1.7c0.1,1-0.7,1.9-1.8,1.9c-1,0-1.8-0.7-1.9-1.7   C51,104.5,51.9,103.6,52.8,103.5z"/>
	<path class="st14" d="M56.4,96.9c0,1-0.8,1.9-1.8,1.8c-0.9,0-1.8-0.8-1.8-1.8c0-1,0.8-1.8,1.9-1.8C55.6,95.2,56.3,95.9,56.4,96.9z"/>
	<path class="st14" d="M126.7,102.3c-1,0-1.8-0.8-1.8-1.7c0-1,0.8-1.9,1.8-1.9c1,0,1.9,0.9,1.8,1.9   C128.5,101.5,127.7,102.3,126.7,102.3z"/>
	<path class="st14" d="M116.1,101.1c0.9,0,1.8,0.8,1.8,1.7c0.1,1-0.8,1.9-1.8,1.9c-1,0-1.8-0.8-1.8-1.7   C114.2,102,115.1,101.1,116.1,101.1z"/>
	<path class="st14" d="M99.5,90.9c-0.6-0.8-0.8-1.6-0.1-2.4c0.7-0.9,1.5-0.9,2.5-0.5c0.9,1.1,1,2,0.3,2.8   C101.5,91.5,100.5,91.6,99.5,90.9z"/>
	<path class="st14" d="M105.8,82.1c-0.7-0.8-1.1-1.7-0.3-2.7c0.8-0.9,1.7-0.8,2.7-0.2c0.6,0.8,0.8,1.7,0.1,2.5   C107.6,82.6,106.7,82.5,105.8,82.1z"/>
	<path class="st14" d="M110.6,90c-1,0-1.8-0.8-1.8-1.7c0-1,0.8-1.9,1.8-1.9c1,0,1.8,0.8,1.8,1.9C112.3,89.2,111.6,90,110.6,90z"/>
</g>
</svg>