<?xml version="1.0" encoding="UTF-8"?>
<!-- Generator: Adobe Illustrator 25.4.1, SVG Export Plug-In . SVG Version: 6.00 Build 0)  -->
<svg version="1.1" id="Layer_1" xmlns="http://www.w3.org/2000/svg" xmlns:xlink="http://www.w3.org/1999/xlink" x="0px" y="0px" viewBox="0 0 168 158" style="enable-background:new 0 0 168 158;" xml:space="preserve">
<style type="text/css">
	.st0{fill:#090908;}
	.st1{fill:#EEBF20;}
	.st2{fill:#ECECEC;}
	.st3{fill:#EBBD1D;}
	.st4{fill:#070707;}
	.st5{fill:#11100D;}
	.st6{fill:#72C1E6;}
	.st7{fill:#EDBE1F;}
	.st8{fill:#A9A8A8;}
	.st9{fill:#EAEAEA;}
	.st10{fill:#A3A3A2;}
	.st11{fill:#E4B722;}
	.st12{fill:#C5E2F6;}
</style>
<g>
	<path class="st0" d="M130.1,117.4c1.2,0,2.5,0,3.7,0.1c1.3,0,2.3,0.8,2.4,1.9c0.1,2.2,0.3,4.4-0.2,6.5c-1,4.2-4.6,7.2-9,7.3   c-0.2,0-0.5,0-0.7,0c-27.7,0-55.5,0-83.2,0c-5,0-8.9-3-9.8-7.6c-0.4-2.1-0.3-4.2-0.1-6.2c0.1-1.1,1-1.9,2.3-2   c0.9-0.1,2.1,0.4,2.6-0.2s0.3-1.8,0.5-2.6c1.5-6.8,5.3-11.7,11.6-14.7c0.8-0.4,1.2-0.8,1.2-1.7c0-0.9,0.3-1.7,0.4-2.6   c0.1-0.8,0.6-1.2,1.4-1.1c0.6,0.3,0.8,0.8,0.7,1.5c-0.1,0.7-0.2,1.3-0.4,2c-0.1,0.6,0.1,0.7,0.6,0.6c1-0.2,2.1-0.4,3.1-0.5   c0.4-0.1,0.6-0.2,0.7-0.6c0-0.3,0.1-0.6,0.2-0.9c1.8-6.2,7.5-10.4,13.8-10.2C78.5,86.7,84,91,85.5,97.4c0.1,0.6,0.3,0.8,1,0.8   c1,0.1,1.9,0.2,2.8,0.4c0.8,0.2,0.8,0,0.7-0.7c-0.6-4.2-2.3-7.8-5.4-10.7c-7.9-7.4-19.7-6.9-26.9,1.2c-0.5,0.6-1,0.9-1.8,0.6   c-0.6-0.7-0.4-1.3,0.1-1.9c7.6-9.1,21.7-9.7,30.2-1.1c0.2,0.2,0.4,0.5,0.6,0.7c0.4-0.3,0.3-0.6,0.3-0.8c0-4.5,0-9,0-13.5   c0-0.8,0.2-1.4,1.1-1.6c0.9,0.2,1.1,0.9,1.1,1.7c0,5.5,0,10.9,0,16.4c0,0.5,0.1,1,0.4,1.5c1.5,2.6,2.4,5.3,2.6,8.3   c0.1,0.9,0.5,1.2,1.4,1.3c0-0.4,0-0.8,0-1.2c0-21.6,0-43.1,0-64.7c0-2.3,0-2.3-2.3-2.3c-1.9,0-2,0.1-2,2c0,9.6,0,19.3,0,28.9   c0,0.8,0,1.6-1.1,1.8c-0.8-0.1-1.1-0.6-1.1-1.4c0-0.9,0.4-2-0.2-2.5c-0.6-0.6-1.7-0.1-2.6-0.2c-0.7,0-1.4,0-2,0   c-1.9-0.2-3.2-1.7-3.1-3.5c0-1.8,1.5-3.2,3.3-3.4c1.3-0.1,2.5,0,3.8,0c0.6,0,0.9-0.1,0.9-0.8c0-1.9,0-1.9-1.9-1.9c-1,0-1.9,0-2.9,0   c-1.8-0.1-3.2-1.6-3.3-3.4c0-1.8,1.4-3.3,3.2-3.5c1.3-0.1,2.6-0.1,3.9,0c0.7,0,0.9-0.2,0.9-0.9c0-1.8,0-1.8-1.8-1.8   c-0.9,0-1.8,0-2.8,0c-1.8-0.1-3.3-1.5-3.4-3.3c-0.1-1.7,1.1-3.2,2.9-3.5c1.4-0.3,2.8-0.1,4.2-0.1c0.7,0,0.9-0.1,0.9-0.9   c0-2.5,1.2-3.6,3.8-3.6c4.6,0,9.2,0,13.8,0c2.5,0,3.7,1.2,3.7,3.6c0,0.6,0.1,0.8,0.8,0.9c2.8,0.2,5.1,1.6,6.8,3.8   c1.6,2,3.6,2.9,6.2,2.9c4.2,0,8.3,0,12.5,0c0.6,0,1.1,0,1.5,0.6c0.3,0.7,0,1.2-1,1.6c-4,0-8-0.1-12,0c-3.8,0.1-6.8-1.1-9.1-4.2   c-0.9-1.2-2.1-2-3.7-2.3c-1.8-0.6-1.9-0.6-1.9,1.2c0,6.3,0,12.7,0,19c0,1.5,0.1,1.5,1.5,1.1c0.1,0,0.3-0.1,0.4-0.2   c1.6-0.5,2.9-1.5,3.8-2.8c2.1-3.2,5-4.6,8.8-4.5c4.1,0,8.1,0,12.2,0c0.7,0.1,1.2,0.4,1.1,1.2s-0.7,0.9-1.4,0.9c-4,0-8,0-12.1,0   c-2.9,0-5.2,1.1-6.8,3.5c-1.6,2.4-3.8,3.8-6.7,4.1c-0.6,0.1-0.8,0.3-0.8,0.9c0,12,0,24.1,0,36.1c0,1,0.5,0.8,1.1,0.8   c8.9-0.3,16.5,4.5,20,12.3c0.4,0.8,0.5,1.5-0.4,2c-1,0.2-1.3-0.6-1.6-1.3c-4.8-10.5-17.9-14.5-28.3-7.2c0.7,0.9,1.5,1.7,2.2,2.7   c0.5,0.7,0.7,0.8,1.4,0.3c3.5-2.3,7.4-3.1,11.5-1.8c5.9,1.8,9.4,5.7,10.4,11.8c0.1,0.7,0.3,0.8,0.9,0.8   C127.1,117.4,128.6,117.4,130.1,117.4z M85.3,48.3c0.5,0,0.9,0,1.4,0.1c0.3,0,0.4-0.1,0.5-0.4c0.5-1.8,0-2.4-1.9-2.2   c-0.9,0-1.8-0.1-2.6,0c-0.8,0-1.4,0.5-1.3,1.3c0,0.8,0.5,1.3,1.3,1.3C83.6,48.4,84.4,48.4,85.3,48.3z M85.3,58c0.5,0,0.9,0,1.4,0.1   c0.3,0,0.5,0,0.5-0.4c0-0.7,0.2-1.5-0.1-2.2c-0.2-0.5-1.1-0.1-1.6-0.2h-0.1c-0.9,0-1.7-0.1-2.5,0c-0.9,0-1.4,0.5-1.4,1.4   c0,0.8,0.6,1.3,1.4,1.3C83.6,58.1,84.4,58,85.3,58z M85.3,36.2c-0.9,0-1.8-0.1-2.6,0c-0.8,0.1-1.4,0.5-1.3,1.3   c0,0.9,0.6,1.3,1.5,1.3c0.8,0,1.7,0,2.5,0c0.5,0,0.9,0,1.4,0c0.3,0,0.4,0,0.5-0.4C87.7,36.6,87.1,36,85.3,36.2z M84.8,119.6   c-16.1,0-32.1,0-48.2,0c-0.3,0-0.6,0-0.9,0c-0.4,0-0.5,0.2-0.5,0.5c0.1,1.8-0.2,3.7,0.2,5.5c0.9,3.5,3.8,5.6,7.6,5.6   c27.8,0,55.5,0,83.2,0c0.2,0,0.4,0,0.6,0c3.9-0.2,6.9-3.1,7.2-7c0.1-1.1,0-2.1,0-3.2c0-1.4,0-1.4-1.4-1.4   C116.8,119.6,100.8,119.6,84.8,119.6z M102,99.6c1.1-0.4,2.1-0.8,3.1-1c0.9-0.2,1.2-0.5,1.2-1.4c0-21.2,0-42.4,0-63.7   c0-0.2,0-0.4,0-0.6c0-0.9-0.5-1.3-1.3-1.3c-0.6,0-1.3,0.1-1.9,0c-0.9-0.1-1.1,0.2-1.1,1.1c0,7.1,0,14.1,0,21.2c0,0.3,0,0.7,0,1   c-0.1,0.5-0.5,0.8-1.1,0.8s-0.9-0.4-1-0.9c0-0.3,0-0.6,0-1c0-6.4,0-12.8,0-19.3c0-1,0.3-2.2-0.2-2.8c-0.6-0.7-1.9-0.1-2.8-0.2   c-1.1-0.2-1.2,0.3-1.2,1.3c0,21.7,0,43.4,0,65.1c0,0.8,0,1.6,0,2.4c0,0.5,1.3,1.9,1.7,1.7c0.8-0.3,1.5-0.8,2.3-1.3   c0.4-0.3,0.2-0.8,0.2-1.2c0-11.8,0-23.7,0-35.5c0-0.3,0-0.6,0-0.8c0-0.7,0.4-1.1,1-1.2c0.7,0,1.1,0.4,1.1,1.1c0,0.3,0,0.6,0,0.8   c0,11.4,0,22.8,0,34.2C102,98.8,102,99.1,102,99.6z M68.1,117.4c0.7,0,1,0,1.4,0c1.3,0,1.3,0,1-1.4c-1.2-5.4-5.1-8.9-10.9-9.6   c-0.8-0.1-1.6-0.3-1.4-1.2c0.1-0.9,0.9-1,1.6-0.9c6.9,0.7,11.9,5.6,12.9,12.4c0.1,0.6,0.3,0.7,0.8,0.7c1,0,2,0,3,0   c0.6,0,0.7-0.2,0.6-0.8c-1.1-11.2-11.8-18.8-22.7-16.2c-7.4,1.7-13.1,8-14.1,15.5c-0.2,1.5-0.2,1.5,1.3,1.5c0.6,0,1.1,0,1.7,0   c0.8,0.1,1.3-0.1,1.3-1.1c0-0.6,0.2-1.1,0.3-1.7c0.9-3.2,2.7-5.8,5.4-7.8c0.5-0.4,1-0.5,1.5-0.1c0.4,0.3,0.4,0.8,0.2,1.3   c-0.1,0.3-0.4,0.5-0.7,0.7c-2.6,2-4.1,4.5-4.7,7.7c-0.2,0.8,0.1,1,0.8,0.9c0.9-0.1,1.8-0.1,2.8,0c0.8,0.1,1.1-0.2,1.3-1   c0.8-3,3.6-5.2,6.7-5.4c3-0.2,6.1,1.6,7.1,4.5C66,117.3,66.8,117.8,68.1,117.4z M100.9,117.4c0.4,0,0.8-0.1,1.2,0   c1,0.2,1.1-0.3,1-1.1c-0.7-4.8-2.8-8.9-6.6-12c-6.4-5.3-15.9-5.7-22.4-0.9c-0.6,0.4-0.7,0.7-0.1,1.2c0.6,0.6,1.1,1.3,1.6,2   c0.4,0.6,0.6,0.6,1.2,0.2c8.4-5.6,19.6-1.1,21.8,8.8C99,117.4,99,117.4,100.9,117.4z M60,97.9c1.3,0.1,2.5,0.2,3.7,0.6   c0.6,0.2,0.8,0,1-0.6c1.1-3.1,3.6-4.9,6.9-4.9s5.9,1.8,7,4.9c0.2,0.6,0.4,0.8,1,0.6c1-0.2,2-0.5,3-0.5c0.8-0.1,0.8-0.3,0.6-0.9   c-1.3-5.2-6.5-9-12.1-8.8C65.7,88.6,60.9,92.6,60,97.9z M104.8,113.9c0.3-0.3,0.5-0.6,0.7-0.8c3.5-3.4,9.7-2.4,11.6,2.1   c0.9,2.1,1.9,2.5,3.8,2.2c0.3,0,0.6,0,1,0c0.6,0.1,0.8-0.1,0.7-0.8c-0.5-2.8-1.7-5.2-3.9-7.1c-4.1-3.7-10.5-4.2-14.9-1   c-0.3,0.2-0.8,0.3-0.6,0.8C103.9,110.8,104.3,112.3,104.8,113.9z M78.8,113.7c0.4,0,0.5-0.3,0.7-0.4c4.2-4,10.9-2.1,12.4,3.5   c0.2,0.6,0.4,0.7,0.9,0.7c1.1,0,2.1,0,3.2,0c0.6,0,0.7-0.2,0.6-0.8c-1.1-8.7-11.9-13.3-18.9-8.1c-0.4,0.3-0.6,0.6-0.3,1.1   C78.1,111,78.5,112.3,78.8,113.7z M71.7,95.1c-2.3,0-4.3,1.4-4.9,3.4c-0.1,0.4-0.3,0.8,0.3,1.1c1.5,0.6,2.9,1.5,4.2,2.5   c0.3,0.3,0.6,0.3,0.9,0c1.3-1,2.7-1.8,4.2-2.5c0.5-0.2,0.6-0.5,0.4-1C76.1,96.5,74.1,95.1,71.7,95.1z M84.7,117.4c1.5,0,3,0,4.5,0   c0.5,0,0.8-0.1,0.6-0.7c-0.6-2-2.7-3.5-4.9-3.5c-2.3,0-4.4,1.4-5.1,3.5c-0.2,0.6-0.1,0.8,0.5,0.7C81.7,117.4,83.2,117.4,84.7,117.4   z M110.4,117.4c1.5,0,3,0,4.5,0c0.8,0,0.8-0.3,0.6-0.9c-0.7-2-2.8-3.4-5-3.4c-2.3,0-4.2,1.5-4.9,3.5c-0.2,0.6-0.1,0.7,0.5,0.7   C107.5,117.4,109,117.4,110.4,117.4z M63.8,117.4c0.1-0.4,0-0.6-0.1-0.9c-0.8-2-2.8-3.4-5-3.3c-2.1,0-4.1,1.4-4.9,3.3   c-0.1,0.4-0.6,0.9,0.4,0.9C57.4,117.4,60.6,117.4,63.8,117.4z"/>
	<path class="st1" d="M88.2,64.3c1-0.2,1.1-0.9,1.1-1.8c0-9.6,0-19.3,0-28.9c0-1.9,0.1-2,2-2c2.3,0,2.3,0,2.3,2.3   c0,21.6,0,43.1,0,64.7c0,0.4,0,0.8,0,1.2c-0.8-0.1-1.3-0.4-1.4-1.3c-0.2-2.9-1.1-5.7-2.6-8.3c-0.3-0.5-0.4-1-0.4-1.5   c0-5.5,0-10.9,0-16.4c0-0.8-0.2-1.5-1.1-1.7c0-0.7,0-1.4,0-2c0.6-0.1,1-0.4,1-1.1s-0.5-0.9-1-1.1C88.2,65.7,88.2,65,88.2,64.3z"/>
	<path class="st2" d="M135.1,50.2c-4.1,0-8.1,0.1-12.2,0c-3.8,0-6.7,1.4-8.8,4.5c-0.9,1.4-2.2,2.4-3.8,2.8c0-7,0-14.1,0-21.1   c1.5,0.2,2.8,1.1,3.7,2.3c2.3,3,5.3,4.3,9.1,4.2c4-0.1,8,0,12,0C135.1,45.4,135.1,47.8,135.1,50.2z"/>
	<path class="st3" d="M55.9,88.9c0.8,0.3,1.3-0.1,1.8-0.6c7.2-8.1,19-8.6,26.9-1.2c3.1,2.9,4.8,6.5,5.4,10.7c0.1,0.7,0,0.9-0.7,0.7   c-0.9-0.2-1.9-0.4-2.8-0.4c-0.6,0-0.8-0.3-1-0.8c-1.5-6.4-7-10.8-13.6-10.9c-6.4-0.1-12,4.1-13.8,10.2c-0.1,0.3-0.2,0.6-0.2,0.9   c-0.1,0.4-0.3,0.5-0.7,0.6c-1,0.1-2.1,0.3-3.1,0.5c-0.6,0.1-0.8,0.1-0.6-0.6c0.1-0.7,0.2-1.3,0.4-2c0.1-0.7,0-1.2-0.7-1.5   c0.2-0.6,0.5-1.3,0.7-1.9c0.6,0.2,1.1,0.1,1.4-0.5s0.1-1.1-0.4-1.5C55.2,90,55.6,89.4,55.9,88.9z"/>
	<path class="st3" d="M130.1,117.4c-1.5,0-3,0-4.5,0.1c-0.6,0-0.8-0.1-0.9-0.8c-1-6.1-4.5-10.1-10.4-11.8c-4.1-1.2-8-0.5-11.5,1.8   c-0.7,0.5-1,0.4-1.4-0.3c-0.7-0.9-1.5-1.8-2.2-2.7c10.4-7.3,23.5-3.3,28.3,7.2c0.3,0.7,0.6,1.5,1.6,1.3c0.2,0.7,0.4,1.3,0.5,2   c-0.5,0.2-0.9,0.6-0.8,1.2c0.1,0.7,0.6,0.9,1.2,1C130.1,116.7,130.1,117.1,130.1,117.4z"/>
	<path class="st4" d="M73.7,47.1c0,0.6-0.3,1-0.8,1.1c-2.3,0.6-3.4,2.3-3.8,4.4c-0.1,0.5-0.3,1-0.8,1.2c-0.7,0.3-1.4-0.1-1.6-0.9   c-0.4-2.4-1.6-4-4-4.7c-0.5-0.1-0.7-0.5-0.7-1c0-0.6,0.3-1,0.8-1.1c2.3-0.6,3.4-2.3,3.8-4.4c0.1-0.7,0.4-1.2,1.2-1.2   s1.1,0.5,1.2,1.2c0.5,2.2,1.5,3.9,3.9,4.5C73.4,46.1,73.7,46.5,73.7,47.1z M67.8,49.4c0.5-0.9,1-1.5,1.6-2c0.2-0.2,0.3-0.3,0-0.5   c-0.7-0.5-1.1-1.3-1.7-2c-0.5,0.9-1.6,1.5-1.7,2.2C66,47.8,67.4,48.3,67.8,49.4z"/>
	<path class="st4" d="M119.5,78.7c-0.5,0-0.9-0.3-1.1-0.8c-0.1-0.3-0.2-0.5-0.2-0.8c-0.4-2-1.5-3.3-3.4-3.9   c-0.6-0.2-1.1-0.5-1.1-1.2s0.5-1,1.1-1.2c1.8-0.5,2.8-1.7,3.3-3.4c0.1-0.4,0.2-0.9,0.4-1.3c0.2-0.5,0.6-0.8,1.1-0.8   s0.9,0.3,1.1,0.8s0.3,1.1,0.5,1.6c0.5,1.6,1.5,2.6,3,3.1c0.6,0.2,1.2,0.4,1.2,1.2c0,0.8-0.6,1.1-1.2,1.2c-2.2,0.6-3,2.3-3.4,4.3   C120.6,78.2,120.3,78.7,119.5,78.7z M117.4,72c0.9,0.6,1.5,1.3,2.1,2c0.5-0.7,0.9-1.3,1.5-1.8c0.2-0.2,0.5-0.4,0.1-0.6   c-0.7-0.5-1.1-1.2-1.6-1.9C118.9,70.6,118.3,71.4,117.4,72z"/>
	<path class="st5" d="M130,116.4c-0.6-0.1-1.1-0.3-1.2-1c-0.1-0.6,0.3-1,0.8-1.2c0.6,0,1.1,0.2,1.2,0.8   C131.1,115.8,130.6,116.2,130,116.4z"/>
	<path class="st5" d="M88.2,66.3c0.6,0.2,1,0.5,1,1.1s-0.4,1-1,1.1c-0.6-0.1-1-0.4-1-1.1C87.2,66.8,87.7,66.5,88.2,66.3z"/>
	<path class="st5" d="M54.8,90.5c0.4,0.4,0.7,0.9,0.4,1.5c-0.3,0.5-0.8,0.6-1.4,0.5c-0.5-0.4-0.8-0.9-0.5-1.5   C53.6,90.4,54.2,90.4,54.8,90.5z"/>
	<path class="st6" d="M84.8,119.6c16,0,32,0,48,0c1.4,0,1.4,0,1.4,1.4c0,1.1,0,2.1,0,3.2c-0.2,3.9-3.3,6.8-7.2,7c-0.2,0-0.4,0-0.6,0   c-27.8,0-55.5,0-83.2,0c-3.8,0-6.7-2.1-7.6-5.6c-0.5-1.8-0.2-3.7-0.2-5.5c0-0.3,0.2-0.5,0.5-0.5s0.6,0,0.9,0   C52.7,119.6,68.7,119.6,84.8,119.6z M87.7,127c-12.7,0-25.4,0-38.1,0c-0.3,0-0.6,0-0.9,0c-0.7,0-1,0.4-1,1c-0.1,0.6,0.4,1,0.9,1.1   c0.3,0.1,0.7,0,1.1,0c25.5,0,51,0,76.5,0c0.2,0,0.5,0,0.7,0c2.9-0.1,5.2-2.4,5.2-5c0-0.6,0-1.2-0.9-1.3c-0.8-0.1-1.1,0.5-1.3,1.1   c-0.5,2.3-1.4,3.1-3.8,3.1C113.3,127,100.5,127,87.7,127z M43.5,127c-0.2,0-0.5,0-0.7,0c-0.6,0-1.1,0.2-1.1,0.9   c-0.1,0.8,0.4,1.1,1,1.2c0.3,0,0.6,0,0.8,0c0.9,0,1.9,0.1,1.9-1.1C45.4,126.8,44.3,127,43.5,127z"/>
	<path class="st7" d="M102,99.6c0-0.5,0-0.9,0-1.3c0-11.4,0-22.8,0-34.2c0-0.3,0-0.6,0-0.8c0-0.7-0.4-1.2-1.1-1.1   c-0.6,0-1,0.5-1,1.1c0,0.3,0,0.6,0,0.8c0,11.8,0,23.7,0,35.5c0,0.4,0.2,0.9-0.2,1.2c-0.7,0.5-1.5,1-2.3,1.3   c-0.4,0.2-1.7-1.2-1.7-1.7c0-0.8,0-1.6,0-2.4c0-21.7,0-43.4,0-65.1c0-1,0.2-1.4,1.2-1.3c1,0.1,2.3-0.4,2.8,0.2   c0.5,0.6,0.2,1.8,0.2,2.8c0,6.4,0,12.9,0,19.3c0,0.3,0,0.6,0,1c0.1,0.6,0.4,0.9,1,0.9s1-0.3,1.1-0.8c0.1-0.3,0-0.7,0-1   c0-7.1,0-14.1,0-21.2c0-0.9,0.2-1.2,1.1-1.1c0.6,0.1,1.3,0,1.9,0c0.9,0,1.3,0.4,1.3,1.3c0,0.2,0,0.4,0,0.6c0,21.2,0,42.4,0,63.7   c0,0.9-0.3,1.3-1.2,1.4C104.2,98.8,103.2,99.3,102,99.6z M101,57.9c-0.6,0.1-1.1,0.4-1,1.1c0,0.7,0.4,1,1.1,1c0.6,0,1-0.4,1-1   C102,58.3,101.6,58,101,57.9z"/>
	<path class="st3" d="M68.1,117.4c-1.3,0.3-2.1-0.2-2.6-1.8c-1-2.9-4.1-4.7-7.1-4.5c-3.2,0.2-5.9,2.3-6.7,5.4c-0.2,0.8-0.5,1-1.3,1   c-0.9-0.1-1.8-0.1-2.8,0c-0.7,0-1-0.1-0.8-0.9c0.6-3.2,2.1-5.7,4.7-7.7c0.2-0.2,0.5-0.4,0.7-0.7c0.2-0.4,0.2-0.9-0.2-1.3   c-0.5-0.4-1-0.3-1.5,0.1c-2.7,2-4.5,4.6-5.4,7.8c-0.1,0.5-0.3,1.1-0.3,1.7c0,1-0.5,1.1-1.3,1.1c-0.6-0.1-1.1,0-1.7,0   c-1.5,0-1.5,0-1.3-1.5c1-7.5,6.7-13.7,14.1-15.5c10.9-2.6,21.5,5.1,22.7,16.2c0,0.5,0,0.8-0.6,0.8c-1,0-2,0-3,0   c-0.5,0-0.7-0.1-0.8-0.7c-1-6.8-6-11.7-12.9-12.4c-0.8-0.1-1.5,0-1.6,0.9c-0.1,1,0.6,1.2,1.4,1.2c5.8,0.7,9.6,4.2,10.9,9.6   c0.3,1.4,0.3,1.4-1,1.4C69.1,117.4,68.8,117.4,68.1,117.4z M56.1,105.9c-0.1-0.6-0.4-1-1.1-1c-0.6,0-1,0.4-1,1c0,0.7,0.4,1.1,1.1,1   C55.8,106.9,56.1,106.5,56.1,105.9z"/>
	<path class="st3" d="M100.9,117.4c-2,0-2,0-2.4-1.9c-2.2-9.8-13.4-14.3-21.8-8.8c-0.6,0.4-0.8,0.4-1.2-0.2c-0.5-0.7-1-1.4-1.6-2   s-0.5-0.8,0.1-1.2c6.5-4.8,16-4.4,22.4,0.9c3.8,3.1,5.9,7.2,6.6,12c0.1,0.8,0,1.3-1,1.1C101.7,117.4,101.3,117.4,100.9,117.4z"/>
	<path class="st3" d="M60,97.9c1-5.3,5.7-9.3,11.3-9.6c5.6-0.2,10.7,3.5,12.1,8.8c0.1,0.6,0.1,0.9-0.6,0.9c-1,0.1-2,0.3-3,0.5   c-0.6,0.2-0.8,0-1-0.6c-1.1-3.1-3.7-4.9-7-4.9s-5.8,1.8-6.9,4.9c-0.2,0.6-0.4,0.8-1,0.6C62.5,98.1,61.2,98,60,97.9z"/>
	<path class="st3" d="M104.8,113.9c-0.5-1.6-1-3.1-1.6-4.5c-0.3-0.5,0.3-0.7,0.6-0.8c4.5-3.2,10.8-2.8,14.9,1   c2.1,1.9,3.4,4.3,3.9,7.1c0.1,0.6-0.1,0.8-0.7,0.8c-0.3,0-0.6,0-1,0c-1.9,0.2-3-0.1-3.8-2.2c-1.8-4.5-8-5.5-11.6-2.1   C105.3,113.3,105.1,113.6,104.8,113.9z"/>
	<path class="st3" d="M78.8,113.7c-0.4-1.4-0.8-2.7-1.4-3.9c-0.3-0.5-0.1-0.8,0.3-1.1c7-5.2,17.8-0.6,18.9,8.1   c0.1,0.6,0,0.8-0.6,0.8c-1.1-0.1-2.1,0-3.2,0c-0.5,0-0.8-0.1-0.9-0.7c-1.5-5.7-8.1-7.5-12.4-3.5C79.3,113.4,79.2,113.7,78.8,113.7z   "/>
	<path class="st3" d="M71.7,95.1c2.4,0,4.4,1.4,5.1,3.6c0.1,0.5,0.1,0.8-0.4,1c-1.5,0.6-2.9,1.5-4.2,2.5c-0.3,0.3-0.6,0.3-0.9,0   c-1.3-1-2.7-1.8-4.2-2.5c-0.6-0.3-0.5-0.7-0.3-1.1C67.4,96.5,69.4,95.1,71.7,95.1z"/>
	<path class="st8" d="M110.3,36.5c0,7,0,14.1,0,21.1c-0.1,0-0.3,0.1-0.4,0.2c-1.4,0.4-1.5,0.3-1.5-1.1c0-6.3,0-12.7,0-19   C108.5,35.9,108.6,35.8,110.3,36.5z"/>
	<path class="st3" d="M84.7,117.4c-1.5,0-3,0-4.5,0c-0.6,0-0.7-0.2-0.5-0.7c0.7-2,2.8-3.5,5.1-3.5c2.3,0,4.3,1.5,4.9,3.5   c0.2,0.6,0,0.7-0.6,0.7C87.6,117.4,86.1,117.4,84.7,117.4z"/>
	<path class="st3" d="M110.4,117.4c-1.4,0-2.9,0-4.3,0c-0.6,0-0.7-0.2-0.5-0.7c0.7-2,2.6-3.5,4.9-3.5c2.2,0,4.3,1.4,5,3.4   c0.2,0.6,0.2,0.9-0.6,0.9C113.5,117.4,111.9,117.4,110.4,117.4z"/>
	<path class="st3" d="M63.8,117.4c-3.2,0-6.4,0-9.6,0c-0.9,0-0.5-0.5-0.4-0.9c0.7-1.9,2.7-3.3,4.9-3.3c2.1,0,4.2,1.3,5,3.3   C63.8,116.8,63.9,117.1,63.8,117.4z"/>
	<path class="st9" d="M85.3,38.8c-0.8,0-1.7,0-2.5,0c-0.9,0-1.4-0.5-1.5-1.3c0-0.8,0.5-1.3,1.3-1.3c0.9-0.1,1.7,0,2.6,0   C85.3,37,85.3,37.9,85.3,38.8z"/>
	<path class="st9" d="M85.3,58c-0.9,0-1.7,0.1-2.5,0c-0.8,0-1.4-0.5-1.4-1.3c0-0.9,0.6-1.3,1.4-1.4c0.8,0,1.7,0,2.5,0   C85.3,56.2,85.3,57.1,85.3,58z"/>
	<path class="st9" d="M85.3,48.3c-0.9,0-1.8,0.1-2.6,0c-0.8,0-1.3-0.5-1.3-1.3s0.5-1.3,1.3-1.3c0.9,0,1.8,0,2.6,0   C85.3,46.7,85.3,47.5,85.3,48.3z"/>
	<path class="st10" d="M85.3,38.8c0-0.9,0-1.7,0-2.6c1.9-0.2,2.4,0.5,1.9,2.3c-0.1,0.3-0.3,0.4-0.5,0.4   C86.2,38.8,85.7,38.8,85.3,38.8z"/>
	<path class="st10" d="M85.3,58c0-0.9,0-1.7,0-2.6h0.1c0.6,0,1.4-0.3,1.6,0.2c0.3,0.6,0.1,1.4,0.1,2.2c0,0.3-0.3,0.4-0.5,0.4   C86.2,58,85.7,58,85.3,58z"/>
	<path class="st8" d="M85.3,48.3c0-0.8,0-1.7,0-2.5c1.8-0.2,2.3,0.4,1.9,2.2c-0.1,0.3-0.2,0.4-0.5,0.4   C86.2,48.4,85.8,48.4,85.3,48.3z"/>
	<path class="st11" d="M67.8,49.4c-0.5-1.1-1.8-1.6-1.7-2.3c0.1-0.7,1.2-1.3,1.7-2.2c0.6,0.7,1,1.4,1.7,2c0.2,0.2,0.1,0.3,0,0.5   C68.8,47.9,68.3,48.5,67.8,49.4z"/>
	<path class="st11" d="M117.4,72c0.9-0.7,1.5-1.4,2-2.3c0.5,0.7,0.9,1.4,1.6,1.9c0.4,0.3,0.2,0.4-0.1,0.6c-0.6,0.5-1,1.1-1.5,1.8   C118.9,73.4,118.4,72.6,117.4,72z"/>
	<path class="st12" d="M87.7,127c12.8,0,25.6,0,38.3,0c2.4,0,3.3-0.8,3.8-3.1c0.1-0.7,0.4-1.2,1.3-1.1c0.8,0.1,0.9,0.7,0.9,1.3   c0,2.6-2.3,4.9-5.2,5c-0.2,0-0.5,0-0.7,0c-25.5,0-51,0-76.5,0c-0.4,0-0.7,0.1-1.1,0c-0.6-0.1-1-0.5-0.9-1.1c0.1-0.6,0.4-1,1-1   c0.3,0,0.6,0,0.9,0C62.3,127,75,127,87.7,127z"/>
	<path class="st12" d="M43.5,127c0.8,0,1.9-0.2,1.9,1c0,1.2-1,1.1-1.9,1.1c-0.3,0-0.6,0-0.8,0c-0.7-0.1-1.1-0.4-1-1.2   c0.1-0.7,0.5-0.9,1.1-0.9C43,127,43.3,127,43.5,127z"/>
	<path class="st5" d="M101,57.9c0.6,0.1,1.1,0.4,1.1,1.1c0,0.6-0.4,1-1,1c-0.7,0-1.1-0.3-1.1-1C99.9,58.3,100.3,58,101,57.9z"/>
	<path class="st0" d="M56.1,105.9c0,0.7-0.4,1-1,1.1c-0.7,0-1.1-0.4-1.1-1s0.3-1,1-1C55.7,104.9,56.1,105.2,56.1,105.9z"/>
</g>
</svg>