<?xml version="1.0" encoding="UTF-8"?>
<!-- Generator: Adobe Illustrator 25.4.1, SVG Export Plug-In . SVG Version: 6.00 Build 0)  -->
<svg version="1.1" id="Layer_1" xmlns="http://www.w3.org/2000/svg" xmlns:xlink="http://www.w3.org/1999/xlink" x="0px" y="0px" viewBox="0 0 168 158" style="enable-background:new 0 0 168 158;" xml:space="preserve">
<style type="text/css">
	.st0{fill:#131312;}
	.st1{fill:#FDD6AD;}
	.st2{fill:#5BDF58;}
	.st3{fill:#FBD5AC;}
	.st4{fill:#E3C19B;}
	.st5{fill:#E3C09B;}
	.st6{fill:#52C94F;}
	.st7{fill:#FC4747;}
	.st8{fill:#FB4747;}
	.st9{fill:#FBEE54;}
	.st10{fill:#E34040;}
	.st11{fill:#E04040;}
	.st12{fill:#141312;}
</style>
<g>
	<path class="st0" d="M16.6,95.4c1.1-2.1,2.5-3.9,4.4-5.3c0.4-0.3,0.3-0.6,0.2-1c-0.7-2.7-0.4-5.4-0.3-8.1c0.1-1.5,0.8-2.8,1.7-4   C32.8,64.3,42.9,51.6,53,39c4.1-5.1,10.7-6.9,16.9-4.5c12,4.7,23.9,9.4,35.9,14.2c11.1,4.4,22.2,8.8,33.2,13.2c4.3,1.7,6,4.2,6,8.8   c0,1.6,0.1,3.2-0.2,4.8c-0.1,0.6,0.2,0.8,0.5,1c1,0.7,1.9,1.4,2.6,2.3c3.4,3.9,1.3,10.1-3.8,11.1c-1.1,0.2-1.4,0.5-1.5,1.8   c-0.1,1.7,0.1,3.1,1.2,4.4c0.6,0.7,0.9,1.8,1,2.8c0.2,2.1,0.2,4.2,0,6.2c-0.4,3.6-3.3,6.5-6.9,6.9c-10.9,1.3-21.8,2.6-32.8,3.9   c-10.5,1.3-21,2.5-31.5,3.8c-12,1.4-24,2.8-36,4.3c-2.5,0.3-5,0.6-7.5,0.9c-5.3,0.7-9.5-2.9-9.6-8.2c0-1.1,0-2.3,0-3.4   c-0.1-2.5,0.6-4.8,2.3-6.7c0.5-0.6,0.9-1.1,0.3-1.9c-0.1-0.1-0.1-0.2-0.1-0.4c-0.3-0.8-1.8-2.4-2.7-2.7c-1.9-0.6-3-2-3.9-3.5   C16.6,97.3,16.6,96.4,16.6,95.4z M126.6,100.3c0.8,0,1.5-0.3,2.2-0.5c3.1-0.9,6.1-2,8.6-4.1c1.3-1.1,2.4-2.4,2.2-4.3   c-0.1-0.9-0.4-1.5-1.5-1.7c-1.4-0.2-2.9-0.6-4.3-0.7c-3.1-0.3-6.1-0.3-8.5,2c-1.4,1.1-2.2,2.7-3.2,4c-1.9,2.6-4.4,4.2-7.6,4.4   c-2.2,0.1-4.2-0.6-6.3-1.5c-2.4-1-4.8-2.3-7.3-3c-3.9-1-7.2,0.1-9.6,3.4c-0.4,0.6-0.4,0.8,0.2,1.2c1.4,0.7,2.8,1.2,4.2,1.6   c6.6,1.8,13.2,1.9,20,1.2C119.5,101.9,123.1,101.4,126.6,100.3z M65,106.8c2.1-0.4,4.1-1.2,6-2c1.4-0.6,2.7-1.3,3.9-2.3   c0.6-0.5,0.7-0.8-0.1-1.2c-1.6-0.9-3.1-1.9-4.7-2.8c-4.5-2.6-9.3-1.5-13,1.5c-1.2,0.7-2.2,1.7-3.2,2.6c-1.3,1.1-2.6,2.2-4.3,2.6   c-3.3,0.8-6.1-0.4-8.6-2.5c-1-0.8-1.9-1.9-3.1-2.5c-1.8-1.2-3.7-1.1-5.7-0.3c-1.7,0.7-3.3,1.5-5.1,1.9c-1.2,0.3-1.5,1-0.9,2.1   c0.3,0.5,0.7,0.9,1.2,1.2c1.8,1.5,4,2.2,6.2,2.8c6.3,1.7,12.6,1.8,19.1,1.2C56.9,108.6,61,108,65,106.8z M115.2,111.7   c7.4-0.9,14.7-1.7,22.1-2.6c1.6-0.2,2.9-0.8,3.8-2.2c1.2-1.8,1.3-7.6,0.2-9.4c-0.4-0.7-0.7-0.6-1.1-0.1c-1.5,1.5-3.4,2.6-5.3,3.4   c-3.3,1.5-6.8,2.4-10.3,3.2c-5,1.1-10,1.5-15.1,1.8c-2.8-0.4-5.3,0-7.9,1.2c-4.2,2-8.6,3.7-13.1,5.4c-2.2,0.8-4.5,1.2-6.9,1.2   c-6.1-0.2-12.2-0.9-18.2-1.7c-1.7-0.2-3.3-0.8-5-0.5c-4.4,0.8-8.9,1.1-13.3,1c-6.4-0.2-12.8-0.9-18.5-4.2c-0.4-0.2-0.6-0.2-0.9,0.1   c-1.1,1.3-2,2.6-1.9,4.4c0.1,1.3,0,2.6,0,3.9c0,3.6,2.2,5.6,5.8,5.3c3.2-0.3,6.4-0.7,9.7-1.1c12-1.4,24-2.9,36-4.3   C88.6,114.9,101.9,113.3,115.2,111.7z M131.8,82.4c-5.4,0.6-10.8,1.3-16.2,1.9c-6.8,0.8-13.7,1.6-20.5,2.5   c-6.9,0.8-13.8,1.6-20.6,2.5c-6.9,0.8-13.8,1.7-20.8,2.5c-7,0.8-13.9,1.7-20.9,2.5c-3.3,0.4-6.7,0.9-9.4-1.8   c-0.2-0.2-0.4-0.2-0.7,0c-1.1,1-2.2,1.9-2.8,3.2c-0.6,1.3-0.3,2.2,1,2.8c1.1,0.6,2.4,0.7,3.7,0.6c2.3-0.2,4.3-1.2,6.4-2   c3.9-1.6,7.4-1,10.6,1.9c0.8,0.8,1.7,1.5,2.6,2.2c2.5,1.7,4.7,1.6,7-0.3c0.9-0.7,1.7-1.5,2.6-2.2c3.4-2.9,7.3-4.8,11.9-4.7   c3.1,0.1,5.7,1.5,8.3,3.1c1.7,1,3.3,2.1,5,2.9c2.4,1.1,4.6,0.8,6.8-0.5c1.1-0.7,1.9-1.5,2.6-2.5c2.3-3.2,5.3-5.3,9.4-5.7   c2.7,0.1,5.2,0.8,7.6,1.9c2.1,0.9,4.1,2,6.4,2.6c3.2,0.9,5.8,0.1,7.8-2.6c0.7-0.9,1.3-1.9,1.9-2.8c1.9-2.5,4.4-4.1,7.5-4.7   c2.7-0.5,5.3,0,8,0.4c1.9,0.3,3.7,0.8,5.7,0.7c2-0.1,3.1-1.3,3.8-3c0.6-1.5-0.2-2.6-1.1-3.6c-0.4-0.4-0.9-0.8-1.4-1.2   c-0.5-0.5-0.9-0.5-1.4,0.1c-1.3,1.4-2.9,2.1-4.8,2.3C135.8,81.9,133.8,82.2,131.8,82.4z M118.1,56.9c-0.3-0.2-0.7-0.4-1-0.5   c-15.8-6.3-31.6-12.5-47.4-18.8c-5.8-2.3-10.9-0.9-14.8,3.9c-9.1,11.4-18.2,22.8-27.4,34.2c-4.2,5.3-3.6,3.7-3.6,10.4   c0,3.6,2.3,5.7,5.9,5.3c5.2-0.6,10.5-1.2,15.7-1.8c8.3-1,16.7-2,25-3c8.3-1,16.6-2,24.9-3c4.9-0.6,9.9-1.2,14.8-1.8   c0.1,0,0.3,0,0.4,0c9-1.1,17.9-2.1,26.9-3.2c2.8-0.3,4.4-2.4,4.4-5.2c0-1.1,0-2.2,0-3.2c0-2.7-1.1-4.3-3.6-5.3   c-2.4-1-4.9-2-7.3-2.9C126.8,60.3,122.4,58.6,118.1,56.9z M98.7,105.1c-3.3-0.9-6.5-1.8-9.4-3.5c-0.6-0.3-0.8-0.1-1.2,0.2   c-2.7,1.8-5.5,2.6-8.7,1.7c-0.5-0.2-0.9,0-1.2,0.3c-1.6,1.7-3.6,2.9-5.8,3.8c-1.4,0.6-2.8,1.1-4.5,1.8c2.3,0.3,4.3,0.5,6.4,0.7   c5.4,0.5,10.8,1.2,15.9-1.4C92.8,107.3,95.8,106.3,98.7,105.1z"/>
	<path class="st1" d="M110.3,81.8c-4.9,0.6-9.9,1.2-14.8,1.8c-8.3,1-16.6,2-24.9,3c-8.3,1-16.7,2-25,3C40.3,90.3,35,91,29.8,91.5   c-3.6,0.4-5.9-1.7-5.9-5.3c0-6.7-0.6-5.2,3.6-10.4C36.6,64.4,45.7,53,54.8,41.6c3.9-4.9,9-6.2,14.8-3.9   c15.8,6.2,31.6,12.5,47.4,18.8c0.4,0.1,0.7,0.3,1,0.5c0.1,0.4,0.2,0.8,0.4,1.1c1.5,2.6,2.1,5.5,1.9,8.5c-6.6,0.8-13.1,1.6-19.7,2.4   c-8.4,1-16.9,2-25.3,3c-7.6,0.9-15.2,1.8-22.8,2.7c-7.2,0.9-14.4,1.7-21.5,2.6c-1,0.1-1.6,0.7-1.5,1.7c0.1,1,0.9,1.4,1.9,1.3   c6.4-0.8,12.9-1.5,19.4-2.3c9.9-1.2,19.9-2.4,29.8-3.6c8.4-1,16.8-2,25.1-3c4.6-0.5,9.3-1.1,13.9-1.6c0,0.7-0.3,1.3-0.6,2   c-1.8,3.9-4.5,6.9-8,9.3C110.7,81.2,110.3,81.3,110.3,81.8z"/>
	<path class="st2" d="M97.8,91.5c-4,0.4-7,2.5-9.4,5.7c-0.7,1-1.6,1.8-2.6,2.5c-2.2,1.3-4.4,1.6-6.8,0.5c-1.8-0.8-3.4-1.9-5-2.9   c-2.6-1.6-5.2-3-8.3-3.1c-4.6-0.2-8.5,1.7-11.9,4.7c-0.9,0.7-1.7,1.5-2.6,2.2c-2.3,1.9-4.6,2-7,0.3c-0.9-0.6-1.8-1.4-2.6-2.2   c-3.1-2.9-6.6-3.5-10.6-1.9c-2.1,0.8-4.1,1.8-6.4,2c-1.3,0.1-2.5,0-3.7-0.6c-1.2-0.6-1.5-1.6-1-2.8c0.6-1.3,1.7-2.3,2.8-3.2   c0.2-0.2,0.4-0.2,0.7,0c2.8,2.7,6.1,2.2,9.4,1.8c7-0.9,13.9-1.7,20.9-2.5c6.9-0.8,13.8-1.7,20.8-2.5c6.9-0.8,13.8-1.6,20.6-2.5   c6.8-0.8,13.7-1.6,20.5-2.5c5.4-0.6,10.8-1.3,16.2-1.9c-0.4,0.8-1.2,0.6-1.9,0.7c-4.1,0.5-8.1,1.6-11.2,4.5   c-3.6,3.2-7.5,4-12.1,2.5c-2.6-0.9-5.1-0.9-7.6,0.3C98.5,90.7,97.9,90.8,97.8,91.5z"/>
	<path class="st3" d="M115.2,111.7c-13.3,1.6-26.6,3.2-39.9,4.8c-12,1.4-24,2.9-36,4.3c-3.2,0.4-6.4,0.8-9.7,1.1   c-3.6,0.3-5.8-1.8-5.8-5.3c0-1.3,0-2.6,0-3.9c-0.1-1.8,0.8-3.1,1.9-4.4c0.3-0.3,0.5-0.3,0.9-0.1c5.7,3.3,12.1,4,18.5,4.2   c4.5,0.1,8.9-0.3,13.3-1c1.7-0.3,3.3,0.3,5,0.5c6.1,0.8,12.1,1.5,18.2,1.7c2.4,0.1,4.6-0.3,6.9-1.2c4.4-1.7,8.8-3.3,13.1-5.4   c2.6-1.2,5.1-1.6,7.9-1.2c0.1,0.8,0.9,0.7,1.4,1C112.8,108.1,114.6,109.3,115.2,111.7z"/>
	<path class="st4" d="M120.4,66.4c0.2-3-0.4-5.8-1.9-8.5c-0.2-0.3-0.3-0.7-0.4-1.1c4.3,1.7,8.7,3.4,13,5c2.4,1,4.9,1.9,7.3,2.9   c2.5,1,3.5,2.6,3.6,5.3c0,1.1,0,2.2,0,3.2c0,2.8-1.7,4.9-4.4,5.2c-9,1.1-17.9,2.2-26.9,3.2c-0.1,0-0.3,0-0.4,0   c0-0.5,0.5-0.7,0.8-0.9c3.5-2.4,6.2-5.4,8-9.3c0.3-0.6,0.6-1.2,0.6-2c4.2-0.5,8.4-1,12.6-1.6c1.4-0.2,2.1-0.8,1.9-1.8   c-0.1-1-1-1.4-2.3-1.2C128,65.6,124.2,66,120.4,66.4z"/>
	<path class="st5" d="M115.2,111.7c-0.6-2.4-2.4-3.7-4.4-4.8c-0.5-0.3-1.2-0.3-1.4-1c5.1-0.3,10.1-0.8,15.1-1.8   c3.5-0.8,7-1.7,10.3-3.2c1.9-0.9,3.8-1.9,5.3-3.4c0.5-0.5,0.8-0.5,1.1,0.1c1.1,1.8,1,7.7-0.2,9.4c-0.9,1.3-2.2,2-3.8,2.2   C129.9,110,122.5,110.8,115.2,111.7z"/>
	<path class="st6" d="M97.8,91.5c0.2-0.6,0.7-0.8,1.2-1c2.5-1.2,5.1-1.2,7.6-0.3c4.5,1.6,8.5,0.8,12.1-2.5c3.2-2.9,7.1-3.9,11.2-4.5   c0.7-0.1,1.5,0,1.9-0.7c2-0.2,3.9-0.5,5.9-0.8c1.9-0.2,3.5-0.9,4.8-2.3c0.5-0.5,0.9-0.5,1.4-0.1c0.4,0.4,1,0.8,1.4,1.2   c0.9,1,1.7,2.1,1.1,3.6c-0.7,1.7-1.8,2.9-3.8,3c-1.9,0.1-3.8-0.4-5.7-0.7c-2.6-0.5-5.3-0.9-8-0.4c-3.1,0.5-5.6,2.2-7.5,4.7   c-0.7,0.9-1.3,1.9-1.9,2.8c-2,2.7-4.6,3.5-7.8,2.6c-2.2-0.7-4.2-1.7-6.4-2.6C103,92.3,100.5,91.5,97.8,91.5z"/>
	<path class="st7" d="M38,100.3c1.2,0.6,2.1,1.7,3.1,2.5c2.5,2.1,5.3,3.3,8.6,2.5c1.7-0.4,3-1.6,4.3-2.6c1.1-0.9,2-1.9,3.2-2.6   c0.2,0.4,0.6,0.5,1,0.6c1.4,0.3,2.8,0.9,4.1,1.6c1.8,1,3.1,2.4,2.8,4.6c-4,1.2-8.1,1.8-12.2,2.2c-6.4,0.7-12.8,0.5-19.1-1.2   c-2.2-0.6-4.4-1.3-6.2-2.8c0.2-0.4,0.5-0.6,0.9-0.9c1.6-1.1,3.4-1.8,5.2-2.5C35,101.1,36.6,101,38,100.3z"/>
	<path class="st8" d="M126.6,100.3c-3.5,1.1-7.2,1.6-10.8,2c-6.7,0.7-13.4,0.5-20-1.2c-1.5-0.4-2.9-0.9-4.2-1.6   c-0.6-0.3-0.7-0.6-0.2-1.2c2.4-3.2,5.7-4.4,9.6-3.4c2.6,0.7,4.9,1.9,7.3,3c2,0.8,4.1,1.6,6.3,1.5c3.2-0.2,5.7-1.8,7.6-4.4   c1-1.4,1.8-3,3.2-4c3.5,2.4,4,4.9,1.7,8.4C126.9,99.6,126.8,100,126.6,100.3z"/>
	<path class="st9" d="M98.7,105.1c-2.9,1.2-5.9,2.2-8.7,3.6c-5.2,2.6-10.5,1.9-15.9,1.4c-2-0.2-4-0.5-6.4-0.7   c1.7-0.7,3.1-1.2,4.5-1.8c2.2-0.9,4.2-2.1,5.8-3.8c0.4-0.4,0.7-0.5,1.2-0.3c3.2,0.9,6.1,0.2,8.7-1.7c0.4-0.3,0.7-0.5,1.2-0.2   C92.1,103.4,95.3,104.2,98.7,105.1z"/>
	<path class="st10" d="M126.6,100.3c0.1-0.3,0.2-0.7,0.4-1c2.3-3.5,1.9-6-1.7-8.4c2.4-2.3,5.5-2.3,8.5-2c1.5,0.2,2.9,0.5,4.3,0.7   c1,0.2,1.4,0.8,1.5,1.7c0.2,1.9-0.8,3.2-2.2,4.3c-2.5,2.1-5.5,3.1-8.6,4.1C128.2,100,127.4,100.3,126.6,100.3z"/>
	<path class="st10" d="M65,106.8c0.2-2.3-1-3.6-2.8-4.6c-1.3-0.7-2.6-1.3-4.1-1.6c-0.4-0.1-0.8-0.2-1-0.6c3.7-3,8.6-4,13-1.5   c1.6,0.9,3.1,1.9,4.7,2.8c0.8,0.4,0.7,0.7,0.1,1.2c-1.2,0.9-2.5,1.7-3.9,2.3C69.1,105.7,67.1,106.4,65,106.8z"/>
	<path class="st11" d="M38,100.3c-1.4,0.8-2.9,0.8-4.4,1.4c-1.8,0.7-3.6,1.4-5.2,2.5c-0.4,0.2-0.7,0.5-0.9,0.9   c-0.5-0.3-0.9-0.7-1.2-1.2c-0.6-1-0.3-1.8,0.9-2.1c1.8-0.4,3.4-1.2,5.1-1.9C34.3,99.2,36.2,99,38,100.3z"/>
	<path class="st12" d="M120.4,66.4c3.8-0.4,7.6-0.9,11.5-1.3c1.4-0.2,2.2,0.3,2.3,1.2c0.1,1-0.6,1.6-1.9,1.8   c-4.2,0.5-8.4,1-12.6,1.6c-4.6,0.5-9.3,1.1-13.9,1.6c-8.4,1-16.8,2-25.1,3c-9.9,1.2-19.9,2.4-29.8,3.6c-6.4,0.8-12.9,1.5-19.3,2.3   c-1,0.1-1.8-0.3-1.9-1.3s0.5-1.6,1.5-1.7c7.2-0.9,14.4-1.7,21.5-2.6c7.6-0.9,15.2-1.8,22.8-2.7c8.4-1,16.9-2,25.3-3   C107.3,68.1,113.8,67.2,120.4,66.4z"/>
</g>
</svg>