<?xml version="1.0" encoding="UTF-8"?>
<!-- Generator: Adobe Illustrator 25.4.1, SVG Export Plug-In . SVG Version: 6.00 Build 0)  -->
<svg version="1.1" id="Layer_1" xmlns="http://www.w3.org/2000/svg" xmlns:xlink="http://www.w3.org/1999/xlink" x="0px" y="0px" viewBox="0 0 168 158" style="enable-background:new 0 0 168 158;" xml:space="preserve">
<style type="text/css">
	.st0{fill:#070606;}
	.st1{fill:#FFFFFF;}
	.st2{fill:#AB514A;}
	.st3{fill:#EAE7EF;}
	.st4{fill:#9B413E;}
	.st5{fill:#5DBB4B;}
	.st6{fill:#EC9F6F;}
	.st7{fill:#E63840;}
	.st8{fill:#39AB49;}
	.st9{fill:#D77A46;}
	.st10{fill:#F7B9C0;}
	.st11{fill:#F9B272;}
	.st12{fill:#E7914F;}
	.st13{fill:#F9DCE2;}
	.st14{fill:#F69AA3;}
</style>
<g>
	<path class="st0" d="M90.7,145.2c-3.4,0-6.8,0-10.3,0c-0.1-0.5-0.6-0.2-0.8-0.2c-14.4-1.4-27.3-6.4-38.6-15.4   c-21.1-16.8-29.9-45-22-70.8c5.7-18.6,17.5-31.7,35-39.9c5.1-2.4,10.5-4.1,15.8-6.3c5.1-2.1,10.6-3.1,16.1-3c4.9,0,9.6,1,14.3,2.4   c11.2,3.2,21.3,8.3,29.9,16.2c2.9,2.5,5.1,5.5,6.2,9.2c0.2,0.8,0.7,0.8,1.3,0.8c4,0.5,7,2.4,9,5.8c2.6,4.5,2.6,9.2,1.1,14   c-0.3,1-0.2,1.8,0,2.9c1.6,4.6,2.1,9.1,2.2,13.9c0.1,8.7-1.6,17.1-4.1,25.5c-2.4,8-5.8,15.5-11.1,22c-10,12.6-23.2,19.7-39,22.3   C94,144.8,92.3,144.6,90.7,145.2z M116.6,46.8c0-0.1,0.1-0.2,0.1-0.3l0,0c0.3-0.2,0.2-0.6,0.2-0.8c0.7-1.6,0.6-3.3,0.2-4.9   c-0.8-3.7-2.4-6.8-6-8.7c-0.1,0-0.1-0.1-0.2-0.1c-2.6-1-4.9-0.3-7.1,1.3c-3.3,2.5-5.1,7.1-4,10.5c0.5,2.1,1.7,3.3,3.8,4   c2.5,0.9,4.7,0.3,6.6-1.4c1.4-1.4,2.1-3.1,1.9-5c0-0.5,0-0.9,0-1.4c-0.3-2.3-2.5-4.1-4.2-3.4c-0.5,0-0.9,0-1.1,0.5   c-1.9,1.1-3,3.5-2.2,5.4c0.3,0.7,0.7,1.4,1.6,1.3c0.9-0.1,1.4-0.9,1.7-1.7c0.3-0.9-0.2-1.1-1-1.4c-0.5-0.1-0.6-0.5-0.5-0.9   c0.1-0.5,0.6-0.6,0.9-0.5c0.9,0.2,1.7,0.6,1.9,1.7c0.3,1.6-0.7,3.4-2.3,4.1c-1.4,0.6-2.9,0-3.7-1.5c-1.4-2.4-0.7-5.5,1.6-7.5   c3.1-2.7,7.6-1.4,8.7,2.6c0.9,3.4,0.2,6.6-2.3,9.2c-0.8,0.6-1.7,1-2.5,1.6c-1.7,0.3-3.4,0.6-5.1,0.2l0,0c-0.1,0-0.3-0.1-0.5-0.1   c-3-1.3-4.7-3.5-5.3-6.6c0-0.3,0-0.6,0-0.9c-0.1-6,5.4-13.6,12.7-12c1.3,0.6,2.6,1,3.7,1.9c4.5,3.7,5.7,8.3,4.9,13.9   c-0.9,3.4-2.9,5.9-6,7.4c-2.3,1.1-4.8,1.5-7.3,1.4c-3.4-0.5-6.5-1.4-8.7-4.3c-1.6-2.1-2.3-4.6-2.6-7.1c-0.3-4.5,0.6-8.6,2.9-12.3   c-0.8-0.1-1,0.3-1.3,0.7c-3.3,3.8-4.2,8.1-3.9,12.9c0.6,8,7.3,12.2,13.5,12.4c1,0.1,1.9,0.2,2.9,0c10.5-0.6,16.9-9.7,12.2-19.9   c-2.2-5.1-6-8.4-11.6-9.5c-0.9-0.3-1.8-0.3-2.7-0.2c-0.2,0-0.6,0-0.8,0c-2.3,0-4.2,0.8-5.7,2.7c-2.4,3-3.8,6.4-3.9,10.3   c-0.1,0.7-0.1,1.4,0,2.1c-0.1,0.6,0,1.3,0.2,1.8c0.3,2.9,1.5,5.1,4,6.7c0.1,0.2,0.2,0.3,0.5,0.3l0,0l0,0c0.1,0,0.2,0.1,0.3,0.2v0.1   h0.1c0.1,0.2,0.3,0.2,0.6,0.3l0,0c1.8,0.9,3.7,1.1,5.6,0.9c3.5-0.3,6.6-1.7,8.6-5c0.1-0.2,0.2-0.3,0.2-0.6l0,0   C116.6,46.9,116.6,46.8,116.6,46.8z M122,71.7L122,71.7c0.1,0.1,0.2,0.2,0.3,0.3l0,0c0.1,0.1,0.2,0.2,0.3,0.3   c0.1,0.2,0.2,0.3,0.5,0.6c2.1,4.2,1.3,8.6-2.1,11.3c-2.3,1.9-5,2.1-7.9,1.4c-3.4-1.5-5-4.1-5.1-7.9c0.1-2.9,1.1-5.5,3-7.8   c2.6-3.3,6.5-4.8,10-3.7c5.4,1.7,8.9,7.3,8.6,13.5c-0.2,5.5-3.8,9.4-9.6,10.5c-7.1,1.4-13.8-1.5-15.2-10.2   c-0.7-4.8,0.2-9.1,2.7-13.4c0-0.1,0.1-0.1,0.1-0.2c-0.1,0-0.2,0-0.3,0c-0.6,0.2-0.9,0.6-1.1,1c-3.7,4.5-4.6,9.6-3.4,15.1   c1.1,6.2,7.5,10.2,13.5,10.3c3.3,0.3,6.4-0.3,9.4-1.8c3.2-1.7,5.5-4,6.4-7.6c1.9-5.8-1.1-14.2-6.7-17.5c-0.1-0.2-0.3-0.3-0.6-0.3   l0,0c-2.7-1.9-5.7-2.6-9-2.4c-2.1,0.1-3.9,0.7-5.3,2.4c-3.4,3.9-4.7,8.4-4.2,13.5c0.2,2.5,0.9,5,3.1,6.8c0.1,0.1,0.1,0.1,0.2,0.2   c0.1,0.1,0.2,0.2,0.3,0.3c2.6,2.2,5.7,2.7,9,2.1c2.4-0.3,4.5-1.3,6.2-3.1c0.1-0.1,0.2-0.2,0.3-0.3l0,0c0.6-0.5,0.9-1,1.3-1.7   c1.8-3.5,1-8.9-1.9-12.4c-0.1-0.1-0.2-0.2-0.2-0.3l0,0c-2.1-2.6-5-3.8-7.9-2.6c-2.5,0.9-4.3,2.6-5.5,5.1c-0.6,0.6-0.7,1.4-0.9,2.1   c-1.5,4.7,0.9,8.7,5.4,9c2.1,0.1,3.8-0.5,5.1-2.1c0.8-0.7,1.1-1.5,1.5-2.4c1-3,0.1-5.8-2.3-7.1c-1.7-0.6-3-0.1-4.1,1.4   c-1.1,1.5-1.5,3.3-0.7,4.7c0.3,0.6,0.8,1.1,1.6,0.9c0.9-0.2,1.4-0.9,1.6-1.7c0.2-0.8-0.3-1-1-1.3c-0.5-0.1-0.7-0.6-0.6-1   c0.1-0.6,0.6-0.5,1-0.3c1.1,0.2,1.8,0.9,1.9,2.2c0.1,1.7-1.3,3.4-2.9,3.8c-1.4,0.3-3-0.7-3.5-2.4c-0.8-2.4-0.2-4.5,1.4-6.3   c1.8-2.1,4-2.4,6.5-1.5l0,0c0.2,0.1,0.3,0.2,0.6,0.3l0,0C121.7,71.5,121.8,71.6,122,71.7z M91.7,101.5L91.7,101.5   c-0.8,0-1,0.3-1,1.1c0,0.9,0.1,1.8,0.6,2.6c0.8,1.8,2.2,3.5,2.2,5.7c-0.1,1.8-0.7,3.4-1.3,5.1c-0.5,1.4-0.9,2.7-0.5,4.2   c0.1,0.3,0.1,0.8,0.6,0.5c1.4-0.8,3-1.1,4.5-1.6c0.6-0.2,0.6-0.3,0.2-0.8c-1.4-2.1-1.4-4.3-0.7-6.6c0.6-1.9,0.5-3.5-0.5-5.4   c-1.3-2.3-0.9-4,0.9-5.8c0.3-0.3,0.9-0.6,0.7-1.4c-1.8,0.9-3.7,1.4-5.5,1.9C91.8,101.3,91.7,101.3,91.7,101.5z M90.1,35.8   c-0.8-0.5-1.6-0.6-2.5-0.7c-0.5-0.1-0.7,0-0.5,0.6c0.6,1.5,0.3,3,0.1,4.5c-0.2,0.1-0.2,0.3-0.1,0.6c-0.1,0.8-0.3,1.5-0.6,2.3   c-0.1,0.6,0.2,0.5,0.6,0.2c0.7-0.2,1.3-0.6,1.9-0.8c0.6-0.1,0.8-0.5,0.9-1c0.1-1.6,0.5-3.2,1-4.8C91.1,35.8,90.7,35.8,90.1,35.8z    M56.2,90.9c0.6-0.3,1-0.6,1.6-0.9c0.5-0.2,0.6-0.6,0.3-1c-1.3-1.8-1.9-3.9-2.9-5.9c-0.3-1.3-0.8-2.5-1.1-3.7   c-0.2,2.5-0.1,5-0.3,7.4c-0.1,1-0.2,2.1,0,3.1C54.1,92.4,54.1,92.4,56.2,90.9z M56.1,106.1c-0.2-0.9-0.5-1.9-1-2.9   c-0.2,1.1-0.3,2.2-0.6,3.1c-0.6,1.7-0.7,3.4-1.6,5c-0.1,0.2-0.2,0.5,0,0.6c0.7,0.5,1.3,1.4,2.1,1.1c1.1-0.3,2.2-0.9,3.1-1.7   c0.1,0,0-0.5-0.1-0.6C57.4,109.2,56.7,107.7,56.1,106.1z M54.4,53.1c0.8-0.5,1.6-0.8,2.3-1.3c0.5-0.2,0.5-0.5,0.3-0.9   c-0.7-2.6-1.1-5.4-0.8-8.2c-0.7,0.2-1.1,0.5-1.6,0.8c-1.3,0.6-2.6,0.9-3.5,1.8c-0.6,0.5,0.3,1.7,0.5,2.5c0.1,2.2,0.3,4.3,0.6,6.6   C53,54,53.7,53.6,54.4,53.1z M54.6,71c-0.6,1.3-0.7,2.6-0.3,4c0.5,1.5,1,2.9,1.6,4.3c0.9,2.7,2.1,5.3,3.2,8.2   c0.3-1.3,0-2.2-0.2-3.1c-1.1-4-1.4-8,0.1-12c0.3-0.9,0.5-1.8,0.2-2.7c-0.1-0.7-0.3-0.8-0.9-0.5C57,69.9,55.8,70.5,54.6,71z    M53.6,64.4c0.7,1.6,1,3.3,0.8,5.5c1.3-0.8,2.2-1.4,3.2-2.1c0.5-0.2,0.3-0.6,0.1-0.9c-1.7-2.6-1.6-5.4-1-8.2c0.3-1.6,0.8-3.3,0.6-5   c-0.9,0.5-1.8,0.8-2.6,1.1c-0.7,0.2-1.3,0.5-1.8,0.6c-0.3,0.1-0.7,0.2-0.7,0.7C52.3,58.9,52.2,61.8,53.6,64.4z M57,92.4   c-0.7,0.2-1.4,0.6-2.1,0.8c-0.3,0.1-0.6,0.2-0.5,0.8c0.9,3.3,0.7,6.8,2.4,10c0.8,2.1,1.7,4,2.5,6c0.1,0.2,0.2,0.8,0.6,0.6   c0.8-0.5,1.9-0.5,2.1-1.8c0.2-1.9-0.2-3.7-1.1-5.4c-1.4-2.5-1.7-5.3-1.5-8c0.1-1.4,0.2-2.6,0.2-4.1c-0.3,0.1-0.5,0.1-0.6,0.2   C58.4,91.8,57.7,92,57,92.4z M96.9,74.6c0.9-0.2,1.7-0.7,2.5-1c1.3-0.3,1.9-1.1,2.4-2.4c0.8-2.2,2.2-3.9,3.8-5.5   c0.2-0.2,0.8-0.5,0.5-1c-0.6-1.1-0.7-2.5-1-3.7c-0.1-0.6-0.3-0.9-1-1c-2.3-0.3-4.3-1.1-6.3-2.2c-0.5-0.2-0.9-0.3-1.4-0.1   c-1.1,0.5-2.2,0.9-3.3,1.4c-2.1,0.7-2.1,0.7-1.6,2.6c1,4,2.2,8.1,3.2,12.1C95.1,75.4,95.1,75.4,96.9,74.6z M97.8,92.8   c-0.7-4.1-2.1-8.1-3.2-12.1c-1-3.7-1-3.7-4.7-2.2c-0.5,0.2-0.7,0.5-0.6,0.9c0.3,1.5,0.2,3.1-0.1,4.6c-0.7,2.6-0.3,4.9,1.3,7.1   c1.4,1.9,1.5,4.2,1,6.5c-0.1,0.8-0.6,1.5-0.3,2.4c1.5-0.8,2.9-1.5,4.2-2.2c1-0.3,1.9-0.7,2.9-1.1c0.7-0.3,1-0.9,0.5-1.6   C98.3,94.4,98.1,93.6,97.8,92.8z M101.8,96.5c-0.2,0-0.2,0.1-0.2,0.3c-0.3,0.6-0.5,1.4-0.5,2.1c0,1.4-0.6,2.5-1.6,3.3   c-1.3,1-1.4,2.3-0.7,3.7c1.1,2.2,1,4.2,0,6.3c-0.9,1.9-0.7,3.9,1,5.4c1.3,1,2.2,2.3,2.4,4c0.1,0.9,0.7,1.6,1.7,1.5   c2.1-0.2,3.8,0.6,5.4,1.8c1,0.8,2.3,0.9,3.5,0.3c1.4-0.7,2.9-1.1,4.5-1.4c2.9,0.2,5.1-0.7,6.4-3.7c0.5-1.3,1.5-2.2,2.4-3.2   c1.4-1.5,1.9-3.2,1.1-5.1c-1.1-2.5-1.1-4.8,0.3-7.2c0.8-1.3,0.7-2.6-0.1-3.9c-0.8-1.4-1.4-2.7-1.7-4.2c-0.3-1-0.8-1.5-2.1-1   c-4.7,1.6-9.4,1.3-13.8-0.8c-2.3-1-4.3-0.7-6.5,0.1C102.6,95.2,101.9,95.7,101.8,96.5L101.8,96.5z M145.6,69.2   c0-1.8-0.3-3.7-0.7-5.7c-3.7,4.5-8.4,5.3-13.6,4.3c0,0.2,0,0.2,0,0.2c2.7,4,3.9,8.4,3.3,13.2c-0.6,4.9-2.6,9-6.6,12   c-0.3,0.2-0.3,0.5-0.2,0.8c0.6,1,0.8,2.3,1.6,3.2c0.3,0.7,0.7,1.4,1.1,2.1c1.4,2.3,1.3,4.6-0.1,6.8c-0.8,1.1-1.6,2.3-0.8,3.9   c1.6,3.2,0.8,6-1.4,8.7c-0.7,0.8-1.5,1.4-1.8,2.4c-0.1,0.3-0.5,0.6-0.6,0.9c-1,3-3.2,4.3-6.2,4.5c-1.9,0.1-3.8,0.6-5.5,1.7   c-1.9,1.1-4.1,1.3-5.9-0.1c-1.4-1-2.6-1.4-4.2-1.4c-2.4,0.1-4.1-1.1-4.7-3.5c-0.1-0.6-0.2-0.7-0.9-0.5c-1.6,0.6-3.3,0.8-5,0.7   c-0.7,0-0.8,0.2-0.8,0.8c-0.2,3.5-2.1,5.8-5.5,6.8c-5.4,1.5-11,1.9-16.5,1.5c-2.5-0.2-4.7-1.3-6.3-3.2c-1.8-2.3-1.9-4.8-1.3-7.5   c0.2-0.9,0.1-1.1-0.9-1.5c-4-1.3-7.9-2.7-10.5-6.2c-0.2-0.2-0.2-0.6-0.7-0.3c-0.3,0.2-0.6,0.5-0.3,0.9c0.6,1.4,1,2.7,1.6,4.1   c0.1,0.5,0.3,1,0.5,1.5c0.2,0.6,0.5,1-0.2,1.4c-0.7,0.3-1-0.1-1.4-0.7c-0.9-1.5-1.8-2.9-2.4-4.5c-0.2-0.6-0.6-1-1.3-1.1   c-4.6-2.3-8.2-5.7-10.7-10.3c-1.6-2.9-2.2-5.9-1-9.1c0.6-1.6,0.2-3.1-0.5-4.6c-0.5-0.8-0.8-1.5-1.3-2.3c-1.1-2.2-1.9-4.3-1.7-6.8   c0.2-1.7,0.8-3.4,1.5-5c1.3-3.1,1.7-6.2,0.7-9.4c-0.7-2.2-0.3-4.2,0.7-6.3c1.3-2.5,2.5-5.1,2.6-8c0.1-2.1,0.5-4.1,0.8-6.2   c1.3-3.4,3.4-6.5,5.1-9.7c0.9-1.7,1.8-1.8,3-0.2c1,1.3,1.6,2.9,2.6,4.1c0.8,1.4,0.7,1.4,1.9,0.3c1.7-1.4,3.5-2.6,5.6-3.3   c1.4-0.5,1.8-1.3,2.2-2.5c0.1-0.6,0.2-1.1,0.3-1.7c0.2-1.7,0.5-3.5,1.3-5.1c1.5-2.1,3.7-3.2,5.9-4.2c3-1.4,6.3-0.9,9.2-2.1   c0.7-0.2,1.6-0.3,2.3-0.5c2.7-0.3,5.1,0.9,6.4,3.4c0.8,1.4,0.9,3,1.4,4.3c0,1,0.2,1.7,1.7,1.5c1.6-0.2,3.3-0.1,4.9,0.7   c0.5,0.2,0.6,0.1,0.8-0.2c1.7-2.6,4.1-4.6,6.7-6c2.5-1,5.1-1.9,7.9-1.8c7.4,0.1,12.3,4,15.3,10.5c1.3,2.7,1.7,5.7,1.8,8.9   c2.6-3.4,5.9-5.1,10-5.8c-1.7-2.6-3.7-4.8-5.8-6.7c-8.8-8-19.1-13-30.4-16.1c-4.8-1.4-9.7-2.2-14.7-1.9c-8.3,0.5-16.1,3-23.7,6.4   c-3.5,1.5-7.3,2.6-10.5,4.7c-8.6,5.3-15.5,12.3-20.8,21c-7.5,12.7-10.4,26.4-8.4,41c1.6,12.1,6.2,23.1,14.4,32.1   c15.2,17.1,34.5,24.5,57.2,22.7c13.9-1.1,26-6.8,36.1-16.7c3.3-3.3,6.3-7,8.4-11.2c1.3-1.7,2.1-3.7,2.9-5.6   c3.4-8,5.7-16.4,6.5-25.1C146.2,78.1,146.3,73.7,145.6,69.2z M46.2,41.5c-0.2-0.5-0.3-0.9-0.9-1.4c-0.7,1.6-1.4,3.1-2.2,4.5   c-1.3,2.5-1.9,5.1-2.1,7.9c-0.1,3.4-0.8,6.7-3,9.6c-1.4,1.8-1.6,3.8-1.1,6c0.3,1.6,0.6,3.2,0.3,4.8c-0.3,2.7-1.5,5.1-2.2,7.8   c-0.6,2.2-0.3,4.1,0.9,5.9c0.7,1,1.3,2.1,1.9,3c1.7,2.6,1.9,5.4,0.5,8.1c-0.7,1.4-1,2.9-0.6,4.3c1.5,4.6,5,7.6,8.7,10.7   c-0.5-2.2-0.8-4.1-1.1-6c-1.1-9.7-0.3-19.4-0.1-29.1c0.2-6.2,0.6-12.3-0.1-18.5c0-0.2-0.2-0.7,0.3-0.9c0.3,0.2,0.1,0.7,0.3,0.9   c0.6,4.3,0.8,8.6,0.9,12.9c0.1,5.6,0,11.2,0.1,16.8c0,5.8-0.1,11.5,0.8,17.3c0.2,1.8,0.7,3.5,1.4,5.4c0.5-0.7,0.8-1.1,0.9-1.7   c0.5-0.9,0.5-1.8,0.7-2.9c0.8-4.1,1.4-8.2,0.3-12.4c-0.8-3.1-0.9-6.3-0.6-9.5c0.1-1.6,0.1-3.2,0-4.8c-0.2-2.7-0.1-5.5,0.3-8.2   c0.2-1.8,0.7-3.9,0.2-5.7c-1.4-4.7-1.4-9.5-1.5-14.3C49.6,48.2,48.8,44.6,46.2,41.5z M84.1,128.3c4-0.6,5.6-2.9,4.5-6.6   c-0.7-2.4-0.7-4.7,0.2-7c1-2.5,1-4.9-0.6-7.2c-1.1-1.7-1.6-3.7-1.3-5.8c0.2-1.3,0.5-2.4,0.7-3.7c0.5-2.1,0.6-4.1-0.8-5.9   c-1.7-2.4-2.1-4.8-1.4-7.6c0.7-2.9,0.6-5.6-1.3-8.2c-1.3-1.8-1.3-3.9-0.8-5.9c0.2-1,0.6-2.1,0.8-3.1c0.5-1.6,0.7-3.2-0.2-4.8   c-1.8-3-1.9-5.9-0.6-9.1c0.9-2.1,0.9-4.1,0.1-6.2c-0.8-1.9-0.8-4-0.1-5.9c0.5-1.4,0.6-2.9,0.2-4.3c-0.8-2.6-1.5-5.3-2.2-7.9   c-0.6-2.3-2.2-3.4-4.5-3c-4.1,0.8-8.2,1.7-12.3,2.5c-0.2,0-0.3,0.2-0.6,0.2c-1.9,0.8-2.9,2.4-2.5,4.5c0.5,2.4,0.2,4.7-0.8,7   c-1.4,2.9-1.6,5.8-0.6,8.9c0.9,2.9,1,5.8,0,8.7c-1,3.1-0.8,5.8,1.1,8.6c1.4,1.9,1.5,4.2,0.8,6.5c-1.1,3.4-1.1,6.8-0.2,10.4   c0.9,3.1,1.5,6.3,1,9.5c-0.6,3.5-0.3,6.8,1.7,9.9c1,1.6,1.4,3.4,1,5.4c-0.6,2.7-0.2,5.5,0.6,8.1c0.5,1.6,0.6,3.2,0.2,4.8   c-0.1,0.6-0.1,1.1-0.2,1.7c-0.6,3.4,0.5,5.3,4,6C74.9,129.9,79.5,129.1,84.1,128.3z M123.6,54.8c-0.3,2.2,0.7,4.2,2.2,6   c4.2,5.4,12,5.7,16.4,0.7c3.4-4,4.3-10.8,2.1-15.5c-1.8-3.7-5.4-5.6-9.4-5C127.6,42.2,123.6,46.8,123.6,54.8z M89.2,60.5   c-0.9-0.1-1.6,0.8-1.3,1.6c0.6,1.6,0.7,3.2,0.2,4.9c-0.3,1.5-0.8,3-1,4.5c-0.5,2.3,1.1,4.1,1.9,6c1.3-0.1,2.3-1,3.5-1.3   c0.1,0,0.1-0.1,0.2-0.1c0.5-0.1,0.6-0.3,0.5-0.8c-1.3-4.8-2.4-9.6-3.5-14.4C89.5,60.8,89.5,60.5,89.2,60.5z M100.3,75.3   c-1.3,0.5-2.4,0.9-3.7,1.3c-0.7,0.2-0.8,0.5-0.7,1.1c0,0.5,0.1,0.9,0.2,1.4c1.1,4,2.5,7.9,3.4,11.9c0.1,0.8,0.5,1.5,0.7,2.3   c0.1,0.3,0.1,0.8,0.7,0.5c1.3-0.9,2.7-1.1,4.3-1.5C100,87.5,99.4,81.6,100.3,75.3z M121,54.1c-4.6,4.2-6.8,5.5-11.2,6   c-1,0.1-2.7-0.3-3.1,0.3c-0.3,0.8,0.6,2.1,0.9,3.2c0,0.1,0.1,0.1,0.1,0.2c2.3-1.5,4.7-2.4,7.3-2.9c2.6-0.5,5.1-0.1,7.9,0.6   C121.7,59.2,121.2,56.8,121,54.1z M95.4,56.2c-2.1-1.7-3.5-3.7-4.5-6c-0.6-1.7-1-3.4-1.1-5.1c0-0.3,0.1-1-0.7-0.8   c-0.8,0.2-1.8,0.3-2.4,0.9c-0.5,0.5,0.2,1.3,0.5,1.9c0.1,0.6,0.3,1,0.5,1.5c0.5,3.1,2.4,5.6,3,8.7c0.1,0.6,0.5,0.9,1.1,0.6   C93,57.2,94.1,56.8,95.4,56.2z M87.6,53c-0.8,2.2-1.6,4-1,6c0.1,0.3,0.1,1.4,0.9,0.9c0.6-0.3,1.8-0.2,1.5-1.6   C88.5,56.7,88.1,55.1,87.6,53z M59.6,115.5c-0.2-2.5-0.8-2.9-3.2-1.4C57.5,114.7,58.5,115.2,59.6,115.5z M61.6,111.9   c-0.2,0.5-1.4,0-0.9,1c0.3,0.9,0.9,1.9,0.9,3c0,0.2,0.2,0.5,0.6,0.5c0.3-0.1,0.2-0.5,0.1-0.6C61.9,114.5,61.8,113.3,61.6,111.9z"/>
	<path class="st1" d="M49,41.6c-1-1.3-1.7-2.7-2.6-4.1c-1.3-1.6-2.1-1.6-3,0.2c-1.8,3.2-3.9,6.3-5.1,9.7c-0.9,0.3-1,1.1-1.4,1.9   c-0.9,2.5-1.5,5.3-3.1,7.4c-2.6,3.4-3.1,7.2-2.4,11.3c0.6,3.3,0,6.4-1.3,9.4c-0.7,1.6-1.4,3.1-1.5,4.9c-0.1,2.3,0.3,4.3,1.5,6.2   c1.4,2.3,1.9,4.7,1.7,7.3c-0.1,1,0,2.1,0,3.2c-0.1,2.4,0.7,4.5,1.9,6.5c2.4,3.7,5.8,6.5,8.9,9.6c0.8,0.8,1.9,1.1,3.2,1   c0.6,0,0.9-0.1,1.1-0.7c0.7,0,1,0.5,1.3,1.1c0.7,1.6,1.5,3.1,2.4,4.5c0.3,0.6,0.7,0.9,1.4,0.7c0.7-0.3,0.5-0.8,0.2-1.4   c-0.2-0.5-0.3-1-0.5-1.5c0.3,0,0.7,0,1,0.1c1.8,0.9,3.7,1.7,5.5,2.6c1.1,0.6,1.3,1.4,1,2.4c-0.2,1-0.1,2.1,0,3.2   c0.1,1.6,0.6,3.1,1.3,4.7c-5.9-2.4-11.1-5.6-15.6-9.7c-3.9-3.5-7.1-7.6-10.2-12c-3.2-4.5-5.9-9.1-7.8-14.4c-1.6-4.9-2.4-10-3-15.2   c-0.5-4.6-0.1-9.1,0.8-13.6c1-5.4,3-10.5,5-15.5c2.2-5.5,5-10.4,9.4-14.5c3.5-3.4,7.1-6.8,10.7-10.2c2.5-2.3,5.4-4.2,8.7-5.3   c1.1-0.3,1.4-1,1.1-1.9c7.5-3.3,15.3-5.9,23.7-6.3c5-0.2,9.9,0.6,14.7,1.9c11.3,3.2,21.7,8.2,30.4,16.1c2.2,1.9,4.1,4.1,5.8,6.7   c-4,0.7-7.4,2.5-10,5.8c-0.1-3.3-0.5-6.3-1.8-8.9c-3.1-6.5-8-10.3-15.3-10.5c-2.7,0-5.4,0.8-7.9,1.8c-1.6-1.9-2.5-2.1-4.6-0.9   c-1.7,0.9-3.3,2.1-4.6,3.4c-0.2,0.3-0.7,0.8-1,0.8c-1.4-0.1-2.6,0.6-4,0.9c-0.5-1.5-0.6-3-1.4-4.3c-1.4-2.5-3.7-3.8-6.4-3.4   C76.8,23,76,23,75.3,23.3c-3,1.1-6.3,0.7-9.2,2.1c-2.3,1-4.5,2.2-5.9,4.2c-1.8-0.6-2.6-0.1-3.2,1.7c-0.7,2.1-1.1,4.1-2.5,5.9   c-1.3,1.4-3,2.1-4.3,3.1C49.6,40.7,49,40.9,49,41.6z"/>
	<path class="st2" d="M64.2,29c0.2-0.1,0.3-0.2,0.6-0.2c4.1-0.9,8.1-1.8,12.3-2.5c2.3-0.5,3.9,0.7,4.5,3c0.7,2.6,1.4,5.3,2.2,7.9   c0.5,1.4,0.2,2.9-0.2,4.3c-0.7,2.1-0.7,4,0.1,5.9c0.8,2.1,0.8,4.2-0.1,6.2c-1.4,3.2-1.3,6.2,0.6,9.1c0.9,1.5,0.7,3.2,0.2,4.8   c-0.2,1-0.6,2.1-0.8,3.1c-0.5,2.1-0.5,4.2,0.8,5.9c1.8,2.5,1.9,5.4,1.3,8.2c-0.7,2.7-0.5,5.3,1.4,7.6c1.4,1.8,1.1,3.9,0.8,5.9   c-0.2,1.3-0.5,2.4-0.7,3.7c-0.3,2.1,0.1,4,1.3,5.8c1.6,2.3,1.7,4.7,0.6,7.2c-1,2.3-1,4.6-0.2,7c1.1,3.8-0.5,6-4.5,6.6   c-0.1-1.9-1.1-2.6-3-2.2c-2.4,0.6-4.9,0.8-7.4,0.7c-2.3-0.1-3.3-1.9-2.3-4c0.7,0.2,1.1-0.5,1.7-0.6c0.2,0.1,0.3,0.5,0.3,0.7   c0.3,0.9,0.8,1.5,1.8,1.1c1-0.3,1.4-1,1.3-2.1c-0.1-0.6-0.1-1-0.2-1.6c2.5-1.4,5.1-2.4,7.6-3.9c0.5-0.2,1.1-0.5,0.9-1   c-0.2-0.7-0.9-0.3-1.4-0.2c-2.7,0.7-5,1.9-7.4,3.2c-0.6-0.6-0.6-1.3-0.8-1.9c-0.2-0.8-0.7-1.4-1.6-1.3c-0.9,0.1-1,0.8-1,1.6   c0.1,1.3,0.1,2.4,0.2,3.7c-0.6,0.3-1,0.8-1.6,1.1c-0.7-1.7-0.6-3.5-0.8-5.4c0.5-0.2,0.9-0.6,1.4-0.8c4.5-2.5,9.1-4.3,13.7-6.6   c0.5-0.2,1.3-0.3,1-1.1s-0.9-0.5-1.5-0.2c-5.4,1.7-10.4,4.1-14.5,8c0-2.1,0-4.1,0-6c0.1,0,0.3,0,0.6-0.1c-0.1,0.9,0.3,1.6,0.7,2.4   c0.1,0.3,0.5,0.9,1.1,0.8c0.5-0.1,0.7-0.5,0.9-0.9c0.6-1.4,0.5-2.9,0.5-4.2c0.2-0.1,0.5-0.3,0.7-0.5c3.1-1.8,6.4-3.2,9.6-4.8   c0.3-0.2,0.9-0.2,0.9-0.8c-0.1-0.7-0.7-0.6-1.1-0.6c-1.3-0.1-2.4,0.3-3.4,0.9c-2.2,1.3-4.3,2.6-6.4,3.9c-1-1.6-1.1-3.3-1.4-5.1   c3.4-2.4,6.6-4.9,10.7-6.2c0.3-0.1,0.8-0.2,0.8-0.8c-0.1-0.6-0.6-0.6-1-0.6c-1.6,0-3.1,0.6-4.6,1.3c-2.4,1.1-4.3,3-6.5,4.6   c-0.8-1.8-1.4-3.7-1.8-5.5c0.3-0.2,0.8-0.5,1.1-0.7c3.2-1.7,6.3-3.3,9.5-4.9c0.5-0.2,1.1-0.5,0.9-1.1c-0.2-0.7-0.8-0.3-1.4-0.3   c-1.4,0.2-2.6,0.8-3.8,1.6c-3.2,1.9-6.6,3.8-9.7,6c0.1-1.1-0.2-2.3-0.2-3.5c0.1-0.1,0.3-0.2,0.6-0.3c4.6-2.5,9.1-5.1,13.5-8.1   c0.3-0.2,1-0.5,0.7-1.1c-0.2-0.6-0.8-0.3-1.3-0.2c-1.6,0.5-3.1,1.1-4.5,1.9c-3.2,1.8-6,4.2-9.2,6.2c-1-1.8-1.4-3.9-1.7-5.9   c1.3,0,2.1-1.3,3.2-1.6c-0.1,1.1,0.2,2.3,0.6,3.3c0.1,0.3,0.3,0.6,0.7,0.6c0.5,0,0.7-0.2,0.8-0.5c0.2-0.3,0.2-0.8,0.2-1.3   c0.1-1.1-0.3-2.3-0.2-3.5c1.5-1,3-1.8,4.6-2.6c1.7-0.9,3.5-1.7,5.4-2.5c0.5-0.2,1-0.2,0.9-0.9s-0.8-0.3-1.1-0.3   c-1.4,0-2.5,0.6-3.8,1.1c-3.9,1.9-7.4,4.5-11,6.8c-0.5-0.6-0.2-1.3-0.1-1.9c0.3-1.6,1-3.1,0.9-4.8c0.3-0.3,0.8-0.7,1.4-0.8   c0.1,0.7,0.3,1.4,1.3,1.4c0.9,0,0.9-0.8,1.1-1.4c0.2-0.6,0.2-1,0.2-1.6c3-1.8,6.3-3.1,9.4-4.8c0.6-0.2,1.3-0.5,0.9-1.4   c-0.3-0.8-1-0.2-1.5-0.1c-3.2,0.9-5.9,2.6-8.8,4.2c0.1-0.8-0.2-1.6-0.2-2.4c-0.2-1.7-0.5-2.1-2.3-2.2c0.6-0.6,1.4-1,2.1-1.5   c2.9-1.7,5.9-3.1,9-4.5c0.5-0.2,1.1-0.2,0.9-0.9c-0.2-0.6-0.8-0.3-1.3-0.2c-0.2,0-0.5,0.1-0.6,0.2c-4.9,1.4-9,4.1-12.8,7.5   c-0.2,0-0.5-0.1-0.6-0.3c-0.9-2.1-1.5-4.1-1-6.3c0.9-4.2,1.1-8.3-0.1-12.6c-0.6-1.9-0.5-3.8,0.5-5.7c0.9-2.1,1.5-4.3,1.4-6.6   C65,33.1,64.8,31.1,64.2,29z M65.8,44.1c-0.6,0.9-1.6,1.6-1.6,2.9c0.7-0.2,1-0.9,1.5-1.3c0.6,1.7,0.2,3.4,0.3,5.1   c-0.2,0.2-0.5,0.5-0.6,0.7c-0.2,0.3-0.9,0.6-0.6,1c0.3,0.5,0.7-0.2,1-0.3H66c0.1,1.8-0.3,3.8,0.2,5.6c-0.5,0.5-1,0.8-1.5,1.3   c-0.3,0.2-0.8,0.5-0.5,1c0.3,0.6,0.8,0.2,1.1,0.1c1.1,1.4,2.1,1.5,3.1,0.2c0.6-0.8,0.5-1.6,0.1-2.4c0.3-0.2,0.7-0.5,1.1-0.7   c3.5-1.8,7.2-3.5,10.7-5.4c0.5-0.2,1.1-0.5,0.8-1.1c-0.2-0.6-0.8-0.5-1.3-0.2c-0.8,0.2-1.6,0.5-2.4,0.8c-3.2,1-5.9,2.9-8.8,4.6   c0-1.9,0-3.9,0-5.8c3.3-2.1,7-3.4,10.6-4.9c0.6-0.2,1.6-0.3,1.3-1.1c-0.3-0.9-1.1-0.2-1.7-0.1c-3.7,0.9-7,2.6-10.2,4.7   c-0.6-1.6-0.5-3.2-0.8-4.8c1.3-1,2.9-1.7,4.3-2.5c2.1-0.9,4.2-1.6,6-2.9c0.3-0.2,1.3-0.5,0.9-1c-0.2-0.7-0.9-0.1-1.4,0   c-3.4,1.1-6.8,2.5-9.9,4.6c-0.6-1.7-0.3-3.3-0.1-5c0.1-0.7-0.1-1.1-0.8-1.3c-0.7-0.2-0.9,0.2-1,0.9c0,0.2-0.1,0.5-0.2,0.8   C65.8,39.5,65.7,41.8,65.8,44.1z"/>
	<path class="st3" d="M60,19.6c0.2,1-0.1,1.7-1.1,1.9c-3.3,1-6,3-8.7,5.3c-3.7,3.3-7.2,6.7-10.7,10.2c-4.3,4.1-7.2,9.1-9.4,14.5   c-2.1,5-4,10.2-5,15.5c-0.9,4.6-1.1,9-0.8,13.6c0.5,5.1,1.3,10.3,3,15.2c1.7,5.3,4.6,9.9,7.8,14.4c3,4.3,6.3,8.4,10.2,12   c4.5,4.1,9.6,7.3,15.6,9.7c-0.7-1.7-1.1-3.1-1.3-4.7c-0.1-1-0.2-2.1,0-3.2c0.2-1,0.1-1.7-1-2.4c-1.8-1-3.7-1.8-5.5-2.6   c-0.3-0.1-0.7-0.1-1-0.1c-0.5-1.4-1-2.7-1.6-4.1c-0.2-0.5,0-0.8,0.3-0.9c0.5-0.2,0.5,0.1,0.7,0.3c2.7,3.4,6.5,4.9,10.5,6.2   c1,0.3,1.1,0.7,0.9,1.5c-0.7,2.7-0.6,5.3,1.3,7.5c1.6,1.9,3.9,3.1,6.3,3.2c5.6,0.3,11.1,0,16.5-1.5c3.4-0.9,5.1-3.3,5.5-6.8   c0-0.6,0.1-0.9,0.8-0.8c1.7,0.1,3.4-0.1,5-0.7c0.6-0.2,0.7,0,0.9,0.5c0.6,2.4,2.3,3.7,4.7,3.5c1.6-0.1,3,0.3,4.2,1.4   c1.8,1.4,4,1.4,5.9,0.1c1.7-1,3.5-1.5,5.5-1.7c3.1-0.2,5.1-1.5,6.2-4.5c0.1-0.3,0.3-0.6,0.6-0.9c0.5,0.1,0.7-0.2,1-0.5   c2.5-2.1,5.1-4.2,7.4-6.6c0.5-0.5,0.8-0.9,1.5-0.8c-2.2,4.2-5,7.9-8.4,11.2c-10,9.8-22.1,15.4-36.1,16.7   c-22.7,1.9-42-5.6-57.2-22.7c-8.1-9.1-12.8-20-14.4-32.1c-1.9-14.6,0.9-28.3,8.4-41c5.1-8.7,12.2-15.6,20.8-21   C52.7,22.3,56.4,21.2,60,19.6z M107.2,132.5c-3.1-0.7-5.7-2.4-8.2-4.2c-1.5-1.1-1.9-1-3.3,0.3c-0.2,0.2-0.5,0.6-0.7,0.8   c-1.6,2.3-3.7,4.1-6.3,5.3c-1,0.5-1.9,0.9-3,1.3C93.3,137.1,100.3,134.8,107.2,132.5z"/>
	<path class="st4" d="M66.3,75c0.1,1.7-0.6,3.2-0.9,4.8c-0.1,0.7-0.3,1.3,0.1,1.9c-0.3,0.3-0.7,0.8-0.2,1.4c0.3,2.1,0.6,4.1,1.7,5.9   c-0.2,0.5-1,0.6-0.8,1.3c0.1,0.6,0.7,0.3,1,0.3c0,1.1,0.5,2.3,0.2,3.5c-0.2,0.5-1,0.6-0.8,1.3c0.2,0.6,0.7,0.1,1,0   c0,2.4,0,4.7,0.8,7c-0.1,0.2-0.6,0.3-0.3,0.7c0,0.1,0.3,0,0.6,0c0.6,1.9,1.1,3.8,1.6,5.7c-0.1,0.3-0.2,0.8,0.2,1c0,2.1,0,4.1,0,6   c0,0.2-0.5,0.5,0,0.8c0.2,1.8,0.1,3.7,0.8,5.4c0,0.3,0,0.7,0,1c-1,2.2,0,3.9,2.3,4c2.5,0.1,5-0.1,7.4-0.7c1.8-0.3,2.9,0.3,3,2.2   c-4.6,0.9-9.1,1.6-13.7,0.6c-3.4-0.8-4.6-2.6-4-6c0.1-0.6,0.1-1.1,0.2-1.7c0.3-1.6,0.2-3.2-0.2-4.8c-0.8-2.6-1.1-5.4-0.6-8.1   c0.5-1.9,0-3.7-1-5.4c-2.1-3.1-2.3-6.4-1.7-9.9c0.5-3.3-0.1-6.4-1-9.5c-1-3.5-0.9-7,0.2-10.4c0.8-2.3,0.6-4.6-0.8-6.5   c-1.9-2.7-2.2-5.5-1.1-8.6c1-2.9,0.9-5.8,0-8.7c-1-3.1-0.8-5.9,0.6-8.9c1-2.3,1.3-4.6,0.8-7c-0.5-2.1,0.6-3.8,2.5-4.5   c0.6,2.1,0.8,4.1,1,6.2c0.1,2.3-0.5,4.6-1.4,6.6c-0.8,1.8-1,3.8-0.5,5.7c1.3,4.2,1,8.3,0.1,12.6c-0.5,2.2,0.1,4.2,1,6.3   c0.1,0.2,0.3,0.2,0.6,0.3c-0.1,0.5-0.2,0.8,0.2,1.1c0.6,1.7,1,3.4,1.6,5.3c-0.5,0.3-0.8,0.6-1.3,1c-0.5,0.3-1.4,0.6-1,1.3   C65.1,76.2,65.7,75,66.3,75z"/>
	<path class="st5" d="M46.1,59.2c-0.1-0.3,0-0.7-0.3-0.9c-0.5,0.1-0.3,0.6-0.3,0.9c0.7,6.2,0.2,12.3,0.1,18.5   c-0.2,9.7-1.1,19.4,0.1,29.1c-0.6-0.1-0.7-0.6-0.9-1c-1.7-2.9-2.4-5.9-2.2-9.4c0.3-3.8-0.2-7.3-1.9-10.7c-1.4-2.7-1.8-5.6,0-8.2   c1.3-1.8,1.7-3.7,1.5-5.7c-0.1-0.9-0.2-1.7-0.5-2.6c-0.8-2.9-0.3-5.5,1.4-8c1.1-1.7,1.4-3.7,1-5.7c-0.3-1.5-0.9-3-0.6-4.6   c0.6-3.2,1.6-6.3,2.9-9.2c2.5,3.1,3.4,6.8,3.4,10.7c0.1,4.8,0.1,9.6,1.5,14.3c0.6,1.8,0.1,3.8-0.2,5.7c-0.3,2.7-0.5,5.5-0.3,8.2   c0.1,1.6,0.1,3.2,0,4.8c-0.2,3.2-0.2,6.4,0.6,9.5c1,4.2,0.5,8.3-0.3,12.4c-0.2,0.9-0.2,1.9-0.7,2.9c-1.3-3.3-1.4-6.7-1.8-10.2   c-0.5-3.9-0.2-7.8-0.5-11.6c-0.2-4.3,0.1-8.7-0.3-13c-0.3-4.3,0.7-8.6,0-12.9C47.3,60.9,47.3,59.6,46.1,59.2z"/>
	<path class="st1" d="M136.3,113.3c-0.7-0.1-1.1,0.3-1.5,0.8c-2.3,2.4-4.8,4.6-7.4,6.6c-0.3,0.2-0.6,0.5-1,0.5   c0.3-0.9,1.1-1.6,1.8-2.4c2.2-2.6,3-5.5,1.4-8.7c-0.8-1.6,0-2.7,0.8-3.9c1.5-2.3,1.5-4.5,0.1-6.8c-0.5-0.7-0.7-1.4-1.1-2.1   c3-0.8,5-3.1,6.4-5.6c3.3-6.2,3.9-12.7,1.7-19.4c-0.5-1.3,0.5-1.3,1.1-1.3c1.6,0,3.1-0.5,4.6-1c0.8-0.2,1.5-0.9,2.5-0.9   c0.6,4.5,0.6,8.9,0.1,13.4c-0.9,8.7-3.1,17.1-6.5,25.1C138.4,109.5,137.5,111.4,136.3,113.3z"/>
	<path class="st6" d="M101.8,96.5c0.1-0.9,0.8-1.3,1.5-1.5c2.2-0.9,4.2-1.1,6.5-0.1c4.5,2.1,9.1,2.4,13.8,0.8c1.3-0.5,1.7,0,2.1,1   c0.5,1.5,0.9,3,1.7,4.2c0.8,1.3,0.8,2.6,0.1,3.9c-1.5,2.4-1.5,4.7-0.3,7.2c0.9,1.8,0.2,3.7-1.1,5.1c-0.9,0.9-1.8,1.9-2.4,3.2   c-1.1,3-3.4,3.8-6.4,3.7c0.5-0.9,0.9-1.7,0.8-2.9c0-0.9-1-1.1-1.1-1.9c0.7-0.1,1.4-0.3,1.8-1c0.2-0.3,0.6-0.7,0.2-1.1   c-0.3-0.5-0.7,0-1,0.1c-1.3,0.5-1.6,0.2-2.2-1c0.2-0.1,0.3-0.2,0.6-0.3c2.1-0.3,2.3-1,1.4-2.9c0.5-0.3,1.5-0.5,1.3-1.3   c-0.2-0.8-1-0.6-1.7-0.6c-1.6,0.1-1.9-0.2-1.9-2.1c0-0.3,0.1-0.9-0.5-0.9c-0.5-0.1-0.7,0.3-0.8,0.7c-0.6,1.5,0,2.9,1.5,4   c-0.3,0.9-0.3,1.8,0,2.7c-0.6-0.2-0.9,0-0.8,0.6c0,0.6,0.2,1.1,0.3,1.7c-1.1,0.3-2.2-0.5-3.3-0.5c-0.2,0-0.1-0.7-0.6-0.2   c-0.5,0-0.7-0.3-1-0.6c0-0.6-0.5-0.7-0.8-0.9c-0.3-1.5-1-2.9-1.7-4.1c-0.1-0.2-0.2-0.3-0.2-0.6c-0.3-1.4-1.3-2.5-1.4-4   c0.7,0,1.5,0.6,1.8-0.6c1,0,1.8-0.2,2.4-1.1c1,0.6,1.9,1.1,3.1,0.8c0.7,0.8,1.5,0.5,2.3,0.1c0.5,0.2,1,0.6,1.5,0.8   c0,1.1,0.8,1.5,1.7,1.6c1,0,1.8-0.6,1.9-1.6c0.1-0.9-0.2-1.6-1.3-1.8l0,0c-0.1-0.1-0.2-0.2-0.3-0.2c-0.5-0.1-0.9,0-1.4,0.1   c-0.9,0.1-1.6,0-1.8-1.1c0.1-0.8-0.1-1.4-0.9-1.6c-0.6-0.2-1.1-0.2-1.7,0.2c-0.6,0.6-0.8,1.3-0.8,2.1c-0.9-0.3-2.1-0.3-1.8-1.8   c0-0.3,0.2-0.8-0.3-1c-0.5-0.2-0.7,0.3-0.9,0.6c-1.5-0.8-2.5,0.1-3.4,1c0-1.3,0.2-2.3,1.7-2.4c0.2,0.1,0.6,0.2,0.8,0.3   c1,0.5,2.1,0.1,2.3-0.7c0.3-0.8-0.2-1.8-1-2.2c-0.9-0.2-1.6,0.3-1.8,1.5c-1.7-0.3-2.7,0.3-3.4,1.8c-0.5-1.1-0.5-2.1,0.7-2.9   c0.6-0.3,0.6-0.9,0.3-1.6c-0.2-0.6-0.7-0.9-1.3-0.9C103.5,96.3,102.7,96.3,101.8,96.5z M118.5,102.3c0,0.6-0.2,1.3,0.5,1.5   c0.5,0.2,0.9,0,1.1-0.5c0.6,0,1.1,0,1.7-0.1c0.8-0.2,1.7-0.6,1.6-1.5s-1.1-0.5-1.8-0.5c-1,0.1-2.1,0.5-2.4-1.1   c0-0.3-0.3-0.6-0.7-0.6c-0.3,0-0.6,0.3-0.6,0.8C118,101.3,118.3,101.7,118.5,102.3z M110.1,111.9c0.1,1.7,0.8,2.3,2.4,2.2   c0.5,0,0.9-0.1,0.9-0.6c0.1-0.5,0.3-1-0.5-1.4c0-0.9-0.9-1-1.4-1.4c-1.3-0.9-1.4-1.5-0.8-3c0.2-0.5,0.5-0.9-0.1-1.3   c-0.6-0.2-0.9,0.2-1.1,0.7C108.5,108.8,108.6,110.2,110.1,111.9z"/>
	<path class="st7" d="M123.6,54.8c0-8,4-12.7,11.3-13.7c3.9-0.6,7.5,1.4,9.4,5c2.3,4.7,1.5,11.6-2.1,15.5   c-4.3,4.9-12.2,4.6-16.4-0.7C124.2,58.9,123.2,57,123.6,54.8z M142,53.3c0-0.8-0.2-1.6-0.6-2.4c-0.3-0.8-0.9-1.5-1.9-1.5   c-2.2-0.1-2.2-0.1-2.4-2.3c0-0.1,0-0.2,0-0.3c-0.2-2.1-1.3-3.1-2.7-2.9c-2.3,0.3-3.4,1.8-3,3.9c0.2,0.9,0.5,1.9,0.9,2.7   c0.3,0.6,0.3,0.9-0.1,1.4c-0.5,0.6-0.8-0.1-1.1-0.2c-1.5-0.8-2.9-0.3-3.5,1.3c-0.7,1.6-0.1,3.7,1.3,4.8c0.9,0.7,1.7,0.7,2.6,0   c0.5-0.3,0.8-0.9,1.4-0.6c0.6,0.2,0.5,0.9,0.6,1.5c0,1.1,0.2,2.2,1.3,3c1.6,1.3,3.1,0.7,3.7-1.1c0.3-1.1,0-2.3-0.3-3.4   c-0.1-0.3-0.5-0.9,0-1.3c0.3-0.2,0.8,0,1.1,0.1C141,56.4,142.2,55.6,142,53.3z"/>
	<path class="st8" d="M46.2,41.5c-1.3,3-2.3,6-2.9,9.2c-0.2,1.6,0.2,3.1,0.6,4.6c0.5,2.1,0.1,4-1,5.7c-1.7,2.5-2.2,5.1-1.4,8   c0.2,0.8,0.3,1.7,0.5,2.6c0.2,2.1-0.2,4-1.5,5.7c-1.8,2.6-1.4,5.6,0,8.2c1.7,3.4,2.3,7,1.9,10.7c-0.2,3.4,0.5,6.5,2.2,9.4   c0.2,0.5,0.3,0.9,0.9,1c0.3,1.9,0.8,3.9,1.1,6c-3.7-3.1-7.2-6-8.7-10.7c-0.5-1.5-0.2-3,0.6-4.3c1.5-2.9,1.3-5.5-0.5-8.1   c-0.7-1-1.3-2.1-1.9-3c-1.3-1.8-1.5-3.8-0.9-5.9c0.7-2.6,1.8-5,2.2-7.8c0.2-1.7,0-3.3-0.3-4.8c-0.5-2.2-0.2-4.2,1.1-6   c2.2-2.9,2.9-6,3-9.6c0.1-2.7,0.8-5.4,2.1-7.9c0.7-1.5,1.4-3,2.2-4.5C45.8,40.4,46.1,40.9,46.2,41.5z"/>
	<path class="st9" d="M110.3,116.3c0.3,0.1,0.6,0.6,1,0.6c-0.1,1.1-0.2,2.4,0.5,3.4c0.9,1.4,2.6,1.5,3.7,0.2   c0.2-0.3,0.7-0.7,0.3-1.1c-0.3-0.5-0.8-0.1-1.1,0c-1.3,0.6-1.8,0.2-2.4-0.9c-0.2-0.5-0.3-0.9-0.3-1.4c1.1,0,2.1,0.9,3.3,0.5   c0.5,0.7,1,1.1,1.8,1.4c0,0.8,1,1.1,1.1,1.9c0.1,1-0.3,1.9-0.8,2.9c-1.6,0.2-3,0.7-4.5,1.4c-1.3,0.6-2.4,0.5-3.5-0.3   c-1.6-1.3-3.3-2.1-5.4-1.8c-1,0.1-1.6-0.6-1.7-1.5c-0.1-1.7-1.1-3-2.4-4c-1.8-1.5-2.1-3.4-1-5.4c1-2.2,1.3-4.2,0-6.3   c-0.7-1.4-0.6-2.6,0.7-3.7c1-0.9,1.6-1.9,1.6-3.3c0-0.7,0-1.4,0.5-2.1c0.1-0.1,0.2-0.2,0.2-0.3l0,0c0.9-0.1,1.7-0.2,2.6-0.2   c0.7,0,1.1,0.2,1.3,0.9c0.2,0.6,0.2,1.1-0.3,1.6c-1.1,0.8-1,1.8-0.7,2.9c-0.5,2.1-0.6,3.9,1.4,5.3c0.1,1.5,1,2.6,1.4,4   c-1.3,0-1.9,0.7-2.3,1.8c-0.3,1.1,0.5,2.9,1.7,3.7C108,117.3,109,117.3,110.3,116.3z"/>
	<path class="st3" d="M47,115.4c-0.1,0.6-0.6,0.7-1.1,0.7c-1.3,0-2.4-0.2-3.2-1c-3.1-3.1-6.5-5.8-8.9-9.6c-1.3-1.9-2.1-4.1-1.9-6.5   c0-1-0.1-2.2,0-3.2c0.2-2.6-0.3-5-1.7-7.3c-1.1-1.9-1.6-4-1.5-6.2c0.1-1.8,0.8-3.3,1.5-4.9c1.3-3.1,1.8-6,1.3-9.4   c-0.8-4.1-0.2-7.9,2.4-11.3c1.6-2.2,2.2-4.9,3.1-7.4c0.2-0.8,0.5-1.6,1.4-1.9c-0.3,2.1-0.7,4.1-0.8,6.2c-0.1,2.9-1.4,5.5-2.6,8   c-1,2.1-1.4,4.1-0.7,6.3c1,3.2,0.6,6.3-0.7,9.4c-0.7,1.6-1.3,3.3-1.5,5c-0.2,2.5,0.6,4.7,1.7,6.8c0.5,0.8,0.8,1.6,1.3,2.3   c0.8,1.5,1.1,3,0.5,4.6c-1.3,3.2-0.7,6.3,1,9.1C38.9,109.7,42.4,113,47,115.4z"/>
	<path class="st10" d="M107.7,66.9c-2.5,4.1-3.4,8.6-2.7,13.4c1.3,8.7,8,11.5,15.2,10.2c5.8-1.1,9.4-5.1,9.6-10.5   c0.3-6.2-3.3-11.8-8.6-13.5c-3.4-1.1-7.4,0.3-10,3.7c-1.8,2.3-2.9,4.9-3,7.8c-0.8,0.1-0.7,0.8-0.7,1.4c0.1,2.1,0.8,4,1.7,5.7   c0.2,0.3,0.5,0.7,0.3,1.3c-2.2-1.7-2.9-4.2-3.1-6.8c-0.5-5,0.9-9.6,4.2-13.5c1.4-1.6,3.2-2.2,5.3-2.4c3.3-0.2,6.3,0.5,9,2.4   c-1,0.1-1.7-0.8-2.7-0.9c-0.2,0-0.6-0.2-0.7,0.1c-0.1,0.3,0.1,0.5,0.3,0.6c0.6,0.3,1.3,0.7,1.8,1c1.7,1,3.4,1.9,4.7,3.7   c2.3,3.1,2.4,6.5,1.7,10c-0.2,1.4-0.5,2.9-0.7,4.3c0,0.3,0,0.8,0.5,0.9c0.5,0.1,0.7-0.1,0.9-0.5c0.5-0.6,0.9-1.1,1.3-1.6   c-0.9,3.7-3.2,5.9-6.4,7.6c-2.9,1.5-6,2.2-9.4,1.8c0.1-0.9-0.2-1.4-1.3-1.4c-1,0.1-1.9-0.2-2.9-0.5c-3.9-1.1-6.3-3.7-7.5-7.5   c-0.3-0.9-0.6-1.8-1.8-1c-1.1-5.6-0.2-10.6,3.4-15.1c0.3-0.5,0.7-0.8,1.1-1C107.6,66.7,107.6,66.8,107.7,66.9z"/>
	<path class="st3" d="M145.6,69.2c-0.9,0-1.6,0.6-2.5,0.9c-1.5,0.6-3,1-4.6,1c-0.7,0-1.6,0-1.1,1.3c2.2,6.7,1.6,13.2-1.7,19.4   c-1.4,2.6-3.3,4.8-6.4,5.6c-0.8-0.9-1-2.2-1.6-3.2c-0.2-0.3-0.1-0.6,0.2-0.8c4-3,6.2-7.1,6.6-12c0.5-4.8-0.7-9.2-3.3-13.2   c0,0,0-0.1,0-0.2c5.3,1,9.9,0.1,13.6-4.3C145.2,65.6,145.6,67.4,145.6,69.2z"/>
	<path class="st10" d="M116.1,47.5c-1.8,3.3-5,4.6-8.6,5c-1.9,0.2-3.9,0-5.6-0.9c0.1,0,0.2,0,0.3-0.1c0.7-0.1,1.6,0.8,2.2-0.1   c0.7-1-0.8-1.1-0.9-1.9c1.7,0.3,3.4,0.2,5.1-0.2c1.5,0.6,2.1,0.2,2.5-1.6c2.5-2.6,3.3-5.7,2.3-9.2c-1-4-5.7-5.3-8.7-2.6   c-2.3,2.1-3,5.1-1.6,7.5c0.9,1.5,2.3,2.1,3.7,1.5c1.7-0.7,2.7-2.5,2.3-4.1c-0.2-1.1-1-1.5-1.9-1.7c-0.5-0.1-0.8,0-0.9,0.5   c-0.1,0.5,0.1,0.8,0.5,0.9c0.7,0.2,1.3,0.5,1,1.4c-0.2,0.8-0.7,1.5-1.7,1.7c-0.9,0.1-1.4-0.6-1.6-1.3c-0.8-1.8,0.1-4.2,2.2-5.4   c0.8,0.5,1.3,1.1,1.9,1.7c1.4,1.3,1.9,2.6,1.9,4.6c0,1-0.6,1.9-0.3,3.1c-1.9,1.8-4.1,2.4-6.6,1.4c0-0.3-0.1-0.6-0.3-0.8   c-2.2-2.5-2.5-5.3-1.3-8.2c0.1-0.3,0.5-0.7,0.1-0.9c-0.5-0.2-0.7,0.2-0.9,0.6c-1,1.7-1.4,3.5-1.4,5.4c-1-3.4,0.7-8,4-10.5   c2.2-1.6,4.5-2.3,7.1-1.3c0.1,0,0.1,0.1,0.2,0.1c-0.7,0.6,0,0.7,0.3,0.9c0.6,0.5,1.3,0.9,1.7,1.6c2.4,3.8,2.5,7.6,1,11.6   c-0.2,0.6-0.8,1.1-0.1,1.7c0.7,0.7,1.1-0.1,1.6-0.3C115.8,47.5,116,47.5,116.1,47.5z"/>
	<path class="st11" d="M95.5,97.9c-1.4,0.7-2.9,1.4-4.2,2.2c-0.1-0.9,0.2-1.7,0.3-2.4c0.5-2.3,0.3-4.6-1-6.5   c-1.6-2.3-1.8-4.6-1.3-7.1c0.3-1.5,0.6-3.1,0.1-4.6c-0.1-0.6,0-0.8,0.6-0.9c3.5-1.5,3.5-1.5,4.7,2.2c1.1,4,2.5,8,3.2,12.1   C96.2,94.1,95.9,96,95.5,97.9z"/>
	<path class="st10" d="M120.6,82.2c-1.4,1.6-3.1,2.2-5.1,2.1c1-0.7,0.3-1.1-0.2-1.4c-1.1-0.6-2.3-1.1-3.2-2.2   c-1.4-1.8-1.1-3.8-0.5-5.7c0.2-0.7,0.6-1.5-0.6-1.7c1.1-2.4,3-4.1,5.5-5.1c2.9-1.1,5.8,0,7.9,2.6c-0.8,0-1.5-0.6-2.2-0.7   c-0.9-0.1-1.4,0-1.1,1.1c-2.5-0.9-4.7-0.5-6.5,1.5c-1.6,1.8-2.2,3.9-1.4,6.3c0.6,1.7,2.2,2.7,3.5,2.4c1.6-0.3,3-2.2,2.9-3.8   c-0.1-1.3-0.8-1.9-1.9-2.2c-0.3-0.1-0.8-0.1-1,0.3c-0.1,0.5,0,0.9,0.6,1c0.7,0.2,1.3,0.5,1,1.3c-0.2,0.8-0.8,1.5-1.6,1.7   c-0.8,0.2-1.3-0.3-1.6-0.9c-0.8-1.4-0.5-3.2,0.7-4.7c1.1-1.5,2.5-1.9,4.1-1.4C120.9,75.8,121.6,78.9,120.6,82.2z"/>
	<path class="st11" d="M96.9,74.6c-1.6,0.8-1.6,0.8-2.1-0.9c-1-4-2.2-8.1-3.2-12.1c-0.6-2.1-0.6-2.1,1.6-2.6c1.7,1.7,4,2.6,6.3,3.4   c1.4,0.5,3,0.8,4.8,1c-2.3,1.3-3.8,2.7-4.9,4.6C98,70,97.1,72.2,96.9,74.6z"/>
	<path class="st12" d="M96.9,74.6c0.2-2.5,1.1-4.7,2.5-6.7c1.1-1.8,2.6-3.3,4.9-4.6c-1.9-0.2-3.4-0.5-4.8-1   c-2.3-0.8-4.6-1.6-6.3-3.4c1.1-0.5,2.2-0.9,3.3-1.4c0.5-0.2,0.9-0.1,1.4,0.1c1.9,1.1,4.1,1.9,6.3,2.2c0.7,0.1,0.8,0.5,1,1   c0.3,1.3,0.5,2.5,1,3.7c0.3,0.6-0.2,0.8-0.5,1c-1.6,1.6-3,3.3-3.8,5.5c-0.5,1.3-1.1,2.1-2.4,2.4C98.6,73.9,97.8,74.5,96.9,74.6z"/>
	<path class="st12" d="M92.1,101.4c1.8-0.6,3.7-1.1,5.5-1.9c0.2,0.8-0.3,1-0.7,1.4c-1.8,1.9-2.2,3.5-0.9,5.8   c0.9,1.7,1.1,3.4,0.5,5.4c-0.7,2.3-0.7,4.6,0.7,6.6c0.3,0.5,0.2,0.7-0.2,0.8c-1.5,0.5-3.1,0.8-4.5,1.6c-0.6,0.2-0.6-0.1-0.6-0.5   c-0.5-1.5,0-2.9,0.5-4.2c0.6-1.7,1.1-3.3,1.3-5.1c0.1-2.3-1.3-3.9-2.2-5.7c0.2-1.3,0.3-2.5,0.3-3.8l0,0   C91.8,101.5,91.9,101.4,92.1,101.4z"/>
	<path class="st10" d="M105.8,54.4c2.5,0,5-0.3,7.3-1.4c3.2-1.5,5.1-4,6-7.4c1,0,1-0.7,1.3-1.4c0.6-2.4,0.6-4.9,0.6-7.3   c4.7,10.2-1.7,19.3-12.2,19.9c0.1-0.8-0.2-1.3-0.9-1.5C107.1,54.9,106.4,54.7,105.8,54.4z"/>
	<path class="st11" d="M89.2,60.5c0.3,0,0.3,0.2,0.5,0.6c1.1,4.8,2.4,9.6,3.5,14.4c0.1,0.5,0,0.7-0.5,0.8c-0.1,0-0.1,0.1-0.2,0.1   c-1.3,0.3-2.3,1.1-3.5,1.3c-0.8-1.9-2.3-3.8-1.9-6c0.2-1.5,0.7-3,1-4.5c0.5-1.7,0.3-3.3-0.2-4.9C87.6,61.2,88.3,60.4,89.2,60.5z"/>
	<path class="st12" d="M100.3,75.3c-0.9,6.4-0.2,12.2,4.9,16.9c-1.6,0.3-3.1,0.6-4.3,1.5c-0.6,0.3-0.6-0.1-0.7-0.5   c-0.2-0.8-0.6-1.5-0.7-2.3c-0.9-4-2.3-8-3.4-11.9c-0.1-0.5-0.2-0.9-0.2-1.4c-0.1-0.7,0.1-0.9,0.7-1.1C97.9,76.2,99,75.7,100.3,75.3   z"/>
	<path class="st12" d="M57,92.4c0.7-0.3,1.4-0.7,2.1-0.9c0.1-0.1,0.3-0.1,0.6-0.2c-0.1,1.5-0.1,2.7-0.2,4.1c-0.2,2.9,0.1,5.5,1.5,8   c0.9,1.6,1.4,3.4,1.1,5.4c-0.2,1.4-1.3,1.4-2.1,1.8c-0.3,0.2-0.5-0.2-0.6-0.6c-0.8-2.1-1.7-4-2.5-6c0.6-1.3,0-2.6,0.3-3.9   C57.7,97.5,57.9,94.9,57,92.4z"/>
	<path class="st13" d="M120.9,36.9c0,2.5,0.1,4.9-0.6,7.3c-0.1,0.7-0.2,1.5-1.3,1.4c0.8-5.5-0.5-10.3-4.9-13.9   c-1.1-0.9-2.4-1.4-3.7-1.9c-1.1-0.8-2.6-0.6-3.9-0.8s-1.5-0.8-0.9-1.8c0.2,0,0.6,0,0.8,0c0.9,0.5,1.8,0.2,2.7,0.2   C114.9,28.5,118.7,31.7,120.9,36.9z"/>
	<path class="st8" d="M46.1,59.2c1.3,0.6,1.3,1.7,1.5,2.9c0.7,4.3-0.3,8.6,0,12.9c0.3,4.3,0.1,8.7,0.3,13c0.2,3.9,0,7.8,0.5,11.6   c0.5,3.4,0.5,6.8,1.8,10.2c-0.1,0.7-0.5,1.1-0.9,1.7c-0.8-1.8-1.1-3.5-1.4-5.4c-0.9-5.7-0.8-11.5-0.8-17.3c0-5.6,0-11.2-0.1-16.8   C46.9,67.7,46.6,63.4,46.1,59.2z"/>
	<path class="st12" d="M121,54.1c0.1,2.7,0.7,5,2.1,7.5c-2.7-0.7-5.3-1-7.9-0.6c-2.6,0.5-5.1,1.4-7.3,2.9c-0.1-0.1-0.1-0.1-0.1-0.2   c-0.3-1.1-1.1-2.4-0.9-3.2c0.2-0.7,2.1-0.1,3.1-0.3C114.2,59.6,116.5,58.4,121,54.1z"/>
	<path class="st10" d="M105.8,27.2c-0.7,1-0.3,1.6,0.9,1.8c1.3,0.2,2.7,0.1,3.9,0.8c-7.3-1.6-12.8,5.9-12.7,12c0,0.3,0,0.6,0,0.9   c-0.5-0.6-0.5-1.3-0.5-1.9c0-1-0.5-1.1-1.1-0.7c0.1-3.9,1.5-7.3,3.9-10.3C101.5,28,103.5,27.2,105.8,27.2z"/>
	<path class="st10" d="M125.2,85.4c-1.6,1.8-3.8,2.7-6.2,3.1c0-1-0.7-1.1-1.5-1.4c-1.5-0.3-3.2-0.5-4.3-1.7c2.9,0.8,5.6,0.6,7.9-1.4   c3.3-2.7,4.1-7,2.1-11.3c0.5-0.1,0.6,0.2,0.8,0.6c1.1,1.7,1.7,3.7,1.9,5.7c0.2,2.1-0.5,4-0.6,6l0,0   C125.4,85.2,125.3,85.3,125.2,85.4z"/>
	<path class="st10" d="M105.8,56.8c-6.2-0.3-12.9-4.5-13.5-12.4c-0.3-4.8,0.6-9.2,3.9-12.9c0.2-0.3,0.5-0.8,1.3-0.7   c-2.4,3.9-3.3,8-2.9,12.3c-0.6,0-1,0.2-0.9,0.8c0.7,4,2.4,7.4,5.7,10C101.3,55.4,103.6,56,105.8,56.8z"/>
	<path class="st3" d="M85.4,30.5c1.3-0.2,2.5-1,4-0.9c0.3,0,0.7-0.5,1-0.8c1.3-1.5,2.9-2.5,4.6-3.4c2.1-1.1,3-0.9,4.6,0.9   c-2.6,1.6-5.1,3.4-6.7,6c-0.2,0.3-0.5,0.5-0.8,0.2c-1.5-0.8-3.3-1-4.9-0.7C85.7,32.2,85.6,31.7,85.4,30.5z"/>
	<path class="st12" d="M95.4,56.2c-1.3,0.6-2.4,1-3.5,1.6c-0.7,0.3-1,0-1.1-0.6c-0.6-3.1-2.5-5.6-3-8.7c-0.1-0.6-0.3-1-0.5-1.5   c-0.1-0.7-0.9-1.5-0.5-1.9c0.6-0.6,1.6-0.7,2.4-0.9s0.6,0.5,0.7,0.8c0.1,1.7,0.6,3.4,1.1,5.1C91.8,52.5,93.3,54.4,95.4,56.2z"/>
	<path class="st3" d="M49,41.6c0-0.7,0.6-1,1-1.4c1.4-1.1,3.2-1.7,4.3-3.1c1.5-1.7,1.9-3.9,2.5-5.9c0.6-1.8,1.4-2.4,3.2-1.7   c-0.9,1.6-1,3.3-1.3,5.1c-0.1,0.6-0.2,1.1-0.3,1.7c-0.2,1.3-0.8,2.1-2.2,2.5c-2.1,0.7-3.9,1.9-5.6,3.3C49.7,43,49.8,43.1,49,41.6z"/>
	<path class="st13" d="M132.1,83.6c-0.5,0.6-0.9,1.1-1.3,1.6c-0.2,0.2-0.5,0.6-0.9,0.5c-0.5-0.1-0.6-0.6-0.5-0.9   c0.2-1.4,0.5-2.9,0.7-4.3c0.7-3.5,0.5-7-1.7-10c-1.1-1.7-3-2.6-4.7-3.7c-0.6-0.3-1.3-0.7-1.8-1c-0.2-0.1-0.5-0.3-0.3-0.6   c0.1-0.3,0.5-0.2,0.7-0.1c0.9,0.2,1.7,1,2.7,0.9l0,0c0.1,0.2,0.2,0.3,0.6,0.3C130.9,69.4,134.1,77.8,132.1,83.6z"/>
	<path class="st12" d="M54.6,54.7c0.8-0.3,1.7-0.7,2.6-1.1c0.1,1.8-0.3,3.4-0.6,5c-0.6,2.9-0.6,5.7,1,8.2c0.2,0.3,0.3,0.6-0.1,0.9   c-1,0.6-1.9,1.3-3.2,2.1c0.2-2.1-0.1-3.8-0.8-5.5C54.2,61.2,54.7,58,54.6,54.7z"/>
	<path class="st12" d="M54.6,71c1.1-0.6,2.4-1.1,3.5-1.7c0.6-0.3,0.8-0.2,0.9,0.5c0.1,0.9,0.1,1.9-0.2,2.7c-1.5,4-1.3,8-0.1,12   c0.2,0.9,0.6,1.7,0.2,3.1c-1.3-2.9-2.4-5.5-3.2-8.2c0.6-2.6,0-5.3-0.7-7.8C55.1,71.3,54.7,71.1,54.6,71z"/>
	<path class="st13" d="M105.8,56.8c-2.2-0.8-4.5-1.4-6.4-2.9c-3.3-2.5-5-5.9-5.7-10c-0.1-0.7,0.2-0.9,0.9-0.8c0.3,2.5,1,4.9,2.6,7.1   c2.2,3,5.3,3.9,8.7,4.3c0.7,0.2,1.4,0.6,2.1,0.8c0.7,0.2,1,0.8,0.9,1.5C107.7,57,106.8,56.9,105.8,56.8z"/>
	<path class="st13" d="M116.1,47.5c-0.1,0-0.3,0-0.5,0.1c-0.6,0.2-0.9,1-1.6,0.3c-0.6-0.6,0-1.1,0.1-1.7c1.5-4,1.5-8-1-11.6   c-0.5-0.7-1.1-1.1-1.7-1.6c-0.3-0.2-0.9-0.3-0.3-0.9c3.7,1.7,5.1,5,6,8.7c0.3,1.6,0.5,3.3-0.2,4.9c-0.3,0.2-0.3,0.5-0.2,0.8l0,0   c-0.1,0.1-0.2,0.2-0.1,0.3c0,0.1,0,0.1-0.1,0.1l-0.1-0.1l0.1,0.1C116.4,47.2,116.3,47.3,116.1,47.5z"/>
	<path class="st13" d="M96.2,40.1c0.8-0.5,1.1-0.3,1.1,0.7c0,0.7,0,1.4,0.5,1.9c0.6,3.1,2.3,5.4,5.3,6.6c0.1,0.1,0.2,0.2,0.5,0.1   l0,0c0.1,0.7,1.6,0.9,0.9,1.9c-0.6,0.9-1.5,0-2.2,0.1c-0.1,0-0.2,0-0.3,0.1l0,0c-0.1-0.3-0.3-0.3-0.6-0.3h-0.1v-0.1   c-0.1,0-0.2-0.1-0.3-0.2l0,0l0,0c0-0.3-0.2-0.3-0.5-0.3c-2.5-1.6-3.7-3.9-4-6.7c0-0.6,0.3-1.3-0.2-1.8   C96.1,41.5,96.1,40.8,96.2,40.1z"/>
	<path class="st13" d="M113.3,85.5c1.1,1.3,2.9,1.3,4.3,1.7c0.8,0.2,1.5,0.2,1.5,1.4c-3.3,0.7-6.4,0.1-9-2.1   c-0.1-0.1-0.2-0.2-0.3-0.3c-0.1-0.1-0.1-0.1-0.2-0.2c0.1-0.5-0.2-0.8-0.3-1.3c-0.9-1.8-1.6-3.7-1.7-5.7c0-0.6-0.1-1.1,0.7-1.4   C108.2,81.4,109.9,84,113.3,85.5z"/>
	<path class="st13" d="M125.4,85.2c0.1-2.1,0.7-4,0.6-6c-0.2-2.1-0.8-4-1.9-5.7c-0.2-0.3-0.3-0.6-0.8-0.6c-0.1-0.2-0.2-0.3-0.5-0.6   c0-0.2,0-0.5-0.3-0.3l0,0c0.1-0.3-0.1-0.3-0.5-0.3l0,0c-0.1-0.1-0.2-0.1-0.3-0.2l0,0c0-0.3-0.2-0.3-0.6-0.3l0,0   c-0.3-1,0.2-1.3,1.1-1.1c0.8,0.1,1.4,0.7,2.2,0.7l0,0c0,0.2,0.1,0.2,0.2,0.3c3,3.4,3.9,8.9,1.9,12.4   C126.3,84.2,126,84.7,125.4,85.2z"/>
	<path class="st11" d="M54.4,53.1c-0.7,0.5-1.5,0.9-2.3,1.4c-0.2-2.3-0.5-4.5-0.6-6.6c-0.1-0.9-1-2.1-0.5-2.5   c0.9-0.9,2.4-1.3,3.5-1.8c-0.3,1.8-0.7,3.7-0.5,5.6C54.3,50.4,54.4,51.7,54.4,53.1z"/>
	<path class="st12" d="M56.1,106.1c0.6,1.6,1.3,3.2,1.8,4.8c0.1,0.2,0.2,0.6,0.1,0.6c-0.9,0.8-1.9,1.4-3.1,1.7   c-0.8,0.2-1.4-0.8-2.1-1.1c-0.2-0.1-0.1-0.3,0-0.6c0.9-1.5,1-3.3,1.6-5C55,106.2,55.5,106.1,56.1,106.1z"/>
	<path class="st11" d="M57,92.4c0.9,2.5,0.6,5.1,0.1,7.6c-0.2,1.3,0.2,2.6-0.3,3.9c-1.7-3.1-1.5-6.6-2.4-10   c-0.1-0.5,0.1-0.6,0.5-0.8C55.7,92.9,56.3,92.6,57,92.4z"/>
	<path class="st12" d="M54.4,53.1c0-1.4-0.1-2.7-0.2-4c-0.2-1.9,0.1-3.8,0.5-5.6c0.5-0.3,0.9-0.6,1.6-0.8c-0.3,2.9,0.1,5.6,0.8,8.2   c0.1,0.5,0.1,0.7-0.3,0.9C56,52.3,55.2,52.8,54.4,53.1z"/>
	<path class="st13" d="M102.9,82.8c1.3-0.8,1.5,0.1,1.8,1c1.3,3.8,3.7,6.4,7.5,7.5c0.9,0.2,1.8,0.6,2.9,0.5c1-0.1,1.4,0.3,1.3,1.4   C110.4,92.9,104,88.9,102.9,82.8z"/>
	<path class="st13" d="M111.1,73.2c1.1,0.2,0.8,1,0.6,1.7c-0.7,1.9-1,4,0.5,5.7c0.8,1,2.1,1.6,3.2,2.2c0.6,0.3,1.3,0.7,0.2,1.4   c-4.5-0.3-6.8-4.3-5.4-9C110.4,74.6,110.5,73.8,111.1,73.2z"/>
	<path class="st6" d="M56.2,90.9c-2.2,1.5-2.2,1.5-2.5-1c-0.1-1-0.1-2.1,0-3.1c0.3-2.5,0.2-4.9,0.3-7.4c0.3,1.3,0.8,2.5,1.1,3.7   C55,85.8,55.3,88.4,56.2,90.9z"/>
	<path class="st11" d="M54.6,54.7c0.1,3.3-0.5,6.5-1,9.7c-1.5-2.6-1.4-5.5-1.5-8.3c0-0.5,0.2-0.6,0.7-0.7   C53.4,55.2,54.1,54.9,54.6,54.7z"/>
	<path class="st12" d="M87,40.7c0-0.2-0.1-0.5,0.1-0.6c0.1,0,0.1,0.1,0.2,0.1c0,0,0.1,0,0.1-0.1c0.6-1.6,1.1-3.2,2.6-4.2   c0.7-0.1,1,0,0.8,0.8c-0.6,1.5-0.9,3.1-1,4.8c0,0.6-0.3,0.8-0.9,1c-0.7,0.2-1.3,0.5-1.9,0.8C86.8,42.3,87.7,41.5,87,40.7z"/>
	<path class="st13" d="M110.2,46.2c-0.2-1,0.3-1.9,0.3-3.1c0-1.8-0.6-3.3-1.9-4.6c-0.7-0.6-1.1-1.4-1.9-1.7c0.2-0.5,0.7-0.6,1.1-0.5   c1.8,1.3,3.3,2.7,4.2,4.8C112.4,43.2,111.6,44.8,110.2,46.2z"/>
	<path class="st13" d="M99.9,43.6c0-1.9,0.3-3.8,1.4-5.4c0.2-0.3,0.5-0.8,0.9-0.6c0.3,0.2,0,0.6-0.1,0.9c-1.1,3-0.8,5.7,1.3,8.2   c0.2,0.2,0.3,0.5,0.3,0.8C101.6,46.9,100.4,45.7,99.9,43.6z"/>
	<path class="st12" d="M56.2,90.9c-1-2.5-1.3-5.1-1-7.9c0.9,1.9,1.7,4.1,2.9,5.9c0.3,0.6,0.2,0.8-0.3,1   C57.4,90.3,56.8,90.7,56.2,90.9z"/>
	<path class="st11" d="M87.6,53c0.5,2.1,0.9,3.7,1.4,5.4c0.3,1.4-0.9,1.3-1.5,1.6c-0.8,0.5-0.8-0.5-0.9-0.9C86,57,86.8,55.2,87.6,53   z"/>
	<path class="st13" d="M120.6,82.2c1-3.3,0.2-6.4-0.8-9.5c2.4,1.3,3.3,4.1,2.3,7.1C121.7,80.7,121.4,81.5,120.6,82.2z"/>
	<path class="st12" d="M95.5,97.9c0.5-1.8,0.7-3.8,2.3-5.1c0.3,0.8,0.6,1.6,1.1,2.4c0.5,0.7,0.2,1.3-0.5,1.6   C97.4,97.2,96.5,97.5,95.5,97.9z"/>
	<path class="st11" d="M54.6,71c0.1,0.1,0.5,0.2,0.5,0.5c0.7,2.5,1.3,5.1,0.7,7.8c-0.6-1.5-1.1-2.9-1.6-4.3   C53.8,73.7,54.1,72.3,54.6,71z"/>
	<path class="st11" d="M90.1,35.8c-1.4,1.1-2.1,2.6-2.6,4.2l-0.1,0.1c-0.1,0-0.1-0.1-0.2-0.1c0.2-1.5,0.5-3-0.1-4.5   c-0.2-0.6,0.1-0.7,0.5-0.6C88.4,35.3,89.3,35.3,90.1,35.8z"/>
	<path class="st10" d="M112.1,41.1c-1-2.1-2.4-3.5-4.2-4.8c1.7-0.7,3.9,1.1,4.2,3.4C112.3,40.3,112.1,40.7,112.1,41.1z"/>
	<path class="st9" d="M59.6,115.5c-1.1-0.3-2.2-0.8-3.2-1.4C58.8,112.8,59.4,113,59.6,115.5z"/>
	<path class="st9" d="M61.6,111.9c0.2,1.4,0.3,2.6,0.7,3.9c0,0.2,0.2,0.6-0.1,0.6c-0.3,0-0.6-0.1-0.6-0.5c-0.1-1-0.6-2.1-0.9-3   C60.3,111.9,61.4,112.3,61.6,111.9z"/>
	<path class="st11" d="M91.7,101.5c0,1.3-0.1,2.5-0.3,3.8c-0.6-0.8-0.6-1.7-0.6-2.6C90.7,101.8,90.9,101.5,91.7,101.5z"/>
	<path class="st11" d="M56.1,106.1c-0.6,0.1-1,0.2-1.6,0.2c0.1-1,0.3-1.9,0.6-3.1C55.7,104.1,55.9,105,56.1,106.1z"/>
	<path class="st13" d="M111.3,47.7c-0.6,1.8-1.1,2.2-2.5,1.6C109.6,48.8,110.4,48.2,111.3,47.7z"/>
	<path class="st6" d="M87,40.7c0.7,0.8-0.1,1.7,0,2.5c-0.3,0.2-0.6,0.2-0.6-0.2C86.7,42.2,86.8,41.4,87,40.7z"/>
	<path class="st10" d="M109.3,27.3c-0.9,0-1.8,0.2-2.7-0.2C107.5,27,108.4,27,109.3,27.3z"/>
	<path class="st10" d="M96.2,42.2c0.6,0.6,0.2,1.1,0.2,1.8C96.2,43.4,96.1,42.8,96.2,42.2z"/>
	<path class="st10" d="M116.7,46.5c0-0.3-0.1-0.6,0.2-0.8C116.9,45.9,117.1,46.3,116.7,46.5z"/>
	<path class="st10" d="M101.4,51.3c0.2,0,0.6,0,0.6,0.3C101.8,51.5,101.5,51.5,101.4,51.3z"/>
	<path class="st10" d="M125.4,66c-0.2,0-0.5,0-0.6-0.3C125.2,65.8,125.3,65.8,125.4,66z"/>
	<path class="st10" d="M121,71.1c0.2,0,0.5,0,0.6,0.3C121.5,71.4,121.3,71.3,121,71.1z"/>
	<path class="st10" d="M122.3,72.1c0.3-0.1,0.3,0.1,0.3,0.3C122.6,72.3,122.5,72.2,122.3,72.1z"/>
	<path class="st10" d="M122,71.6c0.2,0,0.5,0,0.5,0.3C122.2,71.8,122.1,71.7,122,71.6z"/>
	<path class="st10" d="M100.5,50.7c0.2,0,0.5,0,0.5,0.3C100.7,50.9,100.5,50.9,100.5,50.7z"/>
	<path class="st10" d="M109.7,86.2c0.1,0.1,0.2,0.2,0.3,0.3C110,86.4,109.7,86.3,109.7,86.2z"/>
	<path class="st13" d="M125.2,85.4c0.1-0.1,0.2-0.2,0.3-0.3C125.4,85.2,125.3,85.3,125.2,85.4z"/>
	<path class="st10" d="M101,51.1c0.1,0,0.2,0.1,0.3,0.2C101.2,51.2,101.1,51.1,101,51.1z"/>
	<path class="st10" d="M121.6,71.4c0.1,0.1,0.2,0.1,0.3,0.2C121.8,71.6,121.7,71.5,121.6,71.4z"/>
	<path class="st10" d="M116.5,46.9l-0.1-0.1L116.5,46.9L116.5,46.9z"/>
	<path class="st10" d="M107.5,66.7c0.1,0,0.2,0,0.3,0c0,0.1-0.1,0.1-0.1,0.2C107.6,66.8,107.6,66.7,107.5,66.7z"/>
	<path class="st10" d="M116.6,46.8c-0.1-0.1,0-0.2,0.1-0.3C116.6,46.6,116.6,46.7,116.6,46.8z"/>
	<path class="st10" d="M124.7,71c-0.1,0-0.2-0.1-0.2-0.3C124.5,70.8,124.6,70.9,124.7,71z"/>
	<path class="st10" d="M103.6,49.5c-0.2,0.1-0.3,0-0.5-0.1C103.4,49.5,103.5,49.5,103.6,49.5z"/>
	<path class="st6" d="M101.8,96.5c-0.1,0.1-0.2,0.2-0.2,0.3C101.5,96.6,101.5,96.4,101.8,96.5z"/>
	<path class="st11" d="M92.1,101.4c-0.1,0-0.2,0.1-0.3,0.2C91.7,101.3,91.8,101.3,92.1,101.4z"/>
	<path class="st0" d="M69,56c2.9-1.7,5.6-3.5,8.8-4.6c0.8-0.2,1.6-0.5,2.4-0.8c0.5-0.1,1-0.3,1.3,0.2c0.3,0.7-0.3,0.9-0.8,1.1   c-3.5,1.8-7.2,3.5-10.7,5.4c-0.3,0.2-0.7,0.5-1.1,0.7c-1.1,0.6-2.3,1.3-3.2,2.1c-0.5,0.1-0.8,0.5-1.1-0.1c-0.3-0.6,0.1-0.8,0.5-1   c0.5-0.5,1-0.8,1.5-1.3C67.2,57.2,68.1,56.7,69,56z"/>
	<path class="st0" d="M67.1,90.4c-0.3,0-0.9,0.2-1-0.3c-0.2-0.7,0.6-0.8,0.8-1.3c3.2-1.9,5.9-4.3,9.2-6.2c1.4-0.8,2.9-1.5,4.5-1.9   c0.5-0.1,1-0.5,1.3,0.2c0.2,0.6-0.3,0.8-0.7,1.1c-4.3,3-8.9,5.5-13.5,8.1C67.4,90.1,67.3,90.3,67.1,90.4z"/>
	<path class="st0" d="M66.3,75c-0.6,0-1.1,1.1-1.7,0.2c-0.3-0.7,0.6-0.9,1-1.3c0.3-0.3,0.8-0.7,1.3-1c0.1-0.1,0.3-0.2,0.5-0.3   c1-0.7,1.9-1.4,3-2.1c2.9-1.6,5.6-3.3,8.8-4.2c0.5-0.1,1.1-0.6,1.5,0.1c0.3,0.8-0.5,1-0.9,1.4c-3.1,1.7-6.3,3.1-9.4,4.8   c-1,0.3-1.8,0.9-2.6,1.5C67.2,74.3,66.7,74.7,66.3,75z"/>
	<path class="st0" d="M68.7,102.8c-0.2,0-0.6,0.1-0.6,0c-0.1-0.3,0.3-0.5,0.3-0.7c0.5-0.3,0.9-0.7,1.4-1c0.9-0.7,1.7-1.5,2.6-2.2   c2.2-1.6,4-3.4,6.5-4.6c1.5-0.7,2.9-1.3,4.6-1.3c0.5,0,0.9-0.1,1,0.6c0,0.6-0.5,0.7-0.8,0.8c-4.1,1.3-7.3,3.8-10.7,6.2   c-1,0.6-1.9,1.1-3,1.7C69.6,102.4,69.1,102.6,68.7,102.8z"/>
	<path class="st0" d="M70.6,116.3c-0.5-0.2,0-0.5,0-0.8c4.1-3.9,9.1-6.3,14.5-8c0.6-0.2,1.3-0.6,1.5,0.2c0.2,0.8-0.6,0.9-1,1.1   c-4.6,2.2-9.2,4-13.7,6.6C71.5,115.8,71.1,116.1,70.6,116.3z"/>
	<path class="st0" d="M65.2,83c-0.5-0.6,0-0.9,0.2-1.4c3.5-2.4,7.2-4.8,11-6.8c1.1-0.6,2.4-1.1,3.8-1.1c0.5,0,1-0.3,1.1,0.3   c0.1,0.7-0.6,0.7-0.9,0.9c-1.8,0.9-3.5,1.7-5.4,2.5c-1.6,0.8-3.2,1.6-4.6,2.6c-0.8,0.3-1.5,0.8-2.2,1.4C67.3,81.8,66.6,83,65.2,83z   "/>
	<path class="st0" d="M70.6,109.5c-0.5-0.2-0.3-0.6-0.2-1c0.1,0,0.1-0.1,0.2-0.1c1.3-0.9,2.5-1.9,3.8-2.9c2.2-1.3,4.3-2.6,6.4-3.9   c1-0.6,2.2-1,3.4-0.9c0.5,0,1-0.1,1.1,0.6c0.1,0.6-0.5,0.7-0.9,0.8c-3.2,1.6-6.5,3-9.6,4.8c-0.2,0.1-0.5,0.3-0.7,0.5   c-1.1,0.7-2.2,1.3-3.2,2.1C70.9,109.5,70.7,109.5,70.6,109.5z"/>
	<path class="st0" d="M67.6,95.1c-0.3,0.1-0.8,0.6-1,0c-0.3-0.7,0.6-0.8,0.8-1.3c3.1-2.2,6.4-4,9.7-6c1.1-0.7,2.4-1.4,3.8-1.6   c0.6-0.1,1.1-0.3,1.4,0.3s-0.5,0.9-0.9,1.1c-3.2,1.7-6.3,3.3-9.5,4.9c-0.3,0.2-0.8,0.5-1.1,0.7c-0.5,0.2-0.9,0.5-1.4,0.8   C68.7,94.4,68.1,94.8,67.6,95.1z"/>
	<path class="st0" d="M71.4,122.7c0-0.3,0-0.7,0-1c0.6-0.3,1-0.8,1.6-1.1c1-0.7,2.2-1.4,3.2-2.1c2.4-1.3,4.8-2.6,7.4-3.2   c0.5-0.1,1.1-0.5,1.4,0.2c0.2,0.7-0.5,0.8-0.9,1c-2.4,1.5-5.1,2.5-7.6,3.9c-1.1,0.5-2.3,1-3.3,1.7   C72.5,122.3,72.1,122.8,71.4,122.7z"/>
	<path class="st0" d="M69,48.5c3.2-2.1,6.5-3.8,10.2-4.7c0.6-0.1,1.4-0.8,1.7,0.1c0.3,0.9-0.7,0.9-1.3,1.1C76,46.6,72.3,48,69,50   c-1,0.6-2.1,1.1-3,2.1h-0.1c-0.3,0.1-0.7,0.8-1,0.3c-0.3-0.5,0.3-0.7,0.6-1c0.2-0.2,0.3-0.5,0.6-0.7C67.1,50.1,68,49.3,69,48.5z"/>
	<path class="st0" d="M65.2,67.7c-0.5-0.3-0.3-0.7-0.2-1.1c3.8-3.4,7.9-6,12.8-7.5c0.2,0,0.5-0.1,0.6-0.2c0.5,0,1-0.3,1.3,0.2   c0.2,0.7-0.6,0.7-0.9,0.9c-3.1,1.4-6.2,2.7-9,4.5c-0.7,0.5-1.5,0.8-2.1,1.5c-0.3,0-0.5,0.2-0.7,0.6C66.5,66.9,66.2,67.7,65.2,67.7z   "/>
	<path class="st0" d="M65.7,45.8c-0.6,0.3-0.8,0.9-1.5,1.3c0-1.4,1-2.1,1.6-2.9c0.8-0.7,1.6-1.4,2.4-2.2c3.1-1.9,6.5-3.3,9.9-4.6   c0.5-0.1,1.1-0.7,1.4,0c0.2,0.6-0.6,0.8-0.9,1c-1.8,1.3-4,1.9-6,2.9c-1.5,0.7-3.1,1.4-4.3,2.5C67.3,44.3,66.4,44.9,65.7,45.8z"/>
	<path class="st4" d="M74.4,105.6c-1.3,0.9-2.5,1.9-3.8,2.9c0.1-2.1-0.5-4.1-0.6-6.2c1-0.6,1.9-1.1,3-1.7   C73.2,102.3,73.3,104,74.4,105.6z"/>
	<path class="st4" d="M66,52.2c0.8-0.9,1.8-1.5,3-2.1c0,1.9,0,3.9,0,5.8c-0.9,0.6-1.7,1.3-2.6,1.8C65.7,56,66.3,54.1,66,52.2z"/>
	<path class="st4" d="M67.2,66.6c0.1-0.2,0.3-0.5,0.7-0.6c1.7,0.1,2.1,0.3,2.3,2.2c0.1,0.8,0.3,1.6,0.2,2.4c-1,0.7-1.9,1.4-3,2.1   C67.6,70.6,66.9,68.5,67.2,66.6z"/>
	<path class="st4" d="M68.2,41.9c-0.8,0.7-1.6,1.4-2.4,2.2c0-2.3,0-4.6,0.2-6.8c0-0.2,0.1-0.5,0.2-0.8c0.1-0.6,0.3-1,1-0.9   c0.6,0.2,0.8,0.6,0.8,1.3C67.9,38.6,67.6,40.3,68.2,41.9z"/>
	<path class="st4" d="M65.7,45.8c0.7-0.8,1.5-1.5,2.4-2.1c0.5,1.6,0.2,3.3,0.8,4.8c-1,0.8-1.9,1.6-3,2.4   C65.9,49.2,66.3,47.5,65.7,45.8z"/>
	<path class="st4" d="M69.2,94.1c0.5-0.2,0.9-0.5,1.4-0.8c0.5,1.9,1,3.8,1.8,5.5c-0.9,0.7-1.7,1.5-2.6,2.2c-0.1-2.1-0.3-4-0.2-6   C69.6,94.7,69.6,94.3,69.2,94.1z"/>
	<path class="st4" d="M76.1,118.5c-1,0.7-2.2,1.4-3.2,2.1c-0.1-1.3-0.1-2.4-0.2-3.7c0-0.8,0.1-1.5,1-1.6c0.9-0.1,1.4,0.5,1.6,1.3   C75.5,117.3,75.6,117.9,76.1,118.5z"/>
	<path class="st4" d="M71.1,109.5c0.9-0.8,2.1-1.5,3.2-2.1c0,1.4,0.1,2.9-0.5,4.2c-0.2,0.5-0.5,0.8-0.9,0.9   c-0.6,0.1-0.9-0.3-1.1-0.8C71.5,111.1,70.9,110.3,71.1,109.5z"/>
	<path class="st4" d="M68.4,81.4c0.6-0.6,1.4-1,2.2-1.4c-0.1,1.1,0.5,2.3,0.2,3.5c0,0.5,0,0.9-0.2,1.3c-0.2,0.3-0.5,0.6-0.8,0.5   c-0.5,0-0.6-0.2-0.7-0.6C68.7,83.7,68.3,82.6,68.4,81.4z"/>
	<path class="st4" d="M73.1,122.2c1-0.7,2.1-1.3,3.3-1.7c0.1,0.6,0.1,1,0.2,1.6c0.1,1-0.2,1.7-1.3,2.1c-1,0.3-1.6-0.3-1.8-1.1   C73.5,122.6,73.5,122.3,73.1,122.2z"/>
	<path class="st4" d="M65.6,60.2c0.9-0.9,2.1-1.5,3.2-2.1c0.3,0.8,0.5,1.6-0.1,2.4C67.6,61.7,66.6,61.6,65.6,60.2z"/>
	<path class="st4" d="M67.6,74.2c0.8-0.7,1.7-1.3,2.6-1.5c0,0.6,0,1-0.2,1.6c-0.2,0.6-0.3,1.4-1.1,1.4C68,75.6,67.7,74.9,67.6,74.2z   "/>
	<path class="st1" d="M107.2,132.5c-7,2.4-13.8,4.6-21.3,3.5c1-0.5,2.1-0.8,3-1.3c2.6-1.1,4.7-3,6.3-5.3c0.2-0.2,0.5-0.6,0.7-0.8   c1.3-1.4,1.7-1.5,3.3-0.3C101.5,130.2,104,131.7,107.2,132.5z"/>
	<path class="st2" d="M69.2,94.1c0.2,0.2,0.2,0.6,0.2,0.8c-0.1,2.1,0.1,4.1,0.2,6c-0.5,0.3-0.9,0.7-1.4,1c-0.8-2.3-0.8-4.6-0.8-7   C68.1,94.8,68.7,94.4,69.2,94.1z"/>
	<path class="st2" d="M67.2,66.6c-0.1,2.1,0.5,4,0.2,6c-0.1,0.1-0.3,0.2-0.5,0.3c-0.6-1.7-1-3.4-1.6-5.3   C66.2,67.7,66.5,66.9,67.2,66.6z"/>
	<path class="st2" d="M70,102.2c0,2.1,0.6,4.1,0.6,6.2c-0.1,0-0.1,0.1-0.2,0.1c-0.6-1.9-1.1-3.8-1.6-5.7   C69.1,102.6,69.6,102.4,70,102.2z"/>
	<path class="st0" d="M106.1,106.9c-1.9-1.4-1.8-3.3-1.4-5.3c0.7-1.5,1.8-2.2,3.4-1.8c0.1,0.3,0,0.7-0.3,0.9   c-1.5,0.1-1.7,1.1-1.7,2.4c-0.1,1.5,1.1,2.2,1.8,3.2C107.6,107.4,106.8,106.9,106.1,106.9z"/>
	<path class="st0" d="M110.3,116.3c-1.4,0.9-2.3,0.9-3.5,0c-1.1-0.8-1.9-2.5-1.7-3.7c0.3-1.1,1-1.8,2.3-1.8c0.1,0.2,0.2,0.3,0.2,0.6   c-1.4,1.8-1.1,3.1,0.9,3.9c0.2,0.1,0.6,0.1,0.9,0.2C109.9,115.7,110.3,115.8,110.3,116.3z"/>
	<path class="st9" d="M107.9,106.3c-0.7-1-1.9-1.7-1.8-3.2c1-0.9,1.9-1.8,3.4-1c-0.6,1.3-0.1,2.2,0.8,3.1   C109.7,106.1,109,106.3,107.9,106.3z"/>
	<path class="st0" d="M115.6,112.7c-1.6-1.1-2.2-2.5-1.5-4c0.1-0.3,0.3-0.8,0.8-0.7c0.6,0.1,0.5,0.6,0.5,0.9c0,1.7,0.3,2.1,1.9,2.1   c0.7,0,1.5-0.3,1.7,0.6c0.2,0.9-0.8,0.9-1.3,1.3C117.1,112.9,116.4,112.8,115.6,112.7z"/>
	<path class="st0" d="M110.1,111.9c-1.4-1.7-1.6-3.1-0.6-4.7c0.2-0.5,0.6-0.9,1.1-0.7c0.7,0.2,0.3,0.8,0.1,1.3   c-0.6,1.4-0.3,2.1,0.8,3c0.6,0.3,1.4,0.6,1.4,1.4C111.9,113,111,112.5,110.1,111.9z"/>
	<path class="st0" d="M118.5,102.3c-0.2-0.6-0.6-1.1-0.5-1.7c0-0.3,0.2-0.7,0.6-0.8c0.3,0,0.6,0.2,0.7,0.6c0.2,1.5,1.4,1.3,2.4,1.1   c0.7-0.1,1.6-0.6,1.8,0.5c0.1,0.9-0.8,1.3-1.6,1.5c-0.6,0.1-1.1,0-1.7,0.1C119.6,103.1,119.1,102.6,118.5,102.3z"/>
	<path class="st0" d="M110.3,105.2c-0.8-0.9-1.3-1.8-0.8-3.1c0.2-0.2,0.5-0.7,0.9-0.6c0.5,0.2,0.3,0.6,0.3,1c-0.2,1.5,1,1.5,1.8,1.8   c0.3,0.5,1.6,0.5,0.7,1.5C112.3,106.3,111.3,105.7,110.3,105.2z"/>
	<path class="st0" d="M111.8,117.1c0,0.5,0.1,0.9,0.3,1.4c0.6,1.1,1.1,1.4,2.4,0.9c0.3-0.1,0.8-0.6,1.1,0c0.3,0.5-0.1,0.8-0.3,1.1   c-1,1.3-2.7,1.1-3.7-0.2c-0.7-1.1-0.6-2.3-0.5-3.4C111.8,116.5,111.6,117.1,111.8,117.1z"/>
	<path class="st0" d="M116.1,103.8c0.1,1.1,0.9,1.3,1.8,1.1c0.5-0.1,0.9-0.2,1.4-0.1c0.1,0.1,0.2,0.2,0.3,0.2l0,0   c-0.1,1.6-1.3,1.7-2.4,1.8c-0.5-0.2-1-0.6-1.5-0.8c-0.2-0.5-0.6-0.9-0.8-1.5c-0.1-0.3-0.2-0.9,0.1-1.1   C115.6,103,115.8,103.4,116.1,103.8z"/>
	<path class="st9" d="M116.1,103.8c-0.3-0.2-0.6-0.8-1.1-0.3c-0.5,0.3-0.3,0.8-0.1,1.1c0.2,0.6,0.6,0.9,0.8,1.5   c-0.8,0.3-1.5,0.7-2.3-0.1c0.8-1-0.5-1-0.7-1.5c0.1-0.8,0.2-1.5,0.8-2.1c0.6-0.5,1.1-0.5,1.7-0.2   C115.9,102.4,116.1,103,116.1,103.8z"/>
	<path class="st0" d="M116.9,119c-0.8-0.2-1.4-0.7-1.8-1.4c-0.1-0.6-0.2-1.1-0.3-1.7c0-0.6,0.2-0.8,0.8-0.6c0.1,0.1,0.1,0.3,0.2,0.5   c0.5,1.3,0.9,1.5,2.2,1c0.3-0.1,0.7-0.6,1-0.1c0.3,0.5,0,0.8-0.2,1.1C118.3,118.6,117.6,118.9,116.9,119z"/>
	<path class="st9" d="M107.9,100.7c0.3-0.2,0.5-0.6,0.3-0.9c0.2-1.1,0.9-1.8,1.8-1.5c0.8,0.2,1.4,1.3,1,2.2   c-0.3,0.9-1.4,1.1-2.3,0.7C108.4,100.9,108.2,100.8,107.9,100.7z"/>
	<path class="st9" d="M115.8,115.9c-0.1-0.1-0.1-0.3-0.2-0.5c-0.3-0.9-0.3-1.8,0-2.7c0.7,0.1,1.4,0.2,2.2,0c0.9,1.8,0.6,2.5-1.4,2.9   C116.1,115.7,116,115.8,115.8,115.9z"/>
	<path class="st9" d="M117.2,106.9c1.1-0.1,2.3-0.2,2.4-1.8c1,0.2,1.4,0.9,1.3,1.8c-0.1,1-0.9,1.6-1.9,1.6   C118,108.4,117.2,108,117.2,106.9z"/>
	<path class="st9" d="M109.4,115.4c-0.3-0.1-0.6-0.1-0.9-0.2c-2.1-0.8-2.3-2.1-0.9-3.9C108.5,112.6,109.1,114.1,109.4,115.4z"/>
	<path class="st9" d="M110.1,111.9c0.9,0.6,1.9,1.1,3,0.2c0.7,0.2,0.5,0.9,0.5,1.4c-0.1,0.5-0.6,0.6-0.9,0.6   C110.9,114.2,110.2,113.5,110.1,111.9z"/>
	<path class="st9" d="M118.5,102.3c0.6,0.3,1,0.7,1.6,1c-0.2,0.5-0.7,0.6-1.1,0.5C118.3,103.6,118.5,102.9,118.5,102.3z"/>
	<path class="st9" d="M119.6,105c-0.1-0.1-0.2-0.2-0.3-0.2C119.3,104.8,119.5,104.9,119.6,105z"/>
	<path class="st0" d="M142,53.3c0,2.3-1,3.1-3.1,2.5c-0.3-0.1-0.8-0.3-1.1-0.1c-0.5,0.3,0,0.8,0,1.3c0.2,1.1,0.7,2.2,0.3,3.4   c-0.6,1.8-2.1,2.4-3.7,1.1c-0.9-0.8-1.1-1.8-1.3-3c0-0.6,0.1-1.3-0.6-1.5c-0.6-0.2-0.9,0.3-1.4,0.6c-0.9,0.7-1.7,0.7-2.6,0   c-1.5-1.1-2.1-3.1-1.3-4.8c0.7-1.6,2.1-2.1,3.5-1.3c0.3,0.2,0.6,0.8,1.1,0.2c0.5-0.5,0.5-0.9,0.1-1.4c-0.6-0.8-0.8-1.7-0.9-2.7   c-0.3-2.1,0.8-3.4,3-3.9c1.5-0.2,2.5,0.8,2.7,2.9c0,0.1,0,0.2,0,0.3c0.2,2.2,0.2,2.2,2.4,2.3c1,0,1.6,0.7,1.9,1.5   C141.8,51.7,142,52.7,142,53.3z M137.5,51.4c-1.6,0.1-2.3-0.7-2.1-2.2c0.1-0.5,0.2-0.9,0.3-1.4c0.1-0.8-0.1-1.5-1-1.7   c-1-0.1-1.4,0.6-1.4,1.5c-0.1,0.9,0.2,1.8,0.6,2.6c0.3,0.6,0.6,1.1,0.5,1.9c-0.1,1.5-0.9,2.1-2.3,1.5c-0.6-0.2-1.1-0.6-1.7-0.7   c-0.7-0.1-1.4,0-1.7,0.6c-0.3,0.6-0.2,1.3,0.2,1.8c0.7,1.1,1.6,1.3,2.6,0.3c0.6-0.6,1.1-1.3,2.1-0.8c0.9,0.3,1,1.3,1.1,2.1   c0,0.5,0,0.9,0.1,1.4c0.2,0.8,0.5,2.1,1.4,1.9c0.9-0.2,0.7-1.5,0.6-2.3c-0.2-1-0.6-1.9-0.8-3c-0.2-1.1,0.5-1.8,1.7-1.7   c0.6,0,1,0.2,1.5,0.6c0.3,0.3,0.7,0.5,1.1,0.1c0.5-0.3,0.7-0.7,0.6-1.3c-0.2-1-0.9-1.6-1.9-1.6C138.3,51.3,137.8,51.4,137.5,51.4z"/>
	<path class="st14" d="M137.5,51.4c0.3,0,0.8-0.1,1.3-0.1c1.1,0,1.7,0.6,1.9,1.6c0.1,0.6-0.1,0.9-0.6,1.3c-0.5,0.3-0.8,0.2-1.1-0.1   c-0.5-0.3-0.9-0.6-1.5-0.6c-1.1-0.1-1.9,0.6-1.7,1.7c0.1,1,0.6,1.9,0.8,3c0.2,0.9,0.3,2.2-0.6,2.3c-0.9,0.2-1.1-1.1-1.4-1.9   c-0.1-0.3,0-0.9-0.1-1.4c-0.1-0.8-0.1-1.7-1.1-2.1c-0.9-0.3-1.5,0.3-2.1,0.8c-1,0.9-1.8,0.8-2.6-0.3c-0.5-0.6-0.6-1.3-0.2-1.8   c0.3-0.6,1.1-0.8,1.7-0.6c0.6,0.1,1.1,0.5,1.7,0.7c1.4,0.6,2.2,0,2.3-1.5c0-0.7-0.2-1.3-0.5-1.9c-0.5-0.8-0.7-1.7-0.6-2.6   c0.1-0.9,0.3-1.6,1.4-1.5c1,0.1,1.1,0.8,1,1.7c-0.1,0.5-0.2,0.9-0.3,1.4C135.2,50.7,135.9,51.5,137.5,51.4z"/>
</g>
</svg>